%TF.GenerationSoftware,KiCad,Pcbnew,9.0.3*%
%TF.CreationDate,2025-09-17T23:32:25+02:00*%
%TF.ProjectId,Wear Camera,57656172-2043-4616-9d65-72612e6b6963,rev?*%
%TF.SameCoordinates,Original*%
%TF.FileFunction,Soldermask,Bot*%
%TF.FilePolarity,Negative*%
%FSLAX46Y46*%
G04 Gerber Fmt 4.6, Leading zero omitted, Abs format (unit mm)*
G04 Created by KiCad (PCBNEW 9.0.3) date 2025-09-17 23:32:25*
%MOMM*%
%LPD*%
G01*
G04 APERTURE LIST*
G04 Aperture macros list*
%AMRoundRect*
0 Rectangle with rounded corners*
0 $1 Rounding radius*
0 $2 $3 $4 $5 $6 $7 $8 $9 X,Y pos of 4 corners*
0 Add a 4 corners polygon primitive as box body*
4,1,4,$2,$3,$4,$5,$6,$7,$8,$9,$2,$3,0*
0 Add four circle primitives for the rounded corners*
1,1,$1+$1,$2,$3*
1,1,$1+$1,$4,$5*
1,1,$1+$1,$6,$7*
1,1,$1+$1,$8,$9*
0 Add four rect primitives between the rounded corners*
20,1,$1+$1,$2,$3,$4,$5,0*
20,1,$1+$1,$4,$5,$6,$7,0*
20,1,$1+$1,$6,$7,$8,$9,0*
20,1,$1+$1,$8,$9,$2,$3,0*%
%AMFreePoly0*
4,1,23,0.500000,-0.750000,0.000000,-0.750000,0.000000,-0.745722,-0.065263,-0.745722,-0.191342,-0.711940,-0.304381,-0.646677,-0.396677,-0.554381,-0.461940,-0.441342,-0.495722,-0.315263,-0.495722,-0.250000,-0.500000,-0.250000,-0.500000,0.250000,-0.495722,0.250000,-0.495722,0.315263,-0.461940,0.441342,-0.396677,0.554381,-0.304381,0.646677,-0.191342,0.711940,-0.065263,0.745722,0.000000,0.745722,
0.000000,0.750000,0.500000,0.750000,0.500000,-0.750000,0.500000,-0.750000,$1*%
%AMFreePoly1*
4,1,23,0.000000,0.745722,0.065263,0.745722,0.191342,0.711940,0.304381,0.646677,0.396677,0.554381,0.461940,0.441342,0.495722,0.315263,0.495722,0.250000,0.500000,0.250000,0.500000,-0.250000,0.495722,-0.250000,0.495722,-0.315263,0.461940,-0.441342,0.396677,-0.554381,0.304381,-0.646677,0.191342,-0.711940,0.065263,-0.745722,0.000000,-0.745722,0.000000,-0.750000,-0.500000,-0.750000,
-0.500000,0.750000,0.000000,0.750000,0.000000,0.745722,0.000000,0.745722,$1*%
%AMFreePoly2*
4,1,23,0.550000,-0.750000,0.000000,-0.750000,0.000000,-0.745722,-0.065263,-0.745722,-0.191342,-0.711940,-0.304381,-0.646677,-0.396677,-0.554381,-0.461940,-0.441342,-0.495722,-0.315263,-0.495722,-0.250000,-0.500000,-0.250000,-0.500000,0.250000,-0.495722,0.250000,-0.495722,0.315263,-0.461940,0.441342,-0.396677,0.554381,-0.304381,0.646677,-0.191342,0.711940,-0.065263,0.745722,0.000000,0.745722,
0.000000,0.750000,0.550000,0.750000,0.550000,-0.750000,0.550000,-0.750000,$1*%
%AMFreePoly3*
4,1,23,0.000000,0.745722,0.065263,0.745722,0.191342,0.711940,0.304381,0.646677,0.396677,0.554381,0.461940,0.441342,0.495722,0.315263,0.495722,0.250000,0.500000,0.250000,0.500000,-0.250000,0.495722,-0.250000,0.495722,-0.315263,0.461940,-0.441342,0.396677,-0.554381,0.304381,-0.646677,0.191342,-0.711940,0.065263,-0.745722,0.000000,-0.745722,0.000000,-0.750000,-0.550000,-0.750000,
-0.550000,0.750000,0.000000,0.750000,0.000000,0.745722,0.000000,0.745722,$1*%
G04 Aperture macros list end*
%ADD10O,2.352400X1.152400*%
%ADD11O,1.952400X1.152400*%
%ADD12RoundRect,0.250000X0.350000X0.450000X-0.350000X0.450000X-0.350000X-0.450000X0.350000X-0.450000X0*%
%ADD13RoundRect,0.375000X0.375000X-0.625000X0.375000X0.625000X-0.375000X0.625000X-0.375000X-0.625000X0*%
%ADD14RoundRect,0.500000X1.400000X-0.500000X1.400000X0.500000X-1.400000X0.500000X-1.400000X-0.500000X0*%
%ADD15RoundRect,0.135000X0.185000X-0.135000X0.185000X0.135000X-0.185000X0.135000X-0.185000X-0.135000X0*%
%ADD16RoundRect,0.135000X-0.135000X-0.185000X0.135000X-0.185000X0.135000X0.185000X-0.135000X0.185000X0*%
%ADD17RoundRect,0.140000X0.140000X0.170000X-0.140000X0.170000X-0.140000X-0.170000X0.140000X-0.170000X0*%
%ADD18R,1.000000X1.000000*%
%ADD19RoundRect,0.135000X0.135000X0.185000X-0.135000X0.185000X-0.135000X-0.185000X0.135000X-0.185000X0*%
%ADD20RoundRect,0.150000X-0.150000X0.512500X-0.150000X-0.512500X0.150000X-0.512500X0.150000X0.512500X0*%
%ADD21RoundRect,0.147500X-0.172500X0.147500X-0.172500X-0.147500X0.172500X-0.147500X0.172500X0.147500X0*%
%ADD22RoundRect,0.102000X1.590000X1.590000X-1.590000X1.590000X-1.590000X-1.590000X1.590000X-1.590000X0*%
%ADD23RoundRect,0.102000X1.980000X1.980000X-1.980000X1.980000X-1.980000X-1.980000X1.980000X-1.980000X0*%
%ADD24FreePoly0,180.000000*%
%ADD25FreePoly1,180.000000*%
%ADD26RoundRect,0.140000X0.170000X-0.140000X0.170000X0.140000X-0.170000X0.140000X-0.170000X-0.140000X0*%
%ADD27R,0.711200X1.092200*%
%ADD28R,0.889000X0.939800*%
%ADD29R,1.041400X0.787400*%
%ADD30R,1.143000X1.828800*%
%ADD31R,0.711200X3.327400*%
%ADD32R,0.863600X2.794000*%
%ADD33RoundRect,0.140000X-0.170000X0.140000X-0.170000X-0.140000X0.170000X-0.140000X0.170000X0.140000X0*%
%ADD34FreePoly2,180.000000*%
%ADD35R,1.000000X1.500000*%
%ADD36FreePoly3,180.000000*%
G04 APERTURE END LIST*
%TO.C,JP1*%
G36*
X92150000Y-126143800D02*
G01*
X91850000Y-126143800D01*
X91850000Y-127643800D01*
X92150000Y-127643800D01*
X92150000Y-126143800D01*
G37*
%TO.C,JP2*%
G36*
X96750000Y-112793800D02*
G01*
X96450000Y-112793800D01*
X96450000Y-114293800D01*
X96750000Y-114293800D01*
X96750000Y-112793800D01*
G37*
%TO.C,JP5*%
G36*
X82600000Y-122493800D02*
G01*
X81100000Y-122493800D01*
X81100000Y-123993800D01*
X82600000Y-123993800D01*
X82600000Y-122493800D01*
G37*
%TD*%
D10*
%TO.C,U9*%
X78375000Y-103323800D03*
X78375000Y-111963800D03*
D11*
X82375000Y-103323800D03*
X82375000Y-111963800D03*
%TD*%
D12*
%TO.C,R25*%
X80600000Y-108843800D03*
X78600000Y-108843800D03*
%TD*%
D13*
%TO.C,U1*%
X90550000Y-109993800D03*
X88250000Y-109993800D03*
D14*
X88250000Y-103693800D03*
D13*
X85950000Y-109993800D03*
%TD*%
D12*
%TO.C,R24*%
X80600000Y-106593800D03*
X78600000Y-106593800D03*
%TD*%
D15*
%TO.C,R4*%
X109350000Y-99903800D03*
X109350000Y-98883800D03*
%TD*%
D16*
%TO.C,R11*%
X80540000Y-125293800D03*
X81560000Y-125293800D03*
%TD*%
%TO.C,R5*%
X103430000Y-105443800D03*
X104450000Y-105443800D03*
%TD*%
D17*
%TO.C,C22*%
X83950000Y-109993800D03*
X82990000Y-109993800D03*
%TD*%
D16*
%TO.C,R12*%
X88540000Y-117418800D03*
X89560000Y-117418800D03*
%TD*%
D18*
%TO.C,TP2*%
X116490000Y-120723800D03*
%TD*%
D19*
%TO.C,R6*%
X102310000Y-105443800D03*
X101290000Y-105443800D03*
%TD*%
D16*
%TO.C,R15*%
X88540000Y-116243800D03*
X89560000Y-116243800D03*
%TD*%
D20*
%TO.C,U6*%
X92100000Y-114606300D03*
X93050000Y-114606300D03*
X94000000Y-114606300D03*
X94000000Y-116881300D03*
X92100000Y-116881300D03*
%TD*%
D15*
%TO.C,R13*%
X89400000Y-98853800D03*
X89400000Y-97833800D03*
%TD*%
D19*
%TO.C,R23*%
X94260000Y-112493800D03*
X93240000Y-112493800D03*
%TD*%
D21*
%TO.C,D2*%
X89400000Y-95758800D03*
X89400000Y-96728800D03*
%TD*%
D16*
%TO.C,R29*%
X99180000Y-105443800D03*
X100200000Y-105443800D03*
%TD*%
D22*
%TO.C,BT1*%
X109750000Y-121943800D03*
X94010000Y-121943800D03*
D23*
X101880000Y-121943800D03*
%TD*%
D24*
%TO.C,JP1*%
X92650000Y-126893800D03*
D25*
X91350000Y-126893800D03*
%TD*%
D26*
%TO.C,C15*%
X83400000Y-96543800D03*
X83400000Y-95583800D03*
%TD*%
D24*
%TO.C,JP2*%
X97250000Y-113543800D03*
D25*
X95950000Y-113543800D03*
%TD*%
D26*
%TO.C,C11*%
X92100000Y-112693800D03*
X92100000Y-111733800D03*
%TD*%
D19*
%TO.C,R2*%
X98110000Y-105443800D03*
X97090000Y-105443800D03*
%TD*%
%TO.C,R28*%
X81920000Y-117243800D03*
X80900000Y-117243800D03*
%TD*%
D27*
%TO.C,J3*%
X103725000Y-91453801D03*
X102625000Y-91453801D03*
X101525000Y-91453801D03*
X100424999Y-91453801D03*
X99324999Y-91453801D03*
X98224999Y-91453801D03*
X97124998Y-91453801D03*
X96025000Y-91453801D03*
D28*
X105515000Y-103918800D03*
D29*
X101250000Y-103993800D03*
D30*
X107605000Y-91468800D03*
D31*
X107825000Y-102718800D03*
X94865000Y-102718800D03*
D32*
X94945000Y-91953800D03*
%TD*%
D33*
%TO.C,C23*%
X88300000Y-111833800D03*
X88300000Y-112793800D03*
%TD*%
D34*
%TO.C,JP5*%
X83150000Y-123243800D03*
D35*
X81850000Y-123243800D03*
D36*
X80550000Y-123243800D03*
%TD*%
D16*
%TO.C,R3*%
X95990000Y-106543800D03*
X97010000Y-106543800D03*
%TD*%
M02*
