%TF.GenerationSoftware,KiCad,Pcbnew,9.0.3*%
%TF.CreationDate,2025-09-17T23:32:25+02:00*%
%TF.ProjectId,Wear Camera,57656172-2043-4616-9d65-72612e6b6963,rev?*%
%TF.SameCoordinates,Original*%
%TF.FileFunction,Profile,NP*%
%FSLAX46Y46*%
G04 Gerber Fmt 4.6, Leading zero omitted, Abs format (unit mm)*
G04 Created by KiCad (PCBNEW 9.0.3) date 2025-09-17 23:32:25*
%MOMM*%
%LPD*%
G01*
G04 APERTURE LIST*
%TA.AperFunction,Profile*%
%ADD10C,0.050000*%
%TD*%
G04 APERTURE END LIST*
D10*
X76740000Y-78860000D02*
G75*
G02*
X75740000Y-78860000I-500000J0D01*
G01*
X75740000Y-78860000D02*
G75*
G02*
X76740000Y-78860000I500000J0D01*
G01*
X76740000Y-76300000D02*
G75*
G02*
X75740000Y-76300000I-500000J0D01*
G01*
X75740000Y-76300000D02*
G75*
G02*
X76740000Y-76300000I500000J0D01*
G01*
X76740000Y-77590000D02*
G75*
G02*
X75740000Y-77590000I-500000J0D01*
G01*
X75740000Y-77590000D02*
G75*
G02*
X76740000Y-77590000I500000J0D01*
G01*
X76740000Y-80200000D02*
G75*
G02*
X75740000Y-80200000I-500000J0D01*
G01*
X75740000Y-80200000D02*
G75*
G02*
X76740000Y-80200000I500000J0D01*
G01*
X76740000Y-75020000D02*
G75*
G02*
X75740000Y-75020000I-500000J0D01*
G01*
X75740000Y-75020000D02*
G75*
G02*
X76740000Y-75020000I500000J0D01*
G01*
X76740000Y-140870000D02*
G75*
G02*
X75740000Y-140870000I-500000J0D01*
G01*
X75740000Y-140870000D02*
G75*
G02*
X76740000Y-140870000I500000J0D01*
G01*
X76740000Y-143480000D02*
G75*
G02*
X75740000Y-143480000I-500000J0D01*
G01*
X75740000Y-143480000D02*
G75*
G02*
X76740000Y-143480000I500000J0D01*
G01*
X76740000Y-139580000D02*
G75*
G02*
X75740000Y-139580000I-500000J0D01*
G01*
X75740000Y-139580000D02*
G75*
G02*
X76740000Y-139580000I500000J0D01*
G01*
X76740000Y-138240000D02*
G75*
G02*
X75740000Y-138240000I-500000J0D01*
G01*
X75740000Y-138240000D02*
G75*
G02*
X76740000Y-138240000I500000J0D01*
G01*
X76740000Y-142140000D02*
G75*
G02*
X75740000Y-142140000I-500000J0D01*
G01*
X75740000Y-142140000D02*
G75*
G02*
X76740000Y-142140000I500000J0D01*
G01*
X71800000Y-137440000D02*
X123200000Y-137450000D01*
X119260000Y-142170000D02*
G75*
G02*
X118260000Y-142170000I-500000J0D01*
G01*
X118260000Y-142170000D02*
G75*
G02*
X119260000Y-142170000I500000J0D01*
G01*
X119260000Y-139610000D02*
G75*
G02*
X118260000Y-139610000I-500000J0D01*
G01*
X118260000Y-139610000D02*
G75*
G02*
X119260000Y-139610000I500000J0D01*
G01*
X119260000Y-140900000D02*
G75*
G02*
X118260000Y-140900000I-500000J0D01*
G01*
X118260000Y-140900000D02*
G75*
G02*
X119260000Y-140900000I500000J0D01*
G01*
X119260000Y-143510000D02*
G75*
G02*
X118260000Y-143510000I-500000J0D01*
G01*
X118260000Y-143510000D02*
G75*
G02*
X119260000Y-143510000I500000J0D01*
G01*
X119260000Y-138270000D02*
G75*
G02*
X118260000Y-138270000I-500000J0D01*
G01*
X118260000Y-138270000D02*
G75*
G02*
X119260000Y-138270000I500000J0D01*
G01*
X119260000Y-74950000D02*
G75*
G02*
X118260000Y-74950000I-500000J0D01*
G01*
X118260000Y-74950000D02*
G75*
G02*
X119260000Y-74950000I500000J0D01*
G01*
X119260000Y-76230000D02*
G75*
G02*
X118260000Y-76230000I-500000J0D01*
G01*
X118260000Y-76230000D02*
G75*
G02*
X119260000Y-76230000I500000J0D01*
G01*
X119260000Y-77520000D02*
G75*
G02*
X118260000Y-77520000I-500000J0D01*
G01*
X118260000Y-77520000D02*
G75*
G02*
X119260000Y-77520000I500000J0D01*
G01*
X119260000Y-78790000D02*
G75*
G02*
X118260000Y-78790000I-500000J0D01*
G01*
X118260000Y-78790000D02*
G75*
G02*
X119260000Y-78790000I500000J0D01*
G01*
X119260000Y-80130000D02*
G75*
G02*
X118260000Y-80130000I-500000J0D01*
G01*
X118260000Y-80130000D02*
G75*
G02*
X119260000Y-80130000I500000J0D01*
G01*
X123200000Y-80860000D02*
X123200000Y-97240000D01*
X71800000Y-80860000D02*
X123200000Y-80860000D01*
X71800000Y-97250000D02*
X71800000Y-80860000D01*
X123200000Y-120970000D02*
X123200000Y-137450000D01*
X71800000Y-120970000D02*
X71800000Y-137440000D01*
X62315000Y-74208800D02*
X133200000Y-74208800D01*
X133200000Y-144348800D01*
X62315000Y-144348800D01*
X62315000Y-74208800D01*
X76750000Y-90793800D02*
G75*
G02*
X77900000Y-89643800I1150000J0D01*
G01*
X76750000Y-101253800D02*
X76750000Y-116973800D01*
X76740000Y-98003800D02*
G75*
G02*
X75740000Y-98003800I-500000J0D01*
G01*
X75740000Y-98003800D02*
G75*
G02*
X76740000Y-98003800I500000J0D01*
G01*
X76740000Y-100503800D02*
G75*
G02*
X75740000Y-100503800I-500000J0D01*
G01*
X75740000Y-100503800D02*
G75*
G02*
X76740000Y-100503800I500000J0D01*
G01*
X76740000Y-99253800D02*
G75*
G02*
X75740000Y-99253800I-500000J0D01*
G01*
X75740000Y-99253800D02*
G75*
G02*
X76740000Y-99253800I500000J0D01*
G01*
X76740000Y-120223800D02*
G75*
G02*
X75740000Y-120223800I-500000J0D01*
G01*
X75740000Y-120223800D02*
G75*
G02*
X76740000Y-120223800I500000J0D01*
G01*
X76740000Y-118973800D02*
G75*
G02*
X75740000Y-118973800I-500000J0D01*
G01*
X75740000Y-118973800D02*
G75*
G02*
X76740000Y-118973800I500000J0D01*
G01*
X76750000Y-127423800D02*
X76750000Y-120970000D01*
X76750000Y-97250000D02*
X71800000Y-97250000D01*
X76750000Y-101253800D02*
X71800000Y-101253800D01*
X76750000Y-97250000D02*
X76750000Y-90793800D01*
X71800000Y-101253800D02*
X71800000Y-116973800D01*
X76740000Y-117723800D02*
G75*
G02*
X75740000Y-117723800I-500000J0D01*
G01*
X75740000Y-117723800D02*
G75*
G02*
X76740000Y-117723800I500000J0D01*
G01*
X76750000Y-116973800D02*
X71800000Y-116973800D01*
X76750000Y-120970000D02*
X71800000Y-120970000D01*
X119260000Y-117713800D02*
G75*
G02*
X118260000Y-117713800I-500000J0D01*
G01*
X118260000Y-117713800D02*
G75*
G02*
X119260000Y-117713800I500000J0D01*
G01*
X119260000Y-118963800D02*
G75*
G02*
X118260000Y-118963800I-500000J0D01*
G01*
X118260000Y-118963800D02*
G75*
G02*
X119260000Y-118963800I500000J0D01*
G01*
X119260000Y-120213800D02*
G75*
G02*
X118260000Y-120213800I-500000J0D01*
G01*
X118260000Y-120213800D02*
G75*
G02*
X119260000Y-120213800I500000J0D01*
G01*
X119260000Y-100493800D02*
G75*
G02*
X118260000Y-100493800I-500000J0D01*
G01*
X118260000Y-100493800D02*
G75*
G02*
X119260000Y-100493800I500000J0D01*
G01*
X119260000Y-99243800D02*
G75*
G02*
X118260000Y-99243800I-500000J0D01*
G01*
X118260000Y-99243800D02*
G75*
G02*
X119260000Y-99243800I500000J0D01*
G01*
X119260000Y-97993800D02*
G75*
G02*
X118260000Y-97993800I-500000J0D01*
G01*
X118260000Y-97993800D02*
G75*
G02*
X119260000Y-97993800I500000J0D01*
G01*
X123200000Y-116963800D02*
X123200000Y-101243800D01*
X118250000Y-116963800D02*
X123200000Y-116963800D01*
X118250000Y-120970000D02*
X123200000Y-120970000D01*
X118250000Y-120970000D02*
X118250000Y-127423800D01*
X118250000Y-90793800D02*
X118250000Y-97240000D01*
X118250000Y-101243800D02*
X123200000Y-101243800D01*
X118250000Y-97240000D02*
X123200000Y-97240000D01*
X77900000Y-128573800D02*
X117100000Y-128573800D01*
X117050000Y-124743800D02*
G75*
G02*
X111650000Y-124743800I-2700000J0D01*
G01*
X111650000Y-124743800D02*
G75*
G02*
X117050000Y-124743800I2700000J0D01*
G01*
X77900000Y-128573800D02*
G75*
G02*
X76750000Y-127423800I0J1150000D01*
G01*
X118250000Y-116963800D02*
X118250000Y-101243800D01*
X79500000Y-99353800D02*
G75*
G02*
X77500000Y-99353800I-1000000J0D01*
G01*
X77500000Y-99353800D02*
G75*
G02*
X79500000Y-99353800I1000000J0D01*
G01*
X117400000Y-93543800D02*
G75*
G02*
X112400000Y-93543800I-2500000J0D01*
G01*
X112400000Y-93543800D02*
G75*
G02*
X117400000Y-93543800I2500000J0D01*
G01*
X118250000Y-127423800D02*
G75*
G02*
X117100000Y-128573800I-1150000J0D01*
G01*
X77900000Y-89643800D02*
X117100000Y-89643800D01*
X117100000Y-89643800D02*
G75*
G02*
X118250000Y-90793800I0J-1150000D01*
G01*
M02*
