%TF.GenerationSoftware,KiCad,Pcbnew,9.0.3*%
%TF.CreationDate,2025-09-17T23:32:25+02:00*%
%TF.ProjectId,Wear Camera,57656172-2043-4616-9d65-72612e6b6963,rev?*%
%TF.SameCoordinates,Original*%
%TF.FileFunction,Soldermask,Top*%
%TF.FilePolarity,Negative*%
%FSLAX46Y46*%
G04 Gerber Fmt 4.6, Leading zero omitted, Abs format (unit mm)*
G04 Created by KiCad (PCBNEW 9.0.3) date 2025-09-17 23:32:25*
%MOMM*%
%LPD*%
G01*
G04 APERTURE LIST*
G04 Aperture macros list*
%AMRoundRect*
0 Rectangle with rounded corners*
0 $1 Rounding radius*
0 $2 $3 $4 $5 $6 $7 $8 $9 X,Y pos of 4 corners*
0 Add a 4 corners polygon primitive as box body*
4,1,4,$2,$3,$4,$5,$6,$7,$8,$9,$2,$3,0*
0 Add four circle primitives for the rounded corners*
1,1,$1+$1,$2,$3*
1,1,$1+$1,$4,$5*
1,1,$1+$1,$6,$7*
1,1,$1+$1,$8,$9*
0 Add four rect primitives between the rounded corners*
20,1,$1+$1,$2,$3,$4,$5,0*
20,1,$1+$1,$4,$5,$6,$7,0*
20,1,$1+$1,$6,$7,$8,$9,0*
20,1,$1+$1,$8,$9,$2,$3,0*%
G04 Aperture macros list end*
%ADD10C,0.010000*%
%ADD11RoundRect,0.135000X0.135000X0.185000X-0.135000X0.185000X-0.135000X-0.185000X0.135000X-0.185000X0*%
%ADD12RoundRect,0.135000X-0.135000X-0.185000X0.135000X-0.185000X0.135000X0.185000X-0.135000X0.185000X0*%
%ADD13RoundRect,0.135000X0.185000X-0.135000X0.185000X0.135000X-0.185000X0.135000X-0.185000X-0.135000X0*%
%ADD14RoundRect,0.140000X0.170000X-0.140000X0.170000X0.140000X-0.170000X0.140000X-0.170000X-0.140000X0*%
%ADD15RoundRect,0.140000X-0.170000X0.140000X-0.170000X-0.140000X0.170000X-0.140000X0.170000X0.140000X0*%
%ADD16RoundRect,0.135000X-0.185000X0.135000X-0.185000X-0.135000X0.185000X-0.135000X0.185000X0.135000X0*%
%ADD17RoundRect,0.062500X0.062500X-0.375000X0.062500X0.375000X-0.062500X0.375000X-0.062500X-0.375000X0*%
%ADD18RoundRect,0.062500X0.375000X-0.062500X0.375000X0.062500X-0.375000X0.062500X-0.375000X-0.062500X0*%
%ADD19R,1.600000X1.600000*%
%ADD20RoundRect,0.250000X-0.412500X-1.100000X0.412500X-1.100000X0.412500X1.100000X-0.412500X1.100000X0*%
%ADD21RoundRect,0.150000X0.150000X-0.825000X0.150000X0.825000X-0.150000X0.825000X-0.150000X-0.825000X0*%
%ADD22RoundRect,0.102000X0.275000X-0.275000X0.275000X0.275000X-0.275000X0.275000X-0.275000X-0.275000X0*%
%ADD23RoundRect,0.087500X0.225000X0.087500X-0.225000X0.087500X-0.225000X-0.087500X0.225000X-0.087500X0*%
%ADD24RoundRect,0.087500X0.087500X0.225000X-0.087500X0.225000X-0.087500X-0.225000X0.087500X-0.225000X0*%
%ADD25RoundRect,0.250000X1.100000X-0.412500X1.100000X0.412500X-1.100000X0.412500X-1.100000X-0.412500X0*%
%ADD26RoundRect,0.140000X-0.140000X-0.170000X0.140000X-0.170000X0.140000X0.170000X-0.140000X0.170000X0*%
%ADD27RoundRect,0.102000X0.125000X0.550000X-0.125000X0.550000X-0.125000X-0.550000X0.125000X-0.550000X0*%
%ADD28RoundRect,0.102000X0.850000X0.750000X-0.850000X0.750000X-0.850000X-0.750000X0.850000X-0.750000X0*%
%ADD29O,2.352400X1.152400*%
%ADD30O,1.952400X1.152400*%
%ADD31R,1.000000X1.000000*%
%ADD32RoundRect,0.147500X-0.147500X-0.172500X0.147500X-0.172500X0.147500X0.172500X-0.147500X0.172500X0*%
%ADD33RoundRect,0.102000X0.275000X0.275000X-0.275000X0.275000X-0.275000X-0.275000X0.275000X-0.275000X0*%
%ADD34R,1.500000X0.900000*%
%ADD35R,0.900000X1.500000*%
%ADD36C,0.600000*%
%ADD37R,3.900000X3.900000*%
%ADD38RoundRect,0.150000X-0.512500X-0.150000X0.512500X-0.150000X0.512500X0.150000X-0.512500X0.150000X0*%
%ADD39RoundRect,0.150000X-0.150000X-0.625000X0.150000X-0.625000X0.150000X0.625000X-0.150000X0.625000X0*%
%ADD40RoundRect,0.250000X-0.350000X-0.650000X0.350000X-0.650000X0.350000X0.650000X-0.350000X0.650000X0*%
G04 APERTURE END LIST*
D10*
%TO.C,U9*%
X83588500Y-104802300D02*
X82311500Y-104802300D01*
X82311500Y-104085300D01*
X83588500Y-104085300D01*
X83588500Y-104802300D01*
G36*
X83588500Y-104802300D02*
G01*
X82311500Y-104802300D01*
X82311500Y-104085300D01*
X83588500Y-104085300D01*
X83588500Y-104802300D01*
G37*
X83588500Y-105602300D02*
X82311500Y-105602300D01*
X82311500Y-104885300D01*
X83588500Y-104885300D01*
X83588500Y-105602300D01*
G36*
X83588500Y-105602300D02*
G01*
X82311500Y-105602300D01*
X82311500Y-104885300D01*
X83588500Y-104885300D01*
X83588500Y-105602300D01*
G37*
X83588500Y-106106300D02*
X82311500Y-106106300D01*
X82311500Y-105681300D01*
X83588500Y-105681300D01*
X83588500Y-106106300D01*
G36*
X83588500Y-106106300D02*
G01*
X82311500Y-106106300D01*
X82311500Y-105681300D01*
X83588500Y-105681300D01*
X83588500Y-106106300D01*
G37*
X83588500Y-106606300D02*
X82311500Y-106606300D01*
X82311500Y-106181300D01*
X83588500Y-106181300D01*
X83588500Y-106606300D01*
G36*
X83588500Y-106606300D02*
G01*
X82311500Y-106606300D01*
X82311500Y-106181300D01*
X83588500Y-106181300D01*
X83588500Y-106606300D01*
G37*
X83588500Y-107106300D02*
X82311500Y-107106300D01*
X82311500Y-106681300D01*
X83588500Y-106681300D01*
X83588500Y-107106300D01*
G36*
X83588500Y-107106300D02*
G01*
X82311500Y-107106300D01*
X82311500Y-106681300D01*
X83588500Y-106681300D01*
X83588500Y-107106300D01*
G37*
X83588500Y-107606300D02*
X82311500Y-107606300D01*
X82311500Y-107181300D01*
X83588500Y-107181300D01*
X83588500Y-107606300D01*
G36*
X83588500Y-107606300D02*
G01*
X82311500Y-107606300D01*
X82311500Y-107181300D01*
X83588500Y-107181300D01*
X83588500Y-107606300D01*
G37*
X83588500Y-108106300D02*
X82311500Y-108106300D01*
X82311500Y-107681300D01*
X83588500Y-107681300D01*
X83588500Y-108106300D01*
G36*
X83588500Y-108106300D02*
G01*
X82311500Y-108106300D01*
X82311500Y-107681300D01*
X83588500Y-107681300D01*
X83588500Y-108106300D01*
G37*
X83588500Y-108606300D02*
X82311500Y-108606300D01*
X82311500Y-108181300D01*
X83588500Y-108181300D01*
X83588500Y-108606300D01*
G36*
X83588500Y-108606300D02*
G01*
X82311500Y-108606300D01*
X82311500Y-108181300D01*
X83588500Y-108181300D01*
X83588500Y-108606300D01*
G37*
X83588500Y-109106300D02*
X82311500Y-109106300D01*
X82311500Y-108681300D01*
X83588500Y-108681300D01*
X83588500Y-109106300D01*
G36*
X83588500Y-109106300D02*
G01*
X82311500Y-109106300D01*
X82311500Y-108681300D01*
X83588500Y-108681300D01*
X83588500Y-109106300D01*
G37*
X83588500Y-109606300D02*
X82311500Y-109606300D01*
X82311500Y-109181300D01*
X83588500Y-109181300D01*
X83588500Y-109606300D01*
G36*
X83588500Y-109606300D02*
G01*
X82311500Y-109606300D01*
X82311500Y-109181300D01*
X83588500Y-109181300D01*
X83588500Y-109606300D01*
G37*
X83588500Y-110402300D02*
X82311500Y-110402300D01*
X82311500Y-109685300D01*
X83588500Y-109685300D01*
X83588500Y-110402300D01*
G36*
X83588500Y-110402300D02*
G01*
X82311500Y-110402300D01*
X82311500Y-109685300D01*
X83588500Y-109685300D01*
X83588500Y-110402300D01*
G37*
X83588500Y-111202300D02*
X82311500Y-111202300D01*
X82311500Y-110485300D01*
X83588500Y-110485300D01*
X83588500Y-111202300D01*
G36*
X83588500Y-111202300D02*
G01*
X82311500Y-111202300D01*
X82311500Y-110485300D01*
X83588500Y-110485300D01*
X83588500Y-111202300D01*
G37*
%TD*%
D11*
%TO.C,R18*%
X108560000Y-111193800D03*
X107540000Y-111193800D03*
%TD*%
D12*
%TO.C,R22*%
X78040000Y-120993800D03*
X79060000Y-120993800D03*
%TD*%
D13*
%TO.C,R1*%
X95650000Y-115103800D03*
X95650000Y-114083800D03*
%TD*%
D14*
%TO.C,C5*%
X95400000Y-127543800D03*
X95400000Y-126583800D03*
%TD*%
D15*
%TO.C,C9*%
X91250000Y-116513800D03*
X91250000Y-117473800D03*
%TD*%
D16*
%TO.C,R10*%
X86050000Y-102583800D03*
X86050000Y-103603800D03*
%TD*%
D13*
%TO.C,R31*%
X82750000Y-94103800D03*
X82750000Y-93083800D03*
%TD*%
D17*
%TO.C,U11*%
X84200000Y-118593800D03*
X84700000Y-118593800D03*
X85200000Y-118593800D03*
X85700000Y-118593800D03*
D18*
X86387500Y-117906300D03*
X86387500Y-117406300D03*
X86387500Y-116906300D03*
X86387500Y-116406300D03*
D17*
X85700000Y-115718800D03*
X85200000Y-115718800D03*
X84700000Y-115718800D03*
X84200000Y-115718800D03*
D18*
X83512500Y-116406300D03*
X83512500Y-116906300D03*
X83512500Y-117406300D03*
X83512500Y-117906300D03*
D19*
X84950000Y-117156300D03*
%TD*%
D15*
%TO.C,C14*%
X82750000Y-90713800D03*
X82750000Y-91673800D03*
%TD*%
%TO.C,C4*%
X94300000Y-126543800D03*
X94300000Y-127503800D03*
%TD*%
D11*
%TO.C,R16*%
X87660000Y-127093800D03*
X86640000Y-127093800D03*
%TD*%
D20*
%TO.C,C27*%
X85275000Y-112656300D03*
X88400000Y-112656300D03*
%TD*%
D21*
%TO.C,U3*%
X80810000Y-101093800D03*
X82080000Y-101093800D03*
X83350000Y-101093800D03*
X84620000Y-101093800D03*
X84620000Y-96143800D03*
X83350000Y-96143800D03*
X82080000Y-96143800D03*
X80810000Y-96143800D03*
%TD*%
D14*
%TO.C,C6*%
X86300000Y-94523800D03*
X86300000Y-93563800D03*
%TD*%
D12*
%TO.C,R27*%
X82427500Y-113756300D03*
X83447500Y-113756300D03*
%TD*%
D16*
%TO.C,R17*%
X85150000Y-92433800D03*
X85150000Y-93453800D03*
%TD*%
D22*
%TO.C,S1*%
X87675000Y-96268800D03*
X88425000Y-96268800D03*
X87675000Y-93618800D03*
X88425000Y-93618800D03*
%TD*%
D15*
%TO.C,C12*%
X92100000Y-114063800D03*
X92100000Y-115023800D03*
%TD*%
D12*
%TO.C,R32*%
X78390000Y-95193800D03*
X79410000Y-95193800D03*
%TD*%
D13*
%TO.C,R21*%
X78050000Y-123203800D03*
X78050000Y-122183800D03*
%TD*%
D15*
%TO.C,C3*%
X93150000Y-125163800D03*
X93150000Y-126123800D03*
%TD*%
D11*
%TO.C,R9*%
X87210000Y-98793800D03*
X86190000Y-98793800D03*
%TD*%
D23*
%TO.C,U4*%
X81312500Y-93531300D03*
X81312500Y-93031300D03*
X81312500Y-92531300D03*
X81312500Y-92031300D03*
D24*
X80650000Y-91868800D03*
X80150000Y-91868800D03*
X79650000Y-91868800D03*
D23*
X78987500Y-92031300D03*
X78987500Y-92531300D03*
X78987500Y-93031300D03*
X78987500Y-93531300D03*
D24*
X79650000Y-93693800D03*
X80150000Y-93693800D03*
X80650000Y-93693800D03*
%TD*%
D25*
%TO.C,C26*%
X80387500Y-118918800D03*
X80387500Y-115793800D03*
%TD*%
D15*
%TO.C,C1*%
X88650000Y-91413800D03*
X88650000Y-92373800D03*
%TD*%
D26*
%TO.C,C13*%
X78340000Y-96343800D03*
X79300000Y-96343800D03*
%TD*%
D27*
%TO.C,J2*%
X105650000Y-124093800D03*
X105150000Y-124093800D03*
X104650000Y-124093800D03*
X104150000Y-124093800D03*
X103650000Y-124093800D03*
X103150000Y-124093800D03*
X102650000Y-124093800D03*
X102150000Y-124093800D03*
X101650000Y-124093800D03*
X101150000Y-124093800D03*
X100650000Y-124093800D03*
X100150000Y-124093800D03*
X99650000Y-124093800D03*
X99150000Y-124093800D03*
X98650000Y-124093800D03*
X98150000Y-124093800D03*
X97650000Y-124093800D03*
X97150000Y-124093800D03*
X96650000Y-124093800D03*
X96150000Y-124093800D03*
X95650000Y-124093800D03*
X95150000Y-124093800D03*
X94650000Y-124093800D03*
X94150000Y-124093800D03*
D28*
X92500000Y-120193800D03*
X107300000Y-120193800D03*
%TD*%
D12*
%TO.C,R7*%
X99740000Y-125793800D03*
X100760000Y-125793800D03*
%TD*%
D29*
%TO.C,U9*%
X78375000Y-103323800D03*
X78375000Y-111963800D03*
D30*
X82375000Y-103323800D03*
X82375000Y-111963800D03*
%TD*%
D31*
%TO.C,TP1*%
X109980000Y-126733800D03*
%TD*%
D32*
%TO.C,D16*%
X88565000Y-116243800D03*
X89535000Y-116243800D03*
%TD*%
D13*
%TO.C,R26*%
X82787500Y-121026300D03*
X82787500Y-120006300D03*
%TD*%
D32*
%TO.C,D15*%
X88565000Y-117443800D03*
X89535000Y-117443800D03*
%TD*%
D13*
%TO.C,R14*%
X110150000Y-92253800D03*
X110150000Y-91233800D03*
%TD*%
D33*
%TO.C,S2*%
X107975000Y-113518800D03*
X107975000Y-112768800D03*
X105325000Y-113518800D03*
X105325000Y-112768800D03*
%TD*%
D34*
%TO.C,U2*%
X91015000Y-91083800D03*
X91015000Y-92353800D03*
X91015000Y-93623800D03*
X91015000Y-94893800D03*
X91015000Y-96163800D03*
X91015000Y-97433800D03*
X91015000Y-98703800D03*
X91015000Y-99973800D03*
X91015000Y-101243800D03*
X91015000Y-102513800D03*
X91015000Y-103783800D03*
X91015000Y-105053800D03*
X91015000Y-106323800D03*
X91015000Y-107593800D03*
D35*
X92780000Y-108843800D03*
X94050000Y-108843800D03*
X95320000Y-108843800D03*
X96590000Y-108843800D03*
X97860000Y-108843800D03*
X99130000Y-108843800D03*
X100400000Y-108843800D03*
X101670000Y-108843800D03*
X102940000Y-108843800D03*
X104210000Y-108843800D03*
X105480000Y-108843800D03*
X106750000Y-108843800D03*
D34*
X108515000Y-107593800D03*
X108515000Y-106323800D03*
X108515000Y-105053800D03*
X108515000Y-103783800D03*
X108515000Y-102513800D03*
X108515000Y-101243800D03*
X108515000Y-99973800D03*
X108515000Y-98703800D03*
X108515000Y-97433800D03*
X108515000Y-96163800D03*
X108515000Y-94893800D03*
X108515000Y-93623800D03*
X108515000Y-92353800D03*
X108515000Y-91083800D03*
D36*
X96865000Y-98103800D03*
X96865000Y-99503800D03*
X97565000Y-97403800D03*
X97565000Y-98803800D03*
X97565000Y-100203800D03*
X98265000Y-98103800D03*
D37*
X98265000Y-98803800D03*
D36*
X98265000Y-99503800D03*
X98965000Y-97403800D03*
X98965000Y-98803800D03*
X98965000Y-100203800D03*
X99665000Y-98103800D03*
X99665000Y-99503800D03*
%TD*%
D38*
%TO.C,U5*%
X89150000Y-125193800D03*
X89150000Y-126143800D03*
X89150000Y-127093800D03*
X91425000Y-127093800D03*
X91425000Y-125193800D03*
%TD*%
D26*
%TO.C,C10*%
X86620000Y-125943800D03*
X87580000Y-125943800D03*
%TD*%
D20*
%TO.C,C28*%
X85387500Y-121193800D03*
X88512500Y-121193800D03*
%TD*%
D12*
%TO.C,R19*%
X86840000Y-109843800D03*
X87860000Y-109843800D03*
%TD*%
D38*
%TO.C,U10*%
X85725000Y-106143800D03*
X85725000Y-107093800D03*
X85725000Y-108043800D03*
X88000000Y-108043800D03*
X88000000Y-107093800D03*
X88000000Y-106143800D03*
%TD*%
D39*
%TO.C,J4*%
X80800000Y-123193800D03*
X81800000Y-123193800D03*
X82800000Y-123193800D03*
D40*
X79500000Y-127068800D03*
X84100000Y-127068800D03*
%TD*%
D16*
%TO.C,R30*%
X110300000Y-93483800D03*
X110300000Y-94503800D03*
%TD*%
D14*
%TO.C,C7*%
X93350000Y-115073800D03*
X93350000Y-114113800D03*
%TD*%
D13*
%TO.C,R8*%
X86200000Y-100903800D03*
X86200000Y-99883800D03*
%TD*%
D16*
%TO.C,R20*%
X89100000Y-109433800D03*
X89100000Y-110453800D03*
%TD*%
D15*
%TO.C,C2*%
X87350000Y-91413800D03*
X87350000Y-92373800D03*
%TD*%
D14*
%TO.C,C8*%
X94500000Y-115043800D03*
X94500000Y-114083800D03*
%TD*%
M02*
