M48
; DRILL file {KiCad 9.0.3} date 2025-09-17T23:32:33+0200
; FORMAT={-:-/ absolute / metric / decimal}
; #@! TF.CreationDate,2025-09-17T23:32:33+02:00
; #@! TF.GenerationSoftware,Kicad,Pcbnew,9.0.3
; #@! TF.FileFunction,Plated,1,4,PTH
FMAT,2
METRIC
; #@! TA.AperFunction,Plated,PTH,ComponentDrill
T1C0.200
; #@! TA.AperFunction,Plated,PTH,ViaDrill
T2C0.300
; #@! TA.AperFunction,Plated,PTH,ComponentDrill
T3C0.600
%
G90
G05
T1
X96.865Y-98.104
X96.865Y-99.504
X97.565Y-97.404
X97.565Y-98.804
X97.565Y-100.204
X98.265Y-98.104
X98.265Y-99.504
X98.965Y-97.404
X98.965Y-98.804
X98.965Y-100.204
X99.665Y-98.104
X99.665Y-99.504
T2
X77.9Y-92.444
X78.6Y-105.344
X78.6Y-110.094
X79.3Y-97.294
X79.9Y-90.894
X80.1Y-117.244
X80.7Y-120.294
X81.6Y-125.994
X81.65Y-99.294
X81.7Y-108.944
X81.797Y-106.262
X81.8Y-104.444
X81.8Y-110.844
X81.8Y-120.694
X82.45Y-115.994
X82.5Y-117.244
X82.888Y-114.656
X83.35Y-97.594
X83.54Y-94.104
X83.8Y-90.744
X83.8Y-119.844
X84.1Y-123.244
X84.35Y-92.444
X84.487Y-116.706
X84.487Y-117.606
X84.5Y-107.244
X84.8Y-98.144
X84.95Y-117.156
X85.388Y-116.706
X85.388Y-117.606
X86.05Y-95.744
X86.05Y-101.794
X86.275Y-118.469
X86.45Y-91.444
X86.75Y-112.644
X87.05Y-120.694
X87.1Y-121.944
X87.344Y-116.319
X87.45Y-117.594
X87.675Y-97.019
X88.0Y-98.794
X88.95Y-114.619
X89.35Y-105.394
X89.4Y-94.694
X89.4Y-99.744
X89.55Y-118.344
X89.55Y-120.444
X89.55Y-122.044
X89.65Y-115.394
X89.75Y-113.594
X89.8Y-111.944
X90.263Y-127.11
X90.3Y-126.144
X90.85Y-111.944
X91.1Y-113.644
X91.25Y-118.394
X91.95Y-110.644
X92.034Y-115.769
X92.4Y-106.663
X92.55Y-91.094
X92.6Y-97.444
X92.95Y-103.844
X93.0Y-124.044
X93.047Y-113.312
X93.35Y-96.144
X93.479Y-127.717
X93.525Y-110.694
X93.6Y-105.044
X94.3Y-125.194
X95.3Y-111.394
X95.32Y-110.094
X95.65Y-119.044
X96.0Y-107.394
X96.3Y-127.544
X96.95Y-112.244
X97.09Y-104.594
X97.85Y-111.344
X97.86Y-107.294
X98.5Y-92.994
X98.65Y-125.194
X98.85Y-112.744
X98.95Y-120.094
X99.15Y-107.194
X99.7Y-111.045
X99.701Y-112.943
X99.95Y-104.494
X100.0Y-113.794
X100.35Y-107.194
X100.4Y-93.144
X101.35Y-112.244
X101.65Y-125.794
X101.7Y-107.094
X102.262Y-112.956
X102.797Y-113.741
X102.8Y-110.794
X103.5Y-114.194
X104.1Y-113.544
X104.7Y-107.344
X104.7Y-114.594
X104.9Y-102.744
X105.3Y-121.194
X105.35Y-122.444
X105.9Y-107.444
X105.949Y-115.793
X106.25Y-91.094
X106.5Y-105.094
X106.65Y-94.944
X106.65Y-111.344
X107.265Y-99.894
X110.15Y-98.144
X110.65Y-95.195
X110.65Y-96.494
X111.15Y-91.194
T3
G00X78.975Y-103.324
M15
G01X77.775Y-103.324
M16
G05
G00X78.975Y-111.964
M15
G01X77.775Y-111.964
M16
G05
G00X82.775Y-103.324
M15
G01X81.975Y-103.324
M16
G05
G00X82.775Y-111.964
M15
G01X81.975Y-111.964
M16
G05
M30
