%TF.GenerationSoftware,KiCad,Pcbnew,9.0.3*%
%TF.CreationDate,2025-09-17T23:32:25+02:00*%
%TF.ProjectId,Wear Camera,57656172-2043-4616-9d65-72612e6b6963,rev?*%
%TF.SameCoordinates,Original*%
%TF.FileFunction,Copper,L1,Top*%
%TF.FilePolarity,Positive*%
%FSLAX46Y46*%
G04 Gerber Fmt 4.6, Leading zero omitted, Abs format (unit mm)*
G04 Created by KiCad (PCBNEW 9.0.3) date 2025-09-17 23:32:25*
%MOMM*%
%LPD*%
G01*
G04 APERTURE LIST*
G04 Aperture macros list*
%AMRoundRect*
0 Rectangle with rounded corners*
0 $1 Rounding radius*
0 $2 $3 $4 $5 $6 $7 $8 $9 X,Y pos of 4 corners*
0 Add a 4 corners polygon primitive as box body*
4,1,4,$2,$3,$4,$5,$6,$7,$8,$9,$2,$3,0*
0 Add four circle primitives for the rounded corners*
1,1,$1+$1,$2,$3*
1,1,$1+$1,$4,$5*
1,1,$1+$1,$6,$7*
1,1,$1+$1,$8,$9*
0 Add four rect primitives between the rounded corners*
20,1,$1+$1,$2,$3,$4,$5,0*
20,1,$1+$1,$4,$5,$6,$7,0*
20,1,$1+$1,$6,$7,$8,$9,0*
20,1,$1+$1,$8,$9,$2,$3,0*%
G04 Aperture macros list end*
%TA.AperFunction,SMDPad,CuDef*%
%ADD10RoundRect,0.135000X0.135000X0.185000X-0.135000X0.185000X-0.135000X-0.185000X0.135000X-0.185000X0*%
%TD*%
%TA.AperFunction,SMDPad,CuDef*%
%ADD11RoundRect,0.135000X-0.135000X-0.185000X0.135000X-0.185000X0.135000X0.185000X-0.135000X0.185000X0*%
%TD*%
%TA.AperFunction,SMDPad,CuDef*%
%ADD12RoundRect,0.135000X0.185000X-0.135000X0.185000X0.135000X-0.185000X0.135000X-0.185000X-0.135000X0*%
%TD*%
%TA.AperFunction,SMDPad,CuDef*%
%ADD13RoundRect,0.140000X0.170000X-0.140000X0.170000X0.140000X-0.170000X0.140000X-0.170000X-0.140000X0*%
%TD*%
%TA.AperFunction,SMDPad,CuDef*%
%ADD14RoundRect,0.140000X-0.170000X0.140000X-0.170000X-0.140000X0.170000X-0.140000X0.170000X0.140000X0*%
%TD*%
%TA.AperFunction,SMDPad,CuDef*%
%ADD15RoundRect,0.135000X-0.185000X0.135000X-0.185000X-0.135000X0.185000X-0.135000X0.185000X0.135000X0*%
%TD*%
%TA.AperFunction,SMDPad,CuDef*%
%ADD16RoundRect,0.062500X0.062500X-0.375000X0.062500X0.375000X-0.062500X0.375000X-0.062500X-0.375000X0*%
%TD*%
%TA.AperFunction,SMDPad,CuDef*%
%ADD17RoundRect,0.062500X0.375000X-0.062500X0.375000X0.062500X-0.375000X0.062500X-0.375000X-0.062500X0*%
%TD*%
%TA.AperFunction,HeatsinkPad*%
%ADD18R,1.600000X1.600000*%
%TD*%
%TA.AperFunction,SMDPad,CuDef*%
%ADD19RoundRect,0.250000X-0.412500X-1.100000X0.412500X-1.100000X0.412500X1.100000X-0.412500X1.100000X0*%
%TD*%
%TA.AperFunction,SMDPad,CuDef*%
%ADD20RoundRect,0.150000X0.150000X-0.825000X0.150000X0.825000X-0.150000X0.825000X-0.150000X-0.825000X0*%
%TD*%
%TA.AperFunction,SMDPad,CuDef*%
%ADD21R,0.550000X0.550000*%
%TD*%
%TA.AperFunction,SMDPad,CuDef*%
%ADD22RoundRect,0.087500X0.225000X0.087500X-0.225000X0.087500X-0.225000X-0.087500X0.225000X-0.087500X0*%
%TD*%
%TA.AperFunction,SMDPad,CuDef*%
%ADD23RoundRect,0.087500X0.087500X0.225000X-0.087500X0.225000X-0.087500X-0.225000X0.087500X-0.225000X0*%
%TD*%
%TA.AperFunction,SMDPad,CuDef*%
%ADD24RoundRect,0.250000X1.100000X-0.412500X1.100000X0.412500X-1.100000X0.412500X-1.100000X-0.412500X0*%
%TD*%
%TA.AperFunction,SMDPad,CuDef*%
%ADD25RoundRect,0.140000X-0.140000X-0.170000X0.140000X-0.170000X0.140000X0.170000X-0.140000X0.170000X0*%
%TD*%
%TA.AperFunction,SMDPad,CuDef*%
%ADD26R,0.250000X1.100000*%
%TD*%
%TA.AperFunction,SMDPad,CuDef*%
%ADD27R,1.700000X1.500000*%
%TD*%
%TA.AperFunction,SMDPad,CuDef*%
%ADD28R,1.150000X0.590000*%
%TD*%
%TA.AperFunction,SMDPad,CuDef*%
%ADD29R,1.150000X0.298000*%
%TD*%
%TA.AperFunction,ComponentPad*%
%ADD30O,2.200000X1.000000*%
%TD*%
%TA.AperFunction,ComponentPad*%
%ADD31O,1.800000X1.000000*%
%TD*%
%TA.AperFunction,SMDPad,CuDef*%
%ADD32R,1.000000X1.000000*%
%TD*%
%TA.AperFunction,SMDPad,CuDef*%
%ADD33RoundRect,0.147500X-0.147500X-0.172500X0.147500X-0.172500X0.147500X0.172500X-0.147500X0.172500X0*%
%TD*%
%TA.AperFunction,SMDPad,CuDef*%
%ADD34R,1.500000X0.900000*%
%TD*%
%TA.AperFunction,SMDPad,CuDef*%
%ADD35R,0.900000X1.500000*%
%TD*%
%TA.AperFunction,HeatsinkPad*%
%ADD36C,0.600000*%
%TD*%
%TA.AperFunction,HeatsinkPad*%
%ADD37R,3.900000X3.900000*%
%TD*%
%TA.AperFunction,SMDPad,CuDef*%
%ADD38RoundRect,0.150000X-0.512500X-0.150000X0.512500X-0.150000X0.512500X0.150000X-0.512500X0.150000X0*%
%TD*%
%TA.AperFunction,SMDPad,CuDef*%
%ADD39RoundRect,0.150000X-0.150000X-0.625000X0.150000X-0.625000X0.150000X0.625000X-0.150000X0.625000X0*%
%TD*%
%TA.AperFunction,SMDPad,CuDef*%
%ADD40RoundRect,0.250000X-0.350000X-0.650000X0.350000X-0.650000X0.350000X0.650000X-0.350000X0.650000X0*%
%TD*%
%TA.AperFunction,ViaPad*%
%ADD41C,0.600000*%
%TD*%
%TA.AperFunction,Conductor*%
%ADD42C,0.200000*%
%TD*%
%TA.AperFunction,Conductor*%
%ADD43C,0.600000*%
%TD*%
%TA.AperFunction,Conductor*%
%ADD44C,0.400000*%
%TD*%
%TA.AperFunction,Conductor*%
%ADD45C,0.800000*%
%TD*%
%TA.AperFunction,Conductor*%
%ADD46C,0.300000*%
%TD*%
%TA.AperFunction,Conductor*%
%ADD47C,0.500000*%
%TD*%
%TA.AperFunction,Conductor*%
%ADD48C,0.355900*%
%TD*%
G04 APERTURE END LIST*
D10*
%TO.P,R18,1*%
%TO.N,BOOT*%
X108560000Y-111193800D03*
%TO.P,R18,2*%
%TO.N,Net-(R18-Pad2)*%
X107540000Y-111193800D03*
%TD*%
D11*
%TO.P,R22,1*%
%TO.N,BATT_MEASURE*%
X78040000Y-120993800D03*
%TO.P,R22,2*%
%TO.N,GND*%
X79060000Y-120993800D03*
%TD*%
D12*
%TO.P,R1,1*%
%TO.N,+2V8*%
X95650000Y-115103800D03*
%TO.P,R1,2*%
%TO.N,CAM_RST*%
X95650000Y-114083800D03*
%TD*%
D13*
%TO.P,C5,1*%
%TO.N,GND*%
X95400000Y-127543800D03*
%TO.P,C5,2*%
%TO.N,+1V5*%
X95400000Y-126583800D03*
%TD*%
D14*
%TO.P,C9,1*%
%TO.N,+2V8*%
X91250000Y-116513800D03*
%TO.P,C9,2*%
%TO.N,GND*%
X91250000Y-117473800D03*
%TD*%
D15*
%TO.P,R10,1*%
%TO.N,+3V3_MCU*%
X86050000Y-102583800D03*
%TO.P,R10,2*%
%TO.N,RTC_INT*%
X86050000Y-103603800D03*
%TD*%
D12*
%TO.P,R31,1*%
%TO.N,GND*%
X82750000Y-94103800D03*
%TO.P,R31,2*%
%TO.N,Net-(U4-SCX)*%
X82750000Y-93083800D03*
%TD*%
D16*
%TO.P,U11,1,TS*%
%TO.N,TEMP*%
X84200000Y-118593800D03*
%TO.P,U11,2,BAT*%
%TO.N,+BATT*%
X84700000Y-118593800D03*
%TO.P,U11,3,BAT*%
X85200000Y-118593800D03*
%TO.P,U11,4,~{CE}*%
%TO.N,GND*%
X85700000Y-118593800D03*
D17*
%TO.P,U11,5,EN2*%
X86387500Y-117906300D03*
%TO.P,U11,6,EN1*%
%TO.N,5V_USB*%
X86387500Y-117406300D03*
%TO.P,U11,7,~{PGOOD}*%
%TO.N,Net-(D15-K)*%
X86387500Y-116906300D03*
%TO.P,U11,8,VSS*%
%TO.N,GND*%
X86387500Y-116406300D03*
D16*
%TO.P,U11,9,~{CHG}*%
%TO.N,Net-(D16-K)*%
X85700000Y-115718800D03*
%TO.P,U11,10,OUT*%
%TO.N,VBUS*%
X85200000Y-115718800D03*
%TO.P,U11,11,OUT*%
X84700000Y-115718800D03*
%TO.P,U11,12,ILIM*%
%TO.N,Net-(U11-ILIM)*%
X84200000Y-115718800D03*
D17*
%TO.P,U11,13,IN*%
%TO.N,5V_USB*%
X83512500Y-116406300D03*
%TO.P,U11,14,TMR*%
%TO.N,Net-(U11-TMR)*%
X83512500Y-116906300D03*
%TO.P,U11,15,ITERM*%
%TO.N,unconnected-(U11-ITERM-Pad15)*%
X83512500Y-117406300D03*
%TO.P,U11,16,ISET*%
%TO.N,Net-(U11-ISET)*%
X83512500Y-117906300D03*
D18*
%TO.P,U11,17,VSS*%
%TO.N,GND*%
X84950000Y-117156300D03*
%TD*%
D14*
%TO.P,C14,1*%
%TO.N,GND*%
X82750000Y-90713800D03*
%TO.P,C14,2*%
%TO.N,+3V3_MCU*%
X82750000Y-91673800D03*
%TD*%
%TO.P,C4,1*%
%TO.N,+1V5*%
X94300000Y-126543800D03*
%TO.P,C4,2*%
%TO.N,GND*%
X94300000Y-127503800D03*
%TD*%
D10*
%TO.P,R16,1*%
%TO.N,Net-(JP1-B)*%
X87660000Y-127093800D03*
%TO.P,R16,2*%
%TO.N,VBUS*%
X86640000Y-127093800D03*
%TD*%
D19*
%TO.P,C27,1*%
%TO.N,VBUS*%
X85275000Y-112656300D03*
%TO.P,C27,2*%
%TO.N,GND*%
X88400000Y-112656300D03*
%TD*%
D20*
%TO.P,U3,1,32KHZ*%
%TO.N,unconnected-(U3-32KHZ-Pad1)*%
X80810000Y-101093800D03*
%TO.P,U3,2,VCC*%
%TO.N,5V_USB*%
X82080000Y-101093800D03*
%TO.P,U3,3,~{INT}/SQW*%
%TO.N,RTC_INT*%
X83350000Y-101093800D03*
%TO.P,U3,4,~{RST}*%
%TO.N,unconnected-(U3-~{RST}-Pad4)*%
X84620000Y-101093800D03*
%TO.P,U3,5,GND*%
%TO.N,GND*%
X84620000Y-96143800D03*
%TO.P,U3,6,VBAT*%
%TO.N,RTC_BATT*%
X83350000Y-96143800D03*
%TO.P,U3,7,SDA*%
%TO.N,RTC_SDA*%
X82080000Y-96143800D03*
%TO.P,U3,8,SCL*%
%TO.N,RTC_SCL*%
X80810000Y-96143800D03*
%TD*%
D13*
%TO.P,C6,1*%
%TO.N,GND*%
X86300000Y-94523800D03*
%TO.P,C6,2*%
%TO.N,CHIP_EN*%
X86300000Y-93563800D03*
%TD*%
D11*
%TO.P,R27,1*%
%TO.N,GND*%
X82427500Y-113756300D03*
%TO.P,R27,2*%
%TO.N,Net-(U11-ILIM)*%
X83447500Y-113756300D03*
%TD*%
D15*
%TO.P,R17,1*%
%TO.N,+3V3_MCU*%
X85150000Y-92433800D03*
%TO.P,R17,2*%
%TO.N,CHIP_EN*%
X85150000Y-93453800D03*
%TD*%
D21*
%TO.P,S1,A1*%
%TO.N,GND*%
X87675000Y-96268800D03*
%TO.P,S1,A2*%
X88425000Y-96268800D03*
%TO.P,S1,B1*%
%TO.N,CHIP_EN*%
X87675000Y-93618800D03*
%TO.P,S1,B2*%
X88425000Y-93618800D03*
%TD*%
D14*
%TO.P,C12,1*%
%TO.N,GND*%
X92100000Y-114063800D03*
%TO.P,C12,2*%
%TO.N,+2V8*%
X92100000Y-115023800D03*
%TD*%
D11*
%TO.P,R32,1*%
%TO.N,+3V3_MCU*%
X78390000Y-95193800D03*
%TO.P,R32,2*%
%TO.N,Net-(U4-CS)*%
X79410000Y-95193800D03*
%TD*%
D12*
%TO.P,R21,1*%
%TO.N,+BATT*%
X78050000Y-123203800D03*
%TO.P,R21,2*%
%TO.N,BATT_MEASURE*%
X78050000Y-122183800D03*
%TD*%
D14*
%TO.P,C3,1*%
%TO.N,+1V5*%
X93150000Y-125163800D03*
%TO.P,C3,2*%
%TO.N,GND*%
X93150000Y-126123800D03*
%TD*%
D10*
%TO.P,R9,1*%
%TO.N,+3V3_MCU*%
X87210000Y-98793800D03*
%TO.P,R9,2*%
%TO.N,RTC_SDA*%
X86190000Y-98793800D03*
%TD*%
D22*
%TO.P,U4,1,SDO/SA0*%
%TO.N,Net-(U4-SCX)*%
X81312500Y-93531300D03*
%TO.P,U4,2,SDX*%
X81312500Y-93031300D03*
%TO.P,U4,3,SCX*%
X81312500Y-92531300D03*
%TO.P,U4,4,INT1*%
%TO.N,unconnected-(U4-INT1-Pad4)*%
X81312500Y-92031300D03*
D23*
%TO.P,U4,5,VDDIO*%
%TO.N,+3V3_MCU*%
X80650000Y-91868800D03*
%TO.P,U4,6,GND*%
%TO.N,GND*%
X80150000Y-91868800D03*
%TO.P,U4,7,GND*%
X79650000Y-91868800D03*
D22*
%TO.P,U4,8,VDD*%
%TO.N,+3V3_MCU*%
X78987500Y-92031300D03*
%TO.P,U4,9,INT2*%
%TO.N,unconnected-(U4-INT2-Pad9)*%
X78987500Y-92531300D03*
%TO.P,U4,10,OCS_Aux*%
%TO.N,unconnected-(U4-OCS_Aux-Pad10)*%
X78987500Y-93031300D03*
%TO.P,U4,11,SDO_Aux*%
%TO.N,unconnected-(U4-SDO_Aux-Pad11)*%
X78987500Y-93531300D03*
D23*
%TO.P,U4,12,CS*%
%TO.N,Net-(U4-CS)*%
X79650000Y-93693800D03*
%TO.P,U4,13,SCL*%
%TO.N,RTC_SCL*%
X80150000Y-93693800D03*
%TO.P,U4,14,SDA*%
%TO.N,RTC_SDA*%
X80650000Y-93693800D03*
%TD*%
D24*
%TO.P,C26,1*%
%TO.N,GND*%
X80387500Y-118918800D03*
%TO.P,C26,2*%
%TO.N,5V_USB*%
X80387500Y-115793800D03*
%TD*%
D14*
%TO.P,C1,1*%
%TO.N,GND*%
X88650000Y-91413800D03*
%TO.P,C1,2*%
%TO.N,+3V3_MCU*%
X88650000Y-92373800D03*
%TD*%
D25*
%TO.P,C13,1*%
%TO.N,+3V3_MCU*%
X78340000Y-96343800D03*
%TO.P,C13,2*%
%TO.N,GND*%
X79300000Y-96343800D03*
%TD*%
D26*
%TO.P,J2,1,1*%
%TO.N,unconnected-(J2-Pad1)*%
X105650000Y-124093800D03*
%TO.P,J2,2,2*%
%TO.N,unconnected-(J2-Pad2)*%
X105150000Y-124093800D03*
%TO.P,J2,3,3*%
%TO.N,DVP_Y4*%
X104650000Y-124093800D03*
%TO.P,J2,4,4*%
%TO.N,DVP_Y3*%
X104150000Y-124093800D03*
%TO.P,J2,5,5*%
%TO.N,DVP_Y5*%
X103650000Y-124093800D03*
%TO.P,J2,6,6*%
%TO.N,DVP_Y2*%
X103150000Y-124093800D03*
%TO.P,J2,7,7*%
%TO.N,DVP_Y6*%
X102650000Y-124093800D03*
%TO.P,J2,8,8*%
%TO.N,DVP_PCLK*%
X102150000Y-124093800D03*
%TO.P,J2,9,9*%
%TO.N,DVP_Y7*%
X101650000Y-124093800D03*
%TO.P,J2,10,10*%
%TO.N,GND*%
X101150000Y-124093800D03*
%TO.P,J2,11,11*%
%TO.N,DVP_Y8*%
X100650000Y-124093800D03*
%TO.P,J2,12,12*%
%TO.N,XMCLK*%
X100150000Y-124093800D03*
%TO.P,J2,13,13*%
%TO.N,DVP_Y9*%
X99650000Y-124093800D03*
%TO.P,J2,14,14*%
%TO.N,+2V8*%
X99150000Y-124093800D03*
%TO.P,J2,15,15*%
%TO.N,+1V5*%
X98650000Y-124093800D03*
%TO.P,J2,16,16*%
%TO.N,CAM_HREF*%
X98150000Y-124093800D03*
%TO.P,J2,17,17*%
%TO.N,CAM_PWDN*%
X97650000Y-124093800D03*
%TO.P,J2,18,18*%
%TO.N,CAM_VSYNC*%
X97150000Y-124093800D03*
%TO.P,J2,19,19*%
%TO.N,CAM_RST*%
X96650000Y-124093800D03*
%TO.P,J2,20,20*%
%TO.N,CAM_SCL*%
X96150000Y-124093800D03*
%TO.P,J2,21,21*%
%TO.N,+2V8*%
X95650000Y-124093800D03*
%TO.P,J2,22,22*%
%TO.N,CAM_SDA*%
X95150000Y-124093800D03*
%TO.P,J2,23,23*%
%TO.N,GND*%
X94650000Y-124093800D03*
%TO.P,J2,24,24*%
%TO.N,unconnected-(J2-Pad24)*%
X94150000Y-124093800D03*
D27*
%TO.P,J2,P1*%
%TO.N,N/C*%
X92500000Y-120193800D03*
%TO.P,J2,P2*%
X107300000Y-120193800D03*
%TD*%
D11*
%TO.P,R7,1*%
%TO.N,CAM_PWDN*%
X99740000Y-125793800D03*
%TO.P,R7,2*%
%TO.N,GND*%
X100760000Y-125793800D03*
%TD*%
D28*
%TO.P,U9,A1,GND*%
%TO.N,GND*%
X82950000Y-104443800D03*
%TO.P,U9,A4,VBUS*%
%TO.N,5V_USB*%
X82950000Y-105243800D03*
D29*
%TO.P,U9,A5,CC1*%
%TO.N,Net-(U9-CC1)*%
X82950000Y-106393800D03*
%TO.P,U9,A6,D+*%
%TO.N,/MCU/USB_CON_P*%
X82950000Y-107393800D03*
%TO.P,U9,A7,D-*%
%TO.N,/MCU/USB_CON_N*%
X82950000Y-107893800D03*
%TO.P,U9,A8,SBU1*%
%TO.N,unconnected-(U9-SBU1-PadA8)*%
X82950000Y-108893800D03*
D28*
%TO.P,U9,A9,VBUS*%
%TO.N,5V_USB*%
X82950000Y-110043800D03*
%TO.P,U9,A12,GND*%
%TO.N,GND*%
X82950000Y-110843800D03*
D29*
%TO.P,U9,B5,CC2*%
%TO.N,Net-(U9-CC2)*%
X82950000Y-109393800D03*
%TO.P,U9,B6,D+*%
%TO.N,/MCU/USB_CON_P*%
X82950000Y-108393800D03*
%TO.P,U9,B7,D-*%
%TO.N,/MCU/USB_CON_N*%
X82950000Y-106893800D03*
%TO.P,U9,B8,SBU2*%
%TO.N,unconnected-(U9-SBU2-PadB8)*%
X82950000Y-105893800D03*
D30*
%TO.P,U9,SH1,SHIELD*%
%TO.N,unconnected-(U9-SHIELD-PadSH1)*%
X78375000Y-103323800D03*
%TO.P,U9,SH2*%
%TO.N,N/C*%
X78375000Y-111963800D03*
D31*
%TO.P,U9,SH3*%
X82375000Y-103323800D03*
%TO.P,U9,SH4*%
X82375000Y-111963800D03*
%TD*%
D32*
%TO.P,TP1,1,1*%
%TO.N,NONET_NET*%
X109980000Y-126733800D03*
%TD*%
D33*
%TO.P,D16,1,K*%
%TO.N,Net-(D16-K)*%
X88565000Y-116243800D03*
%TO.P,D16,2,A*%
%TO.N,Net-(D16-A)*%
X89535000Y-116243800D03*
%TD*%
D12*
%TO.P,R26,1*%
%TO.N,GND*%
X82787500Y-121026300D03*
%TO.P,R26,2*%
%TO.N,Net-(U11-ISET)*%
X82787500Y-120006300D03*
%TD*%
D33*
%TO.P,D15,1,K*%
%TO.N,Net-(D15-K)*%
X88565000Y-117443800D03*
%TO.P,D15,2,A*%
%TO.N,Net-(D15-A)*%
X89535000Y-117443800D03*
%TD*%
D12*
%TO.P,R14,1*%
%TO.N,CAM_SDA*%
X110150000Y-92253800D03*
%TO.P,R14,2*%
%TO.N,+3V3_MCU*%
X110150000Y-91233800D03*
%TD*%
D21*
%TO.P,S2,A1*%
%TO.N,Net-(R18-Pad2)*%
X107975000Y-113518800D03*
%TO.P,S2,A2*%
X107975000Y-112768800D03*
%TO.P,S2,B1*%
%TO.N,GND*%
X105325000Y-113518800D03*
%TO.P,S2,B2*%
X105325000Y-112768800D03*
%TD*%
D34*
%TO.P,U2,1,GND*%
%TO.N,GND*%
X91015000Y-91083800D03*
%TO.P,U2,2,3V3*%
%TO.N,+3V3_MCU*%
X91015000Y-92353800D03*
%TO.P,U2,3,EN*%
%TO.N,CHIP_EN*%
X91015000Y-93623800D03*
%TO.P,U2,4,IO4*%
%TO.N,DVP_Y5*%
X91015000Y-94893800D03*
%TO.P,U2,5,IO5*%
%TO.N,DVP_PCLK*%
X91015000Y-96163800D03*
%TO.P,U2,6,IO6*%
%TO.N,CAM_VSYNC*%
X91015000Y-97433800D03*
%TO.P,U2,7,IO7*%
%TO.N,DVP_Y6*%
X91015000Y-98703800D03*
%TO.P,U2,8,IO15*%
%TO.N,Net-(U2-IO15)*%
X91015000Y-99973800D03*
%TO.P,U2,9,IO16*%
%TO.N,BATT_MEASURE*%
X91015000Y-101243800D03*
%TO.P,U2,10,IO17*%
%TO.N,RTC_SDA*%
X91015000Y-102513800D03*
%TO.P,U2,11,IO18*%
%TO.N,RTC_SCL*%
X91015000Y-103783800D03*
%TO.P,U2,12,IO8*%
%TO.N,DVP_Y7*%
X91015000Y-105053800D03*
%TO.P,U2,13,USB_D-*%
%TO.N,USB_D-*%
X91015000Y-106323800D03*
%TO.P,U2,14,USB_D+*%
%TO.N,USB_D+*%
X91015000Y-107593800D03*
D35*
%TO.P,U2,15,IO3*%
%TO.N,CAM_RST*%
X92780000Y-108843800D03*
%TO.P,U2,16,IO46*%
%TO.N,DVP_Y8*%
X94050000Y-108843800D03*
%TO.P,U2,17,IO9*%
%TO.N,CAM_PWDN*%
X95320000Y-108843800D03*
%TO.P,U2,18,IO10*%
%TO.N,SDMMC1_D1*%
X96590000Y-108843800D03*
%TO.P,U2,19,IO11*%
%TO.N,SDMMC1_D0*%
X97860000Y-108843800D03*
%TO.P,U2,20,IO12*%
%TO.N,SDMMC1_SCK*%
X99130000Y-108843800D03*
%TO.P,U2,21,IO13*%
%TO.N,SDMMC1_CMD*%
X100400000Y-108843800D03*
%TO.P,U2,22,IO14*%
%TO.N,SDMMC1_D3*%
X101670000Y-108843800D03*
%TO.P,U2,23,IO21*%
%TO.N,USB_INT*%
X102940000Y-108843800D03*
%TO.P,U2,24,IO47*%
%TO.N,RTC_INT*%
X104210000Y-108843800D03*
%TO.P,U2,25,IO48*%
%TO.N,DVP_Y9*%
X105480000Y-108843800D03*
%TO.P,U2,26,IO45*%
%TO.N,XMCLK*%
X106750000Y-108843800D03*
D34*
%TO.P,U2,27,IO0*%
%TO.N,BOOT*%
X108515000Y-107593800D03*
%TO.P,U2,28,IO35*%
%TO.N,unconnected-(U2-IO35-Pad28)*%
X108515000Y-106323800D03*
%TO.P,U2,29,IO36*%
%TO.N,unconnected-(U2-IO36-Pad29)*%
X108515000Y-105053800D03*
%TO.P,U2,30,IO37*%
%TO.N,unconnected-(U2-IO37-Pad30)*%
X108515000Y-103783800D03*
%TO.P,U2,31,IO38*%
%TO.N,SDMMC1_D2*%
X108515000Y-102513800D03*
%TO.P,U2,32,IO39*%
%TO.N,DVP_Y2*%
X108515000Y-101243800D03*
%TO.P,U2,33,IO40*%
%TO.N,DVP_Y3*%
X108515000Y-99973800D03*
%TO.P,U2,34,IO41*%
%TO.N,DVP_Y4*%
X108515000Y-98703800D03*
%TO.P,U2,35,IO42*%
%TO.N,CAM_HREF*%
X108515000Y-97433800D03*
%TO.P,U2,36,RXD0*%
%TO.N,EN_2.8V*%
X108515000Y-96163800D03*
%TO.P,U2,37,TXD0*%
%TO.N,EN_1.5V*%
X108515000Y-94893800D03*
%TO.P,U2,38,IO2*%
%TO.N,CAM_SCL*%
X108515000Y-93623800D03*
%TO.P,U2,39,IO1*%
%TO.N,CAM_SDA*%
X108515000Y-92353800D03*
%TO.P,U2,40,GND*%
%TO.N,GND*%
X108515000Y-91083800D03*
D36*
%TO.P,U2,41,GND*%
X96865000Y-98103800D03*
X96865000Y-99503800D03*
X97565000Y-97403800D03*
X97565000Y-98803800D03*
X97565000Y-100203800D03*
X98265000Y-98103800D03*
D37*
X98265000Y-98803800D03*
D36*
X98265000Y-99503800D03*
X98965000Y-97403800D03*
X98965000Y-98803800D03*
X98965000Y-100203800D03*
X99665000Y-98103800D03*
X99665000Y-99503800D03*
%TD*%
D38*
%TO.P,U5,1,IN*%
%TO.N,VBUS*%
X89150000Y-125193800D03*
%TO.P,U5,2,GND*%
%TO.N,GND*%
X89150000Y-126143800D03*
%TO.P,U5,3,EN*%
%TO.N,Net-(JP1-B)*%
X89150000Y-127093800D03*
%TO.P,U5,4,NC*%
%TO.N,unconnected-(U5-NC-Pad4)*%
X91425000Y-127093800D03*
%TO.P,U5,5,OUT*%
%TO.N,+1V5*%
X91425000Y-125193800D03*
%TD*%
D25*
%TO.P,C10,1*%
%TO.N,VBUS*%
X86620000Y-125943800D03*
%TO.P,C10,2*%
%TO.N,GND*%
X87580000Y-125943800D03*
%TD*%
D19*
%TO.P,C28,1*%
%TO.N,+BATT*%
X85387500Y-121193800D03*
%TO.P,C28,2*%
%TO.N,GND*%
X88512500Y-121193800D03*
%TD*%
D11*
%TO.P,R19,1*%
%TO.N,5V_USB*%
X86840000Y-109843800D03*
%TO.P,R19,2*%
%TO.N,USB_INT*%
X87860000Y-109843800D03*
%TD*%
D38*
%TO.P,U10,1,I/O1*%
%TO.N,/MCU/USB_CON_N*%
X85725000Y-106143800D03*
%TO.P,U10,2,GND*%
%TO.N,GND*%
X85725000Y-107093800D03*
%TO.P,U10,3,I/O2*%
%TO.N,/MCU/USB_CON_P*%
X85725000Y-108043800D03*
%TO.P,U10,4,I/O2*%
%TO.N,USB_D+*%
X88000000Y-108043800D03*
%TO.P,U10,5,VBUS*%
%TO.N,5V_USB*%
X88000000Y-107093800D03*
%TO.P,U10,6,I/O1*%
%TO.N,USB_D-*%
X88000000Y-106143800D03*
%TD*%
D39*
%TO.P,J4,1,Pin_1*%
%TO.N,+BATT*%
X80800000Y-123193800D03*
%TO.P,J4,2,Pin_2*%
%TO.N,GND*%
X81800000Y-123193800D03*
%TO.P,J4,3,Pin_3*%
%TO.N,Net-(J4-Pin_3)*%
X82800000Y-123193800D03*
D40*
%TO.P,J4,MP*%
%TO.N,N/C*%
X79500000Y-127068800D03*
X84100000Y-127068800D03*
%TD*%
D15*
%TO.P,R30,1*%
%TO.N,CAM_SCL*%
X110300000Y-93483800D03*
%TO.P,R30,2*%
%TO.N,+3V3_MCU*%
X110300000Y-94503800D03*
%TD*%
D13*
%TO.P,C7,1*%
%TO.N,+2V8*%
X93350000Y-115073800D03*
%TO.P,C7,2*%
%TO.N,GND*%
X93350000Y-114113800D03*
%TD*%
D12*
%TO.P,R8,1*%
%TO.N,+3V3_MCU*%
X86200000Y-100903800D03*
%TO.P,R8,2*%
%TO.N,RTC_SCL*%
X86200000Y-99883800D03*
%TD*%
D15*
%TO.P,R20,1*%
%TO.N,USB_INT*%
X89100000Y-109433800D03*
%TO.P,R20,2*%
%TO.N,GND*%
X89100000Y-110453800D03*
%TD*%
D14*
%TO.P,C2,1*%
%TO.N,GND*%
X87350000Y-91413800D03*
%TO.P,C2,2*%
%TO.N,+3V3_MCU*%
X87350000Y-92373800D03*
%TD*%
D13*
%TO.P,C8,1*%
%TO.N,+2V8*%
X94500000Y-115043800D03*
%TO.P,C8,2*%
%TO.N,GND*%
X94500000Y-114083800D03*
%TD*%
D41*
%TO.N,GND*%
X84500000Y-107243800D03*
X89550000Y-120443800D03*
X106250000Y-91093800D03*
X91250000Y-118393800D03*
X90850000Y-111943800D03*
X86050000Y-95743800D03*
X101650000Y-125793800D03*
X83540000Y-94103800D03*
X81800000Y-120693800D03*
X92550000Y-91093800D03*
X106650000Y-111343800D03*
X90300000Y-126143800D03*
X85387500Y-117606300D03*
X87344238Y-116318799D03*
X81800000Y-110843800D03*
X89400000Y-94693800D03*
X82887500Y-114656300D03*
X84487500Y-116706300D03*
X89750000Y-113593800D03*
X86275000Y-118468800D03*
X93047156Y-113311812D03*
X96300000Y-127543800D03*
X87100000Y-121943800D03*
X105300000Y-121193800D03*
X84950000Y-117156300D03*
X84487500Y-117606300D03*
X93000000Y-124043800D03*
X98500000Y-92993800D03*
X89800000Y-111943800D03*
X85387500Y-116706300D03*
X80100000Y-117243800D03*
X78600000Y-110093800D03*
X79900000Y-90893800D03*
X81600000Y-125993800D03*
X78600000Y-105343800D03*
X81800000Y-104443800D03*
X105350000Y-122443800D03*
X83800000Y-90743800D03*
X93479291Y-127716922D03*
X87050000Y-120693800D03*
X91100000Y-113643800D03*
X79300000Y-97293800D03*
X87675000Y-97018800D03*
X80700000Y-120293800D03*
X86450000Y-91443800D03*
X89550000Y-122043800D03*
%TO.N,+3V3_MCU*%
X88000000Y-98793800D03*
X104900000Y-102743800D03*
X92400000Y-106662853D03*
X110650000Y-95195272D03*
X111150000Y-91193800D03*
X84350000Y-92443800D03*
X77900000Y-92443800D03*
X106650000Y-94943800D03*
X99950000Y-104493800D03*
X100400000Y-93143800D03*
X86050000Y-101793800D03*
X97090000Y-104593800D03*
%TO.N,5V_USB*%
X82450000Y-115993800D03*
X87450000Y-117593800D03*
%TO.N,VBUS*%
X86750000Y-112643800D03*
X88950000Y-114618800D03*
%TO.N,Net-(D15-A)*%
X89550000Y-118343800D03*
%TO.N,Net-(D16-A)*%
X89650000Y-115393800D03*
%TO.N,SDMMC1_D0*%
X97860000Y-107293800D03*
%TO.N,SDMMC1_D1*%
X96000000Y-107393800D03*
%TO.N,SDMMC1_D2*%
X107264998Y-99893800D03*
%TO.N,SDMMC1_D3*%
X101700000Y-107093800D03*
%TO.N,SDMMC1_CMD*%
X100350000Y-107193800D03*
%TO.N,RTC_INT*%
X92950000Y-103843800D03*
X89350000Y-105393800D03*
%TO.N,RTC_BATT*%
X83350000Y-97593800D03*
%TO.N,Net-(U9-CC1)*%
X81796723Y-106262130D03*
%TO.N,Net-(U9-CC2)*%
X81700000Y-108943800D03*
%TO.N,Net-(U11-TMR)*%
X82500000Y-117243800D03*
%TO.N,DVP_Y6*%
X104700000Y-114593800D03*
X104700000Y-107343800D03*
%TO.N,CAM_HREF*%
X101350000Y-112243800D03*
X98850000Y-112743800D03*
X102800000Y-110793800D03*
X106500000Y-105093800D03*
%TO.N,DVP_PCLK*%
X104100000Y-113543800D03*
X93350000Y-96143800D03*
%TO.N,DVP_Y5*%
X105949265Y-115793065D03*
X105900000Y-107443800D03*
%TO.N,CAM_VSYNC*%
X93525000Y-110693800D03*
X92600000Y-97443800D03*
%TO.N,DVP_Y9*%
X102262500Y-112956300D03*
X99700735Y-112943065D03*
%TO.N,CAM_PWDN*%
X96950000Y-112243800D03*
X95320000Y-110093800D03*
%TO.N,SDMMC1_SCK*%
X99150000Y-107193800D03*
%TO.N,DVP_Y7*%
X103500000Y-114193800D03*
X93600000Y-105043800D03*
%TO.N,XMCLK*%
X100000000Y-113793800D03*
X102796850Y-113740650D03*
%TO.N,+2V8*%
X98950000Y-120093800D03*
X95650000Y-119043800D03*
X92034243Y-115768800D03*
%TO.N,+1V5*%
X98650000Y-125193800D03*
X94300000Y-125193800D03*
%TO.N,EN_1.5V*%
X110650000Y-96493800D03*
%TO.N,Net-(JP1-B)*%
X90262500Y-127110402D03*
%TO.N,EN_2.8V*%
X110150000Y-98143800D03*
%TO.N,USB_INT*%
X91950000Y-110643800D03*
X95300000Y-111393800D03*
X97850000Y-111343800D03*
X99700000Y-111044800D03*
%TO.N,BATT_MEASURE*%
X81650000Y-99293800D03*
X84800000Y-98143800D03*
%TO.N,Net-(U2-IO15)*%
X89400000Y-99743800D03*
%TO.N,Net-(J4-Pin_3)*%
X84100000Y-123243800D03*
%TO.N,TEMP*%
X83800000Y-119843800D03*
%TD*%
D42*
%TO.N,+3V3_MCU*%
X77900000Y-94243800D02*
X77900000Y-92443800D01*
X78390000Y-95193800D02*
X78390000Y-94733800D01*
X78390000Y-94733800D02*
X77900000Y-94243800D01*
X78400000Y-96243800D02*
X78400000Y-95333800D01*
X78500000Y-96343800D02*
X78400000Y-96243800D01*
%TO.N,GND*%
X79300000Y-97293800D02*
X79300000Y-96503800D01*
X79300000Y-96503800D02*
X79460000Y-96343800D01*
X94300000Y-127503800D02*
X95360000Y-127503800D01*
D43*
X87675000Y-96268800D02*
X88425000Y-96268800D01*
D44*
X82787500Y-121026300D02*
X82132500Y-121026300D01*
D45*
X81800000Y-123193800D02*
X81800000Y-120693800D01*
D43*
X84650000Y-107093800D02*
X84500000Y-107243800D01*
D46*
X86150000Y-118593800D02*
X86275000Y-118468800D01*
D42*
X85650000Y-96143800D02*
X86050000Y-95743800D01*
X91100000Y-113643800D02*
X91100000Y-113693800D01*
X93000000Y-124043800D02*
X93000000Y-123493800D01*
X84620000Y-96143800D02*
X85650000Y-96143800D01*
D43*
X106260000Y-91083800D02*
X108515000Y-91083800D01*
D42*
X87580000Y-125943800D02*
X88950000Y-125943800D01*
D43*
X81800000Y-110843800D02*
X82950000Y-110843800D01*
D42*
X101150000Y-124843800D02*
X101650000Y-125343800D01*
X91250000Y-117473800D02*
X91250000Y-118243800D01*
X94500000Y-114083800D02*
X93380000Y-114083800D01*
X86300000Y-95493800D02*
X86300000Y-94523800D01*
X86050000Y-95743800D02*
X86300000Y-95493800D01*
X91250000Y-118243800D02*
X91250000Y-118393800D01*
X89100000Y-110453800D02*
X89100000Y-111443800D01*
X93000000Y-123493800D02*
X93300000Y-123193800D01*
X93380000Y-114083800D02*
X93350000Y-114113800D01*
D43*
X91015000Y-91083800D02*
X92540000Y-91083800D01*
D42*
X106650000Y-111343800D02*
X106050000Y-111343800D01*
X91100000Y-113693800D02*
X91470000Y-114063800D01*
D46*
X85700000Y-118593800D02*
X86150000Y-118593800D01*
D42*
X88950000Y-125943800D02*
X89150000Y-126143800D01*
D43*
X85725000Y-107093800D02*
X84650000Y-107093800D01*
D42*
X93350000Y-113614656D02*
X93047156Y-113311812D01*
X101650000Y-125793800D02*
X100760000Y-125793800D01*
X95400000Y-127543800D02*
X96300000Y-127543800D01*
D43*
X106250000Y-91093800D02*
X106260000Y-91083800D01*
D42*
X101650000Y-125343800D02*
X101650000Y-125793800D01*
X93150000Y-127387631D02*
X93479291Y-127716922D01*
X89600000Y-111943800D02*
X89800000Y-111943800D01*
D46*
X86387500Y-118356300D02*
X86387500Y-117906300D01*
X87256737Y-116406300D02*
X86387500Y-116406300D01*
X87344238Y-116318799D02*
X87256737Y-116406300D01*
D42*
X89100000Y-111443800D02*
X89600000Y-111943800D01*
D44*
X82427500Y-113756300D02*
X82427500Y-114196300D01*
D42*
X106050000Y-111343800D02*
X105325000Y-112068800D01*
D43*
X92540000Y-91083800D02*
X92550000Y-91093800D01*
D42*
X93150000Y-126123800D02*
X93150000Y-127387631D01*
X93350000Y-114113800D02*
X93350000Y-113614656D01*
X83770000Y-90713800D02*
X83800000Y-90743800D01*
X95360000Y-127503800D02*
X95400000Y-127543800D01*
X89150000Y-126143800D02*
X90300000Y-126143800D01*
D44*
X82427500Y-114196300D02*
X82887500Y-114656300D01*
X82132500Y-121026300D02*
X81800000Y-120693800D01*
D42*
X94650000Y-123493800D02*
X94650000Y-124093800D01*
X105325000Y-112768800D02*
X105325000Y-113518800D01*
X93300000Y-123193800D02*
X94350000Y-123193800D01*
D43*
X87675000Y-97018800D02*
X87675000Y-96268800D01*
D42*
X82750000Y-90713800D02*
X83770000Y-90713800D01*
D43*
X82950000Y-104443800D02*
X81800000Y-104443800D01*
D42*
X105325000Y-112068800D02*
X105325000Y-113518800D01*
D46*
X86275000Y-118468800D02*
X86387500Y-118356300D01*
D42*
X101150000Y-124093800D02*
X101150000Y-124843800D01*
X94350000Y-123193800D02*
X94650000Y-123493800D01*
X83540000Y-94103800D02*
X82750000Y-94103800D01*
X91470000Y-114063800D02*
X92100000Y-114063800D01*
%TO.N,+3V3_MCU*%
X82030000Y-91673800D02*
X81550000Y-91193800D01*
X86050000Y-102583800D02*
X86050000Y-101793800D01*
X78312500Y-92031300D02*
X77900000Y-92443800D01*
X86200000Y-100903800D02*
X86200000Y-101643800D01*
X97090000Y-104593800D02*
X97040000Y-104543800D01*
X80650000Y-91443800D02*
X80650000Y-91868800D01*
X82750000Y-92093800D02*
X83100000Y-92443800D01*
D46*
X100400000Y-92343800D02*
X104050000Y-92343800D01*
D42*
X96200000Y-104543800D02*
X94080947Y-106662853D01*
D43*
X85150000Y-92433800D02*
X84360000Y-92433800D01*
D42*
X97040000Y-104543800D02*
X96200000Y-104543800D01*
X80900000Y-91193800D02*
X80650000Y-91443800D01*
D46*
X91015000Y-92353800D02*
X91025000Y-92343800D01*
D42*
X110650000Y-94703800D02*
X110450000Y-94503800D01*
X94080947Y-106662853D02*
X92400000Y-106662853D01*
X104900000Y-96693800D02*
X106650000Y-94943800D01*
X83100000Y-92443800D02*
X84350000Y-92443800D01*
D43*
X88650000Y-92373800D02*
X90995000Y-92373800D01*
D42*
X81550000Y-91193800D02*
X80900000Y-91193800D01*
X78987500Y-92031300D02*
X78312500Y-92031300D01*
D46*
X91025000Y-92343800D02*
X100400000Y-92343800D01*
D43*
X88670000Y-92353800D02*
X88650000Y-92373800D01*
D42*
X99850000Y-104593800D02*
X97090000Y-104593800D01*
D43*
X85210000Y-92373800D02*
X85150000Y-92433800D01*
D42*
X100400000Y-93143800D02*
X100400000Y-92343800D01*
D43*
X84360000Y-92433800D02*
X84350000Y-92443800D01*
D42*
X86200000Y-101643800D02*
X86050000Y-101793800D01*
X82750000Y-91673800D02*
X82030000Y-91673800D01*
X110140000Y-91193800D02*
X111150000Y-91193800D01*
X104900000Y-102743800D02*
X104900000Y-96693800D01*
X110100000Y-91233800D02*
X110140000Y-91193800D01*
X110650000Y-95195272D02*
X110650000Y-94703800D01*
X99950000Y-104493800D02*
X99850000Y-104593800D01*
D43*
X87350000Y-92373800D02*
X85210000Y-92373800D01*
X88650000Y-92373800D02*
X87350000Y-92373800D01*
D42*
X82750000Y-91673800D02*
X82750000Y-92093800D01*
D46*
X104050000Y-92343800D02*
X106650000Y-94943800D01*
D42*
X87210000Y-98793800D02*
X88000000Y-98793800D01*
D43*
X90995000Y-92373800D02*
X91015000Y-92353800D01*
%TO.N,5V_USB*%
X81550000Y-105243800D02*
X81275000Y-105518800D01*
X82950000Y-105243800D02*
X81550000Y-105243800D01*
D42*
X80850000Y-103093800D02*
X80850000Y-105093800D01*
D44*
X85950000Y-109293800D02*
X85149000Y-110094800D01*
D46*
X87450000Y-117593800D02*
X87250000Y-117393800D01*
D42*
X82080000Y-101093800D02*
X82080000Y-101863800D01*
X86500000Y-109843800D02*
X85950000Y-109293800D01*
D46*
X86400000Y-117393800D02*
X86387500Y-117406300D01*
X87250000Y-117393800D02*
X86400000Y-117393800D01*
D42*
X86840000Y-109843800D02*
X86500000Y-109843800D01*
D44*
X86788500Y-107642802D02*
X86788500Y-108455300D01*
D43*
X81275000Y-105518800D02*
X80900000Y-105893800D01*
X80350000Y-115756300D02*
X80387500Y-115793800D01*
D44*
X83001000Y-110094800D02*
X82950000Y-110043800D01*
X86788500Y-108455300D02*
X85950000Y-109293800D01*
D43*
X80900000Y-115281300D02*
X80387500Y-115793800D01*
D42*
X82080000Y-101863800D02*
X80850000Y-103093800D01*
D43*
X80900000Y-105893800D02*
X80900000Y-115281300D01*
D44*
X87337502Y-107093800D02*
X86788500Y-107642802D01*
D42*
X80850000Y-105093800D02*
X81275000Y-105518800D01*
D44*
X85149000Y-110094800D02*
X83001000Y-110094800D01*
X88000000Y-107093800D02*
X87337502Y-107093800D01*
D46*
%TO.N,VBUS*%
X90025000Y-114618800D02*
X88950000Y-114618800D01*
D47*
X86750000Y-114057296D02*
X87311504Y-114618800D01*
D42*
X86640000Y-125963800D02*
X86620000Y-125943800D01*
D47*
X85275000Y-112656300D02*
X85349004Y-112656300D01*
D42*
X86640000Y-127093800D02*
X86640000Y-125963800D01*
X86620000Y-125473800D02*
X86620000Y-125943800D01*
D47*
X88950000Y-114618800D02*
X89000000Y-114618800D01*
X86750000Y-112643800D02*
X86750000Y-114057296D01*
D46*
X89150000Y-124543800D02*
X90450000Y-123243800D01*
D42*
X86900000Y-125193800D02*
X86620000Y-125473800D01*
D47*
X86750000Y-112643800D02*
X86737500Y-112656300D01*
X87311504Y-114618800D02*
X88950000Y-114618800D01*
D46*
X90450000Y-123243800D02*
X90450000Y-115043800D01*
D42*
X89150000Y-125193800D02*
X86900000Y-125193800D01*
D46*
X90450000Y-115043800D02*
X90025000Y-114618800D01*
X89150000Y-125193800D02*
X89150000Y-124543800D01*
D45*
%TO.N,+BATT*%
X85387500Y-124006300D02*
X85387500Y-121193800D01*
D42*
X78050000Y-123203800D02*
X80790000Y-123203800D01*
D45*
X84824000Y-124569800D02*
X85387500Y-124006300D01*
X81334768Y-124569800D02*
X84824000Y-124569800D01*
X80800000Y-124035032D02*
X81334768Y-124569800D01*
D42*
X80790000Y-123203800D02*
X80800000Y-123193800D01*
D43*
X85150000Y-121193800D02*
X85887500Y-121193800D01*
D45*
X80800000Y-123193800D02*
X80800000Y-124035032D01*
D42*
%TO.N,Net-(D15-A)*%
X89550000Y-118343800D02*
X89535000Y-118328800D01*
X89535000Y-118328800D02*
X89535000Y-117443800D01*
%TO.N,Net-(D15-K)*%
X88182500Y-117443800D02*
X88565000Y-117443800D01*
X87658499Y-116919799D02*
X88182500Y-117443800D01*
X86387500Y-116906300D02*
X86400999Y-116919799D01*
X86400999Y-116919799D02*
X87658499Y-116919799D01*
%TO.N,Net-(D16-A)*%
X89535000Y-116243800D02*
X89535000Y-115508800D01*
X89535000Y-115508800D02*
X89650000Y-115393800D01*
%TO.N,Net-(D16-K)*%
X87600000Y-115718800D02*
X88125000Y-116243800D01*
X85700000Y-115718800D02*
X87600000Y-115718800D01*
X88125000Y-116243800D02*
X88565000Y-116243800D01*
%TO.N,SDMMC1_D0*%
X97860000Y-107293800D02*
X97860000Y-108843800D01*
%TO.N,SDMMC1_D1*%
X96000000Y-107393800D02*
X96590000Y-107983800D01*
X96590000Y-107983800D02*
X96590000Y-108843800D01*
%TO.N,SDMMC1_D2*%
X107250000Y-102198800D02*
X107565000Y-102513800D01*
X107264998Y-99893800D02*
X107250000Y-99908798D01*
X107250000Y-99908798D02*
X107250000Y-102198800D01*
X107565000Y-102513800D02*
X108515000Y-102513800D01*
%TO.N,SDMMC1_D3*%
X101700000Y-108813800D02*
X101670000Y-108843800D01*
X101700000Y-107093800D02*
X101700000Y-108813800D01*
%TO.N,SDMMC1_CMD*%
X100400000Y-107243800D02*
X100350000Y-107193800D01*
X100400000Y-108843800D02*
X100400000Y-107243800D01*
%TO.N,RTC_SDA*%
X86190000Y-98793800D02*
X86140000Y-98743800D01*
X82080000Y-95421048D02*
X80650000Y-93991048D01*
X86140000Y-98743800D02*
X83400000Y-98743800D01*
X80650000Y-93991048D02*
X80650000Y-93693800D01*
X86190000Y-98793800D02*
X89910000Y-102513800D01*
X82080000Y-97423800D02*
X82080000Y-95421048D01*
X89910000Y-102513800D02*
X91015000Y-102513800D01*
X83400000Y-98743800D02*
X82080000Y-97423800D01*
%TO.N,RTC_SCL*%
X82600000Y-99393800D02*
X85710000Y-99393800D01*
X85710000Y-99393800D02*
X86200000Y-99883800D01*
X80810000Y-94953800D02*
X80810000Y-97603800D01*
X80150000Y-93693800D02*
X80150000Y-94293800D01*
X90140000Y-103783800D02*
X91015000Y-103783800D01*
X80810000Y-97603800D02*
X82600000Y-99393800D01*
X86240000Y-99883800D02*
X90140000Y-103783800D01*
X86200000Y-99883800D02*
X86240000Y-99883800D01*
X80150000Y-94293800D02*
X80810000Y-94953800D01*
%TO.N,RTC_INT*%
X104210000Y-107703800D02*
X100350000Y-103843800D01*
X83350000Y-101343800D02*
X83350000Y-102643800D01*
X86050000Y-103603800D02*
X87560000Y-103603800D01*
X83350000Y-102643800D02*
X84310000Y-103603800D01*
X104210000Y-108843800D02*
X104210000Y-107703800D01*
X84310000Y-103603800D02*
X86050000Y-103603800D01*
X100350000Y-103843800D02*
X92950000Y-103843800D01*
X87560000Y-103603800D02*
X89350000Y-105393800D01*
D46*
%TO.N,RTC_BATT*%
X83350000Y-96143800D02*
X83350000Y-97593800D01*
D42*
%TO.N,Net-(U9-CC1)*%
X81928393Y-106393800D02*
X82950000Y-106393800D01*
X81796723Y-106262130D02*
X81928393Y-106393800D01*
D46*
%TO.N,Net-(U9-CC2)*%
X82150000Y-109393800D02*
X82950000Y-109393800D01*
X81700000Y-108943800D02*
X82150000Y-109393800D01*
D42*
%TO.N,Net-(U11-ISET)*%
X82787500Y-120006300D02*
X82787500Y-118956300D01*
X83512500Y-117906300D02*
X83512500Y-118231300D01*
X82787500Y-118956300D02*
X83512500Y-118231300D01*
%TO.N,Net-(U11-ILIM)*%
X83447500Y-114391300D02*
X83447500Y-113756300D01*
X84200000Y-115143800D02*
X83447500Y-114391300D01*
X84200000Y-115718800D02*
X84200000Y-115143800D01*
D46*
%TO.N,Net-(U11-TMR)*%
X83512500Y-116906300D02*
X82837500Y-116906300D01*
X82837500Y-116906300D02*
X82500000Y-117243800D01*
D42*
%TO.N,CAM_SCL*%
X110310000Y-93623800D02*
X108515000Y-93623800D01*
X111250000Y-93893800D02*
X110840000Y-93483800D01*
X111250000Y-120493800D02*
X111250000Y-93893800D01*
X110450000Y-93483800D02*
X110310000Y-93623800D01*
X97300000Y-126593800D02*
X105150000Y-126593800D01*
X110840000Y-93483800D02*
X110450000Y-93483800D01*
X96150000Y-124093800D02*
X96150000Y-125443800D01*
X96150000Y-125443800D02*
X97300000Y-126593800D01*
X105150000Y-126593800D02*
X111250000Y-120493800D01*
%TO.N,DVP_Y6*%
X104700000Y-115043800D02*
X102648000Y-117095800D01*
X104700000Y-114593800D02*
X104700000Y-115043800D01*
X99300000Y-101943800D02*
X96903000Y-101943800D01*
X93663000Y-98703800D02*
X91015000Y-98703800D01*
X102648000Y-117095800D02*
X102648000Y-124091800D01*
X104700000Y-107343800D02*
X99300000Y-101943800D01*
X102648000Y-124091800D02*
X102650000Y-124093800D01*
X96903000Y-101943800D02*
X93663000Y-98703800D01*
%TO.N,CAM_RST*%
X95650000Y-114083800D02*
X95490057Y-114083800D01*
X96650000Y-115083800D02*
X95650000Y-114083800D01*
X96650000Y-124093800D02*
X96650000Y-115083800D01*
X92780000Y-111373743D02*
X92780000Y-108843800D01*
X95490057Y-114083800D02*
X92780000Y-111373743D01*
%TO.N,CAM_HREF*%
X106500000Y-105093800D02*
X106500000Y-98043800D01*
X98150000Y-113443800D02*
X98150000Y-124093800D01*
X107110000Y-97433800D02*
X108515000Y-97433800D01*
X102800000Y-110793800D02*
X101350000Y-112243800D01*
X98850000Y-112743800D02*
X98150000Y-113443800D01*
X106500000Y-98043800D02*
X107110000Y-97433800D01*
%TO.N,DVP_PCLK*%
X104100000Y-114793800D02*
X102150000Y-116743800D01*
X93330000Y-96163800D02*
X93350000Y-96143800D01*
X102150000Y-116743800D02*
X102150000Y-124093800D01*
X91015000Y-96163800D02*
X93330000Y-96163800D01*
X104100000Y-113543800D02*
X104100000Y-114793800D01*
%TO.N,DVP_Y5*%
X105949265Y-115793065D02*
X105850000Y-115892330D01*
X105900000Y-107393800D02*
X103650000Y-105143800D01*
X103650000Y-99686800D02*
X98857000Y-94893800D01*
X98857000Y-94893800D02*
X91015000Y-94893800D01*
X103650000Y-119143800D02*
X103650000Y-124093800D01*
X105850000Y-115892330D02*
X105850000Y-116943800D01*
X105900000Y-107443800D02*
X105900000Y-107393800D01*
X105850000Y-116943800D02*
X103650000Y-119143800D01*
X103650000Y-105143800D02*
X103650000Y-99686800D01*
%TO.N,CAM_VSYNC*%
X93525000Y-110968800D02*
X97150000Y-114593800D01*
X91015000Y-97433800D02*
X92590000Y-97433800D01*
X93525000Y-110693800D02*
X93525000Y-110968800D01*
X97150000Y-114593800D02*
X97150000Y-124093800D01*
X92590000Y-97433800D02*
X92600000Y-97443800D01*
D48*
%TO.N,USB_D+*%
X89400000Y-107593800D02*
X91015000Y-107593800D01*
X88950000Y-108043800D02*
X89400000Y-107593800D01*
X88000000Y-108043800D02*
X88950000Y-108043800D01*
D42*
%TO.N,DVP_Y3*%
X110100000Y-114793800D02*
X110100000Y-100608800D01*
X109465000Y-99973800D02*
X108515000Y-99973800D01*
X104150000Y-120743800D02*
X110100000Y-114793800D01*
X110100000Y-100608800D02*
X109465000Y-99973800D01*
X104150000Y-124093800D02*
X104150000Y-120743800D01*
%TO.N,DVP_Y9*%
X99700735Y-112943065D02*
X99250000Y-113393800D01*
X102262500Y-112956300D02*
X105480000Y-109738800D01*
X99250000Y-118443800D02*
X99650000Y-118843800D01*
X99250000Y-113393800D02*
X99250000Y-118443800D01*
X105480000Y-109738800D02*
X105480000Y-108843800D01*
X99650000Y-118843800D02*
X99650000Y-124093800D01*
%TO.N,CAM_PWDN*%
X99589000Y-125794800D02*
X99740000Y-125643800D01*
X96950000Y-112243800D02*
X96950000Y-112293800D01*
X97650000Y-124093800D02*
X97650000Y-125043743D01*
X97650000Y-112993800D02*
X97650000Y-124093800D01*
X95320000Y-110093800D02*
X95320000Y-108843800D01*
X97650000Y-125043743D02*
X98401057Y-125794800D01*
X96950000Y-112293800D02*
X97650000Y-112993800D01*
X98401057Y-125794800D02*
X99589000Y-125794800D01*
%TO.N,SDMMC1_SCK*%
X99130000Y-108843800D02*
X99130000Y-107213800D01*
X99130000Y-107213800D02*
X99150000Y-107193800D01*
%TO.N,DVP_Y2*%
X109047000Y-101243800D02*
X108515000Y-101243800D01*
X109566000Y-101762800D02*
X109047000Y-101243800D01*
X106150000Y-114743800D02*
X108450057Y-114743800D01*
X108450057Y-114743800D02*
X109566000Y-113627857D01*
X109566000Y-113627857D02*
X109566000Y-101762800D01*
X103150000Y-117743800D02*
X106150000Y-114743800D01*
X103150000Y-124093800D02*
X103150000Y-117743800D01*
%TO.N,DVP_Y7*%
X103500000Y-114193800D02*
X103500000Y-114826700D01*
X103500000Y-114826700D02*
X101650000Y-116676700D01*
X93170000Y-105043800D02*
X93160000Y-105053800D01*
X93160000Y-105053800D02*
X91015000Y-105053800D01*
X101650000Y-116676700D02*
X101650000Y-124093800D01*
X93600000Y-105043800D02*
X93170000Y-105043800D01*
%TO.N,XMCLK*%
X102796850Y-113740650D02*
X106750000Y-109787500D01*
X100000000Y-113793800D02*
X100150000Y-113943800D01*
X106750000Y-109787500D02*
X106750000Y-108843800D01*
X100150000Y-113943800D02*
X100150000Y-124093800D01*
%TO.N,DVP_Y4*%
X110500000Y-99738800D02*
X109465000Y-98703800D01*
X109465000Y-98703800D02*
X108515000Y-98703800D01*
X104650000Y-120810900D02*
X110500000Y-114960900D01*
X104650000Y-124093800D02*
X104650000Y-120810900D01*
X110500000Y-114960900D02*
X110500000Y-99738800D01*
%TO.N,CAM_SDA*%
X111651000Y-92894800D02*
X111651000Y-121042800D01*
X95150000Y-125343800D02*
X95150000Y-124093800D01*
X96950000Y-127143800D02*
X95150000Y-125343800D01*
X111651000Y-121042800D02*
X105550000Y-127143800D01*
X108515000Y-92353800D02*
X111110000Y-92353800D01*
X111110000Y-92353800D02*
X111651000Y-92894800D01*
X105550000Y-127143800D02*
X96950000Y-127143800D01*
%TO.N,DVP_Y8*%
X94700000Y-110693800D02*
X98300000Y-110693800D01*
X94050000Y-108843800D02*
X94050000Y-110043800D01*
X100650000Y-113043800D02*
X100650000Y-124093800D01*
X94050000Y-110043800D02*
X94700000Y-110693800D01*
X98300000Y-110693800D02*
X100650000Y-113043800D01*
%TO.N,+2V8*%
X92100000Y-115023800D02*
X93300000Y-115023800D01*
X99150000Y-121393800D02*
X99150000Y-124093800D01*
X91680000Y-116513800D02*
X92034243Y-116159557D01*
X92034243Y-115089557D02*
X92100000Y-115023800D01*
X98950000Y-120093800D02*
X98950000Y-121193800D01*
X95650000Y-119043800D02*
X95650000Y-124093800D01*
X95650000Y-115103800D02*
X94560000Y-115103800D01*
X93350000Y-115073800D02*
X94470000Y-115073800D01*
X92034243Y-115768800D02*
X92034243Y-115089557D01*
X94470000Y-115073800D02*
X94500000Y-115043800D01*
X98950000Y-121193800D02*
X99150000Y-121393800D01*
X93300000Y-115023800D02*
X93350000Y-115073800D01*
X94560000Y-115103800D02*
X94500000Y-115043800D01*
X92034243Y-116159557D02*
X92034243Y-115768800D01*
X92125000Y-115768800D02*
X92200000Y-115843800D01*
X91250000Y-116513800D02*
X91680000Y-116513800D01*
D48*
%TO.N,USB_D-*%
X89050000Y-106143800D02*
X89230000Y-106323800D01*
X89230000Y-106323800D02*
X91015000Y-106323800D01*
X88000000Y-106143800D02*
X89050000Y-106143800D01*
D46*
%TO.N,/MCU/USB_CON_N*%
X83900000Y-106893800D02*
X84650000Y-106143800D01*
X84650000Y-106143800D02*
X85725000Y-106143800D01*
X81700000Y-107643800D02*
X81700000Y-107143800D01*
X81700000Y-107143800D02*
X81950000Y-106893800D01*
X81950000Y-106893800D02*
X82950000Y-106893800D01*
X82950000Y-107893800D02*
X81950000Y-107893800D01*
X82950000Y-106893800D02*
X83900000Y-106893800D01*
X81950000Y-107893800D02*
X81700000Y-107643800D01*
%TO.N,/MCU/USB_CON_P*%
X83900000Y-108243800D02*
X83750000Y-108393800D01*
X83750000Y-107393800D02*
X83900000Y-107543800D01*
X83900000Y-107543800D02*
X83900000Y-108043800D01*
X82950000Y-107393800D02*
X83750000Y-107393800D01*
X85725000Y-108043800D02*
X83900000Y-108043800D01*
X83900000Y-108043800D02*
X83900000Y-108243800D01*
X83750000Y-108393800D02*
X82950000Y-108393800D01*
%TO.N,+1V5*%
X98650000Y-124093800D02*
X98650000Y-125193800D01*
X95360000Y-126543800D02*
X95400000Y-126583800D01*
X94300000Y-126543800D02*
X95360000Y-126543800D01*
X94300000Y-125193800D02*
X94300000Y-126543800D01*
X91425000Y-125193800D02*
X94300000Y-125193800D01*
D42*
%TO.N,CHIP_EN*%
X86300000Y-93563800D02*
X87620000Y-93563800D01*
X91010000Y-93618800D02*
X91015000Y-93623800D01*
X87675000Y-93618800D02*
X88425000Y-93618800D01*
X85150000Y-93453800D02*
X86190000Y-93453800D01*
X88425000Y-93618800D02*
X91010000Y-93618800D01*
X87620000Y-93563800D02*
X87675000Y-93618800D01*
X86190000Y-93453800D02*
X86300000Y-93563800D01*
%TO.N,EN_1.5V*%
X109500000Y-94893800D02*
X108515000Y-94893800D01*
X110650000Y-96493800D02*
X110650000Y-96043800D01*
X110650000Y-96043800D02*
X109500000Y-94893800D01*
%TO.N,Net-(JP1-B)*%
X90245898Y-127093800D02*
X90262500Y-127110402D01*
X89150000Y-127093800D02*
X90245898Y-127093800D01*
X89150000Y-127093800D02*
X87660000Y-127093800D01*
%TO.N,Net-(R18-Pad2)*%
X107540000Y-111193800D02*
X107975000Y-111628800D01*
X107975000Y-112768800D02*
X107975000Y-113518800D01*
X107975000Y-111628800D02*
X107975000Y-112768800D01*
%TO.N,BOOT*%
X108560000Y-111193800D02*
X108560000Y-107638800D01*
X108560000Y-107638800D02*
X108515000Y-107593800D01*
%TO.N,EN_2.8V*%
X109470000Y-96163800D02*
X108515000Y-96163800D01*
X110150000Y-96843800D02*
X109470000Y-96163800D01*
X110150000Y-98143800D02*
X110150000Y-96843800D01*
%TO.N,USB_INT*%
X101699000Y-111044800D02*
X102940000Y-109803800D01*
X89100000Y-109433800D02*
X90740000Y-109433800D01*
X97714488Y-111343800D02*
X97664488Y-111393800D01*
X97850000Y-111343800D02*
X97714488Y-111343800D01*
X88300000Y-109843800D02*
X88710000Y-109433800D01*
X88710000Y-109433800D02*
X89100000Y-109433800D01*
X87860000Y-109843800D02*
X88300000Y-109843800D01*
X97664488Y-111393800D02*
X95300000Y-111393800D01*
X99700000Y-111044800D02*
X101699000Y-111044800D01*
X90740000Y-109433800D02*
X91950000Y-110643800D01*
X99649000Y-111044800D02*
X99550000Y-111143800D01*
X99700000Y-111044800D02*
X99649000Y-111044800D01*
X102940000Y-109803800D02*
X102940000Y-108843800D01*
%TO.N,BATT_MEASURE*%
X88601000Y-100544800D02*
X89300000Y-101243800D01*
X84800000Y-98143800D02*
X85100000Y-97843800D01*
X87899943Y-97843800D02*
X88601000Y-98544857D01*
X78040000Y-120993800D02*
X78040000Y-122173800D01*
X78040000Y-114031585D02*
X78040000Y-120993800D01*
X88601000Y-98544857D02*
X88601000Y-100544800D01*
X85100000Y-97843800D02*
X87899943Y-97843800D01*
X89300000Y-101243800D02*
X91015000Y-101243800D01*
X80209000Y-100077832D02*
X80209000Y-111862585D01*
X78040000Y-122173800D02*
X78050000Y-122183800D01*
X81650000Y-99293800D02*
X80993032Y-99293800D01*
X80209000Y-111862585D02*
X78040000Y-114031585D01*
X80993032Y-99293800D02*
X80209000Y-100077832D01*
%TO.N,Net-(U2-IO15)*%
X89400000Y-99743800D02*
X89400000Y-99893800D01*
X89400000Y-99893800D02*
X89480000Y-99973800D01*
X89480000Y-99973800D02*
X91015000Y-99973800D01*
D46*
%TO.N,Net-(J4-Pin_3)*%
X82850000Y-123243800D02*
X82800000Y-123193800D01*
X84100000Y-123243800D02*
X82850000Y-123243800D01*
%TO.N,TEMP*%
X84200000Y-118593800D02*
X84200000Y-119443800D01*
X84200000Y-119443800D02*
X83800000Y-119843800D01*
D42*
%TO.N,Net-(U4-SCX)*%
X81312500Y-92531300D02*
X82537500Y-92531300D01*
X82537500Y-92531300D02*
X82750000Y-92743800D01*
X82750000Y-92743800D02*
X82750000Y-93083800D01*
X81312500Y-93531300D02*
X81312500Y-93031300D01*
X81312500Y-93031300D02*
X81312500Y-92531300D01*
%TO.N,Net-(U4-CS)*%
X79650000Y-95103800D02*
X79560000Y-95193800D01*
X79650000Y-93693800D02*
X79650000Y-95103800D01*
%TD*%
%TA.AperFunction,Conductor*%
%TO.N,GND*%
G36*
X90243039Y-111163485D02*
G01*
X90288794Y-111216289D01*
X90300000Y-111267800D01*
X90300000Y-114119800D01*
X90280315Y-114186839D01*
X90227511Y-114232594D01*
X90176000Y-114243800D01*
X89332638Y-114243800D01*
X89265599Y-114224115D01*
X89257400Y-114218350D01*
X89257314Y-114218300D01*
X89170712Y-114168300D01*
X89143187Y-114152408D01*
X89079539Y-114135354D01*
X89015892Y-114118300D01*
X88884108Y-114118300D01*
X88756814Y-114152408D01*
X88749304Y-114155519D01*
X88748750Y-114154181D01*
X88696063Y-114168300D01*
X87674000Y-114168300D01*
X87606961Y-114148615D01*
X87561206Y-114095811D01*
X87550000Y-114044300D01*
X87550000Y-111267800D01*
X87569685Y-111200761D01*
X87622489Y-111155006D01*
X87674000Y-111143800D01*
X90176000Y-111143800D01*
X90243039Y-111163485D01*
G37*
%TD.AperFunction*%
%TD*%
%TA.AperFunction,Conductor*%
%TO.N,+BATT*%
G36*
X85317539Y-118176485D02*
G01*
X85363294Y-118229289D01*
X85374500Y-118280800D01*
X85374500Y-118438029D01*
X85370275Y-118470122D01*
X85349500Y-118547656D01*
X85349500Y-118639943D01*
X85370275Y-118717477D01*
X85374500Y-118749570D01*
X85374500Y-118994698D01*
X85385118Y-119048078D01*
X85387500Y-119072268D01*
X85387500Y-119156300D01*
X86140308Y-119669082D01*
X86184633Y-119723092D01*
X86194500Y-119771566D01*
X86194500Y-123119807D01*
X86199197Y-123163486D01*
X86210397Y-123214974D01*
X86212342Y-123222933D01*
X86212890Y-123225173D01*
X86247405Y-123289944D01*
X86251791Y-123298174D01*
X86266357Y-123355926D01*
X86267607Y-123631738D01*
X86248226Y-123698866D01*
X86195630Y-123744860D01*
X86143608Y-123756300D01*
X84661500Y-123756300D01*
X84652814Y-123753749D01*
X84643853Y-123755038D01*
X84619812Y-123744059D01*
X84594461Y-123736615D01*
X84588533Y-123729774D01*
X84580297Y-123726013D01*
X84566007Y-123703778D01*
X84548706Y-123683811D01*
X84546418Y-123673296D01*
X84542523Y-123667235D01*
X84537500Y-123632300D01*
X84537500Y-123520254D01*
X84554114Y-123458253D01*
X84566389Y-123436991D01*
X84566388Y-123436991D01*
X84566392Y-123436986D01*
X84600500Y-123309692D01*
X84600500Y-123177908D01*
X84566392Y-123050614D01*
X84554113Y-123029346D01*
X84537500Y-122967346D01*
X84537500Y-119554784D01*
X84541724Y-119522694D01*
X84550500Y-119489944D01*
X84550500Y-118547656D01*
X84541725Y-118514906D01*
X84537500Y-118482814D01*
X84537500Y-118280800D01*
X84557185Y-118213761D01*
X84609989Y-118168006D01*
X84661500Y-118156800D01*
X85250500Y-118156800D01*
X85317539Y-118176485D01*
G37*
%TD.AperFunction*%
%TD*%
%TA.AperFunction,Conductor*%
%TO.N,5V_USB*%
G36*
X82141724Y-114675985D02*
G01*
X82156828Y-114687411D01*
X83907814Y-116235833D01*
X83926084Y-116264901D01*
X83944695Y-116293946D01*
X83944799Y-116294679D01*
X83944994Y-116294989D01*
X83945244Y-116297804D01*
X83949671Y-116328888D01*
X83949661Y-116335738D01*
X83949500Y-116336552D01*
X83949500Y-116456966D01*
X83939525Y-116490768D01*
X83929815Y-116523839D01*
X83929750Y-116523894D01*
X83929726Y-116523979D01*
X83902886Y-116547172D01*
X83877011Y-116569594D01*
X83876926Y-116569606D01*
X83876861Y-116569663D01*
X83825500Y-116580800D01*
X83668270Y-116580800D01*
X83636178Y-116576575D01*
X83558644Y-116555800D01*
X82791356Y-116555800D01*
X82702212Y-116579686D01*
X82684888Y-116589687D01*
X82622890Y-116606300D01*
X79011500Y-116606300D01*
X78944461Y-116586615D01*
X78898706Y-116533811D01*
X78887500Y-116482300D01*
X78887500Y-114780300D01*
X78907185Y-114713261D01*
X78959989Y-114667506D01*
X79011500Y-114656300D01*
X82074685Y-114656300D01*
X82141724Y-114675985D01*
G37*
%TD.AperFunction*%
%TD*%
%TA.AperFunction,Conductor*%
%TO.N,VBUS*%
G36*
X87167031Y-111225985D02*
G01*
X87212786Y-111278789D01*
X87223988Y-111331304D01*
X87200996Y-114170804D01*
X87180769Y-114237682D01*
X87127596Y-114283008D01*
X87077000Y-114293800D01*
X86150000Y-114293800D01*
X85387500Y-115034876D01*
X85387500Y-115240332D01*
X85385117Y-115264524D01*
X85374500Y-115317896D01*
X85374501Y-116031800D01*
X85354817Y-116098839D01*
X85302013Y-116144594D01*
X85250501Y-116155800D01*
X84661500Y-116155800D01*
X84594461Y-116136115D01*
X84548706Y-116083311D01*
X84537500Y-116031800D01*
X84537500Y-111330300D01*
X84557185Y-111263261D01*
X84609989Y-111217506D01*
X84661500Y-111206300D01*
X87099992Y-111206300D01*
X87167031Y-111225985D01*
G37*
%TD.AperFunction*%
%TD*%
%TA.AperFunction,Conductor*%
%TO.N,GND*%
G36*
X82193039Y-118063485D02*
G01*
X82238794Y-118116289D01*
X82250000Y-118167800D01*
X82250000Y-120495758D01*
X83178426Y-120513921D01*
X83245067Y-120534913D01*
X83289780Y-120588602D01*
X83300000Y-120637897D01*
X83300000Y-121369800D01*
X83280315Y-121436839D01*
X83227511Y-121482594D01*
X83176000Y-121493800D01*
X78924000Y-121493800D01*
X78856961Y-121474115D01*
X78811206Y-121421311D01*
X78800000Y-121369800D01*
X78800000Y-118167800D01*
X78819685Y-118100761D01*
X78872489Y-118055006D01*
X78924000Y-118043800D01*
X82126000Y-118043800D01*
X82193039Y-118063485D01*
G37*
%TD.AperFunction*%
%TD*%
%TA.AperFunction,Conductor*%
%TO.N,GND*%
G36*
X88977860Y-90993392D02*
G01*
X89044832Y-91013300D01*
X89090410Y-91066256D01*
X89101436Y-91115932D01*
X89108871Y-91747841D01*
X89106225Y-91757260D01*
X89107618Y-91766947D01*
X89096932Y-91790345D01*
X89089977Y-91815108D01*
X89082657Y-91821602D01*
X89078593Y-91830503D01*
X89056955Y-91844408D01*
X89037715Y-91861481D01*
X89026478Y-91863994D01*
X89019815Y-91868277D01*
X88984880Y-91873300D01*
X88826859Y-91873300D01*
X88794767Y-91869075D01*
X88735893Y-91853300D01*
X88735892Y-91853300D01*
X88604107Y-91853300D01*
X88604105Y-91853300D01*
X88545232Y-91869075D01*
X88513140Y-91873300D01*
X86224000Y-91873300D01*
X86156961Y-91853615D01*
X86111206Y-91800811D01*
X86100000Y-91749300D01*
X86100000Y-91108213D01*
X86119685Y-91041174D01*
X86172489Y-90995419D01*
X86224409Y-90984214D01*
X88977860Y-90993392D01*
G37*
%TD.AperFunction*%
%TD*%
%TA.AperFunction,Conductor*%
%TO.N,GND*%
G36*
X80293039Y-90463485D02*
G01*
X80338794Y-90516289D01*
X80350000Y-90567800D01*
X80350000Y-91392313D01*
X80349434Y-91400941D01*
X80349547Y-91402907D01*
X80349047Y-91408738D01*
X80348836Y-91409280D01*
X80348439Y-91412296D01*
X80347700Y-91412198D01*
X80338220Y-91436557D01*
X80329815Y-91465183D01*
X80326399Y-91468142D01*
X80327278Y-91468744D01*
X80320787Y-91478218D01*
X80320785Y-91478221D01*
X80320783Y-91478224D01*
X80320783Y-91478225D01*
X80277293Y-91576717D01*
X80277293Y-91576719D01*
X80274500Y-91600791D01*
X80274500Y-91600797D01*
X80274501Y-92119800D01*
X80254817Y-92186839D01*
X80202013Y-92232594D01*
X80150501Y-92243800D01*
X79624500Y-92243800D01*
X79557461Y-92224115D01*
X79511706Y-92171311D01*
X79500500Y-92119801D01*
X79500499Y-91900803D01*
X79500499Y-91900796D01*
X79497707Y-91876720D01*
X79484491Y-91846789D01*
X79454218Y-91778226D01*
X79454216Y-91778223D01*
X79454215Y-91778221D01*
X79436319Y-91760325D01*
X79402834Y-91699002D01*
X79400000Y-91672644D01*
X79400000Y-90567800D01*
X79419685Y-90500761D01*
X79472489Y-90455006D01*
X79524000Y-90443800D01*
X80226000Y-90443800D01*
X80293039Y-90463485D01*
G37*
%TD.AperFunction*%
%TD*%
%TA.AperFunction,Conductor*%
%TO.N,5V_USB*%
G36*
X81840677Y-109763485D02*
G01*
X81861319Y-109780119D01*
X81875000Y-109793800D01*
X82826000Y-109793800D01*
X82893039Y-109813485D01*
X82938794Y-109866289D01*
X82950000Y-109917800D01*
X82950000Y-110169800D01*
X82930315Y-110236839D01*
X82877511Y-110282594D01*
X82826000Y-110293800D01*
X81875000Y-110293800D01*
X81861819Y-110306981D01*
X81835389Y-110321412D01*
X81810216Y-110337935D01*
X81803228Y-110338974D01*
X81800496Y-110340466D01*
X81775331Y-110343294D01*
X81774708Y-110343300D01*
X81734108Y-110343300D01*
X81732595Y-110343705D01*
X81723377Y-110343794D01*
X81723170Y-110343735D01*
X81722184Y-110343800D01*
X80633500Y-110343800D01*
X80566461Y-110324115D01*
X80520706Y-110271311D01*
X80509500Y-110219800D01*
X80509500Y-109867800D01*
X80529185Y-109800761D01*
X80581989Y-109755006D01*
X80633500Y-109743800D01*
X81773638Y-109743800D01*
X81840677Y-109763485D01*
G37*
%TD.AperFunction*%
%TD*%
%TA.AperFunction,Conductor*%
%TO.N,NONET_NET*%
G36*
X117705743Y-94984422D02*
G01*
X117744115Y-95042811D01*
X117749500Y-95078958D01*
X117749500Y-97174108D01*
X117749500Y-97305892D01*
X117774174Y-97397979D01*
X117783609Y-97433188D01*
X117783609Y-97433189D01*
X117826206Y-97506969D01*
X117842679Y-97574869D01*
X117833381Y-97616420D01*
X117797949Y-97701964D01*
X117797948Y-97701966D01*
X117759500Y-97895256D01*
X117759500Y-97895258D01*
X117759500Y-97895259D01*
X117759500Y-98092341D01*
X117759500Y-98092343D01*
X117759499Y-98092343D01*
X117797947Y-98285629D01*
X117797950Y-98285639D01*
X117873364Y-98467706D01*
X117873370Y-98467717D01*
X117928289Y-98549910D01*
X117949166Y-98616588D01*
X117930681Y-98683968D01*
X117928289Y-98687690D01*
X117873370Y-98769882D01*
X117873364Y-98769893D01*
X117797950Y-98951960D01*
X117797947Y-98951970D01*
X117759500Y-99145256D01*
X117759500Y-99145259D01*
X117759500Y-99342341D01*
X117759500Y-99342343D01*
X117759499Y-99342343D01*
X117797947Y-99535629D01*
X117797950Y-99535639D01*
X117873364Y-99717706D01*
X117873370Y-99717717D01*
X117928289Y-99799910D01*
X117949166Y-99866588D01*
X117930681Y-99933968D01*
X117928289Y-99937690D01*
X117873370Y-100019882D01*
X117873364Y-100019893D01*
X117797950Y-100201960D01*
X117797947Y-100201970D01*
X117759500Y-100395256D01*
X117759500Y-100395259D01*
X117759500Y-100592341D01*
X117759500Y-100592343D01*
X117759499Y-100592343D01*
X117797947Y-100785628D01*
X117797948Y-100785631D01*
X117797949Y-100785635D01*
X117811087Y-100817353D01*
X117832465Y-100868966D01*
X117839932Y-100938435D01*
X117825290Y-100978417D01*
X117783609Y-101050610D01*
X117783609Y-101050611D01*
X117783609Y-101050612D01*
X117783608Y-101050614D01*
X117749500Y-101177908D01*
X117749500Y-117029692D01*
X117752702Y-117041642D01*
X117783608Y-117156987D01*
X117802930Y-117190453D01*
X117825290Y-117229181D01*
X117841763Y-117297080D01*
X117832465Y-117338632D01*
X117797949Y-117421964D01*
X117797948Y-117421966D01*
X117759500Y-117615256D01*
X117759500Y-117615257D01*
X117759500Y-117615259D01*
X117759500Y-117812341D01*
X117759500Y-117812343D01*
X117759499Y-117812343D01*
X117797947Y-118005629D01*
X117797950Y-118005639D01*
X117873364Y-118187706D01*
X117873370Y-118187717D01*
X117928289Y-118269910D01*
X117949166Y-118336588D01*
X117930681Y-118403968D01*
X117928289Y-118407690D01*
X117873370Y-118489882D01*
X117873364Y-118489893D01*
X117797950Y-118671960D01*
X117797947Y-118671970D01*
X117759500Y-118865256D01*
X117759500Y-118865259D01*
X117759500Y-119062341D01*
X117759500Y-119062343D01*
X117759499Y-119062343D01*
X117797947Y-119255629D01*
X117797950Y-119255639D01*
X117873364Y-119437706D01*
X117873370Y-119437717D01*
X117928289Y-119519910D01*
X117949166Y-119586588D01*
X117930681Y-119653968D01*
X117928289Y-119657690D01*
X117873370Y-119739882D01*
X117873364Y-119739893D01*
X117797950Y-119921960D01*
X117797947Y-119921970D01*
X117759500Y-120115256D01*
X117759500Y-120115259D01*
X117759500Y-120312341D01*
X117759500Y-120312343D01*
X117759499Y-120312343D01*
X117797947Y-120505628D01*
X117797949Y-120505636D01*
X117833960Y-120592575D01*
X117841429Y-120662045D01*
X117826786Y-120702027D01*
X117783609Y-120776810D01*
X117783609Y-120776811D01*
X117749500Y-120904108D01*
X117749500Y-124154536D01*
X117729815Y-124221575D01*
X117677011Y-124267330D01*
X117607853Y-124277274D01*
X117544297Y-124248249D01*
X117506523Y-124189471D01*
X117504609Y-124182128D01*
X117430262Y-123856392D01*
X117430258Y-123856380D01*
X117399677Y-123768985D01*
X117311536Y-123517092D01*
X117155566Y-123193218D01*
X116964315Y-122888844D01*
X116740188Y-122607797D01*
X116486003Y-122353612D01*
X116468155Y-122339379D01*
X116414626Y-122296691D01*
X116204956Y-122129485D01*
X115900582Y-121938234D01*
X115900579Y-121938232D01*
X115576711Y-121782265D01*
X115237419Y-121663541D01*
X115237407Y-121663537D01*
X114886951Y-121583548D01*
X114886935Y-121583546D01*
X114529740Y-121543300D01*
X114529736Y-121543300D01*
X114170264Y-121543300D01*
X114170259Y-121543300D01*
X113813064Y-121583546D01*
X113813048Y-121583548D01*
X113462592Y-121663537D01*
X113462580Y-121663541D01*
X113123288Y-121782265D01*
X112799420Y-121938232D01*
X112495045Y-122129484D01*
X112213997Y-122353611D01*
X111959811Y-122607797D01*
X111735684Y-122888845D01*
X111544432Y-123193220D01*
X111388465Y-123517088D01*
X111269741Y-123856380D01*
X111269737Y-123856392D01*
X111189748Y-124206848D01*
X111189746Y-124206864D01*
X111149500Y-124564059D01*
X111149500Y-124923540D01*
X111189746Y-125280735D01*
X111189748Y-125280751D01*
X111269737Y-125631207D01*
X111269741Y-125631219D01*
X111388465Y-125970511D01*
X111544432Y-126294379D01*
X111593815Y-126372972D01*
X111735685Y-126598756D01*
X111959812Y-126879803D01*
X112213997Y-127133988D01*
X112495044Y-127358115D01*
X112799418Y-127549366D01*
X113123292Y-127705336D01*
X113323910Y-127775535D01*
X113462580Y-127824058D01*
X113462592Y-127824062D01*
X113481637Y-127828409D01*
X113542616Y-127862517D01*
X113575474Y-127924179D01*
X113569779Y-127993816D01*
X113527339Y-128049320D01*
X113461630Y-128073068D01*
X113454045Y-128073300D01*
X97132708Y-128073300D01*
X97101234Y-128064058D01*
X97069435Y-128055942D01*
X97067870Y-128054261D01*
X97065669Y-128053615D01*
X97044195Y-128028833D01*
X97021824Y-128004805D01*
X97021416Y-128002544D01*
X97019914Y-128000811D01*
X97015246Y-127968347D01*
X97009418Y-127936045D01*
X97010175Y-127933079D01*
X97009970Y-127931653D01*
X97018147Y-127901848D01*
X97051698Y-127820848D01*
X97095539Y-127766444D01*
X97161833Y-127744379D01*
X97166259Y-127744300D01*
X105463331Y-127744300D01*
X105463347Y-127744301D01*
X105470943Y-127744301D01*
X105629054Y-127744301D01*
X105629057Y-127744301D01*
X105781785Y-127703377D01*
X105837174Y-127671398D01*
X105918716Y-127624320D01*
X106030520Y-127512516D01*
X106030520Y-127512514D01*
X106040724Y-127502311D01*
X106040728Y-127502306D01*
X106261390Y-127281644D01*
X108980000Y-127281644D01*
X108986401Y-127341172D01*
X108986403Y-127341179D01*
X109036645Y-127475886D01*
X109036649Y-127475893D01*
X109122809Y-127590987D01*
X109122812Y-127590990D01*
X109237906Y-127677150D01*
X109237913Y-127677154D01*
X109372620Y-127727396D01*
X109372627Y-127727398D01*
X109432155Y-127733799D01*
X109432172Y-127733800D01*
X109730000Y-127733800D01*
X110230000Y-127733800D01*
X110527828Y-127733800D01*
X110527844Y-127733799D01*
X110587372Y-127727398D01*
X110587379Y-127727396D01*
X110722086Y-127677154D01*
X110722093Y-127677150D01*
X110837187Y-127590990D01*
X110837190Y-127590987D01*
X110923350Y-127475893D01*
X110923354Y-127475886D01*
X110973596Y-127341179D01*
X110973598Y-127341172D01*
X110979999Y-127281644D01*
X110980000Y-127281627D01*
X110980000Y-126983800D01*
X110230000Y-126983800D01*
X110230000Y-127733800D01*
X109730000Y-127733800D01*
X109730000Y-126983800D01*
X108980000Y-126983800D01*
X108980000Y-127281644D01*
X106261390Y-127281644D01*
X107357079Y-126185955D01*
X108980000Y-126185955D01*
X108980000Y-126483800D01*
X109730000Y-126483800D01*
X110230000Y-126483800D01*
X110980000Y-126483800D01*
X110980000Y-126185972D01*
X110979999Y-126185955D01*
X110973598Y-126126427D01*
X110973596Y-126126420D01*
X110923354Y-125991713D01*
X110923350Y-125991706D01*
X110837190Y-125876612D01*
X110837187Y-125876609D01*
X110722093Y-125790449D01*
X110722086Y-125790445D01*
X110587379Y-125740203D01*
X110587372Y-125740201D01*
X110527844Y-125733800D01*
X110230000Y-125733800D01*
X110230000Y-126483800D01*
X109730000Y-126483800D01*
X109730000Y-125733800D01*
X109432155Y-125733800D01*
X109372627Y-125740201D01*
X109372620Y-125740203D01*
X109237913Y-125790445D01*
X109237906Y-125790449D01*
X109122812Y-125876609D01*
X109122809Y-125876612D01*
X109036649Y-125991706D01*
X109036645Y-125991713D01*
X108986403Y-126126420D01*
X108986401Y-126126427D01*
X108980000Y-126185955D01*
X107357079Y-126185955D01*
X112009506Y-121533528D01*
X112009511Y-121533524D01*
X112019714Y-121523320D01*
X112019716Y-121523320D01*
X112131520Y-121411516D01*
X112186903Y-121315589D01*
X112210577Y-121274585D01*
X112251501Y-121121857D01*
X112251501Y-120963743D01*
X112251501Y-120956148D01*
X112251500Y-120956130D01*
X112251500Y-95389485D01*
X112271185Y-95322446D01*
X112323989Y-95276691D01*
X112393147Y-95266747D01*
X112456703Y-95295772D01*
X112472447Y-95312173D01*
X112659168Y-95546316D01*
X112659174Y-95546322D01*
X112659175Y-95546323D01*
X112897477Y-95784625D01*
X113160961Y-95994746D01*
X113446314Y-96174046D01*
X113749949Y-96320269D01*
X113965184Y-96395583D01*
X114068034Y-96431572D01*
X114068046Y-96431576D01*
X114396606Y-96506567D01*
X114731492Y-96544299D01*
X114731493Y-96544300D01*
X114731496Y-96544300D01*
X115068507Y-96544300D01*
X115068507Y-96544299D01*
X115403394Y-96506567D01*
X115731954Y-96431576D01*
X116050051Y-96320269D01*
X116353686Y-96174046D01*
X116639039Y-95994746D01*
X116902523Y-95784625D01*
X117140825Y-95546323D01*
X117350946Y-95282839D01*
X117520507Y-95012984D01*
X117572841Y-94966695D01*
X117641894Y-94956047D01*
X117705743Y-94984422D01*
G37*
%TD.AperFunction*%
%TA.AperFunction,Conductor*%
G36*
X93969127Y-115727713D02*
G01*
X93980859Y-115727278D01*
X94013485Y-115740739D01*
X94073601Y-115776292D01*
X94073602Y-115776292D01*
X94073605Y-115776294D01*
X94114587Y-115788200D01*
X94229002Y-115821442D01*
X94229005Y-115821442D01*
X94229007Y-115821443D01*
X94265310Y-115824300D01*
X94265318Y-115824300D01*
X94734682Y-115824300D01*
X94734690Y-115824300D01*
X94770993Y-115821443D01*
X94770995Y-115821442D01*
X94770997Y-115821442D01*
X94823129Y-115806296D01*
X94926395Y-115776294D01*
X94962789Y-115754769D01*
X95030509Y-115737586D01*
X95089029Y-115754768D01*
X95210607Y-115826669D01*
X95250497Y-115838258D01*
X95364791Y-115871464D01*
X95364794Y-115871464D01*
X95364796Y-115871465D01*
X95400819Y-115874300D01*
X95899180Y-115874299D01*
X95915773Y-115872993D01*
X95984148Y-115887357D01*
X96033905Y-115936409D01*
X96049500Y-115996611D01*
X96049500Y-118157244D01*
X96029815Y-118224283D01*
X95977011Y-118270038D01*
X95907853Y-118279982D01*
X95889575Y-118275002D01*
X95889324Y-118275831D01*
X95883500Y-118274064D01*
X95883497Y-118274063D01*
X95883492Y-118274062D01*
X95883489Y-118274061D01*
X95728845Y-118243300D01*
X95728842Y-118243300D01*
X95571158Y-118243300D01*
X95571155Y-118243300D01*
X95416510Y-118274061D01*
X95416498Y-118274064D01*
X95270827Y-118334402D01*
X95270814Y-118334409D01*
X95139711Y-118422010D01*
X95139707Y-118422013D01*
X95028213Y-118533507D01*
X95028210Y-118533511D01*
X94940609Y-118664614D01*
X94940602Y-118664627D01*
X94880264Y-118810298D01*
X94880261Y-118810310D01*
X94849500Y-118964953D01*
X94849500Y-119122646D01*
X94880261Y-119277289D01*
X94880264Y-119277301D01*
X94940602Y-119422972D01*
X94940609Y-119422985D01*
X95028602Y-119554674D01*
X95049480Y-119621351D01*
X95049500Y-119623565D01*
X95049500Y-122744703D01*
X95043261Y-122765948D01*
X95041682Y-122788037D01*
X95033609Y-122798820D01*
X95029815Y-122811742D01*
X95013081Y-122826241D01*
X94999810Y-122843970D01*
X94987189Y-122848677D01*
X94977011Y-122857497D01*
X94955093Y-122860648D01*
X94934346Y-122868387D01*
X94921185Y-122865524D01*
X94907853Y-122867441D01*
X94887709Y-122858241D01*
X94866073Y-122853535D01*
X94848347Y-122840266D01*
X94844297Y-122838416D01*
X94837819Y-122832384D01*
X94837590Y-122832155D01*
X94837588Y-122832152D01*
X94718717Y-122713281D01*
X94718716Y-122713280D01*
X94628210Y-122661027D01*
X94628209Y-122661026D01*
X94581783Y-122634222D01*
X94525881Y-122619243D01*
X94429057Y-122593299D01*
X94270943Y-122593299D01*
X94263347Y-122593299D01*
X94263331Y-122593300D01*
X93220943Y-122593300D01*
X93068213Y-122634223D01*
X93021790Y-122661027D01*
X93021789Y-122661027D01*
X92931287Y-122713277D01*
X92931282Y-122713281D01*
X92519481Y-123125082D01*
X92519475Y-123125090D01*
X92471443Y-123208286D01*
X92471443Y-123208287D01*
X92440423Y-123262014D01*
X92440423Y-123262015D01*
X92399499Y-123414743D01*
X92399499Y-123414745D01*
X92399499Y-123464035D01*
X92379814Y-123531074D01*
X92378601Y-123532926D01*
X92290609Y-123664614D01*
X92290602Y-123664627D01*
X92230264Y-123810298D01*
X92230261Y-123810310D01*
X92199500Y-123964953D01*
X92199500Y-124122646D01*
X92227203Y-124261918D01*
X92220976Y-124331509D01*
X92178113Y-124386687D01*
X92112223Y-124409931D01*
X92070992Y-124405186D01*
X92040067Y-124396201D01*
X92003201Y-124393300D01*
X92003194Y-124393300D01*
X90846806Y-124393300D01*
X90846798Y-124393300D01*
X90809932Y-124396201D01*
X90809926Y-124396202D01*
X90652106Y-124442054D01*
X90652103Y-124442055D01*
X90510637Y-124525717D01*
X90510629Y-124525723D01*
X90394423Y-124641929D01*
X90394414Y-124641940D01*
X90394229Y-124642255D01*
X90394019Y-124642450D01*
X90389639Y-124648098D01*
X90388727Y-124647391D01*
X90343157Y-124689936D01*
X90274415Y-124702437D01*
X90209827Y-124675788D01*
X90193690Y-124660219D01*
X90186420Y-124651809D01*
X90180581Y-124641935D01*
X90160699Y-124622053D01*
X90157748Y-124618639D01*
X90145062Y-124590774D01*
X90130392Y-124563907D01*
X90130723Y-124559275D01*
X90128799Y-124555049D01*
X90133191Y-124524754D01*
X90135376Y-124494215D01*
X90138274Y-124489704D01*
X90138826Y-124485902D01*
X90146102Y-124477524D01*
X90163875Y-124449870D01*
X90955277Y-123658469D01*
X91026466Y-123551926D01*
X91074352Y-123436317D01*
X91075501Y-123433544D01*
X91100500Y-123307869D01*
X91100500Y-121405371D01*
X91120185Y-121338332D01*
X91172989Y-121292577D01*
X91242147Y-121282633D01*
X91298811Y-121306105D01*
X91407664Y-121387593D01*
X91407671Y-121387597D01*
X91542517Y-121437891D01*
X91542516Y-121437891D01*
X91549444Y-121438635D01*
X91602127Y-121444300D01*
X93397872Y-121444299D01*
X93457483Y-121437891D01*
X93592331Y-121387596D01*
X93707546Y-121301346D01*
X93793796Y-121186131D01*
X93844091Y-121051283D01*
X93850500Y-120991673D01*
X93850499Y-119395928D01*
X93844091Y-119336317D01*
X93836428Y-119315772D01*
X93793797Y-119201471D01*
X93793793Y-119201464D01*
X93707547Y-119086255D01*
X93707544Y-119086252D01*
X93592335Y-119000006D01*
X93592328Y-119000002D01*
X93457482Y-118949708D01*
X93457483Y-118949708D01*
X93397883Y-118943301D01*
X93397881Y-118943300D01*
X93397873Y-118943300D01*
X93397865Y-118943300D01*
X92074424Y-118943300D01*
X92007385Y-118923615D01*
X91961630Y-118870811D01*
X91951686Y-118801653D01*
X91959863Y-118771848D01*
X91997095Y-118681960D01*
X92019737Y-118627297D01*
X92050500Y-118472642D01*
X92050500Y-118314958D01*
X92050500Y-118314955D01*
X92050499Y-118314953D01*
X92030762Y-118215731D01*
X92019737Y-118160303D01*
X91969793Y-118039728D01*
X91962325Y-117970262D01*
X91977622Y-117929157D01*
X92012494Y-117870195D01*
X92057643Y-117714793D01*
X92060500Y-117678490D01*
X92060500Y-117269110D01*
X92057643Y-117232807D01*
X92057642Y-117232802D01*
X92022404Y-117111512D01*
X92022441Y-117098219D01*
X92017796Y-117085764D01*
X92022539Y-117063957D01*
X92022603Y-117041642D01*
X92030152Y-117028959D01*
X92032647Y-117017491D01*
X92053793Y-116989242D01*
X92160520Y-116882516D01*
X92160521Y-116882513D01*
X92392749Y-116650285D01*
X92392754Y-116650281D01*
X92402957Y-116640077D01*
X92402959Y-116640077D01*
X92514763Y-116528273D01*
X92580540Y-116414343D01*
X92593820Y-116391342D01*
X92605400Y-116348121D01*
X92608054Y-116341435D01*
X92620914Y-116324978D01*
X92635630Y-116299489D01*
X92656032Y-116279089D01*
X92743637Y-116147979D01*
X92803980Y-116002297D01*
X92820996Y-115916753D01*
X92853380Y-115854842D01*
X92914096Y-115820268D01*
X92977208Y-115821868D01*
X93079002Y-115851442D01*
X93079005Y-115851442D01*
X93079007Y-115851443D01*
X93115310Y-115854300D01*
X93115318Y-115854300D01*
X93584682Y-115854300D01*
X93584690Y-115854300D01*
X93620993Y-115851443D01*
X93620995Y-115851442D01*
X93620997Y-115851442D01*
X93776389Y-115806296D01*
X93776389Y-115806295D01*
X93776395Y-115806294D01*
X93887246Y-115740736D01*
X93900127Y-115737468D01*
X93911037Y-115729871D01*
X93933335Y-115729042D01*
X93954965Y-115723555D01*
X93969127Y-115727713D01*
G37*
%TD.AperFunction*%
%TA.AperFunction,Conductor*%
G36*
X110568834Y-115843814D02*
G01*
X110624767Y-115885686D01*
X110649184Y-115951150D01*
X110649500Y-115959996D01*
X110649500Y-120193701D01*
X110629815Y-120260740D01*
X110613181Y-120281382D01*
X106487180Y-124407383D01*
X106425857Y-124440868D01*
X106356165Y-124435884D01*
X106300232Y-124394012D01*
X106275815Y-124328548D01*
X106275499Y-124319702D01*
X106275499Y-123495929D01*
X106275498Y-123495923D01*
X106272070Y-123464035D01*
X106269091Y-123436317D01*
X106269076Y-123436278D01*
X106218797Y-123301471D01*
X106218793Y-123301464D01*
X106132547Y-123186255D01*
X106016071Y-123099060D01*
X105974201Y-123043126D01*
X105969217Y-122973434D01*
X105987281Y-122930903D01*
X106059394Y-122822979D01*
X106064049Y-122811742D01*
X106104833Y-122713279D01*
X106119737Y-122677297D01*
X106150500Y-122522642D01*
X106150500Y-122364958D01*
X106150500Y-122364955D01*
X106150499Y-122364953D01*
X106119738Y-122210310D01*
X106119737Y-122210303D01*
X106109845Y-122186421D01*
X106059397Y-122064627D01*
X106059390Y-122064614D01*
X105971789Y-121933511D01*
X105971786Y-121933507D01*
X105919759Y-121881480D01*
X105886274Y-121820157D01*
X105891258Y-121750465D01*
X105918002Y-121708854D01*
X105917928Y-121708793D01*
X105918454Y-121708151D01*
X105919764Y-121706113D01*
X105921789Y-121704089D01*
X106009394Y-121572979D01*
X106056651Y-121458887D01*
X106100490Y-121404487D01*
X106166784Y-121382421D01*
X106214543Y-121390159D01*
X106342517Y-121437891D01*
X106342516Y-121437891D01*
X106349444Y-121438635D01*
X106402127Y-121444300D01*
X108197872Y-121444299D01*
X108257483Y-121437891D01*
X108392331Y-121387596D01*
X108507546Y-121301346D01*
X108593796Y-121186131D01*
X108644091Y-121051283D01*
X108650500Y-120991673D01*
X108650499Y-119395928D01*
X108644091Y-119336317D01*
X108636428Y-119315772D01*
X108593797Y-119201471D01*
X108593793Y-119201464D01*
X108507547Y-119086255D01*
X108507544Y-119086252D01*
X108392335Y-119000006D01*
X108392328Y-119000002D01*
X108257482Y-118949708D01*
X108257483Y-118949708D01*
X108197883Y-118943301D01*
X108197881Y-118943300D01*
X108197873Y-118943300D01*
X108197865Y-118943300D01*
X107666196Y-118943300D01*
X107599157Y-118923615D01*
X107553402Y-118870811D01*
X107543458Y-118801653D01*
X107572483Y-118738097D01*
X107578515Y-118731619D01*
X108997619Y-117312515D01*
X110437821Y-115872313D01*
X110499142Y-115838830D01*
X110568834Y-115843814D01*
G37*
%TD.AperFunction*%
%TA.AperFunction,Conductor*%
G36*
X77421950Y-104260495D02*
G01*
X77483165Y-104285851D01*
X77483169Y-104285851D01*
X77483170Y-104285852D01*
X77676456Y-104324300D01*
X78363153Y-104324300D01*
X78430192Y-104343985D01*
X78475947Y-104396789D01*
X78485891Y-104465947D01*
X78456866Y-104529503D01*
X78398088Y-104567277D01*
X78387344Y-104569917D01*
X78366510Y-104574061D01*
X78366498Y-104574064D01*
X78220827Y-104634402D01*
X78220814Y-104634409D01*
X78089711Y-104722010D01*
X78089707Y-104722013D01*
X77978213Y-104833507D01*
X77978210Y-104833511D01*
X77890609Y-104964614D01*
X77890602Y-104964627D01*
X77830264Y-105110298D01*
X77830261Y-105110310D01*
X77799500Y-105264953D01*
X77799500Y-105422646D01*
X77830261Y-105577289D01*
X77830264Y-105577301D01*
X77890602Y-105722972D01*
X77890609Y-105722985D01*
X77978210Y-105854088D01*
X77978213Y-105854092D01*
X78089707Y-105965586D01*
X78089711Y-105965589D01*
X78220814Y-106053190D01*
X78220827Y-106053197D01*
X78366498Y-106113535D01*
X78366503Y-106113537D01*
X78514331Y-106142942D01*
X78521153Y-106144299D01*
X78521156Y-106144300D01*
X78521158Y-106144300D01*
X78678844Y-106144300D01*
X78678845Y-106144299D01*
X78833497Y-106113537D01*
X78958260Y-106061859D01*
X78979172Y-106053197D01*
X78979172Y-106053196D01*
X78979179Y-106053194D01*
X79110289Y-105965589D01*
X79221789Y-105854089D01*
X79309394Y-105722979D01*
X79369737Y-105577297D01*
X79369737Y-105577296D01*
X79369939Y-105576809D01*
X79413779Y-105522405D01*
X79480073Y-105500340D01*
X79547773Y-105517619D01*
X79595384Y-105568756D01*
X79608500Y-105624261D01*
X79608500Y-109813338D01*
X79588815Y-109880377D01*
X79536011Y-109926132D01*
X79466853Y-109936076D01*
X79403297Y-109907051D01*
X79369939Y-109860790D01*
X79309397Y-109714627D01*
X79309390Y-109714614D01*
X79221789Y-109583511D01*
X79221786Y-109583507D01*
X79110292Y-109472013D01*
X79110288Y-109472010D01*
X78979185Y-109384409D01*
X78979172Y-109384402D01*
X78833501Y-109324064D01*
X78833489Y-109324061D01*
X78678845Y-109293300D01*
X78678842Y-109293300D01*
X78521158Y-109293300D01*
X78521155Y-109293300D01*
X78366510Y-109324061D01*
X78366498Y-109324064D01*
X78220827Y-109384402D01*
X78220814Y-109384409D01*
X78089711Y-109472010D01*
X78089707Y-109472013D01*
X77978213Y-109583507D01*
X77978210Y-109583511D01*
X77890609Y-109714614D01*
X77890602Y-109714627D01*
X77830264Y-109860298D01*
X77830261Y-109860310D01*
X77799500Y-110014953D01*
X77799500Y-110172646D01*
X77830261Y-110327289D01*
X77830264Y-110327301D01*
X77890602Y-110472972D01*
X77890609Y-110472985D01*
X77978210Y-110604088D01*
X77978213Y-110604092D01*
X78089707Y-110715586D01*
X78089711Y-110715589D01*
X78120554Y-110736198D01*
X78165359Y-110789810D01*
X78174066Y-110859135D01*
X78143912Y-110922163D01*
X78084469Y-110958882D01*
X78051663Y-110963300D01*
X77676457Y-110963300D01*
X77483170Y-111001747D01*
X77483165Y-111001749D01*
X77421951Y-111027104D01*
X77352482Y-111034571D01*
X77290003Y-111003296D01*
X77254351Y-110943206D01*
X77250500Y-110912542D01*
X77250500Y-104375057D01*
X77270185Y-104308018D01*
X77322989Y-104262263D01*
X77392147Y-104252319D01*
X77421950Y-104260495D01*
G37*
%TD.AperFunction*%
%TA.AperFunction,Conductor*%
G36*
X100920702Y-97807183D02*
G01*
X100927180Y-97813215D01*
X103013181Y-99899216D01*
X103046666Y-99960539D01*
X103049500Y-99986897D01*
X103049500Y-104544703D01*
X103029815Y-104611742D01*
X102977011Y-104657497D01*
X102907853Y-104667441D01*
X102844297Y-104638416D01*
X102837819Y-104632384D01*
X99787590Y-101582155D01*
X99780521Y-101575086D01*
X99780520Y-101575084D01*
X99671413Y-101465977D01*
X99637931Y-101404657D01*
X99642915Y-101334965D01*
X99684787Y-101279032D01*
X99750251Y-101254615D01*
X99759097Y-101254299D01*
X100262871Y-101254299D01*
X100262872Y-101254299D01*
X100322483Y-101247891D01*
X100457331Y-101197596D01*
X100572546Y-101111346D01*
X100658796Y-100996131D01*
X100709091Y-100861283D01*
X100715500Y-100801673D01*
X100715499Y-97900895D01*
X100735184Y-97833857D01*
X100787987Y-97788102D01*
X100857146Y-97778158D01*
X100920702Y-97807183D01*
G37*
%TD.AperFunction*%
%TA.AperFunction,Conductor*%
G36*
X93429942Y-99323985D02*
G01*
X93450584Y-99340619D01*
X96418139Y-102308174D01*
X96418149Y-102308185D01*
X96422479Y-102312515D01*
X96422480Y-102312516D01*
X96534284Y-102424320D01*
X96603532Y-102464300D01*
X96671215Y-102503377D01*
X96823943Y-102544301D01*
X96823946Y-102544301D01*
X96989653Y-102544301D01*
X96989669Y-102544300D01*
X98999903Y-102544300D01*
X99066942Y-102563985D01*
X99087584Y-102580619D01*
X99538584Y-103031619D01*
X99572069Y-103092942D01*
X99567085Y-103162634D01*
X99525213Y-103218567D01*
X99459749Y-103242984D01*
X99450903Y-103243300D01*
X93529766Y-103243300D01*
X93462727Y-103223615D01*
X93460875Y-103222402D01*
X93329185Y-103134409D01*
X93329172Y-103134402D01*
X93183501Y-103074064D01*
X93183489Y-103074061D01*
X93028845Y-103043300D01*
X93028842Y-103043300D01*
X92871158Y-103043300D01*
X92871155Y-103043300D01*
X92716510Y-103074061D01*
X92716498Y-103074064D01*
X92570827Y-103134402D01*
X92570809Y-103134412D01*
X92443508Y-103219472D01*
X92376831Y-103240350D01*
X92309451Y-103221865D01*
X92262761Y-103169886D01*
X92251585Y-103100916D01*
X92258437Y-103073035D01*
X92259091Y-103071283D01*
X92265500Y-103011673D01*
X92265499Y-102015928D01*
X92259091Y-101956317D01*
X92246340Y-101922132D01*
X92241357Y-101852442D01*
X92246338Y-101835472D01*
X92259091Y-101801283D01*
X92265500Y-101741673D01*
X92265499Y-100745928D01*
X92259091Y-100686317D01*
X92246340Y-100652132D01*
X92241357Y-100582442D01*
X92246338Y-100565472D01*
X92259091Y-100531283D01*
X92265500Y-100471673D01*
X92265499Y-99475928D01*
X92261804Y-99441553D01*
X92274211Y-99372794D01*
X92321822Y-99321657D01*
X92385094Y-99304300D01*
X93362903Y-99304300D01*
X93429942Y-99323985D01*
G37*
%TD.AperFunction*%
%TA.AperFunction,Conductor*%
G36*
X105883464Y-90163985D02*
G01*
X105929219Y-90216789D01*
X105939163Y-90285947D01*
X105910138Y-90349503D01*
X105885316Y-90371402D01*
X105781398Y-90440837D01*
X105781384Y-90440847D01*
X105777714Y-90443300D01*
X105749711Y-90462011D01*
X105739711Y-90472011D01*
X105734237Y-90477485D01*
X105628209Y-90583512D01*
X105540609Y-90714614D01*
X105540602Y-90714627D01*
X105480264Y-90860298D01*
X105480261Y-90860310D01*
X105449500Y-91014953D01*
X105449500Y-91172646D01*
X105480261Y-91327289D01*
X105480264Y-91327301D01*
X105540602Y-91472972D01*
X105540609Y-91472985D01*
X105628210Y-91604088D01*
X105628213Y-91604092D01*
X105739707Y-91715586D01*
X105739711Y-91715589D01*
X105870814Y-91803190D01*
X105870827Y-91803197D01*
X105967646Y-91843300D01*
X106016503Y-91863537D01*
X106171153Y-91894299D01*
X106171156Y-91894300D01*
X106171158Y-91894300D01*
X106328843Y-91894300D01*
X106364289Y-91887249D01*
X106367135Y-91886682D01*
X106391327Y-91884300D01*
X107140500Y-91884300D01*
X107207539Y-91903985D01*
X107253294Y-91956789D01*
X107264500Y-92008300D01*
X107264500Y-92851670D01*
X107264501Y-92851676D01*
X107270908Y-92911281D01*
X107283659Y-92945469D01*
X107288642Y-93015161D01*
X107283659Y-93032131D01*
X107270908Y-93066318D01*
X107264501Y-93125916D01*
X107264500Y-93125935D01*
X107264500Y-94121670D01*
X107264501Y-94121684D01*
X107267419Y-94148829D01*
X107255011Y-94217588D01*
X107207398Y-94268723D01*
X107139698Y-94286000D01*
X107075238Y-94265181D01*
X107029185Y-94234409D01*
X107029172Y-94234402D01*
X106883501Y-94174064D01*
X106883489Y-94174061D01*
X106816420Y-94160720D01*
X106754509Y-94128335D01*
X106752930Y-94126784D01*
X104464674Y-91838527D01*
X104464673Y-91838526D01*
X104464669Y-91838523D01*
X104358127Y-91767335D01*
X104239744Y-91718299D01*
X104239741Y-91718298D01*
X104232932Y-91716944D01*
X104226122Y-91715589D01*
X104226120Y-91715588D01*
X104226120Y-91715589D01*
X104114071Y-91693300D01*
X104114069Y-91693300D01*
X100464069Y-91693300D01*
X93344168Y-91693300D01*
X93277129Y-91673615D01*
X93231374Y-91620811D01*
X93221430Y-91551653D01*
X93241067Y-91500408D01*
X93259389Y-91472987D01*
X93259390Y-91472984D01*
X93259394Y-91472979D01*
X93319737Y-91327297D01*
X93350500Y-91172642D01*
X93350500Y-91014958D01*
X93348331Y-91004056D01*
X93319737Y-90860303D01*
X93309128Y-90834690D01*
X93303876Y-90822010D01*
X93259397Y-90714627D01*
X93259390Y-90714614D01*
X93171790Y-90583512D01*
X93121210Y-90532932D01*
X93060289Y-90472011D01*
X93050289Y-90462011D01*
X92919179Y-90374406D01*
X92918430Y-90374096D01*
X92912072Y-90369608D01*
X92891316Y-90343440D01*
X92869879Y-90317790D01*
X92869673Y-90316156D01*
X92868652Y-90314868D01*
X92865337Y-90281634D01*
X92861172Y-90248465D01*
X92861882Y-90246980D01*
X92861719Y-90245343D01*
X92876901Y-90215586D01*
X92891326Y-90185437D01*
X92892726Y-90184571D01*
X92893474Y-90183107D01*
X92922335Y-90166282D01*
X92950770Y-90148718D01*
X92952974Y-90148421D01*
X92953836Y-90147919D01*
X92956003Y-90148013D01*
X92983575Y-90144300D01*
X105816425Y-90144300D01*
X105883464Y-90163985D01*
G37*
%TD.AperFunction*%
%TD*%
%TA.AperFunction,NonConductor*%
G36*
X97649191Y-93013985D02*
G01*
X97694946Y-93066789D01*
X97703769Y-93094108D01*
X97730261Y-93227291D01*
X97730264Y-93227301D01*
X97790602Y-93372972D01*
X97790609Y-93372985D01*
X97878210Y-93504088D01*
X97878213Y-93504092D01*
X97989707Y-93615586D01*
X97989711Y-93615589D01*
X98120814Y-93703190D01*
X98120827Y-93703197D01*
X98266498Y-93763535D01*
X98266503Y-93763537D01*
X98421153Y-93794299D01*
X98421156Y-93794300D01*
X98421158Y-93794300D01*
X98578844Y-93794300D01*
X98578845Y-93794299D01*
X98733497Y-93763537D01*
X98879179Y-93703194D01*
X99010289Y-93615589D01*
X99121789Y-93504089D01*
X99209394Y-93372979D01*
X99269737Y-93227297D01*
X99284373Y-93153717D01*
X99296231Y-93094108D01*
X99310945Y-93065977D01*
X99324135Y-93037097D01*
X99327024Y-93035240D01*
X99328616Y-93032197D01*
X99356208Y-93016484D01*
X99382913Y-92999323D01*
X99387506Y-92998662D01*
X99389332Y-92997623D01*
X99417848Y-92994300D01*
X99475500Y-92994300D01*
X99542539Y-93013985D01*
X99588294Y-93066789D01*
X99599500Y-93118300D01*
X99599500Y-93222646D01*
X99630261Y-93377289D01*
X99630264Y-93377301D01*
X99690602Y-93522972D01*
X99690609Y-93522985D01*
X99778210Y-93654088D01*
X99778213Y-93654092D01*
X99889707Y-93765586D01*
X99889711Y-93765589D01*
X100020814Y-93853190D01*
X100020827Y-93853197D01*
X100166498Y-93913535D01*
X100166503Y-93913537D01*
X100268789Y-93933883D01*
X100321153Y-93944299D01*
X100321156Y-93944300D01*
X100321158Y-93944300D01*
X100478844Y-93944300D01*
X100478845Y-93944299D01*
X100633497Y-93913537D01*
X100779179Y-93853194D01*
X100910289Y-93765589D01*
X101021789Y-93654089D01*
X101109394Y-93522979D01*
X101169737Y-93377297D01*
X101200500Y-93222642D01*
X101200500Y-93118300D01*
X101220185Y-93051261D01*
X101272989Y-93005506D01*
X101324500Y-92994300D01*
X103729192Y-92994300D01*
X103796231Y-93013985D01*
X103816873Y-93030619D01*
X105677728Y-94891474D01*
X105711213Y-94952797D01*
X105706229Y-95022489D01*
X105677728Y-95066836D01*
X104419481Y-96325082D01*
X104419479Y-96325085D01*
X104403189Y-96353301D01*
X104378777Y-96395584D01*
X104340423Y-96462015D01*
X104299499Y-96614743D01*
X104299499Y-96614745D01*
X104299499Y-96782846D01*
X104299500Y-96782859D01*
X104299500Y-99187702D01*
X104279815Y-99254741D01*
X104227011Y-99300496D01*
X104157853Y-99310440D01*
X104094297Y-99281415D01*
X104087819Y-99275383D01*
X99344590Y-94532155D01*
X99344588Y-94532152D01*
X99225717Y-94413281D01*
X99225709Y-94413275D01*
X99121828Y-94353300D01*
X99121825Y-94353299D01*
X99088787Y-94334224D01*
X99088786Y-94334223D01*
X99088785Y-94334223D01*
X98936057Y-94293299D01*
X98777943Y-94293299D01*
X98770347Y-94293299D01*
X98770331Y-94293300D01*
X92385094Y-94293300D01*
X92318055Y-94273615D01*
X92272300Y-94220811D01*
X92261804Y-94156046D01*
X92265500Y-94121673D01*
X92265499Y-93125928D01*
X92265498Y-93125916D01*
X92265446Y-93124941D01*
X92265499Y-93124716D01*
X92265499Y-93122607D01*
X92265997Y-93122607D01*
X92281512Y-93056944D01*
X92331790Y-93008426D01*
X92389268Y-92994300D01*
X97582152Y-92994300D01*
X97649191Y-93013985D01*
G37*
%TD.AperFunction*%
%TA.AperFunction,NonConductor*%
G36*
X98623942Y-95513985D02*
G01*
X98644584Y-95530619D01*
X99255583Y-96141619D01*
X99289068Y-96202942D01*
X99284084Y-96272634D01*
X99242212Y-96328567D01*
X99176748Y-96352984D01*
X99167902Y-96353300D01*
X96267129Y-96353300D01*
X96267123Y-96353301D01*
X96207516Y-96359708D01*
X96072671Y-96410002D01*
X96072664Y-96410006D01*
X95957455Y-96496252D01*
X95957452Y-96496255D01*
X95871206Y-96611464D01*
X95871202Y-96611471D01*
X95820908Y-96746317D01*
X95814501Y-96805916D01*
X95814500Y-96805935D01*
X95814500Y-99706703D01*
X95794815Y-99773742D01*
X95742011Y-99819497D01*
X95672853Y-99829441D01*
X95609297Y-99800416D01*
X95602819Y-99794384D01*
X94150590Y-98342155D01*
X94150588Y-98342152D01*
X94031717Y-98223281D01*
X94031709Y-98223275D01*
X93942916Y-98172011D01*
X93942915Y-98172011D01*
X93894785Y-98144223D01*
X93742057Y-98103299D01*
X93583943Y-98103299D01*
X93576347Y-98103299D01*
X93576331Y-98103300D01*
X93354078Y-98103300D01*
X93287039Y-98083615D01*
X93241284Y-98030811D01*
X93231340Y-97961653D01*
X93250976Y-97910409D01*
X93309390Y-97822985D01*
X93309390Y-97822984D01*
X93309394Y-97822979D01*
X93369737Y-97677297D01*
X93400500Y-97522642D01*
X93400500Y-97364958D01*
X93400500Y-97364955D01*
X93400499Y-97364953D01*
X93388751Y-97305891D01*
X93369737Y-97210303D01*
X93330172Y-97114786D01*
X93322704Y-97045317D01*
X93353979Y-96982838D01*
X93414068Y-96947186D01*
X93422897Y-96945635D01*
X93422868Y-96945489D01*
X93516528Y-96926858D01*
X93583497Y-96913537D01*
X93729179Y-96853194D01*
X93860289Y-96765589D01*
X93971789Y-96654089D01*
X94059394Y-96522979D01*
X94119737Y-96377297D01*
X94150500Y-96222642D01*
X94150500Y-96064958D01*
X94150500Y-96064955D01*
X94150499Y-96064953D01*
X94121150Y-95917406D01*
X94119737Y-95910303D01*
X94106574Y-95878524D01*
X94059397Y-95764627D01*
X94059395Y-95764623D01*
X94059394Y-95764621D01*
X94046209Y-95744888D01*
X94007657Y-95687191D01*
X93986779Y-95620514D01*
X94005263Y-95553134D01*
X94057242Y-95506443D01*
X94110759Y-95494300D01*
X98556903Y-95494300D01*
X98623942Y-95513985D01*
G37*
%TD.AperFunction*%
%TA.AperFunction,NonConductor*%
G36*
X77455703Y-123828683D02*
G01*
X77462181Y-123834715D01*
X77472396Y-123844930D01*
X77472400Y-123844933D01*
X77472402Y-123844935D01*
X77610607Y-123926669D01*
X77616221Y-123928300D01*
X77764791Y-123971464D01*
X77764794Y-123971464D01*
X77764796Y-123971465D01*
X77800819Y-123974300D01*
X78299180Y-123974299D01*
X78335204Y-123971465D01*
X78489393Y-123926669D01*
X78627598Y-123844935D01*
X78627603Y-123844930D01*
X78631915Y-123840619D01*
X78693238Y-123807134D01*
X78719596Y-123804300D01*
X79775500Y-123804300D01*
X79842539Y-123823985D01*
X79888294Y-123876789D01*
X79899500Y-123928300D01*
X79899500Y-124123728D01*
X79934103Y-124297690D01*
X79934105Y-124297698D01*
X79954432Y-124346773D01*
X79954437Y-124346782D01*
X79956568Y-124351927D01*
X80001987Y-124461579D01*
X80056592Y-124543300D01*
X80060262Y-124548793D01*
X80060265Y-124548798D01*
X80100537Y-124609070D01*
X80760726Y-125269259D01*
X80760729Y-125269261D01*
X80760732Y-125269264D01*
X80783394Y-125284406D01*
X80783395Y-125284407D01*
X80906950Y-125366965D01*
X80951755Y-125420578D01*
X80960462Y-125489903D01*
X80941162Y-125538957D01*
X80890608Y-125614616D01*
X80890602Y-125614627D01*
X80830264Y-125760298D01*
X80830261Y-125760310D01*
X80799500Y-125914953D01*
X80799500Y-125914958D01*
X80799500Y-126072642D01*
X80799501Y-126072646D01*
X80819146Y-126171411D01*
X80819149Y-126171427D01*
X80830263Y-126227297D01*
X80834025Y-126236380D01*
X80834027Y-126236387D01*
X80890604Y-126372976D01*
X80890609Y-126372985D01*
X80978210Y-126504088D01*
X80978213Y-126504092D01*
X81089707Y-126615586D01*
X81089711Y-126615589D01*
X81220814Y-126703190D01*
X81220827Y-126703197D01*
X81366498Y-126763535D01*
X81366503Y-126763537D01*
X81521153Y-126794299D01*
X81521156Y-126794300D01*
X81521158Y-126794300D01*
X81678844Y-126794300D01*
X81678845Y-126794299D01*
X81833497Y-126763537D01*
X81979179Y-126703194D01*
X82110289Y-126615589D01*
X82221789Y-126504089D01*
X82309394Y-126372979D01*
X82369737Y-126227297D01*
X82400500Y-126072642D01*
X82400500Y-125914958D01*
X82400500Y-125914955D01*
X82400499Y-125914953D01*
X82382823Y-125826089D01*
X82369737Y-125760303D01*
X82320631Y-125641751D01*
X82313163Y-125572283D01*
X82344438Y-125509804D01*
X82404527Y-125474152D01*
X82435193Y-125470300D01*
X83457994Y-125470300D01*
X83473090Y-125474732D01*
X83488818Y-125474192D01*
X83505930Y-125484375D01*
X83525033Y-125489985D01*
X83535336Y-125501876D01*
X83548860Y-125509924D01*
X83557750Y-125527742D01*
X83570788Y-125542789D01*
X83573027Y-125558362D01*
X83580053Y-125572444D01*
X83577898Y-125592238D01*
X83580732Y-125611947D01*
X83574194Y-125626261D01*
X83572492Y-125641904D01*
X83559978Y-125657390D01*
X83551707Y-125675503D01*
X83537898Y-125684716D01*
X83528580Y-125696249D01*
X83496999Y-125712005D01*
X83466378Y-125722152D01*
X83430668Y-125733985D01*
X83430663Y-125733987D01*
X83281342Y-125826089D01*
X83157289Y-125950142D01*
X83065187Y-126099463D01*
X83065186Y-126099466D01*
X83010001Y-126266003D01*
X83010001Y-126266004D01*
X83010000Y-126266004D01*
X82999500Y-126368783D01*
X82999500Y-127768801D01*
X82999501Y-127768818D01*
X83010000Y-127871596D01*
X83010002Y-127871603D01*
X83022824Y-127910297D01*
X83025225Y-127980125D01*
X82989494Y-128040167D01*
X82926973Y-128071359D01*
X82905118Y-128073300D01*
X80694881Y-128073300D01*
X80627842Y-128053615D01*
X80582087Y-128000811D01*
X80572143Y-127931653D01*
X80577175Y-127910296D01*
X80579244Y-127904052D01*
X80589999Y-127871597D01*
X80600500Y-127768809D01*
X80600499Y-126368792D01*
X80589999Y-126266003D01*
X80534814Y-126099466D01*
X80442712Y-125950144D01*
X80318656Y-125826088D01*
X80211993Y-125760298D01*
X80169336Y-125733987D01*
X80169331Y-125733985D01*
X80167862Y-125733498D01*
X80002797Y-125678801D01*
X80002795Y-125678800D01*
X79900010Y-125668300D01*
X79099998Y-125668300D01*
X79099980Y-125668301D01*
X78997203Y-125678800D01*
X78997200Y-125678801D01*
X78830668Y-125733985D01*
X78830663Y-125733987D01*
X78681342Y-125826089D01*
X78557289Y-125950142D01*
X78465187Y-126099463D01*
X78465186Y-126099466D01*
X78410001Y-126266003D01*
X78410001Y-126266004D01*
X78410000Y-126266004D01*
X78399500Y-126368783D01*
X78399500Y-127768801D01*
X78399501Y-127768818D01*
X78410000Y-127871596D01*
X78410002Y-127871603D01*
X78422824Y-127910297D01*
X78425225Y-127980125D01*
X78389494Y-128040167D01*
X78326973Y-128071359D01*
X78305118Y-128073300D01*
X77906960Y-128073300D01*
X77893078Y-128072520D01*
X77817974Y-128064058D01*
X77769356Y-128058580D01*
X77742285Y-128052401D01*
X77631379Y-128013593D01*
X77606363Y-128001546D01*
X77506873Y-127939033D01*
X77485163Y-127921720D01*
X77402079Y-127838636D01*
X77384766Y-127816926D01*
X77369830Y-127793155D01*
X77322251Y-127717432D01*
X77310208Y-127692424D01*
X77271397Y-127581510D01*
X77265220Y-127554446D01*
X77251280Y-127430722D01*
X77250500Y-127416839D01*
X77250500Y-123922396D01*
X77270185Y-123855357D01*
X77322989Y-123809602D01*
X77392147Y-123799658D01*
X77455703Y-123828683D01*
G37*
%TD.AperFunction*%
%TA.AperFunction,NonConductor*%
G36*
X132642539Y-74728985D02*
G01*
X132688294Y-74781789D01*
X132699500Y-74833300D01*
X132699500Y-143724300D01*
X132679815Y-143791339D01*
X132627011Y-143837094D01*
X132575500Y-143848300D01*
X119863903Y-143848300D01*
X119796864Y-143828615D01*
X119751109Y-143775811D01*
X119741165Y-143706653D01*
X119742286Y-143700108D01*
X119760500Y-143608543D01*
X119760500Y-143411456D01*
X119722052Y-143218170D01*
X119722051Y-143218169D01*
X119722051Y-143218165D01*
X119709623Y-143188160D01*
X119646635Y-143036092D01*
X119646628Y-143036079D01*
X119561643Y-142908891D01*
X119540765Y-142842214D01*
X119559249Y-142774834D01*
X119561643Y-142771109D01*
X119646628Y-142643920D01*
X119646628Y-142643919D01*
X119646632Y-142643914D01*
X119722051Y-142461835D01*
X119760500Y-142268541D01*
X119760500Y-142071459D01*
X119760500Y-142071456D01*
X119722052Y-141878170D01*
X119722051Y-141878169D01*
X119722051Y-141878165D01*
X119709623Y-141848160D01*
X119646635Y-141696092D01*
X119646633Y-141696088D01*
X119646632Y-141696086D01*
X119626589Y-141666089D01*
X119585029Y-141603891D01*
X119564151Y-141537214D01*
X119582635Y-141469834D01*
X119585029Y-141466109D01*
X119605074Y-141436109D01*
X119646632Y-141373914D01*
X119722051Y-141191835D01*
X119760500Y-140998541D01*
X119760500Y-140801459D01*
X119760500Y-140801456D01*
X119722052Y-140608170D01*
X119722051Y-140608169D01*
X119722051Y-140608165D01*
X119709623Y-140578160D01*
X119646635Y-140426092D01*
X119646628Y-140426079D01*
X119578348Y-140323891D01*
X119557470Y-140257213D01*
X119575955Y-140189833D01*
X119578348Y-140186109D01*
X119646628Y-140083920D01*
X119646629Y-140083918D01*
X119646632Y-140083914D01*
X119722051Y-139901835D01*
X119760500Y-139708541D01*
X119760500Y-139511459D01*
X119760500Y-139511456D01*
X119722052Y-139318170D01*
X119722051Y-139318169D01*
X119722051Y-139318165D01*
X119709623Y-139288160D01*
X119646635Y-139136092D01*
X119646628Y-139136079D01*
X119561643Y-139008891D01*
X119540765Y-138942214D01*
X119559249Y-138874834D01*
X119561643Y-138871109D01*
X119646628Y-138743920D01*
X119646628Y-138743919D01*
X119646632Y-138743914D01*
X119722051Y-138561835D01*
X119760500Y-138368541D01*
X119760500Y-138171459D01*
X119760500Y-138171456D01*
X119760499Y-138171454D01*
X119745897Y-138098042D01*
X119752124Y-138028451D01*
X119794987Y-137973273D01*
X119860877Y-137950029D01*
X119867516Y-137949851D01*
X123134060Y-137950487D01*
X123134108Y-137950500D01*
X123198977Y-137950500D01*
X123210113Y-137950502D01*
X123265790Y-137950513D01*
X123265790Y-137950512D01*
X123265795Y-137950513D01*
X123265800Y-137950511D01*
X123265887Y-137950500D01*
X123265892Y-137950500D01*
X123327947Y-137933872D01*
X123327947Y-137933874D01*
X123327963Y-137933867D01*
X123393095Y-137916430D01*
X123393101Y-137916426D01*
X123393125Y-137916420D01*
X123393157Y-137916407D01*
X123393180Y-137916393D01*
X123393186Y-137916392D01*
X123449319Y-137883982D01*
X123449338Y-137883978D01*
X123449336Y-137883974D01*
X123467076Y-137873735D01*
X123507236Y-137850560D01*
X123507240Y-137850555D01*
X123507276Y-137850535D01*
X123507280Y-137850532D01*
X123507309Y-137850502D01*
X123507314Y-137850500D01*
X123553838Y-137803976D01*
X123600440Y-137757392D01*
X123600447Y-137757378D01*
X123600487Y-137757325D01*
X123600500Y-137757314D01*
X123633874Y-137699507D01*
X123666144Y-137643639D01*
X123666372Y-137643254D01*
X123666389Y-137643190D01*
X123666392Y-137643186D01*
X123678737Y-137597112D01*
X123683817Y-137578156D01*
X123683822Y-137578137D01*
X123690488Y-137553276D01*
X123700487Y-137515989D01*
X123700487Y-137515986D01*
X123700500Y-137515891D01*
X123700500Y-137450097D01*
X123700513Y-137384205D01*
X123700500Y-137384156D01*
X123700500Y-120904108D01*
X123666392Y-120776814D01*
X123600500Y-120662686D01*
X123507314Y-120569500D01*
X123450250Y-120536554D01*
X123393187Y-120503608D01*
X123329539Y-120486554D01*
X123265892Y-120469500D01*
X123265891Y-120469500D01*
X119880334Y-120469500D01*
X119813295Y-120449815D01*
X119767540Y-120397011D01*
X119757596Y-120327853D01*
X119758716Y-120321310D01*
X119759088Y-120319436D01*
X119760500Y-120312341D01*
X119760500Y-120115259D01*
X119760500Y-120115256D01*
X119722052Y-119921970D01*
X119722051Y-119921969D01*
X119722051Y-119921965D01*
X119722049Y-119921960D01*
X119646635Y-119739892D01*
X119646633Y-119739888D01*
X119646632Y-119739886D01*
X119591711Y-119657691D01*
X119570833Y-119591014D01*
X119589317Y-119523634D01*
X119591711Y-119519909D01*
X119608554Y-119494702D01*
X119646632Y-119437714D01*
X119722051Y-119255635D01*
X119747760Y-119126390D01*
X119760500Y-119062343D01*
X119760500Y-118865256D01*
X119722052Y-118671970D01*
X119722051Y-118671969D01*
X119722051Y-118671965D01*
X119719006Y-118664614D01*
X119646635Y-118489892D01*
X119646633Y-118489888D01*
X119646632Y-118489886D01*
X119635110Y-118472642D01*
X119591711Y-118407691D01*
X119570833Y-118341014D01*
X119589317Y-118273634D01*
X119591711Y-118269909D01*
X119627910Y-118215733D01*
X119646632Y-118187714D01*
X119649134Y-118181675D01*
X119665498Y-118142166D01*
X119722051Y-118005635D01*
X119748993Y-117870190D01*
X119760500Y-117812343D01*
X119760500Y-117615257D01*
X119759950Y-117612493D01*
X119760082Y-117611014D01*
X119759903Y-117609194D01*
X119760248Y-117609160D01*
X119766177Y-117542901D01*
X119809039Y-117487723D01*
X119874929Y-117464478D01*
X119881567Y-117464300D01*
X123265890Y-117464300D01*
X123265892Y-117464300D01*
X123393186Y-117430192D01*
X123507314Y-117364300D01*
X123600500Y-117271114D01*
X123666392Y-117156986D01*
X123700500Y-117029692D01*
X123700500Y-101177908D01*
X123666392Y-101050614D01*
X123600500Y-100936486D01*
X123507314Y-100843300D01*
X123450250Y-100810354D01*
X123393187Y-100777408D01*
X123329539Y-100760354D01*
X123265892Y-100743300D01*
X123265891Y-100743300D01*
X119881567Y-100743300D01*
X119814528Y-100723615D01*
X119768773Y-100670811D01*
X119758829Y-100601653D01*
X119759950Y-100595107D01*
X119760500Y-100592342D01*
X119760500Y-100395256D01*
X119722052Y-100201970D01*
X119722051Y-100201969D01*
X119722051Y-100201965D01*
X119696481Y-100140233D01*
X119646635Y-100019892D01*
X119646633Y-100019888D01*
X119646632Y-100019886D01*
X119624589Y-99986897D01*
X119591711Y-99937691D01*
X119570833Y-99871014D01*
X119589317Y-99803634D01*
X119591711Y-99799909D01*
X119614463Y-99765858D01*
X119646632Y-99717714D01*
X119722051Y-99535635D01*
X119745785Y-99416317D01*
X119760500Y-99342343D01*
X119760500Y-99145256D01*
X119722052Y-98951970D01*
X119722051Y-98951969D01*
X119722051Y-98951965D01*
X119697346Y-98892322D01*
X119646635Y-98769892D01*
X119646633Y-98769888D01*
X119646632Y-98769886D01*
X119613357Y-98720086D01*
X119591711Y-98687691D01*
X119570833Y-98621014D01*
X119589317Y-98553634D01*
X119591711Y-98549909D01*
X119639950Y-98477714D01*
X119646632Y-98467714D01*
X119722051Y-98285635D01*
X119737239Y-98209282D01*
X119760500Y-98092343D01*
X119760500Y-97895258D01*
X119759194Y-97888693D01*
X119765420Y-97819102D01*
X119808282Y-97763924D01*
X119874172Y-97740678D01*
X119880811Y-97740500D01*
X123265890Y-97740500D01*
X123265892Y-97740500D01*
X123393186Y-97706392D01*
X123507314Y-97640500D01*
X123600500Y-97547314D01*
X123666392Y-97433186D01*
X123700500Y-97305892D01*
X123700500Y-89709662D01*
X123720185Y-89642623D01*
X123736819Y-89621981D01*
X123765000Y-89593800D01*
X123765000Y-74833300D01*
X123784685Y-74766261D01*
X123837489Y-74720506D01*
X123889000Y-74709300D01*
X132575500Y-74709300D01*
X132642539Y-74728985D01*
G37*
%TD.AperFunction*%
%TA.AperFunction,NonConductor*%
G36*
X117652596Y-137949420D02*
G01*
X117719631Y-137969118D01*
X117765375Y-138021930D01*
X117775305Y-138091091D01*
X117774189Y-138097610D01*
X117765468Y-138141454D01*
X117759500Y-138171459D01*
X117759500Y-138368541D01*
X117759500Y-138368543D01*
X117759499Y-138368543D01*
X117797947Y-138561829D01*
X117797950Y-138561839D01*
X117873364Y-138743907D01*
X117873371Y-138743920D01*
X117958356Y-138871109D01*
X117979234Y-138937787D01*
X117960749Y-139005167D01*
X117958356Y-139008891D01*
X117873371Y-139136079D01*
X117873364Y-139136092D01*
X117797950Y-139318160D01*
X117797947Y-139318170D01*
X117759500Y-139511456D01*
X117759500Y-139511459D01*
X117759500Y-139708541D01*
X117759500Y-139708543D01*
X117759499Y-139708543D01*
X117797947Y-139901829D01*
X117797950Y-139901839D01*
X117873364Y-140083907D01*
X117873370Y-140083918D01*
X117941652Y-140186110D01*
X117962529Y-140252787D01*
X117944044Y-140320167D01*
X117941652Y-140323890D01*
X117873370Y-140426081D01*
X117873364Y-140426092D01*
X117797950Y-140608160D01*
X117797947Y-140608170D01*
X117759500Y-140801456D01*
X117759500Y-140801459D01*
X117759500Y-140998541D01*
X117759500Y-140998543D01*
X117759499Y-140998543D01*
X117797947Y-141191829D01*
X117797950Y-141191839D01*
X117873365Y-141373907D01*
X117873368Y-141373914D01*
X117914925Y-141436109D01*
X117934971Y-141466110D01*
X117955848Y-141532787D01*
X117937363Y-141600167D01*
X117934971Y-141603890D01*
X117873366Y-141696089D01*
X117797950Y-141878160D01*
X117797947Y-141878170D01*
X117759500Y-142071456D01*
X117759500Y-142071459D01*
X117759500Y-142268541D01*
X117759500Y-142268543D01*
X117759499Y-142268543D01*
X117797947Y-142461829D01*
X117797950Y-142461839D01*
X117873364Y-142643907D01*
X117873371Y-142643920D01*
X117958356Y-142771109D01*
X117979234Y-142837787D01*
X117960749Y-142905167D01*
X117958356Y-142908891D01*
X117873371Y-143036079D01*
X117873364Y-143036092D01*
X117797950Y-143218160D01*
X117797947Y-143218170D01*
X117759500Y-143411456D01*
X117759500Y-143411459D01*
X117759500Y-143608541D01*
X117759500Y-143608543D01*
X117759499Y-143608543D01*
X117777714Y-143700108D01*
X117771487Y-143769700D01*
X117728624Y-143824877D01*
X117662735Y-143848122D01*
X117656097Y-143848300D01*
X77337936Y-143848300D01*
X77270897Y-143828615D01*
X77225142Y-143775811D01*
X77215198Y-143706653D01*
X77216319Y-143700109D01*
X77240499Y-143578545D01*
X77240500Y-143578543D01*
X77240500Y-143381456D01*
X77202052Y-143188170D01*
X77202051Y-143188169D01*
X77202051Y-143188165D01*
X77139061Y-143036092D01*
X77126635Y-143006092D01*
X77126628Y-143006079D01*
X77041643Y-142878891D01*
X77020765Y-142812214D01*
X77039249Y-142744834D01*
X77041643Y-142741109D01*
X77126628Y-142613920D01*
X77126628Y-142613919D01*
X77126632Y-142613914D01*
X77202051Y-142431835D01*
X77240500Y-142238541D01*
X77240500Y-142041459D01*
X77240500Y-142041456D01*
X77202052Y-141848170D01*
X77202051Y-141848169D01*
X77202051Y-141848165D01*
X77139060Y-141696089D01*
X77126635Y-141666092D01*
X77126633Y-141666088D01*
X77126632Y-141666086D01*
X77065029Y-141573891D01*
X77044151Y-141507214D01*
X77062635Y-141439834D01*
X77065029Y-141436109D01*
X77106591Y-141373907D01*
X77126632Y-141343914D01*
X77202051Y-141161835D01*
X77240500Y-140968541D01*
X77240500Y-140771459D01*
X77240500Y-140771456D01*
X77202052Y-140578170D01*
X77202051Y-140578169D01*
X77202051Y-140578165D01*
X77139061Y-140426092D01*
X77126635Y-140396092D01*
X77126628Y-140396079D01*
X77058348Y-140293891D01*
X77037470Y-140227213D01*
X77055955Y-140159833D01*
X77058348Y-140156109D01*
X77126628Y-140053920D01*
X77126629Y-140053918D01*
X77126632Y-140053914D01*
X77202051Y-139871835D01*
X77240500Y-139678541D01*
X77240500Y-139481459D01*
X77240500Y-139481456D01*
X77202052Y-139288170D01*
X77202051Y-139288169D01*
X77202051Y-139288165D01*
X77139061Y-139136092D01*
X77126635Y-139106092D01*
X77126628Y-139106079D01*
X77041643Y-138978891D01*
X77020765Y-138912214D01*
X77039249Y-138844834D01*
X77041643Y-138841109D01*
X77126628Y-138713920D01*
X77126628Y-138713919D01*
X77126632Y-138713914D01*
X77202051Y-138531835D01*
X77240500Y-138338541D01*
X77240500Y-138141459D01*
X77240500Y-138141456D01*
X77240499Y-138141454D01*
X77230219Y-138089770D01*
X77236446Y-138020179D01*
X77279309Y-137965001D01*
X77345199Y-137941757D01*
X77351834Y-137941579D01*
X117652596Y-137949420D01*
G37*
%TD.AperFunction*%
%TA.AperFunction,NonConductor*%
G36*
X75197646Y-74728985D02*
G01*
X75243401Y-74781789D01*
X75253345Y-74850947D01*
X75252224Y-74857492D01*
X75239500Y-74921456D01*
X75239500Y-74921459D01*
X75239500Y-75118541D01*
X75239500Y-75118543D01*
X75239499Y-75118543D01*
X75277947Y-75311829D01*
X75277950Y-75311839D01*
X75353364Y-75493907D01*
X75353371Y-75493920D01*
X75418311Y-75591109D01*
X75439189Y-75657787D01*
X75420704Y-75725167D01*
X75418311Y-75728891D01*
X75353371Y-75826079D01*
X75353364Y-75826092D01*
X75277950Y-76008160D01*
X75277947Y-76008170D01*
X75239500Y-76201456D01*
X75239500Y-76201459D01*
X75239500Y-76398541D01*
X75239500Y-76398543D01*
X75239499Y-76398543D01*
X75277947Y-76591829D01*
X75277950Y-76591839D01*
X75353364Y-76773907D01*
X75353370Y-76773918D01*
X75421652Y-76876110D01*
X75442529Y-76942787D01*
X75424044Y-77010167D01*
X75421652Y-77013890D01*
X75353370Y-77116081D01*
X75353364Y-77116092D01*
X75277950Y-77298160D01*
X75277947Y-77298170D01*
X75239500Y-77491456D01*
X75239500Y-77491459D01*
X75239500Y-77688541D01*
X75239500Y-77688543D01*
X75239499Y-77688543D01*
X75277947Y-77881829D01*
X75277950Y-77881839D01*
X75353366Y-78063910D01*
X75353368Y-78063914D01*
X75397352Y-78129740D01*
X75414971Y-78156110D01*
X75435848Y-78222787D01*
X75417363Y-78290167D01*
X75414971Y-78293890D01*
X75353366Y-78386089D01*
X75277950Y-78568160D01*
X75277947Y-78568170D01*
X75239500Y-78761456D01*
X75239500Y-78761459D01*
X75239500Y-78958541D01*
X75239500Y-78958543D01*
X75239499Y-78958543D01*
X75277947Y-79151829D01*
X75277950Y-79151839D01*
X75353364Y-79333907D01*
X75353371Y-79333920D01*
X75438356Y-79461109D01*
X75459234Y-79527787D01*
X75440749Y-79595167D01*
X75438356Y-79598891D01*
X75353371Y-79726079D01*
X75353364Y-79726092D01*
X75277950Y-79908160D01*
X75277947Y-79908170D01*
X75239500Y-80101456D01*
X75239500Y-80235500D01*
X75219815Y-80302539D01*
X75167011Y-80348294D01*
X75115500Y-80359500D01*
X71734108Y-80359500D01*
X71606812Y-80393608D01*
X71492686Y-80459500D01*
X71492683Y-80459502D01*
X71399502Y-80552683D01*
X71399500Y-80552686D01*
X71333608Y-80666812D01*
X71299500Y-80794108D01*
X71299500Y-97315891D01*
X71333608Y-97443187D01*
X71366554Y-97500250D01*
X71399500Y-97557314D01*
X71492686Y-97650500D01*
X71589492Y-97706391D01*
X71599156Y-97711971D01*
X71606814Y-97716392D01*
X71734108Y-97750500D01*
X75119189Y-97750500D01*
X75186228Y-97770185D01*
X75231983Y-97822989D01*
X75241927Y-97892147D01*
X75240806Y-97898693D01*
X75239500Y-97905258D01*
X75239500Y-98102341D01*
X75277947Y-98295629D01*
X75277950Y-98295639D01*
X75353364Y-98477706D01*
X75353370Y-98477717D01*
X75408289Y-98559910D01*
X75429166Y-98626588D01*
X75410681Y-98693968D01*
X75408289Y-98697690D01*
X75353370Y-98779882D01*
X75353364Y-98779893D01*
X75277950Y-98961960D01*
X75277947Y-98961970D01*
X75239500Y-99155256D01*
X75239500Y-99155259D01*
X75239500Y-99352341D01*
X75239500Y-99352343D01*
X75239499Y-99352343D01*
X75277947Y-99545629D01*
X75277950Y-99545639D01*
X75353364Y-99727706D01*
X75353370Y-99727717D01*
X75408289Y-99809910D01*
X75429166Y-99876588D01*
X75410681Y-99943968D01*
X75408289Y-99947690D01*
X75353370Y-100029882D01*
X75353364Y-100029893D01*
X75277950Y-100211960D01*
X75277947Y-100211970D01*
X75239500Y-100405256D01*
X75239500Y-100602342D01*
X75240050Y-100605107D01*
X75239917Y-100606585D01*
X75240097Y-100608406D01*
X75239751Y-100608439D01*
X75233823Y-100674699D01*
X75190961Y-100729877D01*
X75125071Y-100753122D01*
X75118433Y-100753300D01*
X71734108Y-100753300D01*
X71606812Y-100787408D01*
X71492686Y-100853300D01*
X71492683Y-100853302D01*
X71399502Y-100946483D01*
X71399500Y-100946486D01*
X71333608Y-101060612D01*
X71320014Y-101111347D01*
X71299500Y-101187908D01*
X71299500Y-116907908D01*
X71299500Y-117039692D01*
X71306002Y-117063957D01*
X71333608Y-117166987D01*
X71359352Y-117211576D01*
X71399500Y-117281114D01*
X71492686Y-117374300D01*
X71606814Y-117440192D01*
X71734108Y-117474300D01*
X75118433Y-117474300D01*
X75185472Y-117493985D01*
X75231227Y-117546789D01*
X75241171Y-117615947D01*
X75240050Y-117622493D01*
X75239500Y-117625259D01*
X75239500Y-117822341D01*
X75239500Y-117822343D01*
X75239499Y-117822343D01*
X75277947Y-118015629D01*
X75277950Y-118015639D01*
X75353364Y-118197706D01*
X75353370Y-118197717D01*
X75408289Y-118279910D01*
X75429166Y-118346588D01*
X75410681Y-118413968D01*
X75408289Y-118417690D01*
X75353370Y-118499882D01*
X75353364Y-118499893D01*
X75277950Y-118681960D01*
X75277947Y-118681970D01*
X75239500Y-118875256D01*
X75239500Y-118875259D01*
X75239500Y-119072341D01*
X75239500Y-119072343D01*
X75239499Y-119072343D01*
X75277947Y-119265629D01*
X75277950Y-119265639D01*
X75353364Y-119447706D01*
X75353370Y-119447717D01*
X75408289Y-119529910D01*
X75429166Y-119596588D01*
X75410681Y-119663968D01*
X75408289Y-119667690D01*
X75353370Y-119749882D01*
X75353364Y-119749893D01*
X75277950Y-119931960D01*
X75277947Y-119931970D01*
X75239500Y-120125256D01*
X75239500Y-120322343D01*
X75240097Y-120328406D01*
X75238646Y-120328548D01*
X75233067Y-120390901D01*
X75190203Y-120446078D01*
X75124313Y-120469322D01*
X75117677Y-120469500D01*
X71734108Y-120469500D01*
X71606812Y-120503608D01*
X71492686Y-120569500D01*
X71492683Y-120569502D01*
X71399502Y-120662683D01*
X71399500Y-120662686D01*
X71333608Y-120776812D01*
X71299500Y-120904108D01*
X71299500Y-137439903D01*
X71299487Y-137505795D01*
X71299500Y-137505843D01*
X71299500Y-137505892D01*
X71300453Y-137509452D01*
X71300454Y-137509454D01*
X71316121Y-137567925D01*
X71316124Y-137567947D01*
X71316127Y-137567947D01*
X71333570Y-137633095D01*
X71333572Y-137633098D01*
X71333608Y-137633187D01*
X71366015Y-137689317D01*
X71366021Y-137689339D01*
X71366026Y-137689337D01*
X71380156Y-137713822D01*
X71399440Y-137747236D01*
X71399443Y-137747239D01*
X71399504Y-137747319D01*
X71446023Y-137793837D01*
X71446024Y-137793838D01*
X71492608Y-137840440D01*
X71492610Y-137840441D01*
X71492681Y-137840495D01*
X71492686Y-137840500D01*
X71550492Y-137873874D01*
X71568358Y-137884194D01*
X71606714Y-137906349D01*
X71606723Y-137906354D01*
X71606731Y-137906356D01*
X71606801Y-137906384D01*
X71606814Y-137906392D01*
X71671841Y-137923816D01*
X71671861Y-137923828D01*
X71671863Y-137923822D01*
X71688528Y-137928290D01*
X71734011Y-137940487D01*
X71734017Y-137940487D01*
X71734102Y-137940498D01*
X71734108Y-137940500D01*
X71734113Y-137940500D01*
X71800829Y-137940500D01*
X75128275Y-137941147D01*
X75195310Y-137960845D01*
X75241054Y-138013657D01*
X75250984Y-138082818D01*
X75249867Y-138089339D01*
X75239500Y-138141456D01*
X75239500Y-138141459D01*
X75239500Y-138338541D01*
X75239500Y-138338543D01*
X75239499Y-138338543D01*
X75277947Y-138531829D01*
X75277950Y-138531839D01*
X75353364Y-138713907D01*
X75353371Y-138713920D01*
X75438356Y-138841109D01*
X75459234Y-138907787D01*
X75440749Y-138975167D01*
X75438356Y-138978891D01*
X75353371Y-139106079D01*
X75353364Y-139106092D01*
X75277950Y-139288160D01*
X75277947Y-139288170D01*
X75239500Y-139481456D01*
X75239500Y-139481459D01*
X75239500Y-139678541D01*
X75239500Y-139678543D01*
X75239499Y-139678543D01*
X75277947Y-139871829D01*
X75277950Y-139871839D01*
X75353364Y-140053907D01*
X75353370Y-140053918D01*
X75421652Y-140156110D01*
X75442529Y-140222787D01*
X75424044Y-140290167D01*
X75421652Y-140293890D01*
X75353370Y-140396081D01*
X75353364Y-140396092D01*
X75277950Y-140578160D01*
X75277947Y-140578170D01*
X75239500Y-140771456D01*
X75239500Y-140771459D01*
X75239500Y-140968541D01*
X75239500Y-140968543D01*
X75239499Y-140968543D01*
X75277947Y-141161829D01*
X75277950Y-141161839D01*
X75353365Y-141343907D01*
X75353368Y-141343914D01*
X75373417Y-141373919D01*
X75414971Y-141436110D01*
X75435848Y-141502787D01*
X75417363Y-141570167D01*
X75414971Y-141573890D01*
X75353366Y-141666089D01*
X75277950Y-141848160D01*
X75277947Y-141848170D01*
X75239500Y-142041456D01*
X75239500Y-142041459D01*
X75239500Y-142238541D01*
X75239500Y-142238543D01*
X75239499Y-142238543D01*
X75277947Y-142431829D01*
X75277950Y-142431839D01*
X75353364Y-142613907D01*
X75353371Y-142613920D01*
X75438356Y-142741109D01*
X75459234Y-142807787D01*
X75440749Y-142875167D01*
X75438356Y-142878891D01*
X75353371Y-143006079D01*
X75353364Y-143006092D01*
X75277950Y-143188160D01*
X75277947Y-143188170D01*
X75239500Y-143381456D01*
X75239500Y-143578545D01*
X75263681Y-143700109D01*
X75257454Y-143769700D01*
X75214591Y-143824877D01*
X75148701Y-143848122D01*
X75142064Y-143848300D01*
X62939500Y-143848300D01*
X62872461Y-143828615D01*
X62826706Y-143775811D01*
X62815500Y-143724300D01*
X62815500Y-74833300D01*
X62835185Y-74766261D01*
X62887989Y-74720506D01*
X62939500Y-74709300D01*
X75130607Y-74709300D01*
X75197646Y-74728985D01*
G37*
%TD.AperFunction*%
%TA.AperFunction,Conductor*%
%TO.N,GND*%
G36*
X89777773Y-119692053D02*
G01*
X89844523Y-119712693D01*
X89889519Y-119766145D01*
X89900000Y-119816040D01*
X89900000Y-122876433D01*
X89895229Y-122910498D01*
X89825696Y-123153865D01*
X89788352Y-123212918D01*
X89725010Y-123242406D01*
X89706467Y-123243800D01*
X86524000Y-123243800D01*
X86456961Y-123224115D01*
X86411206Y-123171311D01*
X86400000Y-123119800D01*
X86400000Y-119769583D01*
X86419685Y-119702544D01*
X86472489Y-119656789D01*
X86525767Y-119645596D01*
X89777773Y-119692053D01*
G37*
%TD.AperFunction*%
%TD*%
M02*
