%TF.GenerationSoftware,KiCad,Pcbnew,9.0.3*%
%TF.CreationDate,2025-09-17T23:32:25+02:00*%
%TF.ProjectId,Wear Camera,57656172-2043-4616-9d65-72612e6b6963,rev?*%
%TF.SameCoordinates,Original*%
%TF.FileFunction,Legend,Top*%
%TF.FilePolarity,Positive*%
%FSLAX46Y46*%
G04 Gerber Fmt 4.6, Leading zero omitted, Abs format (unit mm)*
G04 Created by KiCad (PCBNEW 9.0.3) date 2025-09-17 23:32:25*
%MOMM*%
%LPD*%
G01*
G04 APERTURE LIST*
%ADD10C,0.120000*%
%ADD11C,0.127000*%
%ADD12C,0.150000*%
%ADD13C,0.100000*%
G04 APERTURE END LIST*
D10*
%TO.C,R18*%
X108203641Y-110813800D02*
X107896359Y-110813800D01*
X108203641Y-111573800D02*
X107896359Y-111573800D01*
%TO.C,R22*%
X78396359Y-120613800D02*
X78703641Y-120613800D01*
X78396359Y-121373800D02*
X78703641Y-121373800D01*
%TO.C,R1*%
X95270000Y-114747441D02*
X95270000Y-114440159D01*
X96030000Y-114747441D02*
X96030000Y-114440159D01*
%TO.C,C5*%
X95040000Y-127171636D02*
X95040000Y-126955964D01*
X95760000Y-127171636D02*
X95760000Y-126955964D01*
%TO.C,C9*%
X90890000Y-116885964D02*
X90890000Y-117101636D01*
X91610000Y-116885964D02*
X91610000Y-117101636D01*
%TO.C,R10*%
X85670000Y-102940159D02*
X85670000Y-103247441D01*
X86430000Y-102940159D02*
X86430000Y-103247441D01*
%TO.C,R31*%
X82370000Y-93747441D02*
X82370000Y-93440159D01*
X83130000Y-93747441D02*
X83130000Y-93440159D01*
%TO.C,U11*%
X83340000Y-115546300D02*
X83815000Y-115546300D01*
X83340000Y-116021300D02*
X83340000Y-115546300D01*
X83340000Y-118291300D02*
X83340000Y-118466300D01*
X83815000Y-118766300D02*
X83580000Y-118766300D01*
X86560000Y-115546300D02*
X86085000Y-115546300D01*
X86560000Y-116021300D02*
X86560000Y-115546300D01*
X86560000Y-118291300D02*
X86560000Y-118766300D01*
X86560000Y-118766300D02*
X86085000Y-118766300D01*
X83340000Y-118766300D02*
X83010000Y-119006300D01*
X83010000Y-118526300D01*
X83340000Y-118766300D01*
G36*
X83340000Y-118766300D02*
G01*
X83010000Y-119006300D01*
X83010000Y-118526300D01*
X83340000Y-118766300D01*
G37*
%TO.C,C14*%
X82390000Y-91085964D02*
X82390000Y-91301636D01*
X83110000Y-91085964D02*
X83110000Y-91301636D01*
%TO.C,C4*%
X93940000Y-126915964D02*
X93940000Y-127131636D01*
X94660000Y-126915964D02*
X94660000Y-127131636D01*
%TO.C,R16*%
X87303641Y-126713800D02*
X86996359Y-126713800D01*
X87303641Y-127473800D02*
X86996359Y-127473800D01*
%TO.C,C27*%
X86126248Y-111296300D02*
X87548752Y-111296300D01*
X86126248Y-114016300D02*
X87548752Y-114016300D01*
%TO.C,U3*%
X80155000Y-98618800D02*
X80155000Y-96668800D01*
X80155000Y-98618800D02*
X80155000Y-100568800D01*
X85275000Y-98618800D02*
X85275000Y-96668800D01*
X85275000Y-98618800D02*
X85275000Y-100568800D01*
X80250000Y-101318800D02*
X79920000Y-101558800D01*
X79920000Y-101078800D01*
X80250000Y-101318800D01*
G36*
X80250000Y-101318800D02*
G01*
X79920000Y-101558800D01*
X79920000Y-101078800D01*
X80250000Y-101318800D01*
G37*
%TO.C,C6*%
X85940000Y-94151636D02*
X85940000Y-93935964D01*
X86660000Y-94151636D02*
X86660000Y-93935964D01*
%TO.C,R27*%
X82783859Y-113376300D02*
X83091141Y-113376300D01*
X82783859Y-114136300D02*
X83091141Y-114136300D01*
%TO.C,R17*%
X84770000Y-92790159D02*
X84770000Y-93097441D01*
X85530000Y-92790159D02*
X85530000Y-93097441D01*
D11*
%TO.C,S1*%
X87086500Y-96243800D02*
X87086500Y-93643800D01*
X89013500Y-96243800D02*
X89013500Y-93643800D01*
D10*
%TO.C,C12*%
X91740000Y-114435964D02*
X91740000Y-114651636D01*
X92460000Y-114435964D02*
X92460000Y-114651636D01*
%TO.C,R32*%
X78746359Y-94813800D02*
X79053641Y-94813800D01*
X78746359Y-95573800D02*
X79053641Y-95573800D01*
%TO.C,R21*%
X77670000Y-122847441D02*
X77670000Y-122540159D01*
X78430000Y-122847441D02*
X78430000Y-122540159D01*
%TO.C,C3*%
X92790000Y-125535964D02*
X92790000Y-125751636D01*
X93510000Y-125535964D02*
X93510000Y-125751636D01*
%TO.C,R9*%
X86853641Y-98413800D02*
X86546359Y-98413800D01*
X86853641Y-99173800D02*
X86546359Y-99173800D01*
%TO.C,U4*%
X78540000Y-91421300D02*
X78540000Y-91596300D01*
X78540000Y-94141300D02*
X78540000Y-93966300D01*
X79215000Y-91421300D02*
X78540000Y-91421300D01*
X79215000Y-94141300D02*
X78540000Y-94141300D01*
X81085000Y-91421300D02*
X81760000Y-91421300D01*
X81085000Y-94141300D02*
X81460000Y-94141300D01*
X81760000Y-91421300D02*
X81760000Y-91596300D01*
X81900000Y-94331300D02*
X81620000Y-94331300D01*
X81760000Y-94141300D01*
X81900000Y-94331300D01*
G36*
X81900000Y-94331300D02*
G01*
X81620000Y-94331300D01*
X81760000Y-94141300D01*
X81900000Y-94331300D01*
G37*
%TO.C,C26*%
X79027500Y-118067552D02*
X79027500Y-116645048D01*
X81747500Y-118067552D02*
X81747500Y-116645048D01*
%TO.C,C1*%
X88290000Y-91785964D02*
X88290000Y-92001636D01*
X89010000Y-91785964D02*
X89010000Y-92001636D01*
%TO.C,C13*%
X78712164Y-95983800D02*
X78927836Y-95983800D01*
X78712164Y-96703800D02*
X78927836Y-96703800D01*
D11*
%TO.C,J2*%
X92150000Y-123843800D02*
X92150000Y-121193800D01*
X92400000Y-124143800D02*
X92150000Y-123843800D01*
X92900000Y-123643800D02*
X92900000Y-124143800D01*
X92900000Y-124143800D02*
X92400000Y-124143800D01*
X93700000Y-123643800D02*
X92900000Y-123643800D01*
X106100000Y-123643800D02*
X106900000Y-123643800D01*
X106900000Y-123643800D02*
X106900000Y-124143800D01*
X106900000Y-124143800D02*
X107400000Y-124143800D01*
X107400000Y-124143800D02*
X107650000Y-123843800D01*
X107650000Y-119223800D02*
X92150000Y-119223800D01*
X107650000Y-123843800D02*
X107650000Y-121243800D01*
X106100000Y-124843800D02*
G75*
G02*
X105900000Y-124843800I-100000J0D01*
G01*
X105900000Y-124843800D02*
G75*
G02*
X106100000Y-124843800I100000J0D01*
G01*
D10*
%TO.C,R7*%
X100096359Y-125413800D02*
X100403641Y-125413800D01*
X100096359Y-126173800D02*
X100403641Y-126173800D01*
D12*
%TO.C,U9*%
X76125000Y-103023800D02*
X76955000Y-103023800D01*
X76125000Y-112263800D02*
X76125000Y-103023800D01*
X76955000Y-112263800D02*
X76125000Y-112263800D01*
X79795000Y-103023800D02*
X81155000Y-103023800D01*
X81155000Y-112263800D02*
X79795000Y-112263800D01*
D10*
%TO.C,TP1*%
X109280000Y-126033800D02*
X110680000Y-126033800D01*
X109280000Y-127433800D02*
X109280000Y-126033800D01*
X110680000Y-126033800D02*
X110680000Y-127433800D01*
X110680000Y-127433800D02*
X109280000Y-127433800D01*
D13*
%TO.C,D16*%
X88010000Y-116243800D02*
G75*
G02*
X87910000Y-116243800I-50000J0D01*
G01*
X87910000Y-116243800D02*
G75*
G02*
X88010000Y-116243800I50000J0D01*
G01*
D10*
%TO.C,R26*%
X82407500Y-120669941D02*
X82407500Y-120362659D01*
X83167500Y-120669941D02*
X83167500Y-120362659D01*
D13*
%TO.C,D15*%
X88010000Y-117443800D02*
G75*
G02*
X87910000Y-117443800I-50000J0D01*
G01*
X87910000Y-117443800D02*
G75*
G02*
X88010000Y-117443800I50000J0D01*
G01*
D10*
%TO.C,R14*%
X109770000Y-91897441D02*
X109770000Y-91590159D01*
X110530000Y-91897441D02*
X110530000Y-91590159D01*
D11*
%TO.C,S2*%
X107950000Y-112180300D02*
X105350000Y-112180300D01*
X107950000Y-114107300D02*
X105350000Y-114107300D01*
D10*
%TO.C,U2*%
X90565000Y-83443800D02*
X90565000Y-89643800D01*
X90565000Y-83443800D02*
X108965000Y-83443800D01*
X90565000Y-108293800D02*
X90565000Y-109293800D01*
X90565000Y-109293800D02*
X92065000Y-109293800D01*
X108965000Y-83443800D02*
X108965000Y-89643800D01*
X108965000Y-109293800D02*
X107465000Y-109293800D01*
X108965000Y-109293800D02*
X108965000Y-108293800D01*
X90565000Y-90318800D02*
X90065000Y-90318800D01*
X90565000Y-89818800D01*
X90565000Y-90318800D01*
G36*
X90565000Y-90318800D02*
G01*
X90065000Y-90318800D01*
X90565000Y-89818800D01*
X90565000Y-90318800D01*
G37*
%TO.C,U5*%
X90287500Y-124583800D02*
X89487500Y-124583800D01*
X90287500Y-124583800D02*
X91087500Y-124583800D01*
X90287500Y-127703800D02*
X89487500Y-127703800D01*
X90287500Y-127703800D02*
X91087500Y-127703800D01*
X88987500Y-124633800D02*
X88747500Y-124303800D01*
X89227500Y-124303800D01*
X88987500Y-124633800D01*
G36*
X88987500Y-124633800D02*
G01*
X88747500Y-124303800D01*
X89227500Y-124303800D01*
X88987500Y-124633800D01*
G37*
%TO.C,C10*%
X86992164Y-125583800D02*
X87207836Y-125583800D01*
X86992164Y-126303800D02*
X87207836Y-126303800D01*
%TO.C,C28*%
X86238748Y-119833800D02*
X87661252Y-119833800D01*
X86238748Y-122553800D02*
X87661252Y-122553800D01*
%TO.C,R19*%
X87196359Y-109463800D02*
X87503641Y-109463800D01*
X87196359Y-110223800D02*
X87503641Y-110223800D01*
%TO.C,U10*%
X86862500Y-105533800D02*
X86062500Y-105533800D01*
X86862500Y-105533800D02*
X87662500Y-105533800D01*
X86862500Y-108653800D02*
X86062500Y-108653800D01*
X86862500Y-108653800D02*
X87662500Y-108653800D01*
X85562500Y-105583800D02*
X85322500Y-105253800D01*
X85802500Y-105253800D01*
X85562500Y-105583800D01*
G36*
X85562500Y-105583800D02*
G01*
X85322500Y-105253800D01*
X85802500Y-105253800D01*
X85562500Y-105583800D01*
G37*
%TO.C,J4*%
X79190000Y-123408800D02*
X80240000Y-123408800D01*
X79190000Y-125908800D02*
X79190000Y-123408800D01*
X80240000Y-123408800D02*
X80240000Y-122418800D01*
X80360000Y-127878800D02*
X83240000Y-127878800D01*
X84410000Y-123408800D02*
X83360000Y-123408800D01*
X84410000Y-125908800D02*
X84410000Y-123408800D01*
%TO.C,R30*%
X109920000Y-93840159D02*
X109920000Y-94147441D01*
X110680000Y-93840159D02*
X110680000Y-94147441D01*
%TO.C,C7*%
X92990000Y-114701636D02*
X92990000Y-114485964D01*
X93710000Y-114701636D02*
X93710000Y-114485964D01*
%TO.C,R8*%
X85820000Y-100547441D02*
X85820000Y-100240159D01*
X86580000Y-100547441D02*
X86580000Y-100240159D01*
%TO.C,R20*%
X88720000Y-109790159D02*
X88720000Y-110097441D01*
X89480000Y-109790159D02*
X89480000Y-110097441D01*
%TO.C,C2*%
X86990000Y-91785964D02*
X86990000Y-92001636D01*
X87710000Y-91785964D02*
X87710000Y-92001636D01*
%TO.C,C8*%
X94140000Y-114671636D02*
X94140000Y-114455964D01*
X94860000Y-114671636D02*
X94860000Y-114455964D01*
%TD*%
M02*
