%TF.GenerationSoftware,KiCad,Pcbnew,9.0.3*%
%TF.CreationDate,2025-09-17T23:32:25+02:00*%
%TF.ProjectId,Wear Camera,57656172-2043-4616-9d65-72612e6b6963,rev?*%
%TF.SameCoordinates,Original*%
%TF.FileFunction,Copper,L4,Bot*%
%TF.FilePolarity,Positive*%
%FSLAX46Y46*%
G04 Gerber Fmt 4.6, Leading zero omitted, Abs format (unit mm)*
G04 Created by KiCad (PCBNEW 9.0.3) date 2025-09-17 23:32:25*
%MOMM*%
%LPD*%
G01*
G04 APERTURE LIST*
G04 Aperture macros list*
%AMRoundRect*
0 Rectangle with rounded corners*
0 $1 Rounding radius*
0 $2 $3 $4 $5 $6 $7 $8 $9 X,Y pos of 4 corners*
0 Add a 4 corners polygon primitive as box body*
4,1,4,$2,$3,$4,$5,$6,$7,$8,$9,$2,$3,0*
0 Add four circle primitives for the rounded corners*
1,1,$1+$1,$2,$3*
1,1,$1+$1,$4,$5*
1,1,$1+$1,$6,$7*
1,1,$1+$1,$8,$9*
0 Add four rect primitives between the rounded corners*
20,1,$1+$1,$2,$3,$4,$5,0*
20,1,$1+$1,$4,$5,$6,$7,0*
20,1,$1+$1,$6,$7,$8,$9,0*
20,1,$1+$1,$8,$9,$2,$3,0*%
%AMFreePoly0*
4,1,23,0.500000,-0.750000,0.000000,-0.750000,0.000000,-0.745722,-0.065263,-0.745722,-0.191342,-0.711940,-0.304381,-0.646677,-0.396677,-0.554381,-0.461940,-0.441342,-0.495722,-0.315263,-0.495722,-0.250000,-0.500000,-0.250000,-0.500000,0.250000,-0.495722,0.250000,-0.495722,0.315263,-0.461940,0.441342,-0.396677,0.554381,-0.304381,0.646677,-0.191342,0.711940,-0.065263,0.745722,0.000000,0.745722,
0.000000,0.750000,0.500000,0.750000,0.500000,-0.750000,0.500000,-0.750000,$1*%
%AMFreePoly1*
4,1,23,0.000000,0.745722,0.065263,0.745722,0.191342,0.711940,0.304381,0.646677,0.396677,0.554381,0.461940,0.441342,0.495722,0.315263,0.495722,0.250000,0.500000,0.250000,0.500000,-0.250000,0.495722,-0.250000,0.495722,-0.315263,0.461940,-0.441342,0.396677,-0.554381,0.304381,-0.646677,0.191342,-0.711940,0.065263,-0.745722,0.000000,-0.745722,0.000000,-0.750000,-0.500000,-0.750000,
-0.500000,0.750000,0.000000,0.750000,0.000000,0.745722,0.000000,0.745722,$1*%
%AMFreePoly2*
4,1,23,0.550000,-0.750000,0.000000,-0.750000,0.000000,-0.745722,-0.065263,-0.745722,-0.191342,-0.711940,-0.304381,-0.646677,-0.396677,-0.554381,-0.461940,-0.441342,-0.495722,-0.315263,-0.495722,-0.250000,-0.500000,-0.250000,-0.500000,0.250000,-0.495722,0.250000,-0.495722,0.315263,-0.461940,0.441342,-0.396677,0.554381,-0.304381,0.646677,-0.191342,0.711940,-0.065263,0.745722,0.000000,0.745722,
0.000000,0.750000,0.550000,0.750000,0.550000,-0.750000,0.550000,-0.750000,$1*%
%AMFreePoly3*
4,1,23,0.000000,0.745722,0.065263,0.745722,0.191342,0.711940,0.304381,0.646677,0.396677,0.554381,0.461940,0.441342,0.495722,0.315263,0.495722,0.250000,0.500000,0.250000,0.500000,-0.250000,0.495722,-0.250000,0.495722,-0.315263,0.461940,-0.441342,0.396677,-0.554381,0.304381,-0.646677,0.191342,-0.711940,0.065263,-0.745722,0.000000,-0.745722,0.000000,-0.750000,-0.550000,-0.750000,
-0.550000,0.750000,0.000000,0.750000,0.000000,0.745722,0.000000,0.745722,$1*%
G04 Aperture macros list end*
%TA.AperFunction,EtchedComponent*%
%ADD10C,0.000000*%
%TD*%
%TA.AperFunction,ComponentPad*%
%ADD11O,2.200000X1.000000*%
%TD*%
%TA.AperFunction,ComponentPad*%
%ADD12O,1.800000X1.000000*%
%TD*%
%TA.AperFunction,HeatsinkPad*%
%ADD13C,0.600000*%
%TD*%
%TA.AperFunction,SMDPad,CuDef*%
%ADD14RoundRect,0.250000X0.350000X0.450000X-0.350000X0.450000X-0.350000X-0.450000X0.350000X-0.450000X0*%
%TD*%
%TA.AperFunction,SMDPad,CuDef*%
%ADD15RoundRect,0.375000X0.375000X-0.625000X0.375000X0.625000X-0.375000X0.625000X-0.375000X-0.625000X0*%
%TD*%
%TA.AperFunction,SMDPad,CuDef*%
%ADD16RoundRect,0.500000X1.400000X-0.500000X1.400000X0.500000X-1.400000X0.500000X-1.400000X-0.500000X0*%
%TD*%
%TA.AperFunction,SMDPad,CuDef*%
%ADD17RoundRect,0.135000X0.185000X-0.135000X0.185000X0.135000X-0.185000X0.135000X-0.185000X-0.135000X0*%
%TD*%
%TA.AperFunction,SMDPad,CuDef*%
%ADD18RoundRect,0.135000X-0.135000X-0.185000X0.135000X-0.185000X0.135000X0.185000X-0.135000X0.185000X0*%
%TD*%
%TA.AperFunction,SMDPad,CuDef*%
%ADD19RoundRect,0.140000X0.140000X0.170000X-0.140000X0.170000X-0.140000X-0.170000X0.140000X-0.170000X0*%
%TD*%
%TA.AperFunction,SMDPad,CuDef*%
%ADD20R,1.000000X1.000000*%
%TD*%
%TA.AperFunction,SMDPad,CuDef*%
%ADD21RoundRect,0.135000X0.135000X0.185000X-0.135000X0.185000X-0.135000X-0.185000X0.135000X-0.185000X0*%
%TD*%
%TA.AperFunction,SMDPad,CuDef*%
%ADD22RoundRect,0.150000X-0.150000X0.512500X-0.150000X-0.512500X0.150000X-0.512500X0.150000X0.512500X0*%
%TD*%
%TA.AperFunction,SMDPad,CuDef*%
%ADD23RoundRect,0.147500X-0.172500X0.147500X-0.172500X-0.147500X0.172500X-0.147500X0.172500X0.147500X0*%
%TD*%
%TA.AperFunction,SMDPad,CuDef*%
%ADD24R,3.180000X3.180000*%
%TD*%
%TA.AperFunction,SMDPad,CuDef*%
%ADD25R,3.960000X3.960000*%
%TD*%
%TA.AperFunction,SMDPad,CuDef*%
%ADD26FreePoly0,180.000000*%
%TD*%
%TA.AperFunction,SMDPad,CuDef*%
%ADD27FreePoly1,180.000000*%
%TD*%
%TA.AperFunction,SMDPad,CuDef*%
%ADD28RoundRect,0.140000X0.170000X-0.140000X0.170000X0.140000X-0.170000X0.140000X-0.170000X-0.140000X0*%
%TD*%
%TA.AperFunction,SMDPad,CuDef*%
%ADD29R,0.711200X1.092200*%
%TD*%
%TA.AperFunction,SMDPad,CuDef*%
%ADD30R,0.889000X0.939800*%
%TD*%
%TA.AperFunction,SMDPad,CuDef*%
%ADD31R,1.041400X0.787400*%
%TD*%
%TA.AperFunction,SMDPad,CuDef*%
%ADD32R,1.143000X1.828800*%
%TD*%
%TA.AperFunction,SMDPad,CuDef*%
%ADD33R,0.711200X3.327400*%
%TD*%
%TA.AperFunction,SMDPad,CuDef*%
%ADD34R,0.863600X2.794000*%
%TD*%
%TA.AperFunction,SMDPad,CuDef*%
%ADD35RoundRect,0.140000X-0.170000X0.140000X-0.170000X-0.140000X0.170000X-0.140000X0.170000X0.140000X0*%
%TD*%
%TA.AperFunction,SMDPad,CuDef*%
%ADD36FreePoly2,180.000000*%
%TD*%
%TA.AperFunction,SMDPad,CuDef*%
%ADD37R,1.000000X1.500000*%
%TD*%
%TA.AperFunction,SMDPad,CuDef*%
%ADD38FreePoly3,180.000000*%
%TD*%
%TA.AperFunction,ViaPad*%
%ADD39C,0.600000*%
%TD*%
%TA.AperFunction,Conductor*%
%ADD40C,0.200000*%
%TD*%
%TA.AperFunction,Conductor*%
%ADD41C,0.300000*%
%TD*%
%TA.AperFunction,Conductor*%
%ADD42C,0.400000*%
%TD*%
%TA.AperFunction,Conductor*%
%ADD43C,0.500000*%
%TD*%
%TA.AperFunction,Conductor*%
%ADD44C,0.800000*%
%TD*%
G04 APERTURE END LIST*
D10*
%TA.AperFunction,EtchedComponent*%
%TO.C,JP5*%
G36*
X82750000Y-123043800D02*
G01*
X82250000Y-123043800D01*
X82250000Y-122643800D01*
X82750000Y-122643800D01*
X82750000Y-123043800D01*
G37*
%TD.AperFunction*%
%TA.AperFunction,EtchedComponent*%
G36*
X82750000Y-123843800D02*
G01*
X82250000Y-123843800D01*
X82250000Y-123443800D01*
X82750000Y-123443800D01*
X82750000Y-123843800D01*
G37*
%TD.AperFunction*%
%TD*%
D11*
%TO.P,U9,SH1,SHIELD*%
%TO.N,unconnected-(U9-SHIELD-PadSH1)*%
X78375000Y-103323800D03*
%TO.P,U9,SH2*%
%TO.N,N/C*%
X78375000Y-111963800D03*
D12*
%TO.P,U9,SH3*%
X82375000Y-103323800D03*
%TO.P,U9,SH4*%
X82375000Y-111963800D03*
%TD*%
D13*
%TO.P,U2,41,GND*%
%TO.N,GND*%
X96865000Y-98103800D03*
X96865000Y-99503800D03*
X97565000Y-97403800D03*
X97565000Y-98803800D03*
X97565000Y-100203800D03*
X98265000Y-98103800D03*
X98265000Y-99503800D03*
X98965000Y-97403800D03*
X98965000Y-98803800D03*
X98965000Y-100203800D03*
X99665000Y-98103800D03*
X99665000Y-99503800D03*
%TD*%
D14*
%TO.P,R25,1*%
%TO.N,Net-(U9-CC2)*%
X80600000Y-108843800D03*
%TO.P,R25,2*%
%TO.N,GND*%
X78600000Y-108843800D03*
%TD*%
D15*
%TO.P,U1,1,GND*%
%TO.N,GND*%
X90550000Y-109993800D03*
%TO.P,U1,2,VO*%
%TO.N,+3V3_MCU*%
X88250000Y-109993800D03*
D16*
X88250000Y-103693800D03*
D15*
%TO.P,U1,3,VI*%
%TO.N,VBUS*%
X85950000Y-109993800D03*
%TD*%
D14*
%TO.P,R24,1*%
%TO.N,Net-(U9-CC1)*%
X80600000Y-106593800D03*
%TO.P,R24,2*%
%TO.N,GND*%
X78600000Y-106593800D03*
%TD*%
D17*
%TO.P,R4,1*%
%TO.N,SDMMC1_D2*%
X109350000Y-99903800D03*
%TO.P,R4,2*%
%TO.N,+3V3_MCU*%
X109350000Y-98883800D03*
%TD*%
D18*
%TO.P,R11,1*%
%TO.N,Net-(JP5-B)*%
X80540000Y-125293800D03*
%TO.P,R11,2*%
%TO.N,GND*%
X81560000Y-125293800D03*
%TD*%
%TO.P,R5,1*%
%TO.N,SDMMC1_D3*%
X103430000Y-105443800D03*
%TO.P,R5,2*%
%TO.N,+3V3_MCU*%
X104450000Y-105443800D03*
%TD*%
D19*
%TO.P,C22,1*%
%TO.N,VBUS*%
X83950000Y-109993800D03*
%TO.P,C22,2*%
%TO.N,GND*%
X82990000Y-109993800D03*
%TD*%
D18*
%TO.P,R12,1*%
%TO.N,VBUS*%
X88540000Y-117418800D03*
%TO.P,R12,2*%
%TO.N,Net-(D15-A)*%
X89560000Y-117418800D03*
%TD*%
D20*
%TO.P,TP2,1,1*%
%TO.N,NONET_NET*%
X116490000Y-120723800D03*
%TD*%
D21*
%TO.P,R6,1*%
%TO.N,SDMMC1_CMD*%
X102310000Y-105443800D03*
%TO.P,R6,2*%
%TO.N,+3V3_MCU*%
X101290000Y-105443800D03*
%TD*%
D18*
%TO.P,R15,1*%
%TO.N,VBUS*%
X88540000Y-116243800D03*
%TO.P,R15,2*%
%TO.N,Net-(D16-A)*%
X89560000Y-116243800D03*
%TD*%
D22*
%TO.P,U6,1,IN*%
%TO.N,VBUS*%
X92100000Y-114606300D03*
%TO.P,U6,2,GND*%
%TO.N,GND*%
X93050000Y-114606300D03*
%TO.P,U6,3,EN*%
%TO.N,Net-(JP2-B)*%
X94000000Y-114606300D03*
%TO.P,U6,4,NC*%
%TO.N,unconnected-(U6-NC-Pad4)*%
X94000000Y-116881300D03*
%TO.P,U6,5,OUT*%
%TO.N,+2V8*%
X92100000Y-116881300D03*
%TD*%
D17*
%TO.P,R13,1*%
%TO.N,Net-(U2-IO15)*%
X89400000Y-98853800D03*
%TO.P,R13,2*%
%TO.N,Net-(D2-A)*%
X89400000Y-97833800D03*
%TD*%
D21*
%TO.P,R23,1*%
%TO.N,Net-(JP2-B)*%
X94260000Y-112493800D03*
%TO.P,R23,2*%
%TO.N,VBUS*%
X93240000Y-112493800D03*
%TD*%
D23*
%TO.P,D2,1,K*%
%TO.N,GND*%
X89400000Y-95758800D03*
%TO.P,D2,2,A*%
%TO.N,Net-(D2-A)*%
X89400000Y-96728800D03*
%TD*%
D18*
%TO.P,R29,1*%
%TO.N,SDMMC1_SCK*%
X99180000Y-105443800D03*
%TO.P,R29,2*%
%TO.N,+3V3_MCU*%
X100200000Y-105443800D03*
%TD*%
D24*
%TO.P,BT1,1,+*%
%TO.N,RTC_BATT*%
X109750000Y-121943800D03*
X94010000Y-121943800D03*
D25*
%TO.P,BT1,2,-*%
%TO.N,GND*%
X101880000Y-121943800D03*
%TD*%
D26*
%TO.P,JP1,1,A*%
%TO.N,EN_1.5V*%
X92650000Y-126893800D03*
D27*
%TO.P,JP1,2,B*%
%TO.N,Net-(JP1-B)*%
X91350000Y-126893800D03*
%TD*%
D28*
%TO.P,C15,1*%
%TO.N,RTC_BATT*%
X83400000Y-96543800D03*
%TO.P,C15,2*%
%TO.N,GND*%
X83400000Y-95583800D03*
%TD*%
D26*
%TO.P,JP2,1,A*%
%TO.N,EN_2.8V*%
X97250000Y-113543800D03*
D27*
%TO.P,JP2,2,B*%
%TO.N,Net-(JP2-B)*%
X95950000Y-113543800D03*
%TD*%
D28*
%TO.P,C11,1*%
%TO.N,VBUS*%
X92100000Y-112693800D03*
%TO.P,C11,2*%
%TO.N,GND*%
X92100000Y-111733800D03*
%TD*%
D21*
%TO.P,R2,1*%
%TO.N,SDMMC1_D0*%
X98110000Y-105443800D03*
%TO.P,R2,2*%
%TO.N,+3V3_MCU*%
X97090000Y-105443800D03*
%TD*%
%TO.P,R28,1*%
%TO.N,Net-(U11-TMR)*%
X81920000Y-117243800D03*
%TO.P,R28,2*%
%TO.N,GND*%
X80900000Y-117243800D03*
%TD*%
D29*
%TO.P,J3,1,DAT2*%
%TO.N,SDMMC1_D2*%
X103725000Y-91453801D03*
%TO.P,J3,2,DAT3/CD*%
%TO.N,SDMMC1_D3*%
X102625000Y-91453801D03*
%TO.P,J3,3,CMD*%
%TO.N,SDMMC1_CMD*%
X101525000Y-91453801D03*
%TO.P,J3,4,VDD*%
%TO.N,+3V3_MCU*%
X100424999Y-91453801D03*
%TO.P,J3,5,CLK*%
%TO.N,SDMMC1_SCK*%
X99324999Y-91453801D03*
%TO.P,J3,6,VSS*%
%TO.N,GND*%
X98224999Y-91453801D03*
%TO.P,J3,7,DAT0*%
%TO.N,SDMMC1_D0*%
X97124998Y-91453801D03*
%TO.P,J3,8,DAT1*%
%TO.N,SDMMC1_D1*%
X96025000Y-91453801D03*
D30*
%TO.P,J3,9,SHIELD*%
%TO.N,unconnected-(J3-SHIELD-Pad9)*%
X105515000Y-103918800D03*
D31*
%TO.P,J3,10*%
%TO.N,N/C*%
X101250000Y-103993800D03*
D32*
%TO.P,J3,11*%
X107605000Y-91468800D03*
D33*
%TO.P,J3,12*%
X107825000Y-102718800D03*
%TO.P,J3,13*%
X94865000Y-102718800D03*
D34*
%TO.P,J3,14*%
X94945000Y-91953800D03*
%TD*%
D35*
%TO.P,C23,1*%
%TO.N,+3V3_MCU*%
X88300000Y-111833800D03*
%TO.P,C23,2*%
%TO.N,GND*%
X88300000Y-112793800D03*
%TD*%
D36*
%TO.P,JP5,1,A*%
%TO.N,Net-(J4-Pin_3)*%
X83150000Y-123243800D03*
D37*
%TO.P,JP5,2,C*%
%TO.N,TEMP*%
X81850000Y-123243800D03*
D38*
%TO.P,JP5,3,B*%
%TO.N,Net-(JP5-B)*%
X80550000Y-123243800D03*
%TD*%
D18*
%TO.P,R3,1*%
%TO.N,SDMMC1_D1*%
X95990000Y-106543800D03*
%TO.P,R3,2*%
%TO.N,+3V3_MCU*%
X97010000Y-106543800D03*
%TD*%
D39*
%TO.N,GND*%
X84500000Y-107243800D03*
X89550000Y-120443800D03*
X106250000Y-91093800D03*
X91250000Y-118393800D03*
X90850000Y-111943800D03*
X86050000Y-95743800D03*
X101650000Y-125793800D03*
X83540000Y-94103800D03*
X81800000Y-120693800D03*
X92550000Y-91093800D03*
X106650000Y-111343800D03*
X90300000Y-126143800D03*
X85387500Y-117606300D03*
X87344238Y-116318799D03*
X81800000Y-110843800D03*
X89400000Y-94693800D03*
X82887500Y-114656300D03*
X84487500Y-116706300D03*
X89750000Y-113593800D03*
X86275000Y-118468800D03*
X93047156Y-113311812D03*
X96300000Y-127543800D03*
X87100000Y-121943800D03*
X105300000Y-121193800D03*
X84950000Y-117156300D03*
X84487500Y-117606300D03*
X93000000Y-124043800D03*
X98500000Y-92993800D03*
X89800000Y-111943800D03*
X85387500Y-116706300D03*
X80100000Y-117243800D03*
X78600000Y-110093800D03*
X79900000Y-90893800D03*
X81600000Y-125993800D03*
X78600000Y-105343800D03*
X81800000Y-104443800D03*
X105350000Y-122443800D03*
X83800000Y-90743800D03*
X93479291Y-127716922D03*
X87050000Y-120693800D03*
X91100000Y-113643800D03*
X79300000Y-97293800D03*
X87675000Y-97018800D03*
X80700000Y-120293800D03*
X86450000Y-91443800D03*
X89550000Y-122043800D03*
%TO.N,+3V3_MCU*%
X88000000Y-98793800D03*
X104900000Y-102743800D03*
X92400000Y-106662853D03*
X110650000Y-95195272D03*
X111150000Y-91193800D03*
X84350000Y-92443800D03*
X77900000Y-92443800D03*
X106650000Y-94943800D03*
X99950000Y-104493800D03*
X100400000Y-93143800D03*
X86050000Y-101793800D03*
X97090000Y-104593800D03*
%TO.N,5V_USB*%
X82450000Y-115993800D03*
X87450000Y-117593800D03*
%TO.N,VBUS*%
X86750000Y-112643800D03*
X88950000Y-114618800D03*
%TO.N,Net-(D15-A)*%
X89550000Y-118343800D03*
%TO.N,Net-(D16-A)*%
X89650000Y-115393800D03*
%TO.N,SDMMC1_D0*%
X97860000Y-107293800D03*
%TO.N,SDMMC1_D1*%
X96000000Y-107393800D03*
%TO.N,SDMMC1_D2*%
X107264998Y-99893800D03*
%TO.N,SDMMC1_D3*%
X101700000Y-107093800D03*
%TO.N,SDMMC1_CMD*%
X100350000Y-107193800D03*
%TO.N,RTC_INT*%
X92950000Y-103843800D03*
X89350000Y-105393800D03*
%TO.N,RTC_BATT*%
X83350000Y-97593800D03*
%TO.N,Net-(U9-CC1)*%
X81796723Y-106262130D03*
%TO.N,Net-(U9-CC2)*%
X81700000Y-108943800D03*
%TO.N,Net-(U11-TMR)*%
X82500000Y-117243800D03*
%TO.N,DVP_Y6*%
X104700000Y-114593800D03*
X104700000Y-107343800D03*
%TO.N,CAM_HREF*%
X101350000Y-112243800D03*
X98850000Y-112743800D03*
X102800000Y-110793800D03*
X106500000Y-105093800D03*
%TO.N,DVP_PCLK*%
X104100000Y-113543800D03*
X93350000Y-96143800D03*
%TO.N,DVP_Y5*%
X105949265Y-115793065D03*
X105900000Y-107443800D03*
%TO.N,CAM_VSYNC*%
X93525000Y-110693800D03*
X92600000Y-97443800D03*
%TO.N,DVP_Y9*%
X102262500Y-112956300D03*
X99700735Y-112943065D03*
%TO.N,CAM_PWDN*%
X96950000Y-112243800D03*
X95320000Y-110093800D03*
%TO.N,SDMMC1_SCK*%
X99150000Y-107193800D03*
%TO.N,DVP_Y7*%
X103500000Y-114193800D03*
X93600000Y-105043800D03*
%TO.N,XMCLK*%
X100000000Y-113793800D03*
X102796850Y-113740650D03*
%TO.N,+2V8*%
X98950000Y-120093800D03*
X95650000Y-119043800D03*
X92034243Y-115768800D03*
%TO.N,+1V5*%
X98650000Y-125193800D03*
X94300000Y-125193800D03*
%TO.N,EN_1.5V*%
X110650000Y-96493800D03*
%TO.N,Net-(JP1-B)*%
X90262500Y-127110402D03*
%TO.N,EN_2.8V*%
X110150000Y-98143800D03*
%TO.N,USB_INT*%
X91950000Y-110643800D03*
X95300000Y-111393800D03*
X97850000Y-111343800D03*
X99700000Y-111044800D03*
%TO.N,BATT_MEASURE*%
X81650000Y-99293800D03*
X84800000Y-98143800D03*
%TO.N,Net-(U2-IO15)*%
X89400000Y-99743800D03*
%TO.N,Net-(J4-Pin_3)*%
X84100000Y-123243800D03*
%TO.N,TEMP*%
X83800000Y-119843800D03*
%TD*%
D40*
%TO.N,GND*%
X98200000Y-92693800D02*
X98200000Y-91478800D01*
D41*
X81560000Y-125953800D02*
X81600000Y-125993800D01*
D40*
X98200000Y-91478800D02*
X98224999Y-91453801D01*
D41*
X80900000Y-117243800D02*
X80100000Y-117243800D01*
D40*
X83400000Y-95583800D02*
X83400000Y-94243800D01*
X88300000Y-112793800D02*
X88300000Y-113343800D01*
D42*
X93050000Y-114606300D02*
X93050000Y-113314656D01*
D40*
X81800000Y-110393800D02*
X81800000Y-110843800D01*
X88550000Y-113593800D02*
X89750000Y-113593800D01*
X78600000Y-108843800D02*
X78600000Y-110093800D01*
X88300000Y-113343800D02*
X88550000Y-113593800D01*
X78600000Y-106593800D02*
X78600000Y-105343800D01*
D42*
X93050000Y-113314656D02*
X93047156Y-113311812D01*
D40*
X90880000Y-111913800D02*
X90850000Y-111943800D01*
D41*
X81560000Y-125293800D02*
X81560000Y-125953800D01*
D40*
X92100000Y-111913800D02*
X90880000Y-111913800D01*
X98500000Y-92993800D02*
X98200000Y-92693800D01*
X82200000Y-109993800D02*
X81800000Y-110393800D01*
X82990000Y-109993800D02*
X82200000Y-109993800D01*
X83400000Y-94243800D02*
X83540000Y-94103800D01*
X89400000Y-95758800D02*
X89400000Y-94693800D01*
%TO.N,+3V3_MCU*%
X88250000Y-108343800D02*
X89930947Y-106662853D01*
X110650000Y-95195272D02*
X111150000Y-94695272D01*
D41*
X109350000Y-97643800D02*
X109350000Y-98883800D01*
D40*
X87375000Y-100518800D02*
X88000000Y-99893800D01*
X99950000Y-104493800D02*
X100200000Y-104743800D01*
D43*
X87375000Y-100518800D02*
X86825000Y-99968800D01*
D40*
X97010000Y-106543800D02*
X97010000Y-105523800D01*
X110650000Y-95195272D02*
X109948528Y-94493800D01*
X88300000Y-110043800D02*
X88250000Y-109993800D01*
X109948528Y-94493800D02*
X107100000Y-94493800D01*
D43*
X86825000Y-99968800D02*
X86825000Y-97818800D01*
D40*
X100400000Y-93143800D02*
X100450000Y-93093800D01*
X97010000Y-105523800D02*
X97090000Y-105443800D01*
D41*
X106650000Y-94943800D02*
X109350000Y-97643800D01*
D40*
X97090000Y-104593800D02*
X97090000Y-105443800D01*
D43*
X87375000Y-100518800D02*
X88250000Y-101393800D01*
D40*
X88000000Y-99893800D02*
X88000000Y-98793800D01*
D43*
X86825000Y-97818800D02*
X84350000Y-95343800D01*
D40*
X100450000Y-91478802D02*
X100424999Y-91453801D01*
X86050000Y-101793800D02*
X86100000Y-101793800D01*
X104450000Y-103193800D02*
X104900000Y-102743800D01*
X104450000Y-105443800D02*
X104450000Y-103193800D01*
X88300000Y-111833800D02*
X88300000Y-110043800D01*
X100450000Y-93093800D02*
X100450000Y-91478802D01*
X89930947Y-106662853D02*
X92400000Y-106662853D01*
D43*
X77900000Y-92443800D02*
X84350000Y-92443800D01*
D40*
X107100000Y-94493800D02*
X106650000Y-94943800D01*
X88250000Y-109993800D02*
X88250000Y-108343800D01*
X100200000Y-105443800D02*
X101290000Y-105443800D01*
X111150000Y-94695272D02*
X111150000Y-91193800D01*
D43*
X88250000Y-101393800D02*
X88250000Y-103693800D01*
X84350000Y-95343800D02*
X84350000Y-92443800D01*
D40*
X100200000Y-104743800D02*
X100200000Y-105443800D01*
X86100000Y-101793800D02*
X87375000Y-100518800D01*
D41*
%TO.N,5V_USB*%
X85850000Y-115993800D02*
X82450000Y-115993800D01*
X87450000Y-117593800D02*
X85850000Y-115993800D01*
D42*
%TO.N,VBUS*%
X88950000Y-114618800D02*
X88950000Y-115468800D01*
D40*
X93240000Y-112493800D02*
X92900000Y-112493800D01*
D42*
X92100000Y-114606300D02*
X88962500Y-114606300D01*
D44*
X85950000Y-109993800D02*
X85950000Y-111843800D01*
D40*
X92900000Y-112493800D02*
X92700000Y-112693800D01*
X92700000Y-112693800D02*
X92100000Y-112693800D01*
D42*
X92100000Y-114606300D02*
X92100000Y-112693800D01*
X88540000Y-116243800D02*
X88540000Y-117418800D01*
X88950000Y-115468800D02*
X88540000Y-115878800D01*
X88962500Y-114606300D02*
X88950000Y-114618800D01*
X88540000Y-115878800D02*
X88540000Y-116243800D01*
D40*
X83950000Y-109993800D02*
X85950000Y-109993800D01*
D44*
X85950000Y-111843800D02*
X86750000Y-112643800D01*
D40*
%TO.N,Net-(D15-A)*%
X89550000Y-118343800D02*
X89560000Y-118333800D01*
X89560000Y-118333800D02*
X89560000Y-117418800D01*
%TO.N,Net-(D16-A)*%
X89560000Y-116243800D02*
X89560000Y-115483800D01*
X89560000Y-115483800D02*
X89650000Y-115393800D01*
%TO.N,SDMMC1_D0*%
X97860000Y-107293800D02*
X98150000Y-107003800D01*
X100650000Y-101809600D02*
X100650000Y-96093800D01*
X97124998Y-92568798D02*
X97124998Y-91453801D01*
X100650000Y-96093800D02*
X97124998Y-92568798D01*
X98150000Y-104309600D02*
X100650000Y-101809600D01*
X98150000Y-107003800D02*
X98150000Y-104309600D01*
%TO.N,SDMMC1_D1*%
X96000000Y-107393800D02*
X96025000Y-107368800D01*
X96025000Y-107368800D02*
X96025000Y-91453801D01*
%TO.N,SDMMC1_D2*%
X103725000Y-97268800D02*
X103725000Y-91453801D01*
X106350000Y-99893800D02*
X103725000Y-97268800D01*
X107264998Y-99893800D02*
X109040000Y-99893800D01*
X107264998Y-99893800D02*
X106350000Y-99893800D01*
%TO.N,SDMMC1_D3*%
X102400000Y-107093800D02*
X103430000Y-106063800D01*
X102625000Y-91453801D02*
X102625000Y-100668800D01*
X102625000Y-100668800D02*
X103430000Y-101473800D01*
X103430000Y-101473800D02*
X103430000Y-105443800D01*
X101700000Y-107093800D02*
X102400000Y-107093800D01*
X103430000Y-106063800D02*
X103430000Y-105443800D01*
%TO.N,SDMMC1_CMD*%
X100350000Y-107193800D02*
X100560000Y-107193800D01*
X102310000Y-101353800D02*
X101525000Y-100568800D01*
X101525000Y-100568800D02*
X101525000Y-91453801D01*
X102310000Y-105443800D02*
X102310000Y-101353800D01*
X100560000Y-107193800D02*
X102310000Y-105443800D01*
%TO.N,RTC_INT*%
X89350000Y-105393800D02*
X91400000Y-105393800D01*
X91400000Y-105393800D02*
X92950000Y-103843800D01*
%TO.N,RTC_BATT*%
X80900660Y-126594800D02*
X86249000Y-126594800D01*
X81049000Y-104294800D02*
X79600000Y-105743800D01*
X83400000Y-96543800D02*
X83400000Y-97543800D01*
X86249000Y-126594800D02*
X90900000Y-121943800D01*
X79850000Y-116643857D02*
X79499000Y-116994857D01*
X79499000Y-116994857D02*
X79499000Y-125193140D01*
X79499000Y-125193140D02*
X80900660Y-126594800D01*
X81049000Y-99044857D02*
X81049000Y-104294800D01*
X79600000Y-111126700D02*
X79850000Y-111376700D01*
X83400000Y-97543800D02*
X83350000Y-97593800D01*
X83350000Y-97593800D02*
X82500057Y-97593800D01*
X82500057Y-97593800D02*
X81049000Y-99044857D01*
X90900000Y-121943800D02*
X94560000Y-121943800D01*
X79600000Y-105743800D02*
X79600000Y-111126700D01*
X79850000Y-111376700D02*
X79850000Y-116643857D01*
D41*
%TO.N,Net-(U9-CC1)*%
X81465053Y-106593800D02*
X81796723Y-106262130D01*
X80600000Y-106593800D02*
X81465053Y-106593800D01*
%TO.N,Net-(U9-CC2)*%
X81600000Y-108843800D02*
X81700000Y-108943800D01*
X80600000Y-108843800D02*
X81600000Y-108843800D01*
%TO.N,Net-(U11-TMR)*%
X81920000Y-117243800D02*
X82500000Y-117243800D01*
D40*
%TO.N,DVP_Y6*%
X104700000Y-107343800D02*
X104700000Y-114593800D01*
%TO.N,CAM_HREF*%
X102800000Y-108043800D02*
X104300000Y-106543800D01*
X99350000Y-112243800D02*
X98850000Y-112743800D01*
X105050000Y-106543800D02*
X106500000Y-105093800D01*
X101350000Y-112243800D02*
X99350000Y-112243800D01*
X102800000Y-110793800D02*
X102800000Y-108043800D01*
X104300000Y-106543800D02*
X105050000Y-106543800D01*
%TO.N,DVP_PCLK*%
X101150000Y-110043800D02*
X104100000Y-112993800D01*
X104100000Y-112993800D02*
X104100000Y-113543800D01*
X93350000Y-96143800D02*
X94200000Y-96993800D01*
X94200000Y-107426700D02*
X96817100Y-110043800D01*
X94200000Y-96993800D02*
X94200000Y-107426700D01*
X96817100Y-110043800D02*
X101150000Y-110043800D01*
%TO.N,DVP_Y5*%
X105949265Y-115793065D02*
X105900000Y-115743800D01*
X105900000Y-115743800D02*
X105900000Y-107443800D01*
%TO.N,CAM_VSYNC*%
X93000000Y-104792800D02*
X93750000Y-104042800D01*
X93525000Y-110693800D02*
X93300000Y-110693800D01*
X93750000Y-98593800D02*
X92600000Y-97443800D01*
X93750000Y-104042800D02*
X93750000Y-98593800D01*
X93300000Y-110693800D02*
X93000000Y-110393800D01*
X93000000Y-110393800D02*
X93000000Y-104792800D01*
%TO.N,DVP_Y9*%
X99713970Y-112956300D02*
X102262500Y-112956300D01*
X99700735Y-112943065D02*
X99713970Y-112956300D01*
%TO.N,CAM_PWDN*%
X96950000Y-112243800D02*
X96950000Y-111893800D01*
X95320000Y-110263800D02*
X95320000Y-110093800D01*
X96950000Y-111893800D02*
X95320000Y-110263800D01*
%TO.N,SDMMC1_SCK*%
X101100000Y-101926700D02*
X99150000Y-103876700D01*
X99324999Y-93268799D02*
X101100000Y-95043800D01*
X99150000Y-103876700D02*
X99150000Y-107193800D01*
X101100000Y-95043800D02*
X101100000Y-101926700D01*
X99324999Y-91453801D02*
X99324999Y-93268799D01*
%TO.N,DVP_Y7*%
X93600000Y-105043800D02*
X93600000Y-107393800D01*
X103499000Y-113294857D02*
X103499000Y-113792743D01*
X103499000Y-113792743D02*
X103500000Y-113793743D01*
X96651000Y-110444800D02*
X100851000Y-110444800D01*
X103500000Y-113793743D02*
X103500000Y-114193800D01*
X100851000Y-110444800D02*
X103500000Y-113093800D01*
X103500000Y-113093800D02*
X103500000Y-113293857D01*
X103500000Y-113293857D02*
X103499000Y-113294857D01*
X93600000Y-107393800D02*
X96651000Y-110444800D01*
%TO.N,XMCLK*%
X100000000Y-113793800D02*
X102621850Y-113793800D01*
X102621850Y-113793800D02*
X102675000Y-113740650D01*
X102675000Y-113740650D02*
X102796850Y-113740650D01*
%TO.N,+2V8*%
X92044460Y-115768800D02*
X92100000Y-115824340D01*
X92687500Y-116881300D02*
X92100000Y-116881300D01*
X97900000Y-119043800D02*
X95650000Y-119043800D01*
X98950000Y-120093800D02*
X97900000Y-119043800D01*
X92034243Y-115768800D02*
X92044460Y-115768800D01*
X92100000Y-115824340D02*
X92100000Y-116881300D01*
X92100000Y-116881300D02*
X92637500Y-116881300D01*
X94800000Y-119043800D02*
X95650000Y-119043800D01*
X92637500Y-116881300D02*
X94800000Y-119043800D01*
D41*
%TO.N,+1V5*%
X98650000Y-125193800D02*
X94300000Y-125193800D01*
D40*
%TO.N,EN_1.5V*%
X106600000Y-123243800D02*
X102950000Y-126893800D01*
X110750000Y-96593800D02*
X110750000Y-113493800D01*
X106600000Y-117643800D02*
X106600000Y-123243800D01*
X110650000Y-96493800D02*
X110750000Y-96593800D01*
X102950000Y-126893800D02*
X92650000Y-126893800D01*
X110750000Y-113493800D02*
X106600000Y-117643800D01*
%TO.N,Net-(JP1-B)*%
X90262500Y-127110402D02*
X91333398Y-127110402D01*
X91333398Y-127110402D02*
X91350000Y-127093800D01*
%TO.N,EN_2.8V*%
X110150000Y-98143800D02*
X110150000Y-113343743D01*
X110150000Y-113343743D02*
X107049943Y-116443800D01*
X107049943Y-116443800D02*
X100150000Y-116443800D01*
X100150000Y-116443800D02*
X97250000Y-113543800D01*
%TO.N,Net-(JP2-B)*%
X94000000Y-113493800D02*
X94260000Y-113233800D01*
X94260000Y-113233800D02*
X94260000Y-112493800D01*
X94000000Y-114606300D02*
X94887500Y-114606300D01*
X94887500Y-114606300D02*
X95950000Y-113543800D01*
X94000000Y-114606300D02*
X94000000Y-113493800D01*
%TO.N,USB_INT*%
X92700000Y-111393800D02*
X91950000Y-110643800D01*
X99350000Y-111343800D02*
X97850000Y-111343800D01*
X99649000Y-111044800D02*
X99350000Y-111343800D01*
X99700000Y-111044800D02*
X99649000Y-111044800D01*
X95300000Y-111393800D02*
X92700000Y-111393800D01*
%TO.N,BATT_MEASURE*%
X83650000Y-99293800D02*
X84800000Y-98143800D01*
X81650000Y-99293800D02*
X83650000Y-99293800D01*
%TO.N,Net-(D2-A)*%
X89400000Y-96728800D02*
X89400000Y-97833800D01*
%TO.N,Net-(U2-IO15)*%
X89400000Y-99743800D02*
X89400000Y-98853800D01*
D41*
%TO.N,Net-(J4-Pin_3)*%
X83150000Y-123243800D02*
X84100000Y-123243800D01*
%TO.N,Net-(JP5-B)*%
X80550000Y-123243800D02*
X80550000Y-125283800D01*
X80550000Y-125283800D02*
X80540000Y-125293800D01*
%TO.N,TEMP*%
X81850000Y-123243800D02*
X81850000Y-122243800D01*
X83800000Y-120293800D02*
X83800000Y-119843800D01*
X81850000Y-122243800D02*
X83800000Y-120293800D01*
%TD*%
%TA.AperFunction,Conductor*%
%TO.N,GND*%
G36*
X105794542Y-119963485D02*
G01*
X105840297Y-120016289D01*
X105851494Y-120066288D01*
X105893037Y-123472907D01*
X105874171Y-123540181D01*
X105856727Y-123562100D01*
X105406016Y-124012811D01*
X105344693Y-124046296D01*
X105319473Y-124049125D01*
X100575138Y-124092651D01*
X100507920Y-124073582D01*
X100461683Y-124021200D01*
X100450000Y-123968656D01*
X100450000Y-120067800D01*
X100469685Y-120000761D01*
X100522489Y-119955006D01*
X100574000Y-119943800D01*
X105727503Y-119943800D01*
X105794542Y-119963485D01*
G37*
%TD.AperFunction*%
%TD*%
%TA.AperFunction,Conductor*%
%TO.N,GND*%
G36*
X91393039Y-108713485D02*
G01*
X91438794Y-108766289D01*
X91450000Y-108817800D01*
X91450000Y-110576041D01*
X91449500Y-110577908D01*
X91449500Y-110709692D01*
X91450000Y-110711558D01*
X91450000Y-112382300D01*
X91430315Y-112449339D01*
X91377511Y-112495094D01*
X91326000Y-112506300D01*
X89441500Y-112506300D01*
X89374461Y-112486615D01*
X89328706Y-112433811D01*
X89317500Y-112382300D01*
X89317500Y-108817800D01*
X89337185Y-108750761D01*
X89389989Y-108705006D01*
X89441500Y-108693800D01*
X91326000Y-108693800D01*
X91393039Y-108713485D01*
G37*
%TD.AperFunction*%
%TD*%
%TA.AperFunction,Conductor*%
%TO.N,NONET_NET*%
G36*
X111955703Y-94235882D02*
G01*
X111993477Y-94294660D01*
X111995391Y-94302003D01*
X112012223Y-94375753D01*
X112012227Y-94375765D01*
X112123532Y-94693854D01*
X112269752Y-94997483D01*
X112276315Y-95007928D01*
X112449054Y-95282839D01*
X112659175Y-95546323D01*
X112897477Y-95784625D01*
X113160961Y-95994746D01*
X113446314Y-96174046D01*
X113749949Y-96320269D01*
X113937289Y-96385822D01*
X114068034Y-96431572D01*
X114068046Y-96431576D01*
X114396606Y-96506567D01*
X114731492Y-96544299D01*
X114731493Y-96544300D01*
X114731496Y-96544300D01*
X115068507Y-96544300D01*
X115068507Y-96544299D01*
X115403394Y-96506567D01*
X115731954Y-96431576D01*
X116050051Y-96320269D01*
X116353686Y-96174046D01*
X116639039Y-95994746D01*
X116902523Y-95784625D01*
X117140825Y-95546323D01*
X117350946Y-95282839D01*
X117520507Y-95012984D01*
X117572841Y-94966695D01*
X117641894Y-94956047D01*
X117705743Y-94984422D01*
X117744115Y-95042811D01*
X117749500Y-95078958D01*
X117749500Y-97174108D01*
X117749500Y-97305892D01*
X117783126Y-97431388D01*
X117783609Y-97433188D01*
X117783609Y-97433189D01*
X117826206Y-97506969D01*
X117842679Y-97574869D01*
X117833381Y-97616420D01*
X117797949Y-97701964D01*
X117797948Y-97701966D01*
X117759500Y-97895256D01*
X117759500Y-97895258D01*
X117759500Y-97895259D01*
X117759500Y-98092341D01*
X117759500Y-98092343D01*
X117759499Y-98092343D01*
X117797947Y-98285629D01*
X117797950Y-98285639D01*
X117873364Y-98467706D01*
X117873370Y-98467717D01*
X117928289Y-98549910D01*
X117949166Y-98616588D01*
X117930681Y-98683968D01*
X117928289Y-98687690D01*
X117873370Y-98769882D01*
X117873364Y-98769893D01*
X117797950Y-98951960D01*
X117797947Y-98951970D01*
X117759500Y-99145256D01*
X117759500Y-99145259D01*
X117759500Y-99342341D01*
X117759500Y-99342343D01*
X117759499Y-99342343D01*
X117797947Y-99535629D01*
X117797950Y-99535639D01*
X117873364Y-99717706D01*
X117873370Y-99717717D01*
X117928289Y-99799910D01*
X117949166Y-99866588D01*
X117930681Y-99933968D01*
X117928289Y-99937690D01*
X117873370Y-100019882D01*
X117873364Y-100019893D01*
X117797950Y-100201960D01*
X117797947Y-100201970D01*
X117759500Y-100395256D01*
X117759500Y-100395259D01*
X117759500Y-100592341D01*
X117759500Y-100592343D01*
X117759499Y-100592343D01*
X117797947Y-100785628D01*
X117797948Y-100785631D01*
X117797949Y-100785635D01*
X117808135Y-100810226D01*
X117832465Y-100868966D01*
X117839932Y-100938435D01*
X117825290Y-100978417D01*
X117783609Y-101050610D01*
X117783609Y-101050611D01*
X117783609Y-101050612D01*
X117783608Y-101050614D01*
X117749500Y-101177908D01*
X117749500Y-117029692D01*
X117753414Y-117044299D01*
X117783608Y-117156987D01*
X117789382Y-117166987D01*
X117825290Y-117229181D01*
X117841763Y-117297080D01*
X117832465Y-117338632D01*
X117797949Y-117421964D01*
X117797948Y-117421966D01*
X117759500Y-117615256D01*
X117759500Y-117615257D01*
X117759500Y-117615259D01*
X117759500Y-117812341D01*
X117759500Y-117812343D01*
X117759499Y-117812343D01*
X117797947Y-118005629D01*
X117797950Y-118005639D01*
X117873364Y-118187706D01*
X117873370Y-118187717D01*
X117928289Y-118269910D01*
X117949166Y-118336588D01*
X117930681Y-118403968D01*
X117928289Y-118407690D01*
X117873370Y-118489882D01*
X117873364Y-118489893D01*
X117797950Y-118671960D01*
X117797947Y-118671970D01*
X117759500Y-118865256D01*
X117759500Y-118865259D01*
X117759500Y-119062341D01*
X117759500Y-119062343D01*
X117759499Y-119062343D01*
X117797947Y-119255629D01*
X117797950Y-119255639D01*
X117873364Y-119437706D01*
X117873370Y-119437717D01*
X117928289Y-119519910D01*
X117949166Y-119586588D01*
X117930681Y-119653968D01*
X117928289Y-119657690D01*
X117873370Y-119739882D01*
X117873364Y-119739893D01*
X117797950Y-119921960D01*
X117797947Y-119921970D01*
X117759500Y-120115256D01*
X117759500Y-120115259D01*
X117759500Y-120312341D01*
X117759500Y-120312343D01*
X117759499Y-120312343D01*
X117797947Y-120505628D01*
X117797949Y-120505636D01*
X117833960Y-120592575D01*
X117841429Y-120662045D01*
X117826786Y-120702027D01*
X117783609Y-120776810D01*
X117783609Y-120776811D01*
X117783608Y-120776813D01*
X117783608Y-120776814D01*
X117767317Y-120837614D01*
X117749500Y-120904108D01*
X117749500Y-124154536D01*
X117729815Y-124221575D01*
X117677011Y-124267330D01*
X117607853Y-124277274D01*
X117544297Y-124248249D01*
X117506523Y-124189471D01*
X117504609Y-124182128D01*
X117430262Y-123856392D01*
X117430258Y-123856380D01*
X117348585Y-123622972D01*
X117311536Y-123517092D01*
X117155566Y-123193218D01*
X116964315Y-122888844D01*
X116740188Y-122607797D01*
X116486003Y-122353612D01*
X116204956Y-122129485D01*
X115923753Y-121952793D01*
X115877463Y-121900459D01*
X115866815Y-121831406D01*
X115895190Y-121767557D01*
X115953579Y-121729185D01*
X115989726Y-121723800D01*
X116240000Y-121723800D01*
X116740000Y-121723800D01*
X117037828Y-121723800D01*
X117037844Y-121723799D01*
X117097372Y-121717398D01*
X117097379Y-121717396D01*
X117232086Y-121667154D01*
X117232093Y-121667150D01*
X117347187Y-121580990D01*
X117347190Y-121580987D01*
X117433350Y-121465893D01*
X117433354Y-121465886D01*
X117483596Y-121331179D01*
X117483598Y-121331172D01*
X117489999Y-121271644D01*
X117490000Y-121271627D01*
X117490000Y-120973800D01*
X116740000Y-120973800D01*
X116740000Y-121723800D01*
X116240000Y-121723800D01*
X116240000Y-120973800D01*
X115490000Y-120973800D01*
X115490000Y-121271644D01*
X115496401Y-121331172D01*
X115496403Y-121331179D01*
X115546645Y-121465886D01*
X115546647Y-121465889D01*
X115613020Y-121554551D01*
X115637438Y-121620016D01*
X115622587Y-121688289D01*
X115573182Y-121737695D01*
X115504909Y-121752547D01*
X115472800Y-121745905D01*
X115237408Y-121663538D01*
X115237407Y-121663537D01*
X115237405Y-121663537D01*
X114886951Y-121583548D01*
X114886935Y-121583546D01*
X114529740Y-121543300D01*
X114529736Y-121543300D01*
X114170264Y-121543300D01*
X114170259Y-121543300D01*
X113813064Y-121583546D01*
X113813048Y-121583548D01*
X113462592Y-121663537D01*
X113462580Y-121663541D01*
X113123288Y-121782265D01*
X112799420Y-121938232D01*
X112495045Y-122129484D01*
X112213997Y-122353611D01*
X112052180Y-122515429D01*
X111990857Y-122548914D01*
X111921165Y-122543930D01*
X111865232Y-122502058D01*
X111840815Y-122436594D01*
X111840499Y-122427748D01*
X111840499Y-120305929D01*
X111840498Y-120305923D01*
X111834091Y-120246317D01*
X111831460Y-120239263D01*
X111822778Y-120215983D01*
X111807848Y-120175955D01*
X115490000Y-120175955D01*
X115490000Y-120473800D01*
X116240000Y-120473800D01*
X116740000Y-120473800D01*
X117490000Y-120473800D01*
X117490000Y-120175972D01*
X117489999Y-120175955D01*
X117483598Y-120116427D01*
X117483596Y-120116420D01*
X117433354Y-119981713D01*
X117433350Y-119981706D01*
X117347190Y-119866612D01*
X117347187Y-119866609D01*
X117232093Y-119780449D01*
X117232086Y-119780445D01*
X117097379Y-119730203D01*
X117097372Y-119730201D01*
X117037844Y-119723800D01*
X116740000Y-119723800D01*
X116740000Y-120473800D01*
X116240000Y-120473800D01*
X116240000Y-119723800D01*
X115942155Y-119723800D01*
X115882627Y-119730201D01*
X115882620Y-119730203D01*
X115747913Y-119780445D01*
X115747906Y-119780449D01*
X115632812Y-119866609D01*
X115632809Y-119866612D01*
X115546649Y-119981706D01*
X115546645Y-119981713D01*
X115496403Y-120116420D01*
X115496401Y-120116427D01*
X115490000Y-120175955D01*
X111807848Y-120175955D01*
X111783797Y-120111471D01*
X111783793Y-120111464D01*
X111697547Y-119996255D01*
X111697544Y-119996252D01*
X111582335Y-119910006D01*
X111582328Y-119910002D01*
X111447482Y-119859708D01*
X111447483Y-119859708D01*
X111387883Y-119853301D01*
X111387881Y-119853300D01*
X111387873Y-119853300D01*
X111387864Y-119853300D01*
X108112129Y-119853300D01*
X108112123Y-119853301D01*
X108052516Y-119859708D01*
X107917671Y-119910002D01*
X107917664Y-119910006D01*
X107802455Y-119996252D01*
X107802452Y-119996255D01*
X107716206Y-120111464D01*
X107716202Y-120111471D01*
X107665908Y-120246317D01*
X107662304Y-120279843D01*
X107659501Y-120305923D01*
X107659500Y-120305935D01*
X107659500Y-123581670D01*
X107659501Y-123581676D01*
X107665908Y-123641283D01*
X107716202Y-123776128D01*
X107716206Y-123776135D01*
X107802452Y-123891344D01*
X107802455Y-123891347D01*
X107917664Y-123977593D01*
X107917671Y-123977597D01*
X108052517Y-124027891D01*
X108052516Y-124027891D01*
X108059444Y-124028635D01*
X108112127Y-124034300D01*
X111073641Y-124034299D01*
X111140680Y-124053984D01*
X111186435Y-124106788D01*
X111196379Y-124175946D01*
X111194536Y-124185873D01*
X111189748Y-124206852D01*
X111189747Y-124206858D01*
X111189746Y-124206864D01*
X111149500Y-124564059D01*
X111149500Y-124923540D01*
X111189746Y-125280735D01*
X111189748Y-125280751D01*
X111269737Y-125631207D01*
X111269741Y-125631219D01*
X111388465Y-125970511D01*
X111544432Y-126294379D01*
X111544434Y-126294382D01*
X111735685Y-126598756D01*
X111902891Y-126808426D01*
X111957506Y-126876912D01*
X111959812Y-126879803D01*
X112213997Y-127133988D01*
X112495044Y-127358115D01*
X112799418Y-127549366D01*
X113123292Y-127705336D01*
X113328945Y-127777297D01*
X113462580Y-127824058D01*
X113462592Y-127824062D01*
X113481637Y-127828409D01*
X113542616Y-127862517D01*
X113575474Y-127924179D01*
X113569779Y-127993816D01*
X113527339Y-128049320D01*
X113461630Y-128073068D01*
X113454045Y-128073300D01*
X97132708Y-128073300D01*
X97065669Y-128053615D01*
X97019914Y-128000811D01*
X97009970Y-127931653D01*
X97018147Y-127901848D01*
X97069735Y-127777301D01*
X97069737Y-127777297D01*
X97100500Y-127622642D01*
X97100500Y-127618300D01*
X97120185Y-127551261D01*
X97172989Y-127505506D01*
X97224500Y-127494300D01*
X102863331Y-127494300D01*
X102863347Y-127494301D01*
X102870943Y-127494301D01*
X103029054Y-127494301D01*
X103029057Y-127494301D01*
X103181785Y-127453377D01*
X103242143Y-127418529D01*
X103318716Y-127374320D01*
X103430520Y-127262516D01*
X103430520Y-127262514D01*
X103440724Y-127252311D01*
X103440727Y-127252306D01*
X107080520Y-123612516D01*
X107159577Y-123475584D01*
X107200501Y-123322857D01*
X107200501Y-123164742D01*
X107200501Y-123157147D01*
X107200500Y-123157129D01*
X107200500Y-117943896D01*
X107220185Y-117876857D01*
X107236814Y-117856220D01*
X111108506Y-113984527D01*
X111108511Y-113984524D01*
X111118714Y-113974320D01*
X111118716Y-113974320D01*
X111230520Y-113862516D01*
X111299196Y-113743565D01*
X111309577Y-113725585D01*
X111350500Y-113572858D01*
X111350500Y-113414743D01*
X111350500Y-96919116D01*
X111359939Y-96871664D01*
X111395920Y-96784797D01*
X111419737Y-96727297D01*
X111450500Y-96572642D01*
X111450500Y-96414958D01*
X111450500Y-96414955D01*
X111450499Y-96414953D01*
X111444704Y-96385822D01*
X111419737Y-96260303D01*
X111415081Y-96249063D01*
X111359397Y-96114627D01*
X111359390Y-96114614D01*
X111271789Y-95983511D01*
X111271786Y-95983507D01*
X111220496Y-95932217D01*
X111187011Y-95870894D01*
X111191995Y-95801202D01*
X111220496Y-95756855D01*
X111271786Y-95705564D01*
X111271789Y-95705561D01*
X111359394Y-95574451D01*
X111419737Y-95428769D01*
X111440780Y-95322979D01*
X111450638Y-95273423D01*
X111483023Y-95211512D01*
X111484510Y-95209996D01*
X111630520Y-95063988D01*
X111709577Y-94927056D01*
X111750501Y-94774329D01*
X111750501Y-94616214D01*
X111750501Y-94608619D01*
X111750500Y-94608601D01*
X111750500Y-94329595D01*
X111770185Y-94262556D01*
X111822989Y-94216801D01*
X111892147Y-94206857D01*
X111955703Y-94235882D01*
G37*
%TD.AperFunction*%
%TA.AperFunction,Conductor*%
G36*
X83630039Y-116663985D02*
G01*
X83675794Y-116716789D01*
X83687000Y-116768300D01*
X83687000Y-116785146D01*
X83717761Y-116939789D01*
X83717764Y-116939801D01*
X83778104Y-117085477D01*
X83778105Y-117085479D01*
X83779399Y-117087415D01*
X83779764Y-117088582D01*
X83780976Y-117090849D01*
X83780545Y-117091078D01*
X83800273Y-117154094D01*
X83781785Y-117221473D01*
X83779399Y-117225185D01*
X83778105Y-117227120D01*
X83778104Y-117227122D01*
X83717764Y-117372798D01*
X83717761Y-117372810D01*
X83687000Y-117527453D01*
X83687000Y-117685146D01*
X83717761Y-117839789D01*
X83717764Y-117839801D01*
X83778102Y-117985472D01*
X83778109Y-117985485D01*
X83865710Y-118116588D01*
X83865713Y-118116592D01*
X83977207Y-118228086D01*
X83977211Y-118228089D01*
X84108314Y-118315690D01*
X84108327Y-118315697D01*
X84224571Y-118363846D01*
X84254003Y-118376037D01*
X84394421Y-118403968D01*
X84408653Y-118406799D01*
X84408656Y-118406800D01*
X84408658Y-118406800D01*
X84566344Y-118406800D01*
X84566345Y-118406799D01*
X84720997Y-118376037D01*
X84866679Y-118315694D01*
X84868610Y-118314403D01*
X84869776Y-118314037D01*
X84872046Y-118312825D01*
X84872276Y-118313255D01*
X84935286Y-118293526D01*
X85002666Y-118312010D01*
X85006350Y-118314377D01*
X85008321Y-118315694D01*
X85008324Y-118315695D01*
X85008327Y-118315697D01*
X85124571Y-118363846D01*
X85154003Y-118376037D01*
X85294421Y-118403968D01*
X85308653Y-118406799D01*
X85308656Y-118406800D01*
X85350500Y-118406800D01*
X85417539Y-118426485D01*
X85463294Y-118479289D01*
X85474500Y-118530800D01*
X85474500Y-118547646D01*
X85505261Y-118702289D01*
X85505264Y-118702301D01*
X85565602Y-118847972D01*
X85565609Y-118847985D01*
X85653210Y-118979088D01*
X85653213Y-118979092D01*
X85764707Y-119090586D01*
X85764711Y-119090589D01*
X85895814Y-119178190D01*
X85895827Y-119178197D01*
X86001603Y-119222010D01*
X86041503Y-119238537D01*
X86177703Y-119265629D01*
X86196153Y-119269299D01*
X86196156Y-119269300D01*
X86196158Y-119269300D01*
X86353844Y-119269300D01*
X86353845Y-119269299D01*
X86508497Y-119238537D01*
X86654179Y-119178194D01*
X86785289Y-119090589D01*
X86896789Y-118979089D01*
X86984394Y-118847979D01*
X87044737Y-118702297D01*
X87075500Y-118547642D01*
X87075500Y-118486584D01*
X87095185Y-118419545D01*
X87147989Y-118373790D01*
X87217147Y-118363846D01*
X87223692Y-118364967D01*
X87371155Y-118394300D01*
X87371158Y-118394300D01*
X87528844Y-118394300D01*
X87528845Y-118394299D01*
X87683497Y-118363537D01*
X87800785Y-118314955D01*
X87829172Y-118303197D01*
X87829172Y-118303196D01*
X87829179Y-118303194D01*
X87960289Y-118215589D01*
X87978032Y-118197845D01*
X88039353Y-118164359D01*
X88109045Y-118169342D01*
X88128836Y-118178794D01*
X88150603Y-118191667D01*
X88150605Y-118191667D01*
X88150607Y-118191669D01*
X88150609Y-118191669D01*
X88150610Y-118191670D01*
X88304791Y-118236464D01*
X88304794Y-118236464D01*
X88304796Y-118236465D01*
X88340819Y-118239300D01*
X88625500Y-118239299D01*
X88692539Y-118258983D01*
X88738294Y-118311787D01*
X88749500Y-118363299D01*
X88749500Y-118422646D01*
X88780261Y-118577289D01*
X88780264Y-118577301D01*
X88840602Y-118722972D01*
X88840609Y-118722985D01*
X88928210Y-118854088D01*
X88928213Y-118854092D01*
X89039707Y-118965586D01*
X89039711Y-118965589D01*
X89170814Y-119053190D01*
X89170827Y-119053197D01*
X89316498Y-119113535D01*
X89316503Y-119113537D01*
X89471153Y-119144299D01*
X89471156Y-119144300D01*
X89471158Y-119144300D01*
X89628844Y-119144300D01*
X89628845Y-119144299D01*
X89783497Y-119113537D01*
X89929179Y-119053194D01*
X90060289Y-118965589D01*
X90171789Y-118854089D01*
X90259394Y-118722979D01*
X90275084Y-118685100D01*
X90318922Y-118630698D01*
X90385215Y-118608632D01*
X90452915Y-118625910D01*
X90500527Y-118677046D01*
X90504205Y-118685100D01*
X90540604Y-118772975D01*
X90540609Y-118772985D01*
X90628210Y-118904088D01*
X90628213Y-118904092D01*
X90739707Y-119015586D01*
X90739711Y-119015589D01*
X90870814Y-119103190D01*
X90870827Y-119103197D01*
X90970060Y-119144300D01*
X91016503Y-119163537D01*
X91171153Y-119194299D01*
X91171156Y-119194300D01*
X91171158Y-119194300D01*
X91328844Y-119194300D01*
X91328845Y-119194299D01*
X91483497Y-119163537D01*
X91629179Y-119103194D01*
X91760289Y-119015589D01*
X91871789Y-118904089D01*
X91959394Y-118772979D01*
X92019737Y-118627297D01*
X92050500Y-118472642D01*
X92050500Y-118314958D01*
X92050500Y-118314955D01*
X92026140Y-118192492D01*
X92032367Y-118122900D01*
X92075230Y-118067723D01*
X92141120Y-118044478D01*
X92147757Y-118044300D01*
X92315686Y-118044300D01*
X92315694Y-118044300D01*
X92352569Y-118041398D01*
X92352571Y-118041397D01*
X92352573Y-118041397D01*
X92426654Y-118019874D01*
X92510398Y-117995544D01*
X92651865Y-117911881D01*
X92651868Y-117911877D01*
X92658026Y-117907101D01*
X92659838Y-117909437D01*
X92708951Y-117882596D01*
X92778645Y-117887554D01*
X92823036Y-117916071D01*
X94315139Y-119408174D01*
X94315149Y-119408185D01*
X94319479Y-119412515D01*
X94319480Y-119412516D01*
X94431284Y-119524320D01*
X94515558Y-119572975D01*
X94568215Y-119603377D01*
X94601520Y-119612301D01*
X94611243Y-119616811D01*
X94629775Y-119633062D01*
X94650821Y-119645890D01*
X94655582Y-119655692D01*
X94663776Y-119662877D01*
X94670580Y-119686567D01*
X94681350Y-119708737D01*
X94680056Y-119719556D01*
X94683065Y-119730031D01*
X94675981Y-119753640D01*
X94673055Y-119778113D01*
X94666116Y-119786515D01*
X94662985Y-119796954D01*
X94644262Y-119812984D01*
X94628570Y-119831990D01*
X94618190Y-119835308D01*
X94609912Y-119842396D01*
X94585495Y-119845759D01*
X94562018Y-119853265D01*
X94559067Y-119853300D01*
X92372129Y-119853300D01*
X92372123Y-119853301D01*
X92312516Y-119859708D01*
X92177671Y-119910002D01*
X92177664Y-119910006D01*
X92062455Y-119996252D01*
X92062452Y-119996255D01*
X91976206Y-120111464D01*
X91976202Y-120111471D01*
X91925908Y-120246317D01*
X91922304Y-120279843D01*
X91919501Y-120305923D01*
X91919500Y-120305935D01*
X91919500Y-121219300D01*
X91899815Y-121286339D01*
X91847011Y-121332094D01*
X91795500Y-121343300D01*
X90979057Y-121343300D01*
X90820942Y-121343300D01*
X90668215Y-121384223D01*
X90642300Y-121399185D01*
X90635355Y-121403195D01*
X90635354Y-121403194D01*
X90531287Y-121463277D01*
X90531282Y-121463281D01*
X90419478Y-121575086D01*
X90419476Y-121575088D01*
X90394489Y-121600074D01*
X90333166Y-121633558D01*
X90263474Y-121628572D01*
X90207541Y-121586699D01*
X90203723Y-121581304D01*
X90171789Y-121533511D01*
X90171787Y-121533508D01*
X90060292Y-121422013D01*
X90060288Y-121422010D01*
X89947881Y-121346902D01*
X89903076Y-121293290D01*
X89894369Y-121223965D01*
X89924523Y-121160937D01*
X89947881Y-121140698D01*
X90042669Y-121077362D01*
X90060289Y-121065589D01*
X90171789Y-120954089D01*
X90259394Y-120822979D01*
X90319737Y-120677297D01*
X90350500Y-120522642D01*
X90350500Y-120364958D01*
X90350500Y-120364955D01*
X90350499Y-120364953D01*
X90347273Y-120348735D01*
X90319737Y-120210303D01*
X90319735Y-120210298D01*
X90259397Y-120064627D01*
X90259390Y-120064614D01*
X90171789Y-119933511D01*
X90171786Y-119933507D01*
X90060292Y-119822013D01*
X90060288Y-119822010D01*
X89929185Y-119734409D01*
X89929172Y-119734402D01*
X89783501Y-119674064D01*
X89783489Y-119674061D01*
X89628845Y-119643300D01*
X89628842Y-119643300D01*
X89471158Y-119643300D01*
X89471155Y-119643300D01*
X89316510Y-119674061D01*
X89316498Y-119674064D01*
X89170827Y-119734402D01*
X89170814Y-119734409D01*
X89039711Y-119822010D01*
X89039707Y-119822013D01*
X88928213Y-119933507D01*
X88928210Y-119933511D01*
X88840609Y-120064614D01*
X88840602Y-120064627D01*
X88780264Y-120210298D01*
X88780261Y-120210310D01*
X88749500Y-120364953D01*
X88749500Y-120522646D01*
X88780261Y-120677289D01*
X88780264Y-120677301D01*
X88840602Y-120822972D01*
X88840609Y-120822985D01*
X88928210Y-120954088D01*
X88928213Y-120954092D01*
X89039707Y-121065586D01*
X89039711Y-121065589D01*
X89152118Y-121140698D01*
X89196923Y-121194310D01*
X89205630Y-121263635D01*
X89175475Y-121326663D01*
X89152118Y-121346902D01*
X89039711Y-121422010D01*
X89039707Y-121422013D01*
X88928213Y-121533507D01*
X88928210Y-121533511D01*
X88840609Y-121664614D01*
X88840602Y-121664627D01*
X88780264Y-121810298D01*
X88780261Y-121810310D01*
X88749500Y-121964953D01*
X88749500Y-122122646D01*
X88780261Y-122277289D01*
X88780264Y-122277301D01*
X88840602Y-122422972D01*
X88840609Y-122422985D01*
X88928210Y-122554088D01*
X88928213Y-122554092D01*
X89039708Y-122665587D01*
X89039711Y-122665589D01*
X89087482Y-122697509D01*
X89132286Y-122751119D01*
X89140995Y-122820444D01*
X89110841Y-122883471D01*
X89106272Y-122888291D01*
X86036584Y-125957981D01*
X85975261Y-125991466D01*
X85948903Y-125994300D01*
X82518046Y-125994300D01*
X82451007Y-125974615D01*
X82405252Y-125921811D01*
X82396429Y-125894491D01*
X82380734Y-125815589D01*
X82369737Y-125760303D01*
X82330714Y-125666095D01*
X82323246Y-125596626D01*
X82326201Y-125584042D01*
X82327665Y-125579004D01*
X82330500Y-125542981D01*
X82330499Y-125044620D01*
X82327665Y-125008596D01*
X82282869Y-124854407D01*
X82201135Y-124716202D01*
X82201133Y-124716200D01*
X82201130Y-124716196D01*
X82190914Y-124705980D01*
X82181684Y-124689077D01*
X82168391Y-124675141D01*
X82165285Y-124659044D01*
X82157429Y-124644657D01*
X82158802Y-124625447D01*
X82155154Y-124606537D01*
X82161243Y-124591317D01*
X82162413Y-124574965D01*
X82173955Y-124559546D01*
X82181109Y-124541667D01*
X82194460Y-124532155D01*
X82204285Y-124519032D01*
X82222328Y-124512302D01*
X82238015Y-124501127D01*
X82264022Y-124496751D01*
X82269749Y-124494615D01*
X82272670Y-124494441D01*
X82275638Y-124494299D01*
X82397872Y-124494299D01*
X82457483Y-124487891D01*
X82464529Y-124485262D01*
X82481082Y-124484471D01*
X82488653Y-124486306D01*
X82504651Y-124485591D01*
X82600000Y-124499300D01*
X82600003Y-124499300D01*
X83215819Y-124499300D01*
X83215826Y-124499300D01*
X83346662Y-124482075D01*
X83473829Y-124448000D01*
X83595743Y-124397501D01*
X83709757Y-124331675D01*
X83814449Y-124251341D01*
X83907541Y-124158249D01*
X83957753Y-124092811D01*
X84014182Y-124051610D01*
X84056128Y-124044300D01*
X84178844Y-124044300D01*
X84178845Y-124044299D01*
X84333497Y-124013537D01*
X84479179Y-123953194D01*
X84610289Y-123865589D01*
X84721789Y-123754089D01*
X84809394Y-123622979D01*
X84813728Y-123612517D01*
X84869735Y-123477301D01*
X84869737Y-123477297D01*
X84900500Y-123322642D01*
X84900500Y-123164958D01*
X84900500Y-123164955D01*
X84900499Y-123164953D01*
X84869738Y-123010310D01*
X84869737Y-123010303D01*
X84869735Y-123010298D01*
X84809397Y-122864627D01*
X84809390Y-122864614D01*
X84721789Y-122733511D01*
X84721786Y-122733507D01*
X84610292Y-122622013D01*
X84610288Y-122622010D01*
X84479185Y-122534409D01*
X84479172Y-122534402D01*
X84333501Y-122474064D01*
X84333489Y-122474061D01*
X84178845Y-122443300D01*
X84178842Y-122443300D01*
X84056128Y-122443300D01*
X83989089Y-122423615D01*
X83957753Y-122394788D01*
X83926157Y-122353612D01*
X83907541Y-122329351D01*
X83814449Y-122236259D01*
X83814444Y-122236255D01*
X83709767Y-122155932D01*
X83709749Y-122155920D01*
X83595751Y-122090103D01*
X83595750Y-122090102D01*
X83473829Y-122039600D01*
X83346658Y-122005524D01*
X83296888Y-121998972D01*
X83232992Y-121970705D01*
X83194521Y-121912380D01*
X83193690Y-121842516D01*
X83225391Y-121788354D01*
X84305276Y-120708470D01*
X84367761Y-120614953D01*
X86249500Y-120614953D01*
X86249500Y-120772646D01*
X86280261Y-120927289D01*
X86280264Y-120927301D01*
X86340602Y-121072972D01*
X86340609Y-121072985D01*
X86428210Y-121204088D01*
X86428213Y-121204092D01*
X86480240Y-121256119D01*
X86513725Y-121317442D01*
X86508741Y-121387134D01*
X86481999Y-121428747D01*
X86482072Y-121428807D01*
X86481559Y-121429430D01*
X86480247Y-121431474D01*
X86478215Y-121433506D01*
X86478208Y-121433514D01*
X86390609Y-121564614D01*
X86390602Y-121564627D01*
X86330264Y-121710298D01*
X86330261Y-121710310D01*
X86299500Y-121864953D01*
X86299500Y-122022646D01*
X86330261Y-122177289D01*
X86330264Y-122177301D01*
X86390602Y-122322972D01*
X86390609Y-122322985D01*
X86478210Y-122454088D01*
X86478213Y-122454092D01*
X86589707Y-122565586D01*
X86589711Y-122565589D01*
X86720814Y-122653190D01*
X86720827Y-122653197D01*
X86866498Y-122713535D01*
X86866503Y-122713537D01*
X87021153Y-122744299D01*
X87021156Y-122744300D01*
X87021158Y-122744300D01*
X87178844Y-122744300D01*
X87178845Y-122744299D01*
X87333497Y-122713537D01*
X87479179Y-122653194D01*
X87610289Y-122565589D01*
X87721789Y-122454089D01*
X87809394Y-122322979D01*
X87869737Y-122177297D01*
X87900500Y-122022642D01*
X87900500Y-121864958D01*
X87900500Y-121864955D01*
X87900499Y-121864953D01*
X87893826Y-121831406D01*
X87869737Y-121710303D01*
X87850368Y-121663541D01*
X87809397Y-121564627D01*
X87809390Y-121564614D01*
X87721789Y-121433511D01*
X87721786Y-121433507D01*
X87669759Y-121381480D01*
X87636274Y-121320157D01*
X87641258Y-121250465D01*
X87668002Y-121208854D01*
X87667928Y-121208793D01*
X87668454Y-121208151D01*
X87669764Y-121206113D01*
X87671789Y-121204089D01*
X87759394Y-121072979D01*
X87819737Y-120927297D01*
X87850500Y-120772642D01*
X87850500Y-120614958D01*
X87850500Y-120614955D01*
X87850499Y-120614953D01*
X87828754Y-120505635D01*
X87819737Y-120460303D01*
X87807504Y-120430769D01*
X87759397Y-120314627D01*
X87759390Y-120314614D01*
X87671789Y-120183511D01*
X87671786Y-120183507D01*
X87560292Y-120072013D01*
X87560288Y-120072010D01*
X87429185Y-119984409D01*
X87429172Y-119984402D01*
X87283501Y-119924064D01*
X87283489Y-119924061D01*
X87128845Y-119893300D01*
X87128842Y-119893300D01*
X86971158Y-119893300D01*
X86971155Y-119893300D01*
X86816510Y-119924061D01*
X86816498Y-119924064D01*
X86670827Y-119984402D01*
X86670814Y-119984409D01*
X86539711Y-120072010D01*
X86539707Y-120072013D01*
X86428213Y-120183507D01*
X86428210Y-120183511D01*
X86340609Y-120314614D01*
X86340602Y-120314627D01*
X86280264Y-120460298D01*
X86280261Y-120460310D01*
X86249500Y-120614953D01*
X84367761Y-120614953D01*
X84376465Y-120601927D01*
X84425501Y-120483544D01*
X84442714Y-120397011D01*
X84450500Y-120357871D01*
X84450500Y-120348735D01*
X84470185Y-120281696D01*
X84471366Y-120279890D01*
X84509394Y-120222979D01*
X84569737Y-120077297D01*
X84600500Y-119922642D01*
X84600500Y-119764958D01*
X84600500Y-119764955D01*
X84600499Y-119764953D01*
X84593586Y-119730201D01*
X84569737Y-119610303D01*
X84559012Y-119584411D01*
X84509397Y-119464627D01*
X84509390Y-119464614D01*
X84421789Y-119333511D01*
X84421786Y-119333507D01*
X84310292Y-119222013D01*
X84310288Y-119222010D01*
X84179185Y-119134409D01*
X84179172Y-119134402D01*
X84033501Y-119074064D01*
X84033489Y-119074061D01*
X83878845Y-119043300D01*
X83878842Y-119043300D01*
X83721158Y-119043300D01*
X83721155Y-119043300D01*
X83566510Y-119074061D01*
X83566498Y-119074064D01*
X83420827Y-119134402D01*
X83420814Y-119134409D01*
X83289711Y-119222010D01*
X83289707Y-119222013D01*
X83178213Y-119333507D01*
X83178210Y-119333511D01*
X83090609Y-119464614D01*
X83090602Y-119464627D01*
X83030264Y-119610298D01*
X83030261Y-119610310D01*
X82999500Y-119764953D01*
X82999500Y-119764958D01*
X82999500Y-119922642D01*
X82999500Y-119922644D01*
X82999499Y-119922644D01*
X83028331Y-120067584D01*
X83022104Y-120137176D01*
X82994395Y-120179457D01*
X82743083Y-120430769D01*
X82681760Y-120464254D01*
X82612068Y-120459270D01*
X82556135Y-120417398D01*
X82540841Y-120390540D01*
X82509397Y-120314627D01*
X82509390Y-120314614D01*
X82421789Y-120183511D01*
X82421786Y-120183507D01*
X82310292Y-120072013D01*
X82310288Y-120072010D01*
X82179185Y-119984409D01*
X82179172Y-119984402D01*
X82033501Y-119924064D01*
X82033489Y-119924061D01*
X81878845Y-119893300D01*
X81878842Y-119893300D01*
X81721158Y-119893300D01*
X81721155Y-119893300D01*
X81566511Y-119924060D01*
X81566506Y-119924062D01*
X81566504Y-119924062D01*
X81566503Y-119924063D01*
X81566501Y-119924064D01*
X81542406Y-119934044D01*
X81472936Y-119941510D01*
X81410458Y-119910233D01*
X81391855Y-119888372D01*
X81321789Y-119783510D01*
X81210292Y-119672013D01*
X81210288Y-119672010D01*
X81079185Y-119584409D01*
X81079172Y-119584402D01*
X80933501Y-119524064D01*
X80933489Y-119524061D01*
X80778845Y-119493300D01*
X80778842Y-119493300D01*
X80621158Y-119493300D01*
X80621155Y-119493300D01*
X80466510Y-119524061D01*
X80466498Y-119524064D01*
X80320827Y-119584402D01*
X80320811Y-119584411D01*
X80292389Y-119603402D01*
X80225712Y-119624279D01*
X80158332Y-119605794D01*
X80111642Y-119553814D01*
X80099500Y-119500299D01*
X80099500Y-118161846D01*
X80107503Y-118134590D01*
X80112480Y-118106614D01*
X80117220Y-118101497D01*
X80119185Y-118094807D01*
X80140652Y-118076204D01*
X80159965Y-118055360D01*
X80168495Y-118052079D01*
X80171989Y-118049052D01*
X80192539Y-118041773D01*
X80195890Y-118040908D01*
X80333497Y-118013537D01*
X80385359Y-117992054D01*
X80393789Y-117989881D01*
X80420348Y-117990764D01*
X80446764Y-117987924D01*
X80457738Y-117992008D01*
X80463621Y-117992204D01*
X80469879Y-117996526D01*
X80487867Y-118003221D01*
X80510607Y-118016669D01*
X80521639Y-118019874D01*
X80664791Y-118061464D01*
X80664794Y-118061464D01*
X80664796Y-118061465D01*
X80700819Y-118064300D01*
X81099180Y-118064299D01*
X81135204Y-118061465D01*
X81289393Y-118016669D01*
X81346882Y-117982669D01*
X81414602Y-117965488D01*
X81473117Y-117982669D01*
X81530607Y-118016669D01*
X81530610Y-118016669D01*
X81530612Y-118016671D01*
X81684791Y-118061464D01*
X81684794Y-118061464D01*
X81684796Y-118061465D01*
X81720819Y-118064300D01*
X82119180Y-118064299D01*
X82155204Y-118061465D01*
X82269279Y-118028322D01*
X82328062Y-118025782D01*
X82370430Y-118034209D01*
X82421156Y-118044300D01*
X82421158Y-118044300D01*
X82578844Y-118044300D01*
X82578845Y-118044299D01*
X82733497Y-118013537D01*
X82879179Y-117953194D01*
X83010289Y-117865589D01*
X83121789Y-117754089D01*
X83209394Y-117622979D01*
X83269737Y-117477297D01*
X83300500Y-117322642D01*
X83300500Y-117164958D01*
X83300500Y-117164955D01*
X83300499Y-117164953D01*
X83293653Y-117130534D01*
X83269737Y-117010303D01*
X83256939Y-116979406D01*
X83209397Y-116864627D01*
X83209389Y-116864612D01*
X83191067Y-116837192D01*
X83170188Y-116770515D01*
X83188672Y-116703134D01*
X83240650Y-116656444D01*
X83294168Y-116644300D01*
X83563000Y-116644300D01*
X83630039Y-116663985D01*
G37*
%TD.AperFunction*%
%TA.AperFunction,Conductor*%
G36*
X95670762Y-114759948D02*
G01*
X95753338Y-114782075D01*
X95884174Y-114799300D01*
X95884181Y-114799300D01*
X96450000Y-114799300D01*
X96521940Y-114794155D01*
X96559259Y-114783196D01*
X96611841Y-114779436D01*
X96750000Y-114799300D01*
X96750003Y-114799300D01*
X97315819Y-114799300D01*
X97315826Y-114799300D01*
X97446662Y-114782075D01*
X97529235Y-114759949D01*
X97599083Y-114761612D01*
X97649008Y-114792043D01*
X99665139Y-116808174D01*
X99665149Y-116808185D01*
X99669479Y-116812515D01*
X99669480Y-116812516D01*
X99781284Y-116924320D01*
X99781286Y-116924321D01*
X99781290Y-116924324D01*
X99876698Y-116979407D01*
X99918216Y-117003377D01*
X100010831Y-117028193D01*
X100070942Y-117044300D01*
X100070943Y-117044300D01*
X106050902Y-117044300D01*
X106117941Y-117063985D01*
X106163696Y-117116789D01*
X106173640Y-117185947D01*
X106152999Y-117238672D01*
X106146581Y-117247982D01*
X106119480Y-117275084D01*
X106078512Y-117346044D01*
X106076041Y-117350323D01*
X106076036Y-117350331D01*
X106040423Y-117412014D01*
X106035553Y-117430191D01*
X105999499Y-117564743D01*
X105999499Y-117564745D01*
X105999499Y-117732846D01*
X105999500Y-117732859D01*
X105999500Y-119334303D01*
X105979815Y-119401342D01*
X105927011Y-119447097D01*
X105857854Y-119457041D01*
X105727503Y-119438300D01*
X100574000Y-119438300D01*
X100573991Y-119438300D01*
X100573990Y-119438301D01*
X100466549Y-119449852D01*
X100466537Y-119449854D01*
X100417758Y-119460466D01*
X100391399Y-119463300D01*
X99852129Y-119463300D01*
X99852123Y-119463301D01*
X99792516Y-119469708D01*
X99657671Y-119520002D01*
X99649890Y-119524252D01*
X99649181Y-119522953D01*
X99592771Y-119543985D01*
X99524500Y-119529125D01*
X99496260Y-119507981D01*
X99460292Y-119472013D01*
X99460288Y-119472010D01*
X99329185Y-119384409D01*
X99329172Y-119384402D01*
X99183501Y-119324064D01*
X99183491Y-119324061D01*
X99028149Y-119293161D01*
X98966238Y-119260776D01*
X98964660Y-119259225D01*
X98387590Y-118682155D01*
X98387588Y-118682152D01*
X98268717Y-118563281D01*
X98268716Y-118563280D01*
X98181904Y-118513160D01*
X98181904Y-118513159D01*
X98181900Y-118513158D01*
X98131785Y-118484223D01*
X97979057Y-118443299D01*
X97820943Y-118443299D01*
X97813347Y-118443299D01*
X97813331Y-118443300D01*
X96229766Y-118443300D01*
X96162727Y-118423615D01*
X96160875Y-118422402D01*
X96029185Y-118334409D01*
X96029172Y-118334402D01*
X95883501Y-118274064D01*
X95883489Y-118274061D01*
X95728845Y-118243300D01*
X95728842Y-118243300D01*
X95571158Y-118243300D01*
X95571155Y-118243300D01*
X95416510Y-118274061D01*
X95416498Y-118274064D01*
X95270827Y-118334402D01*
X95270816Y-118334408D01*
X95157025Y-118410441D01*
X95090348Y-118431318D01*
X95022968Y-118412833D01*
X95000454Y-118395019D01*
X94622272Y-118016837D01*
X94588787Y-117955514D01*
X94593771Y-117885822D01*
X94622272Y-117841475D01*
X94668076Y-117795670D01*
X94668081Y-117795665D01*
X94751744Y-117654198D01*
X94797598Y-117496369D01*
X94800500Y-117459494D01*
X94800500Y-116303106D01*
X94797598Y-116266231D01*
X94780299Y-116206689D01*
X94751745Y-116108406D01*
X94751744Y-116108403D01*
X94751744Y-116108402D01*
X94668081Y-115966935D01*
X94668079Y-115966933D01*
X94668076Y-115966929D01*
X94551870Y-115850723D01*
X94551867Y-115850721D01*
X94551865Y-115850719D01*
X94551549Y-115850532D01*
X94551353Y-115850322D01*
X94545702Y-115845939D01*
X94546409Y-115845027D01*
X94503866Y-115799464D01*
X94491362Y-115730723D01*
X94518006Y-115666133D01*
X94545921Y-115641944D01*
X94545702Y-115641661D01*
X94550911Y-115637620D01*
X94551550Y-115637067D01*
X94551865Y-115636881D01*
X94668081Y-115520665D01*
X94751744Y-115379198D01*
X94773825Y-115303197D01*
X94775856Y-115296206D01*
X94813462Y-115237320D01*
X94876934Y-115208114D01*
X94894932Y-115206801D01*
X94966554Y-115206801D01*
X94966557Y-115206801D01*
X95119285Y-115165877D01*
X95191686Y-115124076D01*
X95256216Y-115086820D01*
X95368020Y-114975016D01*
X95368020Y-114975014D01*
X95378224Y-114964811D01*
X95378228Y-114964806D01*
X95550993Y-114792040D01*
X95561526Y-114786289D01*
X95569170Y-114777032D01*
X95591624Y-114769854D01*
X95612314Y-114758557D01*
X95625950Y-114758881D01*
X95635723Y-114755758D01*
X95670762Y-114759948D01*
G37*
%TD.AperFunction*%
%TA.AperFunction,Conductor*%
G36*
X108737443Y-100513985D02*
G01*
X108758085Y-100530619D01*
X108772396Y-100544930D01*
X108772400Y-100544933D01*
X108772402Y-100544935D01*
X108910607Y-100626669D01*
X108946655Y-100637142D01*
X109064791Y-100671464D01*
X109064794Y-100671464D01*
X109064796Y-100671465D01*
X109100819Y-100674300D01*
X109425500Y-100674299D01*
X109492539Y-100693983D01*
X109538294Y-100746787D01*
X109549500Y-100798299D01*
X109549500Y-113043645D01*
X109529815Y-113110684D01*
X109513181Y-113131326D01*
X106943755Y-115700752D01*
X106882432Y-115734237D01*
X106812740Y-115729253D01*
X106756807Y-115687381D01*
X106734457Y-115637262D01*
X106719003Y-115559575D01*
X106719002Y-115559568D01*
X106714650Y-115549062D01*
X106658662Y-115413892D01*
X106658655Y-115413879D01*
X106571054Y-115282776D01*
X106571051Y-115282772D01*
X106536819Y-115248540D01*
X106503334Y-115187217D01*
X106500500Y-115160859D01*
X106500500Y-112268300D01*
X106520185Y-112201261D01*
X106572989Y-112155506D01*
X106624500Y-112144300D01*
X106728844Y-112144300D01*
X106728845Y-112144299D01*
X106883497Y-112113537D01*
X107029179Y-112053194D01*
X107160289Y-111965589D01*
X107271789Y-111854089D01*
X107359394Y-111722979D01*
X107419737Y-111577297D01*
X107450500Y-111422642D01*
X107450500Y-111264958D01*
X107450500Y-111264955D01*
X107450499Y-111264953D01*
X107434926Y-111186663D01*
X107419737Y-111110303D01*
X107406062Y-111077289D01*
X107359397Y-110964627D01*
X107359390Y-110964614D01*
X107271789Y-110833511D01*
X107271786Y-110833507D01*
X107160292Y-110722013D01*
X107160288Y-110722010D01*
X107029185Y-110634409D01*
X107029172Y-110634402D01*
X106883501Y-110574064D01*
X106883489Y-110574061D01*
X106728845Y-110543300D01*
X106728842Y-110543300D01*
X106624500Y-110543300D01*
X106557461Y-110523615D01*
X106511706Y-110470811D01*
X106500500Y-110419300D01*
X106500500Y-108023565D01*
X106520185Y-107956526D01*
X106521398Y-107954674D01*
X106542185Y-107923565D01*
X106609394Y-107822979D01*
X106613593Y-107812843D01*
X106630102Y-107772985D01*
X106669737Y-107677297D01*
X106700500Y-107522642D01*
X106700500Y-107364958D01*
X106700500Y-107364955D01*
X106700499Y-107364953D01*
X106700137Y-107363131D01*
X106669737Y-107210303D01*
X106664060Y-107196597D01*
X106609397Y-107064627D01*
X106609390Y-107064614D01*
X106521789Y-106933511D01*
X106521786Y-106933507D01*
X106410292Y-106822013D01*
X106410288Y-106822010D01*
X106279185Y-106734409D01*
X106279172Y-106734402D01*
X106133501Y-106674064D01*
X106133491Y-106674061D01*
X106056979Y-106658842D01*
X105995068Y-106626457D01*
X105960494Y-106565741D01*
X105964234Y-106495972D01*
X105993489Y-106449545D01*
X106514665Y-105928370D01*
X106575984Y-105894888D01*
X106578151Y-105894437D01*
X106578840Y-105894300D01*
X106578842Y-105894300D01*
X106733497Y-105863537D01*
X106879179Y-105803194D01*
X107010289Y-105715589D01*
X107121789Y-105604089D01*
X107209394Y-105472979D01*
X107215191Y-105458985D01*
X107250037Y-105374858D01*
X107269737Y-105327297D01*
X107300500Y-105172642D01*
X107300500Y-105014958D01*
X107300500Y-105008866D01*
X107302866Y-105008866D01*
X107313928Y-104950514D01*
X107361990Y-104899801D01*
X107424312Y-104882999D01*
X108228472Y-104882999D01*
X108288083Y-104876591D01*
X108422931Y-104826296D01*
X108538146Y-104740046D01*
X108624396Y-104624831D01*
X108674691Y-104489983D01*
X108681100Y-104430373D01*
X108681099Y-101007228D01*
X108674691Y-100947617D01*
X108674269Y-100946486D01*
X108624397Y-100812771D01*
X108624393Y-100812764D01*
X108534446Y-100692611D01*
X108529738Y-100679990D01*
X108520918Y-100669811D01*
X108517766Y-100647894D01*
X108510028Y-100627147D01*
X108512890Y-100613985D01*
X108510974Y-100600653D01*
X108520172Y-100580511D01*
X108524879Y-100558874D01*
X108534403Y-100549349D01*
X108539999Y-100537097D01*
X108558626Y-100525126D01*
X108574284Y-100509468D01*
X108588727Y-100505781D01*
X108598777Y-100499323D01*
X108633712Y-100494300D01*
X108670404Y-100494300D01*
X108737443Y-100513985D01*
G37*
%TD.AperFunction*%
%TA.AperFunction,Conductor*%
G36*
X77443391Y-93101457D02*
G01*
X77486432Y-93130216D01*
X77520821Y-93153194D01*
X77520823Y-93153195D01*
X77520827Y-93153197D01*
X77620060Y-93194300D01*
X77666503Y-93213537D01*
X77821153Y-93244299D01*
X77821156Y-93244300D01*
X77821158Y-93244300D01*
X77978844Y-93244300D01*
X77978845Y-93244299D01*
X78055152Y-93229120D01*
X78133488Y-93213539D01*
X78133489Y-93213538D01*
X78133497Y-93213537D01*
X78157155Y-93203737D01*
X78204604Y-93194300D01*
X83051527Y-93194300D01*
X83118566Y-93213985D01*
X83164321Y-93266789D01*
X83174265Y-93335947D01*
X83145240Y-93399503D01*
X83120418Y-93421402D01*
X83029711Y-93482010D01*
X83029707Y-93482013D01*
X82918213Y-93593507D01*
X82918210Y-93593511D01*
X82830609Y-93724614D01*
X82830602Y-93724627D01*
X82770264Y-93870298D01*
X82770261Y-93870310D01*
X82739500Y-94024953D01*
X82739500Y-94182646D01*
X82768731Y-94329595D01*
X82770263Y-94337297D01*
X82786192Y-94375754D01*
X82790061Y-94385093D01*
X82799500Y-94432546D01*
X82799500Y-94917133D01*
X82779815Y-94984172D01*
X82763181Y-95004814D01*
X82719887Y-95048107D01*
X82719881Y-95048115D01*
X82637505Y-95187406D01*
X82637504Y-95187409D01*
X82592357Y-95342802D01*
X82592356Y-95342808D01*
X82589500Y-95379102D01*
X82589500Y-95788497D01*
X82592356Y-95824791D01*
X82592357Y-95824797D01*
X82637504Y-95980191D01*
X82637506Y-95980197D01*
X82649620Y-96000680D01*
X82666801Y-96068404D01*
X82649620Y-96126920D01*
X82637506Y-96147402D01*
X82637504Y-96147408D01*
X82592357Y-96302802D01*
X82592356Y-96302808D01*
X82589500Y-96339102D01*
X82589500Y-96748497D01*
X82592356Y-96784791D01*
X82606858Y-96834706D01*
X82606658Y-96904575D01*
X82568715Y-96963245D01*
X82505077Y-96992088D01*
X82487781Y-96993300D01*
X82420997Y-96993300D01*
X82383678Y-97003299D01*
X82383679Y-97003300D01*
X82268271Y-97034223D01*
X82268266Y-97034226D01*
X82131347Y-97113275D01*
X82131339Y-97113281D01*
X80568481Y-98676139D01*
X80568479Y-98676142D01*
X80558573Y-98693300D01*
X80537540Y-98729731D01*
X80489423Y-98813072D01*
X80448499Y-98965800D01*
X80448499Y-98965802D01*
X80448499Y-99133903D01*
X80448500Y-99133916D01*
X80448500Y-103994702D01*
X80428815Y-104061741D01*
X80412181Y-104082383D01*
X79504441Y-104990122D01*
X79443118Y-105023607D01*
X79373426Y-105018623D01*
X79317493Y-104976751D01*
X79312933Y-104969582D01*
X79312779Y-104969686D01*
X79221789Y-104833511D01*
X79221786Y-104833507D01*
X79110292Y-104722013D01*
X79110288Y-104722010D01*
X78979185Y-104634409D01*
X78979172Y-104634402D01*
X78833501Y-104574064D01*
X78833489Y-104574061D01*
X78812656Y-104569917D01*
X78750745Y-104537532D01*
X78716171Y-104476817D01*
X78719910Y-104407047D01*
X78760776Y-104350375D01*
X78825795Y-104324794D01*
X78836847Y-104324300D01*
X79073543Y-104324300D01*
X79203582Y-104298432D01*
X79266835Y-104285851D01*
X79448914Y-104210432D01*
X79612782Y-104100939D01*
X79752139Y-103961582D01*
X79861632Y-103797714D01*
X79937051Y-103615635D01*
X79967090Y-103464621D01*
X79975500Y-103422343D01*
X79975500Y-103225256D01*
X79937052Y-103031970D01*
X79937051Y-103031969D01*
X79937051Y-103031965D01*
X79937049Y-103031960D01*
X79861635Y-102849892D01*
X79861628Y-102849879D01*
X79752139Y-102686018D01*
X79752136Y-102686014D01*
X79612785Y-102546663D01*
X79612781Y-102546660D01*
X79448920Y-102437171D01*
X79448907Y-102437164D01*
X79266839Y-102361750D01*
X79266829Y-102361747D01*
X79073543Y-102323300D01*
X79073541Y-102323300D01*
X77676459Y-102323300D01*
X77676457Y-102323300D01*
X77483170Y-102361747D01*
X77483165Y-102361749D01*
X77421951Y-102387104D01*
X77352482Y-102394571D01*
X77290003Y-102363296D01*
X77254351Y-102303206D01*
X77250500Y-102272542D01*
X77250500Y-101187910D01*
X77250500Y-101187908D01*
X77216392Y-101060614D01*
X77216390Y-101060610D01*
X77174709Y-100988416D01*
X77158236Y-100920516D01*
X77167534Y-100878965D01*
X77202051Y-100795635D01*
X77222544Y-100692611D01*
X77240500Y-100602343D01*
X77240500Y-100515689D01*
X77260185Y-100448650D01*
X77312989Y-100402895D01*
X77382147Y-100392951D01*
X77445703Y-100421976D01*
X77452181Y-100428008D01*
X77522490Y-100498317D01*
X77713567Y-100637143D01*
X77804167Y-100683306D01*
X77924003Y-100744366D01*
X77924005Y-100744366D01*
X77924008Y-100744368D01*
X78044412Y-100783489D01*
X78148631Y-100817353D01*
X78381903Y-100854300D01*
X78381908Y-100854300D01*
X78618097Y-100854300D01*
X78851368Y-100817353D01*
X78865491Y-100812764D01*
X79075992Y-100744368D01*
X79286433Y-100637143D01*
X79477510Y-100498317D01*
X79644517Y-100331310D01*
X79783343Y-100140233D01*
X79890568Y-99929792D01*
X79963553Y-99705168D01*
X79969922Y-99664955D01*
X80000500Y-99471897D01*
X80000500Y-99235702D01*
X79963553Y-99002431D01*
X79890566Y-98777803D01*
X79827530Y-98654089D01*
X79783343Y-98567367D01*
X79644517Y-98376290D01*
X79522074Y-98253847D01*
X79488589Y-98192524D01*
X79493573Y-98122832D01*
X79535445Y-98066899D01*
X79562301Y-98051605D01*
X79628794Y-98024064D01*
X79679173Y-98003197D01*
X79679176Y-98003195D01*
X79679179Y-98003194D01*
X79810289Y-97915589D01*
X79921789Y-97804089D01*
X80009394Y-97672979D01*
X80069737Y-97527297D01*
X80100500Y-97372642D01*
X80100500Y-97214958D01*
X80100500Y-97214955D01*
X80100499Y-97214953D01*
X80098217Y-97203482D01*
X80069737Y-97060303D01*
X80058936Y-97034226D01*
X80009397Y-96914627D01*
X80009390Y-96914614D01*
X79921789Y-96783511D01*
X79921786Y-96783507D01*
X79810292Y-96672013D01*
X79810288Y-96672010D01*
X79679185Y-96584409D01*
X79679172Y-96584402D01*
X79533501Y-96524064D01*
X79533489Y-96524061D01*
X79378845Y-96493300D01*
X79378842Y-96493300D01*
X79221158Y-96493300D01*
X79221155Y-96493300D01*
X79066510Y-96524061D01*
X79066498Y-96524064D01*
X78920827Y-96584402D01*
X78920814Y-96584409D01*
X78789711Y-96672010D01*
X78789707Y-96672013D01*
X78678213Y-96783507D01*
X78678210Y-96783511D01*
X78590609Y-96914614D01*
X78590602Y-96914627D01*
X78530264Y-97060298D01*
X78530261Y-97060310D01*
X78499500Y-97214953D01*
X78499500Y-97372646D01*
X78530261Y-97527289D01*
X78530264Y-97527301D01*
X78592937Y-97678608D01*
X78591228Y-97679315D01*
X78603709Y-97739244D01*
X78578711Y-97804489D01*
X78522408Y-97845862D01*
X78480108Y-97853300D01*
X78381903Y-97853300D01*
X78148631Y-97890246D01*
X77924003Y-97963233D01*
X77713566Y-98070457D01*
X77522491Y-98209282D01*
X77432973Y-98298800D01*
X77371649Y-98332284D01*
X77301958Y-98327300D01*
X77246024Y-98285428D01*
X77221608Y-98219963D01*
X77223675Y-98186926D01*
X77240500Y-98102343D01*
X77240500Y-97905256D01*
X77205278Y-97728190D01*
X77202051Y-97711965D01*
X77166617Y-97626420D01*
X77159149Y-97556955D01*
X77173790Y-97516973D01*
X77216392Y-97443186D01*
X77250500Y-97315892D01*
X77250500Y-93204559D01*
X77270185Y-93137520D01*
X77322989Y-93091765D01*
X77392147Y-93081821D01*
X77443391Y-93101457D01*
G37*
%TD.AperFunction*%
%TA.AperFunction,Conductor*%
G36*
X103430703Y-97824184D02*
G01*
X103437180Y-97830215D01*
X105981284Y-100374320D01*
X105981286Y-100374321D01*
X105981290Y-100374324D01*
X106117892Y-100453190D01*
X106118216Y-100453377D01*
X106270943Y-100494301D01*
X106270945Y-100494301D01*
X106436654Y-100494301D01*
X106436670Y-100494300D01*
X106685232Y-100494300D01*
X106752271Y-100513985D01*
X106754123Y-100515198D01*
X106885812Y-100603190D01*
X106885825Y-100603197D01*
X106965608Y-100636244D01*
X107020012Y-100680085D01*
X107042077Y-100746379D01*
X107028381Y-100804339D01*
X107028703Y-100804459D01*
X107027749Y-100807014D01*
X107026991Y-100810226D01*
X107025605Y-100812763D01*
X106975308Y-100947617D01*
X106968901Y-101007216D01*
X106968901Y-101007223D01*
X106968900Y-101007235D01*
X106968900Y-104235991D01*
X106949215Y-104303030D01*
X106896411Y-104348785D01*
X106827253Y-104358729D01*
X106797448Y-104350552D01*
X106733497Y-104324063D01*
X106733489Y-104324061D01*
X106578846Y-104293300D01*
X106572782Y-104292703D01*
X106573040Y-104290081D01*
X106516961Y-104273615D01*
X106471206Y-104220811D01*
X106460000Y-104169300D01*
X106459999Y-103401029D01*
X106459998Y-103401023D01*
X106453591Y-103341416D01*
X106403297Y-103206571D01*
X106403293Y-103206564D01*
X106317047Y-103091355D01*
X106317044Y-103091352D01*
X106201835Y-103005106D01*
X106201828Y-103005102D01*
X106066982Y-102954808D01*
X106066983Y-102954808D01*
X106007383Y-102948401D01*
X106007381Y-102948400D01*
X106007373Y-102948400D01*
X106007365Y-102948400D01*
X105824500Y-102948400D01*
X105757461Y-102928715D01*
X105711706Y-102875911D01*
X105700500Y-102824400D01*
X105700500Y-102664955D01*
X105700499Y-102664953D01*
X105686445Y-102594300D01*
X105669737Y-102510303D01*
X105658300Y-102482691D01*
X105609397Y-102364627D01*
X105609390Y-102364614D01*
X105521789Y-102233511D01*
X105521786Y-102233507D01*
X105410292Y-102122013D01*
X105410288Y-102122010D01*
X105279185Y-102034409D01*
X105279172Y-102034402D01*
X105133501Y-101974064D01*
X105133489Y-101974061D01*
X104978845Y-101943300D01*
X104978842Y-101943300D01*
X104821158Y-101943300D01*
X104821155Y-101943300D01*
X104666510Y-101974061D01*
X104666498Y-101974064D01*
X104520827Y-102034402D01*
X104520814Y-102034409D01*
X104389711Y-102122010D01*
X104389707Y-102122013D01*
X104278213Y-102233507D01*
X104278208Y-102233513D01*
X104257601Y-102264354D01*
X104203988Y-102309159D01*
X104134663Y-102317865D01*
X104071636Y-102287709D01*
X104034918Y-102228266D01*
X104030500Y-102195462D01*
X104030500Y-101562859D01*
X104030501Y-101562846D01*
X104030501Y-101394745D01*
X104030501Y-101394743D01*
X103989577Y-101242015D01*
X103956015Y-101183884D01*
X103956015Y-101183883D01*
X103910524Y-101105090D01*
X103910521Y-101105086D01*
X103910520Y-101105084D01*
X103798716Y-100993280D01*
X103798715Y-100993279D01*
X103794385Y-100988949D01*
X103794374Y-100988939D01*
X103261819Y-100456384D01*
X103228334Y-100395061D01*
X103225500Y-100368703D01*
X103225500Y-97917897D01*
X103245185Y-97850858D01*
X103297989Y-97805103D01*
X103367147Y-97795159D01*
X103430703Y-97824184D01*
G37*
%TD.AperFunction*%
%TA.AperFunction,Conductor*%
G36*
X105894137Y-90163985D02*
G01*
X105939892Y-90216789D01*
X105949836Y-90285947D01*
X105920811Y-90349503D01*
X105874549Y-90382862D01*
X105870821Y-90384405D01*
X105870814Y-90384409D01*
X105739711Y-90472010D01*
X105739707Y-90472013D01*
X105628213Y-90583507D01*
X105628210Y-90583511D01*
X105540609Y-90714614D01*
X105540602Y-90714627D01*
X105480264Y-90860298D01*
X105480261Y-90860310D01*
X105449500Y-91014953D01*
X105449500Y-91172646D01*
X105480261Y-91327289D01*
X105480264Y-91327301D01*
X105540602Y-91472972D01*
X105540609Y-91472985D01*
X105628210Y-91604088D01*
X105628213Y-91604092D01*
X105739707Y-91715586D01*
X105739711Y-91715589D01*
X105870814Y-91803190D01*
X105870827Y-91803197D01*
X105966999Y-91843032D01*
X106016503Y-91863537D01*
X106146489Y-91889393D01*
X106171153Y-91894299D01*
X106171156Y-91894300D01*
X106171158Y-91894300D01*
X106328843Y-91894300D01*
X106340052Y-91892070D01*
X106384809Y-91883167D01*
X106454398Y-91889393D01*
X106509576Y-91932255D01*
X106532822Y-91998145D01*
X106533000Y-92004784D01*
X106533000Y-92431070D01*
X106533001Y-92431076D01*
X106539408Y-92490683D01*
X106589702Y-92625528D01*
X106589706Y-92625535D01*
X106675952Y-92740744D01*
X106675955Y-92740747D01*
X106791164Y-92826993D01*
X106791171Y-92826997D01*
X106926017Y-92877291D01*
X106926016Y-92877291D01*
X106932944Y-92878035D01*
X106985627Y-92883700D01*
X108224372Y-92883699D01*
X108283983Y-92877291D01*
X108418831Y-92826996D01*
X108534046Y-92740746D01*
X108620296Y-92625531D01*
X108670591Y-92490683D01*
X108677000Y-92431073D01*
X108676999Y-90506528D01*
X108670591Y-90446917D01*
X108670591Y-90446916D01*
X108620134Y-90311633D01*
X108615150Y-90241941D01*
X108648635Y-90180618D01*
X108709959Y-90147134D01*
X108736316Y-90144300D01*
X117034108Y-90144300D01*
X117093040Y-90144300D01*
X117106922Y-90145079D01*
X117230646Y-90159020D01*
X117257710Y-90165197D01*
X117368624Y-90204008D01*
X117393632Y-90216051D01*
X117493126Y-90278566D01*
X117514836Y-90295879D01*
X117597920Y-90378963D01*
X117615233Y-90400673D01*
X117677746Y-90500163D01*
X117689793Y-90525179D01*
X117728601Y-90636085D01*
X117734780Y-90663156D01*
X117748720Y-90786876D01*
X117749500Y-90800760D01*
X117749500Y-92008641D01*
X117729815Y-92075680D01*
X117677011Y-92121435D01*
X117607853Y-92131379D01*
X117544297Y-92102354D01*
X117520506Y-92074613D01*
X117407207Y-91894300D01*
X117350946Y-91804761D01*
X117140825Y-91541277D01*
X116902523Y-91302975D01*
X116639039Y-91092854D01*
X116353686Y-90913554D01*
X116353683Y-90913552D01*
X116050054Y-90767332D01*
X115731965Y-90656027D01*
X115731953Y-90656023D01*
X115403397Y-90581033D01*
X115403381Y-90581031D01*
X115068508Y-90543300D01*
X115068504Y-90543300D01*
X114731496Y-90543300D01*
X114731491Y-90543300D01*
X114396618Y-90581031D01*
X114396602Y-90581033D01*
X114068046Y-90656023D01*
X114068034Y-90656027D01*
X113749945Y-90767332D01*
X113446316Y-90913552D01*
X113160962Y-91092853D01*
X112897477Y-91302974D01*
X112659174Y-91541277D01*
X112449053Y-91804762D01*
X112269752Y-92090116D01*
X112123532Y-92393745D01*
X112012227Y-92711834D01*
X112012223Y-92711846D01*
X111995391Y-92785596D01*
X111961283Y-92846575D01*
X111899621Y-92879433D01*
X111829984Y-92873738D01*
X111774480Y-92831298D01*
X111750732Y-92765588D01*
X111750500Y-92758004D01*
X111750500Y-91773565D01*
X111770185Y-91706526D01*
X111771398Y-91704674D01*
X111785854Y-91683040D01*
X111859394Y-91572979D01*
X111919737Y-91427297D01*
X111950500Y-91272642D01*
X111950500Y-91114958D01*
X111950500Y-91114955D01*
X111950499Y-91114953D01*
X111940486Y-91064614D01*
X111919737Y-90960303D01*
X111919735Y-90960298D01*
X111859397Y-90814627D01*
X111859390Y-90814614D01*
X111771789Y-90683511D01*
X111771786Y-90683507D01*
X111660292Y-90572013D01*
X111660288Y-90572010D01*
X111529185Y-90484409D01*
X111529172Y-90484402D01*
X111383501Y-90424064D01*
X111383489Y-90424061D01*
X111228845Y-90393300D01*
X111228842Y-90393300D01*
X111071158Y-90393300D01*
X111071155Y-90393300D01*
X110916510Y-90424061D01*
X110916498Y-90424064D01*
X110770827Y-90484402D01*
X110770814Y-90484409D01*
X110639711Y-90572010D01*
X110639707Y-90572013D01*
X110528213Y-90683507D01*
X110528210Y-90683511D01*
X110440609Y-90814614D01*
X110440602Y-90814627D01*
X110380264Y-90960298D01*
X110380261Y-90960310D01*
X110349500Y-91114953D01*
X110349500Y-91272646D01*
X110380261Y-91427289D01*
X110380264Y-91427301D01*
X110440602Y-91572972D01*
X110440609Y-91572985D01*
X110528602Y-91704674D01*
X110549480Y-91771351D01*
X110549500Y-91773565D01*
X110549500Y-93946174D01*
X110529815Y-94013213D01*
X110477011Y-94058968D01*
X110407853Y-94068912D01*
X110355819Y-94048744D01*
X110346116Y-94042152D01*
X110317244Y-94013280D01*
X110230432Y-93963160D01*
X110180313Y-93934223D01*
X110027585Y-93893299D01*
X109869471Y-93893299D01*
X109861875Y-93893299D01*
X109861859Y-93893300D01*
X107179057Y-93893300D01*
X107020943Y-93893300D01*
X106868215Y-93934223D01*
X106868214Y-93934223D01*
X106868212Y-93934224D01*
X106868209Y-93934225D01*
X106818096Y-93963159D01*
X106818095Y-93963160D01*
X106789158Y-93979866D01*
X106731286Y-94013278D01*
X106635337Y-94109227D01*
X106574014Y-94142711D01*
X106571848Y-94143162D01*
X106416508Y-94174061D01*
X106416498Y-94174064D01*
X106270827Y-94234402D01*
X106270814Y-94234409D01*
X106139711Y-94322010D01*
X106139707Y-94322013D01*
X106028213Y-94433507D01*
X106028210Y-94433511D01*
X105940609Y-94564614D01*
X105940602Y-94564627D01*
X105880264Y-94710298D01*
X105880261Y-94710310D01*
X105849500Y-94864953D01*
X105849500Y-95022646D01*
X105880261Y-95177289D01*
X105880264Y-95177301D01*
X105940602Y-95322972D01*
X105940609Y-95322985D01*
X106028210Y-95454088D01*
X106028213Y-95454092D01*
X106139707Y-95565586D01*
X106139711Y-95565589D01*
X106270814Y-95653190D01*
X106270827Y-95653197D01*
X106358230Y-95689399D01*
X106416503Y-95713537D01*
X106483580Y-95726879D01*
X106545490Y-95759263D01*
X106547069Y-95760815D01*
X108663181Y-97876927D01*
X108696666Y-97938250D01*
X108699500Y-97964608D01*
X108699500Y-98264204D01*
X108679815Y-98331243D01*
X108663181Y-98351885D01*
X108658869Y-98356196D01*
X108658863Y-98356204D01*
X108577131Y-98494406D01*
X108577129Y-98494411D01*
X108532335Y-98648591D01*
X108532334Y-98648597D01*
X108529500Y-98684611D01*
X108529500Y-99082969D01*
X108529501Y-99082991D01*
X108532098Y-99116002D01*
X108532335Y-99119004D01*
X108533804Y-99124061D01*
X108536897Y-99134707D01*
X108536696Y-99204577D01*
X108498753Y-99263246D01*
X108435114Y-99292088D01*
X108417820Y-99293300D01*
X107844764Y-99293300D01*
X107777725Y-99273615D01*
X107775873Y-99272402D01*
X107644183Y-99184409D01*
X107644170Y-99184402D01*
X107498499Y-99124064D01*
X107498487Y-99124061D01*
X107343843Y-99093300D01*
X107343840Y-99093300D01*
X107186156Y-99093300D01*
X107186153Y-99093300D01*
X107031508Y-99124061D01*
X107031496Y-99124064D01*
X106885825Y-99184402D01*
X106885812Y-99184409D01*
X106754123Y-99272402D01*
X106736076Y-99278052D01*
X106720167Y-99288277D01*
X106689205Y-99292728D01*
X106687445Y-99293280D01*
X106685232Y-99293300D01*
X106650098Y-99293300D01*
X106583059Y-99273615D01*
X106562417Y-99256981D01*
X104361819Y-97056383D01*
X104328334Y-96995060D01*
X104325500Y-96968702D01*
X104325500Y-92503842D01*
X104345185Y-92436803D01*
X104375188Y-92404576D01*
X104438146Y-92357447D01*
X104524396Y-92242232D01*
X104574691Y-92107384D01*
X104581100Y-92047774D01*
X104581099Y-90859829D01*
X104574691Y-90800218D01*
X104572297Y-90793800D01*
X104524397Y-90665372D01*
X104524393Y-90665365D01*
X104438147Y-90550156D01*
X104438144Y-90550153D01*
X104322935Y-90463907D01*
X104322928Y-90463903D01*
X104188082Y-90413609D01*
X104188083Y-90413609D01*
X104128483Y-90407202D01*
X104128481Y-90407201D01*
X104128473Y-90407201D01*
X104128464Y-90407201D01*
X103321529Y-90407201D01*
X103321523Y-90407202D01*
X103261918Y-90413609D01*
X103218331Y-90429866D01*
X103148639Y-90434849D01*
X103131668Y-90429865D01*
X103088090Y-90413612D01*
X103088079Y-90413609D01*
X103028483Y-90407202D01*
X103028481Y-90407201D01*
X103028473Y-90407201D01*
X103028464Y-90407201D01*
X102221529Y-90407201D01*
X102221523Y-90407202D01*
X102161918Y-90413609D01*
X102118331Y-90429866D01*
X102048639Y-90434849D01*
X102031668Y-90429865D01*
X101988090Y-90413612D01*
X101988079Y-90413609D01*
X101928483Y-90407202D01*
X101928481Y-90407201D01*
X101928473Y-90407201D01*
X101928464Y-90407201D01*
X101121529Y-90407201D01*
X101121523Y-90407202D01*
X101061917Y-90413609D01*
X101018330Y-90429866D01*
X100948638Y-90434849D01*
X100931667Y-90429865D01*
X100888084Y-90413610D01*
X100888082Y-90413609D01*
X100828482Y-90407202D01*
X100828480Y-90407201D01*
X100828472Y-90407201D01*
X100828463Y-90407201D01*
X100021528Y-90407201D01*
X100021522Y-90407202D01*
X99961917Y-90413609D01*
X99918330Y-90429866D01*
X99848638Y-90434849D01*
X99831667Y-90429865D01*
X99788089Y-90413612D01*
X99788078Y-90413609D01*
X99728482Y-90407202D01*
X99728480Y-90407201D01*
X99728472Y-90407201D01*
X99728463Y-90407201D01*
X98921528Y-90407201D01*
X98921522Y-90407202D01*
X98861917Y-90413609D01*
X98818330Y-90429866D01*
X98748638Y-90434849D01*
X98731667Y-90429865D01*
X98688089Y-90413612D01*
X98688078Y-90413609D01*
X98628482Y-90407202D01*
X98628480Y-90407201D01*
X98628472Y-90407201D01*
X98628463Y-90407201D01*
X97821528Y-90407201D01*
X97821522Y-90407202D01*
X97761916Y-90413609D01*
X97718329Y-90429866D01*
X97648637Y-90434849D01*
X97631666Y-90429865D01*
X97588083Y-90413610D01*
X97588081Y-90413609D01*
X97528481Y-90407202D01*
X97528479Y-90407201D01*
X97528471Y-90407201D01*
X97528462Y-90407201D01*
X96721527Y-90407201D01*
X96721521Y-90407202D01*
X96661914Y-90413609D01*
X96618331Y-90429865D01*
X96548639Y-90434849D01*
X96531666Y-90429865D01*
X96488082Y-90413609D01*
X96488083Y-90413609D01*
X96428483Y-90407202D01*
X96428481Y-90407201D01*
X96428473Y-90407201D01*
X96428465Y-90407201D01*
X95941278Y-90407201D01*
X95920029Y-90400961D01*
X95897939Y-90399381D01*
X95887157Y-90391309D01*
X95874239Y-90387516D01*
X95859739Y-90370782D01*
X95842007Y-90357507D01*
X95831397Y-90338074D01*
X95828484Y-90334712D01*
X95825094Y-90326529D01*
X95819537Y-90311628D01*
X95814556Y-90241936D01*
X95848044Y-90180615D01*
X95909369Y-90147133D01*
X95935721Y-90144300D01*
X105827098Y-90144300D01*
X105894137Y-90163985D01*
G37*
%TD.AperFunction*%
%TD*%
%TA.AperFunction,NonConductor*%
G36*
X92137912Y-90147475D02*
G01*
X92149117Y-90146271D01*
X92170835Y-90157142D01*
X92194137Y-90163985D01*
X92201516Y-90172501D01*
X92211596Y-90177547D01*
X92223990Y-90198437D01*
X92239892Y-90216789D01*
X92241495Y-90227942D01*
X92247247Y-90237636D01*
X92246379Y-90261909D01*
X92249836Y-90285947D01*
X92245154Y-90296198D01*
X92244752Y-90307461D01*
X92230900Y-90327409D01*
X92220811Y-90349503D01*
X92210295Y-90357085D01*
X92204902Y-90364853D01*
X92174549Y-90382862D01*
X92170821Y-90384405D01*
X92170814Y-90384409D01*
X92039711Y-90472010D01*
X92039707Y-90472013D01*
X91928213Y-90583507D01*
X91928210Y-90583511D01*
X91840609Y-90714614D01*
X91840602Y-90714627D01*
X91780264Y-90860298D01*
X91780261Y-90860310D01*
X91749500Y-91014953D01*
X91749500Y-91172646D01*
X91780261Y-91327289D01*
X91780264Y-91327301D01*
X91840602Y-91472972D01*
X91840609Y-91472985D01*
X91928210Y-91604088D01*
X91928213Y-91604092D01*
X92039707Y-91715586D01*
X92039711Y-91715589D01*
X92170814Y-91803190D01*
X92170827Y-91803197D01*
X92266999Y-91843032D01*
X92316503Y-91863537D01*
X92446489Y-91889393D01*
X92471153Y-91894299D01*
X92471156Y-91894300D01*
X92471158Y-91894300D01*
X92628844Y-91894300D01*
X92628845Y-91894299D01*
X92783497Y-91863537D01*
X92919942Y-91807020D01*
X92929172Y-91803197D01*
X92929172Y-91803196D01*
X92929179Y-91803194D01*
X93060289Y-91715589D01*
X93171789Y-91604089D01*
X93259394Y-91472979D01*
X93319737Y-91327297D01*
X93350500Y-91172642D01*
X93350500Y-91014958D01*
X93350500Y-91014955D01*
X93350499Y-91014953D01*
X93319737Y-90860303D01*
X93304138Y-90822644D01*
X93259397Y-90714627D01*
X93259390Y-90714614D01*
X93171789Y-90583511D01*
X93171786Y-90583507D01*
X93060292Y-90472013D01*
X93060288Y-90472010D01*
X92929185Y-90384409D01*
X92929178Y-90384405D01*
X92925451Y-90382862D01*
X92871047Y-90339022D01*
X92848981Y-90272728D01*
X92866259Y-90205029D01*
X92917395Y-90157417D01*
X92972902Y-90144300D01*
X93954279Y-90144300D01*
X94021318Y-90163985D01*
X94067073Y-90216789D01*
X94077017Y-90285947D01*
X94070461Y-90311633D01*
X94019108Y-90449317D01*
X94012701Y-90508916D01*
X94012700Y-90508935D01*
X94012700Y-93398670D01*
X94012701Y-93398676D01*
X94019108Y-93458283D01*
X94069402Y-93593128D01*
X94069406Y-93593135D01*
X94155652Y-93708344D01*
X94155655Y-93708347D01*
X94270864Y-93794593D01*
X94270871Y-93794597D01*
X94405717Y-93844891D01*
X94405716Y-93844891D01*
X94412644Y-93845635D01*
X94465327Y-93851300D01*
X95300500Y-93851299D01*
X95367539Y-93870983D01*
X95413294Y-93923787D01*
X95424500Y-93975299D01*
X95424500Y-100433329D01*
X95404815Y-100500368D01*
X95352011Y-100546123D01*
X95287248Y-100556618D01*
X95268473Y-100554600D01*
X95268467Y-100554600D01*
X94924500Y-100554600D01*
X94857461Y-100534915D01*
X94811706Y-100482111D01*
X94800500Y-100430600D01*
X94800500Y-97082860D01*
X94800501Y-97082847D01*
X94800501Y-96914744D01*
X94797776Y-96904575D01*
X94759577Y-96762016D01*
X94743634Y-96734402D01*
X94680524Y-96625090D01*
X94680518Y-96625082D01*
X94184573Y-96129137D01*
X94151088Y-96067814D01*
X94150637Y-96065647D01*
X94150270Y-96063800D01*
X94119737Y-95910303D01*
X94103876Y-95872011D01*
X94059397Y-95764627D01*
X94059390Y-95764614D01*
X93971789Y-95633511D01*
X93971786Y-95633507D01*
X93860292Y-95522013D01*
X93860288Y-95522010D01*
X93729185Y-95434409D01*
X93729172Y-95434402D01*
X93583501Y-95374064D01*
X93583489Y-95374061D01*
X93428845Y-95343300D01*
X93428842Y-95343300D01*
X93271158Y-95343300D01*
X93271155Y-95343300D01*
X93116510Y-95374061D01*
X93116498Y-95374064D01*
X92970827Y-95434402D01*
X92970814Y-95434409D01*
X92839711Y-95522010D01*
X92839707Y-95522013D01*
X92728213Y-95633507D01*
X92728210Y-95633511D01*
X92640609Y-95764614D01*
X92640602Y-95764627D01*
X92580264Y-95910298D01*
X92580261Y-95910310D01*
X92549500Y-96064953D01*
X92549500Y-96222646D01*
X92580261Y-96377289D01*
X92580264Y-96377301D01*
X92619826Y-96472813D01*
X92627295Y-96542282D01*
X92596019Y-96604761D01*
X92535930Y-96640413D01*
X92527102Y-96641965D01*
X92527132Y-96642111D01*
X92366510Y-96674061D01*
X92366498Y-96674064D01*
X92220827Y-96734402D01*
X92220814Y-96734409D01*
X92089711Y-96822010D01*
X92089707Y-96822013D01*
X91978213Y-96933507D01*
X91978210Y-96933511D01*
X91890609Y-97064614D01*
X91890602Y-97064627D01*
X91830264Y-97210298D01*
X91830261Y-97210310D01*
X91799500Y-97364953D01*
X91799500Y-97522646D01*
X91830261Y-97677289D01*
X91830264Y-97677301D01*
X91890602Y-97822972D01*
X91890609Y-97822985D01*
X91978210Y-97954088D01*
X91978213Y-97954092D01*
X92089707Y-98065586D01*
X92089711Y-98065589D01*
X92220814Y-98153190D01*
X92220827Y-98153197D01*
X92356230Y-98209282D01*
X92366503Y-98213537D01*
X92415047Y-98223193D01*
X92521849Y-98244438D01*
X92583760Y-98276823D01*
X92585339Y-98278374D01*
X93113181Y-98806216D01*
X93146666Y-98867539D01*
X93149500Y-98893897D01*
X93149500Y-102919300D01*
X93129815Y-102986339D01*
X93077011Y-103032094D01*
X93025500Y-103043300D01*
X92871155Y-103043300D01*
X92716510Y-103074061D01*
X92716498Y-103074064D01*
X92570827Y-103134402D01*
X92570814Y-103134409D01*
X92439711Y-103222010D01*
X92439707Y-103222013D01*
X92328213Y-103333507D01*
X92328210Y-103333511D01*
X92240609Y-103464614D01*
X92240602Y-103464627D01*
X92180264Y-103610298D01*
X92180261Y-103610308D01*
X92149361Y-103765650D01*
X92116976Y-103827561D01*
X92115425Y-103829139D01*
X91187584Y-104756981D01*
X91126261Y-104790466D01*
X91099903Y-104793300D01*
X90670291Y-104793300D01*
X90603252Y-104773615D01*
X90557497Y-104720811D01*
X90547553Y-104651653D01*
X90560382Y-104611889D01*
X90583909Y-104566849D01*
X90639886Y-104371218D01*
X90650500Y-104251837D01*
X90650499Y-103135764D01*
X90639886Y-103016382D01*
X90583909Y-102820751D01*
X90489698Y-102640393D01*
X90427030Y-102563537D01*
X90361109Y-102482690D01*
X90216315Y-102364627D01*
X90203407Y-102354102D01*
X90023049Y-102259891D01*
X90023048Y-102259890D01*
X90023045Y-102259889D01*
X89897570Y-102223987D01*
X89827418Y-102203914D01*
X89827415Y-102203913D01*
X89827413Y-102203913D01*
X89754631Y-102197442D01*
X89708037Y-102193300D01*
X89708033Y-102193300D01*
X89124500Y-102193300D01*
X89057461Y-102173615D01*
X89011706Y-102120811D01*
X89000500Y-102069300D01*
X89000500Y-101319879D01*
X88971659Y-101174892D01*
X88971658Y-101174891D01*
X88971658Y-101174887D01*
X88924324Y-101060612D01*
X88915085Y-101038307D01*
X88905568Y-101024064D01*
X88879523Y-100985084D01*
X88832952Y-100915384D01*
X88832950Y-100915382D01*
X88832948Y-100915379D01*
X88417983Y-100500414D01*
X88417482Y-100499496D01*
X88416573Y-100498981D01*
X88400771Y-100468893D01*
X88384498Y-100439091D01*
X88384572Y-100438049D01*
X88384086Y-100437123D01*
X88387059Y-100403272D01*
X88389482Y-100369399D01*
X88390138Y-100368219D01*
X88390200Y-100367522D01*
X88392392Y-100364171D01*
X88407615Y-100336823D01*
X88412422Y-100330613D01*
X88480520Y-100262516D01*
X88525616Y-100184405D01*
X88530754Y-100177770D01*
X88552527Y-100162014D01*
X88571981Y-100143465D01*
X88580408Y-100141840D01*
X88587359Y-100136811D01*
X88614193Y-100135328D01*
X88640588Y-100130241D01*
X88648554Y-100133430D01*
X88657122Y-100132957D01*
X88680498Y-100146218D01*
X88705453Y-100156208D01*
X88713572Y-100164980D01*
X88717894Y-100167432D01*
X88720586Y-100172559D01*
X88731905Y-100184788D01*
X88778213Y-100254092D01*
X88889707Y-100365586D01*
X88889711Y-100365589D01*
X89020814Y-100453190D01*
X89020827Y-100453197D01*
X89134710Y-100500368D01*
X89166503Y-100513537D01*
X89285389Y-100537185D01*
X89321153Y-100544299D01*
X89321156Y-100544300D01*
X89321158Y-100544300D01*
X89478844Y-100544300D01*
X89478845Y-100544299D01*
X89633497Y-100513537D01*
X89779179Y-100453194D01*
X89910289Y-100365589D01*
X90021789Y-100254089D01*
X90109394Y-100122979D01*
X90169737Y-99977297D01*
X90200500Y-99822642D01*
X90200500Y-99664958D01*
X90200500Y-99664955D01*
X90200499Y-99664953D01*
X90176764Y-99545629D01*
X90169737Y-99510303D01*
X90129669Y-99413571D01*
X90122201Y-99344103D01*
X90137498Y-99302999D01*
X90172869Y-99243193D01*
X90207479Y-99124064D01*
X90217664Y-99089008D01*
X90217665Y-99089002D01*
X90220499Y-99052988D01*
X90220500Y-99052981D01*
X90220499Y-98654620D01*
X90217665Y-98618596D01*
X90172869Y-98464407D01*
X90138869Y-98406917D01*
X90121688Y-98339198D01*
X90138869Y-98280682D01*
X90172869Y-98223193D01*
X90173029Y-98222644D01*
X90217664Y-98069008D01*
X90217665Y-98069002D01*
X90220500Y-98032981D01*
X90220499Y-97634620D01*
X90217665Y-97598596D01*
X90172869Y-97444407D01*
X90118444Y-97352379D01*
X90101261Y-97284655D01*
X90118442Y-97226142D01*
X90171931Y-97135697D01*
X90178446Y-97113275D01*
X90217608Y-96978479D01*
X90217609Y-96978473D01*
X90218378Y-96968702D01*
X90220500Y-96941740D01*
X90220500Y-96515860D01*
X90217609Y-96479125D01*
X90217093Y-96477348D01*
X90171933Y-96321907D01*
X90171932Y-96321906D01*
X90171931Y-96321905D01*
X90171931Y-96321903D01*
X90163070Y-96306920D01*
X90145887Y-96239199D01*
X90163070Y-96180679D01*
X90171931Y-96165697D01*
X90171932Y-96165692D01*
X90171933Y-96165692D01*
X90217608Y-96008479D01*
X90217609Y-96008473D01*
X90218689Y-95994746D01*
X90220500Y-95971740D01*
X90220500Y-95545860D01*
X90217609Y-95509125D01*
X90216376Y-95504880D01*
X90171933Y-95351907D01*
X90171931Y-95351904D01*
X90171931Y-95351903D01*
X90094773Y-95221436D01*
X90077591Y-95153713D01*
X90098406Y-95089423D01*
X90109394Y-95072979D01*
X90169737Y-94927297D01*
X90200500Y-94772642D01*
X90200500Y-94614958D01*
X90200500Y-94614955D01*
X90200499Y-94614953D01*
X90199239Y-94608619D01*
X90169737Y-94460303D01*
X90169735Y-94460298D01*
X90109397Y-94314627D01*
X90109390Y-94314614D01*
X90021789Y-94183511D01*
X90021786Y-94183507D01*
X89910292Y-94072013D01*
X89910288Y-94072010D01*
X89779185Y-93984409D01*
X89779172Y-93984402D01*
X89633501Y-93924064D01*
X89633489Y-93924061D01*
X89478845Y-93893300D01*
X89478842Y-93893300D01*
X89321158Y-93893300D01*
X89321155Y-93893300D01*
X89166510Y-93924061D01*
X89166498Y-93924064D01*
X89020827Y-93984402D01*
X89020814Y-93984409D01*
X88889711Y-94072010D01*
X88889707Y-94072013D01*
X88778213Y-94183507D01*
X88778210Y-94183511D01*
X88690609Y-94314614D01*
X88690602Y-94314627D01*
X88630264Y-94460298D01*
X88630261Y-94460310D01*
X88599500Y-94614953D01*
X88599500Y-94772646D01*
X88630261Y-94927289D01*
X88630264Y-94927301D01*
X88690602Y-95072972D01*
X88690609Y-95072985D01*
X88701595Y-95089426D01*
X88722473Y-95156103D01*
X88705225Y-95221438D01*
X88628068Y-95351904D01*
X88628066Y-95351907D01*
X88582391Y-95509120D01*
X88582390Y-95509126D01*
X88579500Y-95545852D01*
X88579500Y-95971747D01*
X88582390Y-96008473D01*
X88582391Y-96008479D01*
X88628067Y-96165694D01*
X88636931Y-96180683D01*
X88654110Y-96248408D01*
X88636931Y-96306917D01*
X88628067Y-96321905D01*
X88582391Y-96479120D01*
X88582390Y-96479126D01*
X88579500Y-96515852D01*
X88579500Y-96522843D01*
X88559815Y-96589882D01*
X88507011Y-96635637D01*
X88437853Y-96645581D01*
X88374297Y-96616556D01*
X88352398Y-96591734D01*
X88296789Y-96508511D01*
X88296786Y-96508507D01*
X88185292Y-96397013D01*
X88185288Y-96397010D01*
X88054185Y-96309409D01*
X88054172Y-96309402D01*
X87908501Y-96249064D01*
X87908489Y-96249061D01*
X87753845Y-96218300D01*
X87753842Y-96218300D01*
X87596158Y-96218300D01*
X87596155Y-96218300D01*
X87441510Y-96249061D01*
X87441498Y-96249064D01*
X87295827Y-96309402D01*
X87295814Y-96309409D01*
X87164711Y-96397010D01*
X87164707Y-96397013D01*
X87053213Y-96508507D01*
X87053210Y-96508511D01*
X86965609Y-96639614D01*
X86965600Y-96639631D01*
X86960931Y-96650903D01*
X86940350Y-96676439D01*
X86920683Y-96702711D01*
X86918529Y-96703514D01*
X86917087Y-96705304D01*
X86885959Y-96715662D01*
X86855219Y-96727128D01*
X86852972Y-96726639D01*
X86850792Y-96727365D01*
X86819005Y-96719250D01*
X86786946Y-96712276D01*
X86784492Y-96710439D01*
X86783093Y-96710082D01*
X86758692Y-96691125D01*
X86584404Y-96516837D01*
X86550919Y-96455514D01*
X86555903Y-96385822D01*
X86584404Y-96341475D01*
X86671786Y-96254092D01*
X86671789Y-96254089D01*
X86759394Y-96122979D01*
X86762854Y-96114627D01*
X86773067Y-96089966D01*
X86819737Y-95977297D01*
X86850500Y-95822642D01*
X86850500Y-95664958D01*
X86850500Y-95664955D01*
X86850499Y-95664953D01*
X86832497Y-95574451D01*
X86819737Y-95510303D01*
X86819735Y-95510298D01*
X86759397Y-95364627D01*
X86759390Y-95364614D01*
X86671789Y-95233511D01*
X86671786Y-95233507D01*
X86560292Y-95122013D01*
X86560288Y-95122010D01*
X86429185Y-95034409D01*
X86429172Y-95034402D01*
X86283501Y-94974064D01*
X86283489Y-94974061D01*
X86128845Y-94943300D01*
X86128842Y-94943300D01*
X85971158Y-94943300D01*
X85971155Y-94943300D01*
X85816510Y-94974061D01*
X85816498Y-94974064D01*
X85670827Y-95034402D01*
X85670814Y-95034409D01*
X85539711Y-95122010D01*
X85452325Y-95209396D01*
X85444378Y-95213734D01*
X85438954Y-95220981D01*
X85414194Y-95230215D01*
X85391001Y-95242880D01*
X85381972Y-95242234D01*
X85373490Y-95245398D01*
X85347669Y-95239781D01*
X85321310Y-95237896D01*
X85312256Y-95232077D01*
X85305217Y-95230546D01*
X85276963Y-95209395D01*
X85136819Y-95069251D01*
X85103334Y-95007928D01*
X85100500Y-94981570D01*
X85100500Y-92748404D01*
X85109939Y-92700951D01*
X85119737Y-92677297D01*
X85150500Y-92522642D01*
X85150500Y-92364958D01*
X85150500Y-92364955D01*
X85150499Y-92364953D01*
X85126088Y-92242231D01*
X85119737Y-92210303D01*
X85077107Y-92107384D01*
X85059397Y-92064627D01*
X85059390Y-92064614D01*
X84971789Y-91933511D01*
X84971786Y-91933507D01*
X84860292Y-91822013D01*
X84860288Y-91822010D01*
X84729185Y-91734409D01*
X84729172Y-91734402D01*
X84583501Y-91674064D01*
X84583489Y-91674061D01*
X84428845Y-91643300D01*
X84428842Y-91643300D01*
X84303439Y-91643300D01*
X84277513Y-91635687D01*
X84250802Y-91631574D01*
X84244485Y-91625989D01*
X84236400Y-91623615D01*
X84218708Y-91603197D01*
X84198458Y-91585293D01*
X84196163Y-91577179D01*
X84190645Y-91570811D01*
X84186799Y-91544066D01*
X84179445Y-91518060D01*
X84181900Y-91509996D01*
X84180701Y-91501653D01*
X84191926Y-91477071D01*
X84199799Y-91451221D01*
X84207087Y-91443875D01*
X84209726Y-91438097D01*
X84223178Y-91424780D01*
X84228622Y-91420157D01*
X84310289Y-91365589D01*
X84310925Y-91364953D01*
X85649500Y-91364953D01*
X85649500Y-91522646D01*
X85680261Y-91677289D01*
X85680264Y-91677301D01*
X85740602Y-91822972D01*
X85740609Y-91822985D01*
X85828210Y-91954088D01*
X85828213Y-91954092D01*
X85939707Y-92065586D01*
X85939711Y-92065589D01*
X86070814Y-92153190D01*
X86070827Y-92153197D01*
X86208683Y-92210298D01*
X86216503Y-92213537D01*
X86360757Y-92242231D01*
X86371153Y-92244299D01*
X86371156Y-92244300D01*
X86371158Y-92244300D01*
X86528844Y-92244300D01*
X86528845Y-92244299D01*
X86683497Y-92213537D01*
X86829179Y-92153194D01*
X86960289Y-92065589D01*
X87071789Y-91954089D01*
X87159394Y-91822979D01*
X87219737Y-91677297D01*
X87250500Y-91522642D01*
X87250500Y-91364958D01*
X87250500Y-91364955D01*
X87250499Y-91364953D01*
X87219737Y-91210303D01*
X87204138Y-91172644D01*
X87159397Y-91064627D01*
X87159390Y-91064614D01*
X87071789Y-90933511D01*
X87071786Y-90933507D01*
X86960292Y-90822013D01*
X86960288Y-90822010D01*
X86829185Y-90734409D01*
X86829172Y-90734402D01*
X86683501Y-90674064D01*
X86683489Y-90674061D01*
X86528845Y-90643300D01*
X86528842Y-90643300D01*
X86371158Y-90643300D01*
X86371155Y-90643300D01*
X86216510Y-90674061D01*
X86216498Y-90674064D01*
X86070827Y-90734402D01*
X86070814Y-90734409D01*
X85939711Y-90822010D01*
X85939707Y-90822013D01*
X85828213Y-90933507D01*
X85828210Y-90933511D01*
X85740609Y-91064614D01*
X85740602Y-91064627D01*
X85680264Y-91210298D01*
X85680261Y-91210310D01*
X85649500Y-91364953D01*
X84310925Y-91364953D01*
X84421789Y-91254089D01*
X84509394Y-91122979D01*
X84512719Y-91114953D01*
X84554137Y-91014958D01*
X84569737Y-90977297D01*
X84600500Y-90822642D01*
X84600500Y-90664958D01*
X84600500Y-90664955D01*
X84600499Y-90664953D01*
X84599573Y-90660298D01*
X84569737Y-90510303D01*
X84569167Y-90508927D01*
X84509397Y-90364627D01*
X84509389Y-90364612D01*
X84491067Y-90337192D01*
X84470188Y-90270515D01*
X84488672Y-90203134D01*
X84540650Y-90156444D01*
X84594168Y-90144300D01*
X92127098Y-90144300D01*
X92137912Y-90147475D01*
G37*
%TD.AperFunction*%
%TA.AperFunction,NonConductor*%
G36*
X85761595Y-97823011D02*
G01*
X85787917Y-97843085D01*
X86038181Y-98093348D01*
X86071666Y-98154671D01*
X86074500Y-98181029D01*
X86074500Y-100042718D01*
X86074500Y-100042720D01*
X86074499Y-100042720D01*
X86103340Y-100187707D01*
X86103343Y-100187717D01*
X86159913Y-100324290D01*
X86159914Y-100324291D01*
X86159916Y-100324295D01*
X86168287Y-100336823D01*
X86173282Y-100344298D01*
X86173283Y-100344301D01*
X86242046Y-100447214D01*
X86242052Y-100447221D01*
X86332016Y-100537185D01*
X86365501Y-100598508D01*
X86360517Y-100668200D01*
X86332016Y-100712547D01*
X86087582Y-100956982D01*
X86026262Y-100990466D01*
X85999903Y-100993300D01*
X85971155Y-100993300D01*
X85816510Y-101024061D01*
X85816498Y-101024064D01*
X85670827Y-101084402D01*
X85670814Y-101084409D01*
X85539711Y-101172010D01*
X85539707Y-101172013D01*
X85428213Y-101283507D01*
X85428210Y-101283511D01*
X85340609Y-101414614D01*
X85340602Y-101414627D01*
X85280264Y-101560298D01*
X85280261Y-101560310D01*
X85249500Y-101714953D01*
X85249500Y-101872646D01*
X85280261Y-102027289D01*
X85280264Y-102027301D01*
X85340602Y-102172972D01*
X85340609Y-102172985D01*
X85428210Y-102304088D01*
X85428213Y-102304092D01*
X85539707Y-102415586D01*
X85539711Y-102415589D01*
X85670814Y-102503190D01*
X85670827Y-102503197D01*
X85775758Y-102546660D01*
X85816503Y-102563537D01*
X85866066Y-102573395D01*
X85927974Y-102605779D01*
X85962549Y-102666494D01*
X85958810Y-102736263D01*
X85951782Y-102752423D01*
X85916090Y-102820752D01*
X85877732Y-102954809D01*
X85863341Y-103005106D01*
X85860114Y-103016383D01*
X85860113Y-103016386D01*
X85853448Y-103091354D01*
X85849621Y-103134409D01*
X85849500Y-103135766D01*
X85849500Y-104251828D01*
X85849501Y-104251834D01*
X85860113Y-104371215D01*
X85916089Y-104566845D01*
X85916090Y-104566847D01*
X85916091Y-104566849D01*
X86010302Y-104747207D01*
X86010304Y-104747209D01*
X86138890Y-104904909D01*
X86199209Y-104954092D01*
X86296593Y-105033498D01*
X86476951Y-105127709D01*
X86672582Y-105183686D01*
X86791963Y-105194300D01*
X88425500Y-105194299D01*
X88492539Y-105213984D01*
X88538294Y-105266787D01*
X88549500Y-105318299D01*
X88549500Y-105472646D01*
X88580261Y-105627289D01*
X88580264Y-105627301D01*
X88640602Y-105772972D01*
X88640609Y-105772985D01*
X88728210Y-105904088D01*
X88728213Y-105904092D01*
X88839707Y-106015586D01*
X88839711Y-106015589D01*
X88970814Y-106103190D01*
X88970827Y-106103197D01*
X89053933Y-106137620D01*
X89116503Y-106163537D01*
X89271158Y-106194300D01*
X89276427Y-106195348D01*
X89338338Y-106227733D01*
X89372912Y-106288448D01*
X89369173Y-106358218D01*
X89339917Y-106404646D01*
X87881286Y-107863278D01*
X87769481Y-107975082D01*
X87769479Y-107975085D01*
X87724385Y-108053192D01*
X87724384Y-108053193D01*
X87690423Y-108112014D01*
X87690423Y-108112015D01*
X87649499Y-108264743D01*
X87649499Y-108264745D01*
X87649499Y-108426884D01*
X87629814Y-108493923D01*
X87577010Y-108539678D01*
X87572889Y-108541374D01*
X87400707Y-108626767D01*
X87400704Y-108626769D01*
X87252278Y-108746077D01*
X87252277Y-108746078D01*
X87196647Y-108815286D01*
X87139304Y-108855205D01*
X87069482Y-108857785D01*
X87009349Y-108822206D01*
X87003353Y-108815286D01*
X86947722Y-108746078D01*
X86947721Y-108746077D01*
X86799295Y-108626769D01*
X86799292Y-108626767D01*
X86628697Y-108542160D01*
X86443892Y-108496200D01*
X86422506Y-108494750D01*
X86401123Y-108493300D01*
X86401120Y-108493300D01*
X85498877Y-108493300D01*
X85498874Y-108493301D01*
X85456113Y-108496199D01*
X85456112Y-108496199D01*
X85271303Y-108542160D01*
X85100707Y-108626767D01*
X85100704Y-108626769D01*
X84952278Y-108746077D01*
X84952277Y-108746078D01*
X84832969Y-108894504D01*
X84832967Y-108894507D01*
X84748360Y-109065102D01*
X84702399Y-109249915D01*
X84702147Y-109251520D01*
X84701836Y-109252177D01*
X84701082Y-109255211D01*
X84700474Y-109255059D01*
X84672300Y-109314694D01*
X84613036Y-109351702D01*
X84543173Y-109350796D01*
X84491965Y-109319961D01*
X84485687Y-109313683D01*
X84485686Y-109313682D01*
X84485684Y-109313681D01*
X84377854Y-109249911D01*
X84346395Y-109231306D01*
X84346394Y-109231305D01*
X84346393Y-109231305D01*
X84346390Y-109231304D01*
X84190997Y-109186157D01*
X84190991Y-109186156D01*
X84154697Y-109183300D01*
X84154690Y-109183300D01*
X83745310Y-109183300D01*
X83745302Y-109183300D01*
X83709008Y-109186156D01*
X83709002Y-109186157D01*
X83553608Y-109231304D01*
X83553602Y-109231306D01*
X83533120Y-109243420D01*
X83465396Y-109260601D01*
X83406880Y-109243420D01*
X83386397Y-109231306D01*
X83386391Y-109231304D01*
X83230997Y-109186157D01*
X83230991Y-109186156D01*
X83194697Y-109183300D01*
X83194690Y-109183300D01*
X82785310Y-109183300D01*
X82785302Y-109183300D01*
X82749008Y-109186156D01*
X82749002Y-109186157D01*
X82646777Y-109215857D01*
X82576907Y-109215658D01*
X82518237Y-109177716D01*
X82489394Y-109114077D01*
X82490565Y-109072589D01*
X82500500Y-109022644D01*
X82500500Y-108864955D01*
X82500499Y-108864953D01*
X82491996Y-108822206D01*
X82469737Y-108710303D01*
X82435137Y-108626770D01*
X82409397Y-108564627D01*
X82409390Y-108564614D01*
X82321789Y-108433511D01*
X82321786Y-108433507D01*
X82210292Y-108322013D01*
X82210288Y-108322010D01*
X82079185Y-108234409D01*
X82079172Y-108234402D01*
X81933501Y-108174064D01*
X81933489Y-108174061D01*
X81778845Y-108143300D01*
X81778842Y-108143300D01*
X81745908Y-108143300D01*
X81678869Y-108123615D01*
X81640363Y-108079528D01*
X81638605Y-108080613D01*
X81634812Y-108074463D01*
X81542712Y-107925144D01*
X81424049Y-107806481D01*
X81390564Y-107745158D01*
X81395548Y-107675466D01*
X81424049Y-107631119D01*
X81480715Y-107574453D01*
X81542712Y-107512456D01*
X81634814Y-107363134D01*
X81669036Y-107259858D01*
X81708807Y-107202415D01*
X81718563Y-107195289D01*
X81728401Y-107188812D01*
X81773180Y-107170265D01*
X81776377Y-107168129D01*
X81781130Y-107164953D01*
X83699500Y-107164953D01*
X83699500Y-107322646D01*
X83730261Y-107477289D01*
X83730264Y-107477301D01*
X83790602Y-107622972D01*
X83790609Y-107622985D01*
X83878210Y-107754088D01*
X83878213Y-107754092D01*
X83989707Y-107865586D01*
X83989711Y-107865589D01*
X84120814Y-107953190D01*
X84120827Y-107953197D01*
X84266498Y-108013535D01*
X84266503Y-108013537D01*
X84421153Y-108044299D01*
X84421156Y-108044300D01*
X84421158Y-108044300D01*
X84578844Y-108044300D01*
X84578845Y-108044299D01*
X84733497Y-108013537D01*
X84879179Y-107953194D01*
X85010289Y-107865589D01*
X85121789Y-107754089D01*
X85209394Y-107622979D01*
X85269737Y-107477297D01*
X85300500Y-107322642D01*
X85300500Y-107164958D01*
X85300500Y-107164955D01*
X85300499Y-107164953D01*
X85280543Y-107064627D01*
X85269737Y-107010303D01*
X85253676Y-106971527D01*
X85209397Y-106864627D01*
X85209390Y-106864614D01*
X85121789Y-106733511D01*
X85121786Y-106733507D01*
X85010292Y-106622013D01*
X85010288Y-106622010D01*
X84879185Y-106534409D01*
X84879172Y-106534402D01*
X84733501Y-106474064D01*
X84733489Y-106474061D01*
X84578845Y-106443300D01*
X84578842Y-106443300D01*
X84421158Y-106443300D01*
X84421155Y-106443300D01*
X84266510Y-106474061D01*
X84266498Y-106474064D01*
X84120827Y-106534402D01*
X84120814Y-106534409D01*
X83989711Y-106622010D01*
X83989707Y-106622013D01*
X83878213Y-106733507D01*
X83878210Y-106733511D01*
X83790609Y-106864614D01*
X83790602Y-106864627D01*
X83730264Y-107010298D01*
X83730261Y-107010310D01*
X83699500Y-107164953D01*
X81781130Y-107164953D01*
X81879722Y-107099077D01*
X81908598Y-107070199D01*
X81919155Y-107063251D01*
X81940960Y-107056588D01*
X81960970Y-107045661D01*
X81963040Y-107045229D01*
X82030220Y-107031867D01*
X82175902Y-106971524D01*
X82307012Y-106883919D01*
X82418512Y-106772419D01*
X82506117Y-106641309D01*
X82566460Y-106495627D01*
X82597223Y-106340972D01*
X82597223Y-106183288D01*
X82597223Y-106183285D01*
X82597222Y-106183283D01*
X82573167Y-106062352D01*
X82566460Y-106028633D01*
X82561056Y-106015586D01*
X82506120Y-105882957D01*
X82506113Y-105882944D01*
X82418512Y-105751841D01*
X82418509Y-105751837D01*
X82307015Y-105640343D01*
X82307011Y-105640340D01*
X82175908Y-105552739D01*
X82175895Y-105552732D01*
X82030224Y-105492394D01*
X82030215Y-105492392D01*
X81942318Y-105474907D01*
X81880408Y-105442521D01*
X81845834Y-105381805D01*
X81849575Y-105312036D01*
X81890442Y-105255364D01*
X81942316Y-105231674D01*
X82033497Y-105213537D01*
X82146166Y-105166867D01*
X82179172Y-105153197D01*
X82179172Y-105153196D01*
X82179179Y-105153194D01*
X82310289Y-105065589D01*
X82421789Y-104954089D01*
X82509394Y-104822979D01*
X82569737Y-104677297D01*
X82600500Y-104522642D01*
X82600500Y-104448300D01*
X82620185Y-104381261D01*
X82672989Y-104335506D01*
X82724500Y-104324300D01*
X82873543Y-104324300D01*
X83003582Y-104298432D01*
X83066835Y-104285851D01*
X83248914Y-104210432D01*
X83412782Y-104100939D01*
X83552139Y-103961582D01*
X83661632Y-103797714D01*
X83737051Y-103615635D01*
X83767090Y-103464621D01*
X83775500Y-103422343D01*
X83775500Y-103225256D01*
X83737052Y-103031970D01*
X83737051Y-103031969D01*
X83737051Y-103031965D01*
X83737049Y-103031960D01*
X83661635Y-102849892D01*
X83661628Y-102849879D01*
X83552139Y-102686018D01*
X83552136Y-102686014D01*
X83412785Y-102546663D01*
X83412781Y-102546660D01*
X83248920Y-102437171D01*
X83248907Y-102437164D01*
X83066839Y-102361750D01*
X83066829Y-102361747D01*
X82873543Y-102323300D01*
X82873541Y-102323300D01*
X81876459Y-102323300D01*
X81876454Y-102323300D01*
X81797691Y-102338967D01*
X81728099Y-102332740D01*
X81672922Y-102289877D01*
X81649678Y-102223987D01*
X81649500Y-102217350D01*
X81649500Y-100211846D01*
X81669185Y-100144807D01*
X81721989Y-100099052D01*
X81749309Y-100090229D01*
X81778848Y-100084352D01*
X81883497Y-100063537D01*
X82029179Y-100003194D01*
X82117817Y-99943968D01*
X82160875Y-99915198D01*
X82227553Y-99894320D01*
X82229766Y-99894300D01*
X83563331Y-99894300D01*
X83563347Y-99894301D01*
X83570943Y-99894301D01*
X83729054Y-99894301D01*
X83729057Y-99894301D01*
X83881785Y-99853377D01*
X83948328Y-99814958D01*
X83954926Y-99811149D01*
X84018709Y-99774324D01*
X84018708Y-99774324D01*
X84018716Y-99774320D01*
X84130520Y-99662516D01*
X84130520Y-99662514D01*
X84140724Y-99652311D01*
X84140727Y-99652306D01*
X84814665Y-98978370D01*
X84875984Y-98944888D01*
X84878151Y-98944437D01*
X84878840Y-98944300D01*
X84878842Y-98944300D01*
X85033497Y-98913537D01*
X85179179Y-98853194D01*
X85310289Y-98765589D01*
X85421789Y-98654089D01*
X85509394Y-98522979D01*
X85569737Y-98377297D01*
X85600500Y-98222642D01*
X85600500Y-98064958D01*
X85600500Y-98064955D01*
X85584847Y-97986268D01*
X85578619Y-97954956D01*
X85584846Y-97885367D01*
X85627708Y-97830189D01*
X85693598Y-97806944D01*
X85761595Y-97823011D01*
G37*
%TD.AperFunction*%
%TA.AperFunction,NonConductor*%
G36*
X81169383Y-110046784D02*
G01*
X81220268Y-110094664D01*
X81237188Y-110162454D01*
X81233067Y-110189466D01*
X81209020Y-110279208D01*
X81180933Y-110327864D01*
X81182076Y-110328802D01*
X81178210Y-110333512D01*
X81090609Y-110464615D01*
X81090602Y-110464627D01*
X81030264Y-110610298D01*
X81030261Y-110610310D01*
X80999500Y-110764953D01*
X80999500Y-110922646D01*
X81030261Y-111077289D01*
X81030264Y-111077301D01*
X81090602Y-111222972D01*
X81090609Y-111222985D01*
X81132625Y-111285866D01*
X81153503Y-111352544D01*
X81135018Y-111419924D01*
X81132626Y-111423646D01*
X81088373Y-111489877D01*
X81088364Y-111489893D01*
X81012950Y-111671960D01*
X81012947Y-111671970D01*
X80974500Y-111865256D01*
X80974500Y-111865259D01*
X80974500Y-112062341D01*
X80974500Y-112062343D01*
X80974499Y-112062343D01*
X81012947Y-112255629D01*
X81012950Y-112255639D01*
X81088364Y-112437707D01*
X81088371Y-112437720D01*
X81197860Y-112601581D01*
X81197863Y-112601585D01*
X81337214Y-112740936D01*
X81337218Y-112740939D01*
X81501079Y-112850428D01*
X81501092Y-112850435D01*
X81621952Y-112900496D01*
X81683165Y-112925851D01*
X81683169Y-112925851D01*
X81683170Y-112925852D01*
X81876456Y-112964300D01*
X81876459Y-112964300D01*
X82873543Y-112964300D01*
X83003582Y-112938432D01*
X83066835Y-112925851D01*
X83248914Y-112850432D01*
X83412782Y-112740939D01*
X83552139Y-112601582D01*
X83661632Y-112437714D01*
X83737051Y-112255635D01*
X83755371Y-112163537D01*
X83775500Y-112062343D01*
X83775500Y-111865256D01*
X83737052Y-111671970D01*
X83737051Y-111671969D01*
X83737051Y-111671965D01*
X83725178Y-111643300D01*
X83661635Y-111489892D01*
X83661628Y-111489879D01*
X83552139Y-111326018D01*
X83552136Y-111326014D01*
X83412785Y-111186663D01*
X83412781Y-111186660D01*
X83248920Y-111077171D01*
X83248911Y-111077166D01*
X83163857Y-111041936D01*
X83109454Y-110998095D01*
X83087389Y-110931801D01*
X83104668Y-110864101D01*
X83155806Y-110816491D01*
X83201581Y-110803757D01*
X83230993Y-110801443D01*
X83230995Y-110801442D01*
X83230997Y-110801442D01*
X83332297Y-110772011D01*
X83386395Y-110756294D01*
X83406879Y-110744179D01*
X83474601Y-110726996D01*
X83533119Y-110744179D01*
X83553605Y-110756294D01*
X83553607Y-110756294D01*
X83553608Y-110756295D01*
X83709002Y-110801442D01*
X83709005Y-110801442D01*
X83709007Y-110801443D01*
X83745310Y-110804300D01*
X83745318Y-110804300D01*
X84154682Y-110804300D01*
X84154690Y-110804300D01*
X84190993Y-110801443D01*
X84190995Y-110801442D01*
X84190997Y-110801442D01*
X84292297Y-110772011D01*
X84346395Y-110756294D01*
X84485687Y-110673917D01*
X84491965Y-110667638D01*
X84553285Y-110634153D01*
X84622977Y-110639134D01*
X84678912Y-110681003D01*
X84700636Y-110732499D01*
X84701082Y-110732389D01*
X84701788Y-110735231D01*
X84702146Y-110736078D01*
X84702397Y-110737677D01*
X84702400Y-110737689D01*
X84745884Y-110912542D01*
X84748360Y-110922496D01*
X84832967Y-111093092D01*
X84832969Y-111093095D01*
X84937378Y-111222985D01*
X84952278Y-111241522D01*
X85003187Y-111282443D01*
X85043106Y-111339785D01*
X85049500Y-111379090D01*
X85049500Y-111932496D01*
X85083454Y-112103194D01*
X85084105Y-112106466D01*
X85107745Y-112163537D01*
X85151987Y-112270347D01*
X85209085Y-112355800D01*
X85212646Y-112361130D01*
X85212647Y-112361131D01*
X85250537Y-112417838D01*
X86175960Y-113343261D01*
X86175964Y-113343264D01*
X86323446Y-113441809D01*
X86323452Y-113441812D01*
X86323453Y-113441813D01*
X86487334Y-113509695D01*
X86646271Y-113541309D01*
X86661303Y-113544299D01*
X86661307Y-113544300D01*
X86661308Y-113544300D01*
X86838693Y-113544300D01*
X86838694Y-113544299D01*
X87012666Y-113509695D01*
X87176547Y-113441813D01*
X87324036Y-113343264D01*
X87402023Y-113265276D01*
X87463344Y-113231793D01*
X87533036Y-113236777D01*
X87585979Y-113274812D01*
X87591761Y-113281935D01*
X87619883Y-113329487D01*
X87675513Y-113385117D01*
X87679565Y-113390109D01*
X87687696Y-113409545D01*
X87703064Y-113436162D01*
X87740423Y-113575585D01*
X87764526Y-113617331D01*
X87764527Y-113617335D01*
X87819475Y-113712509D01*
X87819481Y-113712517D01*
X87938349Y-113831385D01*
X87938355Y-113831390D01*
X88065139Y-113958174D01*
X88065149Y-113958185D01*
X88069479Y-113962515D01*
X88069480Y-113962516D01*
X88181284Y-114074320D01*
X88181286Y-114074321D01*
X88181287Y-114074322D01*
X88190235Y-114079488D01*
X88238452Y-114130054D01*
X88251676Y-114198661D01*
X88242798Y-114234328D01*
X88180264Y-114385298D01*
X88180261Y-114385310D01*
X88149500Y-114539953D01*
X88149500Y-114697646D01*
X88180261Y-114852289D01*
X88180264Y-114852301D01*
X88240061Y-114996664D01*
X88241687Y-115004840D01*
X88244477Y-115009181D01*
X88249500Y-115044116D01*
X88249500Y-115127280D01*
X88229815Y-115194319D01*
X88213181Y-115214961D01*
X87995888Y-115432253D01*
X87995887Y-115432254D01*
X87919224Y-115546990D01*
X87914350Y-115558757D01*
X87870507Y-115613159D01*
X87804212Y-115635222D01*
X87736513Y-115617941D01*
X87730903Y-115614406D01*
X87723422Y-115609408D01*
X87723410Y-115609401D01*
X87577739Y-115549063D01*
X87577727Y-115549060D01*
X87423083Y-115518299D01*
X87423080Y-115518299D01*
X87265396Y-115518299D01*
X87265393Y-115518299D01*
X87110748Y-115549060D01*
X87110736Y-115549063D01*
X86965065Y-115609401D01*
X86965052Y-115609408D01*
X86833949Y-115697009D01*
X86833945Y-115697012D01*
X86741233Y-115789725D01*
X86679910Y-115823210D01*
X86610218Y-115818226D01*
X86565871Y-115789725D01*
X86264674Y-115488527D01*
X86264673Y-115488526D01*
X86264669Y-115488523D01*
X86158127Y-115417335D01*
X86149800Y-115413886D01*
X86039744Y-115368299D01*
X86015804Y-115363537D01*
X86008314Y-115362047D01*
X85914071Y-115343300D01*
X85914069Y-115343300D01*
X83623203Y-115343300D01*
X83556164Y-115323615D01*
X83510409Y-115270811D01*
X83500465Y-115201653D01*
X83520101Y-115150409D01*
X83596890Y-115035485D01*
X83596891Y-115035483D01*
X83596894Y-115035479D01*
X83657237Y-114889797D01*
X83688000Y-114735142D01*
X83688000Y-114577458D01*
X83688000Y-114577455D01*
X83687999Y-114577453D01*
X83685231Y-114563537D01*
X83657237Y-114422803D01*
X83654087Y-114415198D01*
X83596897Y-114277127D01*
X83596890Y-114277114D01*
X83509289Y-114146011D01*
X83509286Y-114146007D01*
X83397792Y-114034513D01*
X83397788Y-114034510D01*
X83266685Y-113946909D01*
X83266672Y-113946902D01*
X83121001Y-113886564D01*
X83120989Y-113886561D01*
X82966345Y-113855800D01*
X82966342Y-113855800D01*
X82808658Y-113855800D01*
X82808655Y-113855800D01*
X82654010Y-113886561D01*
X82653998Y-113886564D01*
X82508327Y-113946902D01*
X82508314Y-113946909D01*
X82377211Y-114034510D01*
X82377207Y-114034513D01*
X82265713Y-114146007D01*
X82265710Y-114146011D01*
X82178109Y-114277114D01*
X82178102Y-114277127D01*
X82117764Y-114422798D01*
X82117761Y-114422810D01*
X82087000Y-114577453D01*
X82087000Y-114735146D01*
X82117761Y-114889789D01*
X82117764Y-114889801D01*
X82178102Y-115035472D01*
X82178108Y-115035483D01*
X82201178Y-115070010D01*
X82222055Y-115136688D01*
X82203570Y-115204068D01*
X82151590Y-115250757D01*
X82145528Y-115253461D01*
X82070824Y-115284404D01*
X82070814Y-115284409D01*
X81939711Y-115372010D01*
X81939707Y-115372013D01*
X81828213Y-115483507D01*
X81828210Y-115483511D01*
X81740609Y-115614614D01*
X81740602Y-115614627D01*
X81680264Y-115760298D01*
X81680261Y-115760310D01*
X81649500Y-115914953D01*
X81649500Y-116072646D01*
X81680261Y-116227289D01*
X81680264Y-116227301D01*
X81701284Y-116278048D01*
X81702267Y-116287199D01*
X81706946Y-116295128D01*
X81705943Y-116321387D01*
X81708753Y-116347518D01*
X81704632Y-116355750D01*
X81704281Y-116364947D01*
X81689241Y-116386496D01*
X81677477Y-116409997D01*
X81668500Y-116416212D01*
X81664293Y-116422242D01*
X81646262Y-116431612D01*
X81633895Y-116440177D01*
X81627719Y-116442717D01*
X81530607Y-116470931D01*
X81465435Y-116509472D01*
X81457172Y-116512872D01*
X81430946Y-116515626D01*
X81405395Y-116522109D01*
X81395867Y-116519311D01*
X81387685Y-116520171D01*
X81372152Y-116512348D01*
X81346881Y-116504928D01*
X81289395Y-116470932D01*
X81289388Y-116470929D01*
X81135208Y-116426135D01*
X81135202Y-116426134D01*
X81099181Y-116423300D01*
X80700830Y-116423300D01*
X80700808Y-116423301D01*
X80664797Y-116426134D01*
X80609094Y-116442318D01*
X80539225Y-116442118D01*
X80480555Y-116404175D01*
X80451712Y-116340537D01*
X80450500Y-116323241D01*
X80450500Y-111297643D01*
X80449335Y-111293296D01*
X80449334Y-111293292D01*
X80435462Y-111241521D01*
X80430494Y-111222979D01*
X80409577Y-111144916D01*
X80389977Y-111110968D01*
X80330524Y-111007990D01*
X80330521Y-111007986D01*
X80330520Y-111007984D01*
X80236818Y-110914282D01*
X80203334Y-110852958D01*
X80200500Y-110826601D01*
X80200500Y-110168299D01*
X80220185Y-110101260D01*
X80272989Y-110055505D01*
X80324500Y-110044299D01*
X81000002Y-110044299D01*
X81000008Y-110044299D01*
X81100690Y-110034014D01*
X81169383Y-110046784D01*
G37*
%TD.AperFunction*%
%TA.AperFunction,NonConductor*%
G36*
X77421950Y-112900495D02*
G01*
X77483165Y-112925851D01*
X77483169Y-112925851D01*
X77483170Y-112925852D01*
X77676456Y-112964300D01*
X77676459Y-112964300D01*
X79073542Y-112964300D01*
X79101308Y-112958777D01*
X79170899Y-112965004D01*
X79226077Y-113007866D01*
X79249322Y-113073756D01*
X79249500Y-113080394D01*
X79249500Y-116343759D01*
X79229815Y-116410798D01*
X79213181Y-116431440D01*
X79018481Y-116626139D01*
X79018479Y-116626141D01*
X78996631Y-116663985D01*
X78981414Y-116690342D01*
X78939423Y-116763072D01*
X78898499Y-116915800D01*
X78898499Y-116915802D01*
X78898499Y-117083903D01*
X78898500Y-117083916D01*
X78898500Y-125106470D01*
X78898499Y-125106488D01*
X78898499Y-125272194D01*
X78898498Y-125272194D01*
X78939423Y-125424925D01*
X78968358Y-125475040D01*
X78968359Y-125475044D01*
X78968360Y-125475044D01*
X79017587Y-125560310D01*
X79018479Y-125561854D01*
X79018481Y-125561857D01*
X79137349Y-125680725D01*
X79137354Y-125680729D01*
X80531944Y-127075320D01*
X80531946Y-127075321D01*
X80531950Y-127075324D01*
X80633561Y-127133988D01*
X80668876Y-127154377D01*
X80821603Y-127195301D01*
X80821605Y-127195301D01*
X80987314Y-127195301D01*
X80987330Y-127195300D01*
X86162331Y-127195300D01*
X86162347Y-127195301D01*
X86169943Y-127195301D01*
X86328054Y-127195301D01*
X86328057Y-127195301D01*
X86480785Y-127154377D01*
X86530904Y-127125439D01*
X86617716Y-127075320D01*
X86729520Y-126963516D01*
X86729520Y-126963514D01*
X86739728Y-126953307D01*
X86739729Y-126953304D01*
X91112416Y-122580619D01*
X91173739Y-122547134D01*
X91200097Y-122544300D01*
X91795501Y-122544300D01*
X91862540Y-122563985D01*
X91908295Y-122616789D01*
X91919501Y-122668300D01*
X91919501Y-123581676D01*
X91925908Y-123641283D01*
X91976202Y-123776128D01*
X91976206Y-123776135D01*
X92036278Y-123856380D01*
X92062454Y-123891346D01*
X92149811Y-123956742D01*
X92191682Y-124012675D01*
X92199500Y-124056008D01*
X92199500Y-124122646D01*
X92230261Y-124277289D01*
X92230264Y-124277301D01*
X92290602Y-124422972D01*
X92290609Y-124422985D01*
X92378210Y-124554088D01*
X92378213Y-124554092D01*
X92489707Y-124665586D01*
X92489711Y-124665589D01*
X92620814Y-124753190D01*
X92620827Y-124753197D01*
X92766498Y-124813535D01*
X92766503Y-124813537D01*
X92921153Y-124844299D01*
X92921156Y-124844300D01*
X92921158Y-124844300D01*
X93078844Y-124844300D01*
X93078845Y-124844299D01*
X93233497Y-124813537D01*
X93289120Y-124790497D01*
X93384808Y-124750863D01*
X93385426Y-124752356D01*
X93446155Y-124739703D01*
X93511402Y-124764694D01*
X93552781Y-124820993D01*
X93557153Y-124890726D01*
X93550785Y-124910755D01*
X93530264Y-124960298D01*
X93530261Y-124960310D01*
X93499500Y-125114953D01*
X93499500Y-125272646D01*
X93530261Y-125427289D01*
X93530264Y-125427301D01*
X93590602Y-125572972D01*
X93590609Y-125572985D01*
X93678210Y-125704088D01*
X93678213Y-125704092D01*
X93789707Y-125815586D01*
X93789711Y-125815589D01*
X93920814Y-125903190D01*
X93920827Y-125903197D01*
X94066498Y-125963535D01*
X94066503Y-125963537D01*
X94206911Y-125991466D01*
X94221153Y-125994299D01*
X94221156Y-125994300D01*
X94221158Y-125994300D01*
X94378844Y-125994300D01*
X94378845Y-125994299D01*
X94533497Y-125963537D01*
X94679179Y-125903194D01*
X94736044Y-125865197D01*
X94802721Y-125844320D01*
X94804935Y-125844300D01*
X98145065Y-125844300D01*
X98212104Y-125863985D01*
X98213909Y-125865166D01*
X98270821Y-125903194D01*
X98270823Y-125903195D01*
X98270827Y-125903197D01*
X98416498Y-125963535D01*
X98416503Y-125963537D01*
X98556911Y-125991466D01*
X98571153Y-125994299D01*
X98571156Y-125994300D01*
X98571158Y-125994300D01*
X98728844Y-125994300D01*
X98728845Y-125994299D01*
X98883497Y-125963537D01*
X99029179Y-125903194D01*
X99160289Y-125815589D01*
X99271789Y-125704089D01*
X99359394Y-125572979D01*
X99419737Y-125427297D01*
X99450500Y-125272642D01*
X99450500Y-125114958D01*
X99450500Y-125114955D01*
X99450499Y-125114953D01*
X99429343Y-125008596D01*
X99419737Y-124960303D01*
X99419735Y-124960298D01*
X99359397Y-124814627D01*
X99359390Y-124814614D01*
X99271789Y-124683511D01*
X99271786Y-124683507D01*
X99160292Y-124572013D01*
X99160288Y-124572010D01*
X99029185Y-124484409D01*
X99029172Y-124484402D01*
X98883501Y-124424064D01*
X98883489Y-124424061D01*
X98728845Y-124393300D01*
X98728842Y-124393300D01*
X98571158Y-124393300D01*
X98571155Y-124393300D01*
X98416510Y-124424061D01*
X98416498Y-124424064D01*
X98270827Y-124484402D01*
X98270820Y-124484406D01*
X98245796Y-124501127D01*
X98213955Y-124522402D01*
X98147279Y-124543280D01*
X98145065Y-124543300D01*
X94804935Y-124543300D01*
X94737896Y-124523615D01*
X94736090Y-124522433D01*
X94679179Y-124484406D01*
X94679172Y-124484402D01*
X94533501Y-124424064D01*
X94533489Y-124424061D01*
X94378845Y-124393300D01*
X94378842Y-124393300D01*
X94221158Y-124393300D01*
X94221155Y-124393300D01*
X94066510Y-124424061D01*
X94066498Y-124424064D01*
X93915192Y-124486737D01*
X93914575Y-124485249D01*
X93853807Y-124497893D01*
X93788567Y-124472882D01*
X93747205Y-124416571D01*
X93742854Y-124346837D01*
X93749215Y-124326841D01*
X93769737Y-124277297D01*
X93783747Y-124206864D01*
X93798220Y-124134107D01*
X93830605Y-124072196D01*
X93891321Y-124037622D01*
X93919837Y-124034299D01*
X95647871Y-124034299D01*
X95647872Y-124034299D01*
X95707483Y-124027891D01*
X95842331Y-123977596D01*
X95957546Y-123891346D01*
X96043796Y-123776131D01*
X96094091Y-123641283D01*
X96100500Y-123581673D01*
X96100499Y-120305928D01*
X96094091Y-120246317D01*
X96094090Y-120246315D01*
X96043797Y-120111471D01*
X96043793Y-120111464D01*
X95957547Y-119996255D01*
X95948354Y-119989373D01*
X95928551Y-119962918D01*
X95907924Y-119937120D01*
X95907712Y-119935080D01*
X95906483Y-119933438D01*
X95904125Y-119900463D01*
X95900722Y-119867623D01*
X95901646Y-119865793D01*
X95901500Y-119863747D01*
X95917344Y-119834731D01*
X95932236Y-119805264D01*
X95934162Y-119803931D01*
X95934986Y-119802424D01*
X95959802Y-119783223D01*
X95967231Y-119778853D01*
X96029179Y-119753194D01*
X96160289Y-119665589D01*
X96160977Y-119664900D01*
X96166902Y-119661416D01*
X96197479Y-119653736D01*
X96227553Y-119644320D01*
X96229766Y-119644300D01*
X97599903Y-119644300D01*
X97666942Y-119663985D01*
X97687584Y-119680619D01*
X98115425Y-120108460D01*
X98148910Y-120169783D01*
X98149361Y-120171949D01*
X98180261Y-120327291D01*
X98180264Y-120327301D01*
X98240602Y-120472972D01*
X98240609Y-120472985D01*
X98328210Y-120604088D01*
X98328213Y-120604092D01*
X98439707Y-120715586D01*
X98439711Y-120715589D01*
X98570814Y-120803190D01*
X98570827Y-120803197D01*
X98716498Y-120863535D01*
X98716503Y-120863537D01*
X98871153Y-120894299D01*
X98871156Y-120894300D01*
X98871158Y-120894300D01*
X99028844Y-120894300D01*
X99028845Y-120894299D01*
X99183497Y-120863537D01*
X99228050Y-120845082D01*
X99297515Y-120837614D01*
X99359995Y-120868888D01*
X99395648Y-120928977D01*
X99399500Y-120959644D01*
X99399500Y-123971670D01*
X99399501Y-123971676D01*
X99405908Y-124031283D01*
X99456202Y-124166128D01*
X99456206Y-124166135D01*
X99542452Y-124281344D01*
X99542455Y-124281347D01*
X99657664Y-124367593D01*
X99657671Y-124367597D01*
X99702618Y-124384361D01*
X99792517Y-124417891D01*
X99852127Y-124424300D01*
X100102378Y-124424299D01*
X100169417Y-124443983D01*
X100182714Y-124453842D01*
X100204783Y-124472614D01*
X100238536Y-124501324D01*
X100238537Y-124501324D01*
X100238538Y-124501325D01*
X100369959Y-124559892D01*
X100437177Y-124578961D01*
X100437178Y-124578961D01*
X100437180Y-124578961D01*
X100437183Y-124578962D01*
X100444857Y-124580029D01*
X100445398Y-124580066D01*
X100579775Y-124598130D01*
X104128496Y-124565572D01*
X104195713Y-124584641D01*
X104241950Y-124637023D01*
X104252528Y-124706087D01*
X104224087Y-124769907D01*
X104217314Y-124777248D01*
X102737584Y-126256981D01*
X102710656Y-126271684D01*
X102684838Y-126288277D01*
X102678637Y-126289168D01*
X102676261Y-126290466D01*
X102649903Y-126293300D01*
X102495134Y-126293300D01*
X102428095Y-126273615D01*
X102382340Y-126220811D01*
X102372396Y-126151653D01*
X102380573Y-126121847D01*
X102396232Y-126084043D01*
X102419737Y-126027297D01*
X102450500Y-125872642D01*
X102450500Y-125714958D01*
X102450500Y-125714955D01*
X102450499Y-125714953D01*
X102443906Y-125681806D01*
X102419737Y-125560303D01*
X102384422Y-125475044D01*
X102359397Y-125414627D01*
X102359390Y-125414614D01*
X102271789Y-125283511D01*
X102271786Y-125283507D01*
X102160292Y-125172013D01*
X102160288Y-125172010D01*
X102029185Y-125084409D01*
X102029172Y-125084402D01*
X101883501Y-125024064D01*
X101883489Y-125024061D01*
X101728845Y-124993300D01*
X101728842Y-124993300D01*
X101571158Y-124993300D01*
X101571155Y-124993300D01*
X101416510Y-125024061D01*
X101416498Y-125024064D01*
X101270827Y-125084402D01*
X101270814Y-125084409D01*
X101139711Y-125172010D01*
X101139707Y-125172013D01*
X101028213Y-125283507D01*
X101028210Y-125283511D01*
X100940609Y-125414614D01*
X100940602Y-125414627D01*
X100880264Y-125560298D01*
X100880261Y-125560310D01*
X100849500Y-125714953D01*
X100849500Y-125872646D01*
X100880261Y-126027289D01*
X100880263Y-126027297D01*
X100919427Y-126121847D01*
X100926896Y-126191317D01*
X100895621Y-126253796D01*
X100835532Y-126289448D01*
X100804866Y-126293300D01*
X93676006Y-126293300D01*
X93608967Y-126273615D01*
X93563212Y-126220811D01*
X93561444Y-126216751D01*
X93553701Y-126198057D01*
X93553697Y-126198049D01*
X93487879Y-126084050D01*
X93487875Y-126084043D01*
X93473230Y-126064958D01*
X93407544Y-125979355D01*
X93407541Y-125979351D01*
X93314449Y-125886259D01*
X93314444Y-125886255D01*
X93209767Y-125805932D01*
X93209749Y-125805920D01*
X93095751Y-125740103D01*
X93095750Y-125740102D01*
X92973829Y-125689600D01*
X92881089Y-125664750D01*
X92846662Y-125655525D01*
X92846661Y-125655524D01*
X92846658Y-125655524D01*
X92715833Y-125638300D01*
X92715826Y-125638300D01*
X92150000Y-125638300D01*
X92149997Y-125638300D01*
X92078061Y-125643444D01*
X92078056Y-125643445D01*
X92040735Y-125654403D01*
X91988158Y-125658163D01*
X91850001Y-125638300D01*
X91850000Y-125638300D01*
X91284174Y-125638300D01*
X91284166Y-125638300D01*
X91153338Y-125655525D01*
X91055255Y-125681806D01*
X90985405Y-125680143D01*
X90927543Y-125640980D01*
X90923887Y-125636067D01*
X90921786Y-125633507D01*
X90810292Y-125522013D01*
X90810288Y-125522010D01*
X90679185Y-125434409D01*
X90679172Y-125434402D01*
X90533501Y-125374064D01*
X90533489Y-125374061D01*
X90378845Y-125343300D01*
X90378842Y-125343300D01*
X90221158Y-125343300D01*
X90221155Y-125343300D01*
X90066510Y-125374061D01*
X90066498Y-125374064D01*
X89920827Y-125434402D01*
X89920814Y-125434409D01*
X89789711Y-125522010D01*
X89789707Y-125522013D01*
X89678213Y-125633507D01*
X89678210Y-125633511D01*
X89590609Y-125764614D01*
X89590602Y-125764627D01*
X89530264Y-125910298D01*
X89530261Y-125910310D01*
X89499500Y-126064953D01*
X89499500Y-126222646D01*
X89530261Y-126377289D01*
X89530264Y-126377301D01*
X89590602Y-126522971D01*
X89590608Y-126522982D01*
X89595397Y-126530149D01*
X89616274Y-126596827D01*
X89597789Y-126664207D01*
X89595396Y-126667929D01*
X89553112Y-126731211D01*
X89553102Y-126731229D01*
X89492764Y-126876900D01*
X89492761Y-126876912D01*
X89462000Y-127031555D01*
X89462000Y-127189248D01*
X89492761Y-127343891D01*
X89492764Y-127343903D01*
X89553102Y-127489574D01*
X89553109Y-127489587D01*
X89640710Y-127620690D01*
X89640713Y-127620694D01*
X89752207Y-127732188D01*
X89752211Y-127732191D01*
X89883314Y-127819792D01*
X89883327Y-127819799D01*
X89919396Y-127834739D01*
X89973800Y-127878579D01*
X89995865Y-127944873D01*
X89978586Y-128012573D01*
X89927449Y-128060184D01*
X89871944Y-128073300D01*
X77906960Y-128073300D01*
X77893078Y-128072520D01*
X77845085Y-128067112D01*
X77769356Y-128058580D01*
X77742285Y-128052401D01*
X77631379Y-128013593D01*
X77606363Y-128001546D01*
X77506873Y-127939033D01*
X77485163Y-127921720D01*
X77402079Y-127838636D01*
X77384766Y-127816926D01*
X77322251Y-127717432D01*
X77310208Y-127692424D01*
X77271397Y-127581510D01*
X77265220Y-127554446D01*
X77251280Y-127430722D01*
X77250500Y-127416839D01*
X77250500Y-120904110D01*
X77250500Y-120904108D01*
X77216392Y-120776814D01*
X77175624Y-120706202D01*
X77159152Y-120638305D01*
X77168450Y-120596755D01*
X77202051Y-120515635D01*
X77225647Y-120397011D01*
X77240500Y-120322343D01*
X77240500Y-120125256D01*
X77202052Y-119931970D01*
X77202051Y-119931969D01*
X77202051Y-119931965D01*
X77198778Y-119924063D01*
X77126635Y-119749892D01*
X77126633Y-119749888D01*
X77126632Y-119749886D01*
X77099137Y-119708737D01*
X77071711Y-119667691D01*
X77050833Y-119601014D01*
X77069317Y-119533634D01*
X77071711Y-119529909D01*
X77096172Y-119493300D01*
X77126632Y-119447714D01*
X77202051Y-119265635D01*
X77228154Y-119134409D01*
X77240500Y-119072343D01*
X77240500Y-118875256D01*
X77202052Y-118681970D01*
X77202051Y-118681969D01*
X77202051Y-118681965D01*
X77202049Y-118681960D01*
X77126635Y-118499892D01*
X77126633Y-118499888D01*
X77126632Y-118499886D01*
X77116166Y-118484223D01*
X77071711Y-118417691D01*
X77050833Y-118351014D01*
X77069317Y-118283634D01*
X77071711Y-118279909D01*
X77098845Y-118239300D01*
X77126632Y-118197714D01*
X77129136Y-118191670D01*
X77155108Y-118128967D01*
X77202051Y-118015635D01*
X77223640Y-117907101D01*
X77240500Y-117822343D01*
X77240500Y-117625256D01*
X77240499Y-117625251D01*
X77202052Y-117431971D01*
X77202051Y-117431967D01*
X77202051Y-117431965D01*
X77167533Y-117348631D01*
X77160065Y-117279165D01*
X77174706Y-117239187D01*
X77216392Y-117166986D01*
X77250500Y-117039692D01*
X77250500Y-113015057D01*
X77270185Y-112948018D01*
X77322989Y-112902263D01*
X77392147Y-112892319D01*
X77421950Y-112900495D01*
G37*
%TD.AperFunction*%
%TA.AperFunction,NonConductor*%
G36*
X132642539Y-74728985D02*
G01*
X132688294Y-74781789D01*
X132699500Y-74833300D01*
X132699500Y-143724300D01*
X132679815Y-143791339D01*
X132627011Y-143837094D01*
X132575500Y-143848300D01*
X119863903Y-143848300D01*
X119796864Y-143828615D01*
X119751109Y-143775811D01*
X119741165Y-143706653D01*
X119742286Y-143700108D01*
X119760500Y-143608543D01*
X119760500Y-143411456D01*
X119722052Y-143218170D01*
X119722051Y-143218169D01*
X119722051Y-143218165D01*
X119709623Y-143188160D01*
X119646635Y-143036092D01*
X119646628Y-143036079D01*
X119561643Y-142908891D01*
X119540765Y-142842214D01*
X119559249Y-142774834D01*
X119561643Y-142771109D01*
X119646628Y-142643920D01*
X119646628Y-142643919D01*
X119646632Y-142643914D01*
X119722051Y-142461835D01*
X119760500Y-142268541D01*
X119760500Y-142071459D01*
X119760500Y-142071456D01*
X119722052Y-141878170D01*
X119722051Y-141878169D01*
X119722051Y-141878165D01*
X119709623Y-141848160D01*
X119646635Y-141696092D01*
X119646633Y-141696088D01*
X119646632Y-141696086D01*
X119626589Y-141666089D01*
X119585029Y-141603891D01*
X119564151Y-141537214D01*
X119582635Y-141469834D01*
X119585029Y-141466109D01*
X119605074Y-141436109D01*
X119646632Y-141373914D01*
X119722051Y-141191835D01*
X119760500Y-140998541D01*
X119760500Y-140801459D01*
X119760500Y-140801456D01*
X119722052Y-140608170D01*
X119722051Y-140608169D01*
X119722051Y-140608165D01*
X119709623Y-140578160D01*
X119646635Y-140426092D01*
X119646628Y-140426079D01*
X119578348Y-140323891D01*
X119557470Y-140257213D01*
X119575955Y-140189833D01*
X119578348Y-140186109D01*
X119646628Y-140083920D01*
X119646629Y-140083918D01*
X119646632Y-140083914D01*
X119722051Y-139901835D01*
X119760500Y-139708541D01*
X119760500Y-139511459D01*
X119760500Y-139511456D01*
X119722052Y-139318170D01*
X119722051Y-139318169D01*
X119722051Y-139318165D01*
X119709623Y-139288160D01*
X119646635Y-139136092D01*
X119646628Y-139136079D01*
X119561643Y-139008891D01*
X119540765Y-138942214D01*
X119559249Y-138874834D01*
X119561643Y-138871109D01*
X119646628Y-138743920D01*
X119646628Y-138743919D01*
X119646632Y-138743914D01*
X119722051Y-138561835D01*
X119760500Y-138368541D01*
X119760500Y-138171459D01*
X119760500Y-138171456D01*
X119760499Y-138171454D01*
X119745897Y-138098042D01*
X119752124Y-138028451D01*
X119794987Y-137973273D01*
X119860877Y-137950029D01*
X119867516Y-137949851D01*
X123134060Y-137950487D01*
X123134108Y-137950500D01*
X123198977Y-137950500D01*
X123210113Y-137950502D01*
X123265790Y-137950513D01*
X123265790Y-137950512D01*
X123265795Y-137950513D01*
X123265800Y-137950511D01*
X123265887Y-137950500D01*
X123265892Y-137950500D01*
X123327947Y-137933872D01*
X123327947Y-137933874D01*
X123327963Y-137933867D01*
X123393095Y-137916430D01*
X123393101Y-137916426D01*
X123393125Y-137916420D01*
X123393157Y-137916407D01*
X123393180Y-137916393D01*
X123393186Y-137916392D01*
X123449319Y-137883982D01*
X123449338Y-137883978D01*
X123449336Y-137883974D01*
X123467076Y-137873735D01*
X123507236Y-137850560D01*
X123507240Y-137850555D01*
X123507276Y-137850535D01*
X123507280Y-137850532D01*
X123507309Y-137850502D01*
X123507314Y-137850500D01*
X123553838Y-137803976D01*
X123600440Y-137757392D01*
X123600447Y-137757378D01*
X123600487Y-137757325D01*
X123600500Y-137757314D01*
X123633874Y-137699507D01*
X123666144Y-137643639D01*
X123666372Y-137643254D01*
X123666389Y-137643190D01*
X123666392Y-137643186D01*
X123678737Y-137597112D01*
X123683817Y-137578156D01*
X123683822Y-137578137D01*
X123690488Y-137553276D01*
X123700487Y-137515989D01*
X123700487Y-137515986D01*
X123700500Y-137515891D01*
X123700500Y-137450097D01*
X123700513Y-137384205D01*
X123700500Y-137384156D01*
X123700500Y-120904108D01*
X123666392Y-120776814D01*
X123663984Y-120772644D01*
X123654494Y-120756206D01*
X123600500Y-120662686D01*
X123507314Y-120569500D01*
X123426161Y-120522646D01*
X123393187Y-120503608D01*
X123318283Y-120483538D01*
X123265892Y-120469500D01*
X123265891Y-120469500D01*
X119880334Y-120469500D01*
X119813295Y-120449815D01*
X119767540Y-120397011D01*
X119757596Y-120327853D01*
X119758716Y-120321310D01*
X119760048Y-120314614D01*
X119760500Y-120312341D01*
X119760500Y-120115259D01*
X119760500Y-120115256D01*
X119722052Y-119921970D01*
X119722051Y-119921969D01*
X119722051Y-119921965D01*
X119719009Y-119914621D01*
X119646635Y-119739892D01*
X119646633Y-119739888D01*
X119646632Y-119739886D01*
X119602649Y-119674061D01*
X119591711Y-119657691D01*
X119570833Y-119591014D01*
X119589317Y-119523634D01*
X119591711Y-119519909D01*
X119623716Y-119472010D01*
X119646632Y-119437714D01*
X119722051Y-119255635D01*
X119737456Y-119178190D01*
X119760500Y-119062343D01*
X119760500Y-118865256D01*
X119722052Y-118671970D01*
X119722051Y-118671969D01*
X119722051Y-118671965D01*
X119682839Y-118577297D01*
X119646635Y-118489892D01*
X119646633Y-118489888D01*
X119646632Y-118489886D01*
X119615504Y-118443300D01*
X119591711Y-118407691D01*
X119570833Y-118341014D01*
X119589317Y-118273634D01*
X119591711Y-118269909D01*
X119628006Y-118215589D01*
X119646632Y-118187714D01*
X119722051Y-118005635D01*
X119740448Y-117913147D01*
X119760500Y-117812343D01*
X119760500Y-117615257D01*
X119759950Y-117612493D01*
X119760082Y-117611014D01*
X119759903Y-117609194D01*
X119760248Y-117609160D01*
X119766177Y-117542901D01*
X119809039Y-117487723D01*
X119874929Y-117464478D01*
X119881567Y-117464300D01*
X123265890Y-117464300D01*
X123265892Y-117464300D01*
X123393186Y-117430192D01*
X123507314Y-117364300D01*
X123600500Y-117271114D01*
X123666392Y-117156986D01*
X123700500Y-117029692D01*
X123700500Y-101177908D01*
X123666392Y-101050614D01*
X123600500Y-100936486D01*
X123507314Y-100843300D01*
X123439832Y-100804339D01*
X123393187Y-100777408D01*
X123329539Y-100760354D01*
X123265892Y-100743300D01*
X123265891Y-100743300D01*
X119881567Y-100743300D01*
X119814528Y-100723615D01*
X119768773Y-100670811D01*
X119758829Y-100601653D01*
X119759950Y-100595107D01*
X119760500Y-100592342D01*
X119760500Y-100395256D01*
X119722052Y-100201970D01*
X119722051Y-100201969D01*
X119722051Y-100201965D01*
X119707747Y-100167432D01*
X119646635Y-100019892D01*
X119646633Y-100019888D01*
X119646632Y-100019886D01*
X119635476Y-100003190D01*
X119591711Y-99937691D01*
X119570833Y-99871014D01*
X119589317Y-99803634D01*
X119591711Y-99799909D01*
X119608810Y-99774318D01*
X119646632Y-99717714D01*
X119722051Y-99535635D01*
X119746331Y-99413573D01*
X119760500Y-99342343D01*
X119760500Y-99145256D01*
X119722052Y-98951970D01*
X119722051Y-98951969D01*
X119722051Y-98951965D01*
X119683367Y-98858573D01*
X119646635Y-98769892D01*
X119646633Y-98769888D01*
X119646632Y-98769886D01*
X119619801Y-98729731D01*
X119591711Y-98687691D01*
X119570833Y-98621014D01*
X119589317Y-98553634D01*
X119591711Y-98549909D01*
X119618742Y-98509454D01*
X119646632Y-98467714D01*
X119722051Y-98285635D01*
X119742859Y-98181029D01*
X119760500Y-98092343D01*
X119760500Y-97895258D01*
X119759194Y-97888693D01*
X119765420Y-97819102D01*
X119808282Y-97763924D01*
X119874172Y-97740678D01*
X119880811Y-97740500D01*
X123265890Y-97740500D01*
X123265892Y-97740500D01*
X123393186Y-97706392D01*
X123507314Y-97640500D01*
X123600500Y-97547314D01*
X123666392Y-97433186D01*
X123700500Y-97305892D01*
X123700500Y-89709662D01*
X123720185Y-89642623D01*
X123736819Y-89621981D01*
X123765000Y-89593800D01*
X123765000Y-74833300D01*
X123784685Y-74766261D01*
X123837489Y-74720506D01*
X123889000Y-74709300D01*
X132575500Y-74709300D01*
X132642539Y-74728985D01*
G37*
%TD.AperFunction*%
%TA.AperFunction,NonConductor*%
G36*
X117652596Y-137949420D02*
G01*
X117719631Y-137969118D01*
X117765375Y-138021930D01*
X117775305Y-138091091D01*
X117774189Y-138097610D01*
X117765468Y-138141454D01*
X117759500Y-138171459D01*
X117759500Y-138368541D01*
X117759500Y-138368543D01*
X117759499Y-138368543D01*
X117797947Y-138561829D01*
X117797950Y-138561839D01*
X117873364Y-138743907D01*
X117873371Y-138743920D01*
X117958356Y-138871109D01*
X117979234Y-138937787D01*
X117960749Y-139005167D01*
X117958356Y-139008891D01*
X117873371Y-139136079D01*
X117873364Y-139136092D01*
X117797950Y-139318160D01*
X117797947Y-139318170D01*
X117759500Y-139511456D01*
X117759500Y-139511459D01*
X117759500Y-139708541D01*
X117759500Y-139708543D01*
X117759499Y-139708543D01*
X117797947Y-139901829D01*
X117797950Y-139901839D01*
X117873364Y-140083907D01*
X117873370Y-140083918D01*
X117941652Y-140186110D01*
X117962529Y-140252787D01*
X117944044Y-140320167D01*
X117941652Y-140323890D01*
X117873370Y-140426081D01*
X117873364Y-140426092D01*
X117797950Y-140608160D01*
X117797947Y-140608170D01*
X117759500Y-140801456D01*
X117759500Y-140801459D01*
X117759500Y-140998541D01*
X117759500Y-140998543D01*
X117759499Y-140998543D01*
X117797947Y-141191829D01*
X117797950Y-141191839D01*
X117873365Y-141373907D01*
X117873368Y-141373914D01*
X117914925Y-141436109D01*
X117934971Y-141466110D01*
X117955848Y-141532787D01*
X117937363Y-141600167D01*
X117934971Y-141603890D01*
X117873366Y-141696089D01*
X117797950Y-141878160D01*
X117797947Y-141878170D01*
X117759500Y-142071456D01*
X117759500Y-142071459D01*
X117759500Y-142268541D01*
X117759500Y-142268543D01*
X117759499Y-142268543D01*
X117797947Y-142461829D01*
X117797950Y-142461839D01*
X117873364Y-142643907D01*
X117873371Y-142643920D01*
X117958356Y-142771109D01*
X117979234Y-142837787D01*
X117960749Y-142905167D01*
X117958356Y-142908891D01*
X117873371Y-143036079D01*
X117873364Y-143036092D01*
X117797950Y-143218160D01*
X117797947Y-143218170D01*
X117759500Y-143411456D01*
X117759500Y-143411459D01*
X117759500Y-143608541D01*
X117759500Y-143608543D01*
X117759499Y-143608543D01*
X117777714Y-143700108D01*
X117771487Y-143769700D01*
X117728624Y-143824877D01*
X117662735Y-143848122D01*
X117656097Y-143848300D01*
X77337936Y-143848300D01*
X77270897Y-143828615D01*
X77225142Y-143775811D01*
X77215198Y-143706653D01*
X77216319Y-143700109D01*
X77240499Y-143578545D01*
X77240500Y-143578543D01*
X77240500Y-143381456D01*
X77202052Y-143188170D01*
X77202051Y-143188169D01*
X77202051Y-143188165D01*
X77139061Y-143036092D01*
X77126635Y-143006092D01*
X77126628Y-143006079D01*
X77041643Y-142878891D01*
X77020765Y-142812214D01*
X77039249Y-142744834D01*
X77041643Y-142741109D01*
X77126628Y-142613920D01*
X77126628Y-142613919D01*
X77126632Y-142613914D01*
X77202051Y-142431835D01*
X77240500Y-142238541D01*
X77240500Y-142041459D01*
X77240500Y-142041456D01*
X77202052Y-141848170D01*
X77202051Y-141848169D01*
X77202051Y-141848165D01*
X77139060Y-141696089D01*
X77126635Y-141666092D01*
X77126633Y-141666088D01*
X77126632Y-141666086D01*
X77065029Y-141573891D01*
X77044151Y-141507214D01*
X77062635Y-141439834D01*
X77065029Y-141436109D01*
X77106591Y-141373907D01*
X77126632Y-141343914D01*
X77202051Y-141161835D01*
X77240500Y-140968541D01*
X77240500Y-140771459D01*
X77240500Y-140771456D01*
X77202052Y-140578170D01*
X77202051Y-140578169D01*
X77202051Y-140578165D01*
X77139061Y-140426092D01*
X77126635Y-140396092D01*
X77126628Y-140396079D01*
X77058348Y-140293891D01*
X77037470Y-140227213D01*
X77055955Y-140159833D01*
X77058348Y-140156109D01*
X77126628Y-140053920D01*
X77126629Y-140053918D01*
X77126632Y-140053914D01*
X77202051Y-139871835D01*
X77240500Y-139678541D01*
X77240500Y-139481459D01*
X77240500Y-139481456D01*
X77202052Y-139288170D01*
X77202051Y-139288169D01*
X77202051Y-139288165D01*
X77139061Y-139136092D01*
X77126635Y-139106092D01*
X77126628Y-139106079D01*
X77041643Y-138978891D01*
X77020765Y-138912214D01*
X77039249Y-138844834D01*
X77041643Y-138841109D01*
X77126628Y-138713920D01*
X77126628Y-138713919D01*
X77126632Y-138713914D01*
X77202051Y-138531835D01*
X77240500Y-138338541D01*
X77240500Y-138141459D01*
X77240500Y-138141456D01*
X77240499Y-138141454D01*
X77230219Y-138089770D01*
X77236446Y-138020179D01*
X77279309Y-137965001D01*
X77345199Y-137941757D01*
X77351834Y-137941579D01*
X117652596Y-137949420D01*
G37*
%TD.AperFunction*%
%TA.AperFunction,NonConductor*%
G36*
X75197646Y-74728985D02*
G01*
X75243401Y-74781789D01*
X75253345Y-74850947D01*
X75252224Y-74857492D01*
X75239500Y-74921456D01*
X75239500Y-74921459D01*
X75239500Y-75118541D01*
X75239500Y-75118543D01*
X75239499Y-75118543D01*
X75277947Y-75311829D01*
X75277950Y-75311839D01*
X75353364Y-75493907D01*
X75353371Y-75493920D01*
X75418311Y-75591109D01*
X75439189Y-75657787D01*
X75420704Y-75725167D01*
X75418311Y-75728891D01*
X75353371Y-75826079D01*
X75353364Y-75826092D01*
X75277950Y-76008160D01*
X75277947Y-76008170D01*
X75239500Y-76201456D01*
X75239500Y-76201459D01*
X75239500Y-76398541D01*
X75239500Y-76398543D01*
X75239499Y-76398543D01*
X75277947Y-76591829D01*
X75277950Y-76591839D01*
X75353364Y-76773907D01*
X75353370Y-76773918D01*
X75421652Y-76876110D01*
X75442529Y-76942787D01*
X75424044Y-77010167D01*
X75421652Y-77013890D01*
X75353370Y-77116081D01*
X75353364Y-77116092D01*
X75277950Y-77298160D01*
X75277947Y-77298170D01*
X75239500Y-77491456D01*
X75239500Y-77491459D01*
X75239500Y-77688541D01*
X75239500Y-77688543D01*
X75239499Y-77688543D01*
X75277947Y-77881829D01*
X75277950Y-77881839D01*
X75353366Y-78063910D01*
X75353368Y-78063914D01*
X75397352Y-78129740D01*
X75414971Y-78156110D01*
X75435848Y-78222787D01*
X75417363Y-78290167D01*
X75414971Y-78293890D01*
X75353366Y-78386089D01*
X75277950Y-78568160D01*
X75277947Y-78568170D01*
X75239500Y-78761456D01*
X75239500Y-78761459D01*
X75239500Y-78958541D01*
X75239500Y-78958543D01*
X75239499Y-78958543D01*
X75277947Y-79151829D01*
X75277950Y-79151839D01*
X75353364Y-79333907D01*
X75353371Y-79333920D01*
X75438356Y-79461109D01*
X75459234Y-79527787D01*
X75440749Y-79595167D01*
X75438356Y-79598891D01*
X75353371Y-79726079D01*
X75353364Y-79726092D01*
X75277950Y-79908160D01*
X75277947Y-79908170D01*
X75239500Y-80101456D01*
X75239500Y-80235500D01*
X75219815Y-80302539D01*
X75167011Y-80348294D01*
X75115500Y-80359500D01*
X71734108Y-80359500D01*
X71606812Y-80393608D01*
X71492686Y-80459500D01*
X71492683Y-80459502D01*
X71399502Y-80552683D01*
X71399500Y-80552686D01*
X71333608Y-80666812D01*
X71299500Y-80794108D01*
X71299500Y-97184108D01*
X71299500Y-97315892D01*
X71304668Y-97335180D01*
X71333608Y-97443187D01*
X71351420Y-97474037D01*
X71399500Y-97557314D01*
X71492686Y-97650500D01*
X71589492Y-97706391D01*
X71599156Y-97711971D01*
X71606814Y-97716392D01*
X71734108Y-97750500D01*
X75119189Y-97750500D01*
X75186228Y-97770185D01*
X75231983Y-97822989D01*
X75241927Y-97892147D01*
X75240806Y-97898693D01*
X75239501Y-97905256D01*
X75239500Y-97905259D01*
X75239500Y-98102341D01*
X75239500Y-98102343D01*
X75239499Y-98102343D01*
X75277947Y-98295629D01*
X75277950Y-98295639D01*
X75353364Y-98477706D01*
X75353370Y-98477717D01*
X75408289Y-98559910D01*
X75429166Y-98626588D01*
X75410681Y-98693968D01*
X75408289Y-98697690D01*
X75353370Y-98779882D01*
X75353364Y-98779893D01*
X75277950Y-98961960D01*
X75277947Y-98961970D01*
X75239500Y-99155256D01*
X75239500Y-99155259D01*
X75239500Y-99352341D01*
X75239500Y-99352343D01*
X75239499Y-99352343D01*
X75277947Y-99545629D01*
X75277950Y-99545639D01*
X75353364Y-99727706D01*
X75353370Y-99727717D01*
X75408289Y-99809910D01*
X75429166Y-99876588D01*
X75410681Y-99943968D01*
X75408289Y-99947690D01*
X75353370Y-100029882D01*
X75353364Y-100029893D01*
X75277950Y-100211960D01*
X75277947Y-100211970D01*
X75239500Y-100405256D01*
X75239500Y-100602342D01*
X75240050Y-100605107D01*
X75239917Y-100606585D01*
X75240097Y-100608406D01*
X75239751Y-100608439D01*
X75233823Y-100674699D01*
X75190961Y-100729877D01*
X75125071Y-100753122D01*
X75118433Y-100753300D01*
X71734108Y-100753300D01*
X71606812Y-100787408D01*
X71492686Y-100853300D01*
X71492683Y-100853302D01*
X71399502Y-100946483D01*
X71399500Y-100946486D01*
X71333608Y-101060612D01*
X71303759Y-101172013D01*
X71299500Y-101187908D01*
X71299500Y-116907908D01*
X71299500Y-117039692D01*
X71312287Y-117087415D01*
X71333608Y-117166987D01*
X71344555Y-117185947D01*
X71399500Y-117281114D01*
X71492686Y-117374300D01*
X71606814Y-117440192D01*
X71734108Y-117474300D01*
X75118433Y-117474300D01*
X75185472Y-117493985D01*
X75231227Y-117546789D01*
X75241171Y-117615947D01*
X75240050Y-117622493D01*
X75239501Y-117625251D01*
X75239500Y-117625256D01*
X75239500Y-117625259D01*
X75239500Y-117822341D01*
X75239500Y-117822343D01*
X75239499Y-117822343D01*
X75277947Y-118015629D01*
X75277950Y-118015639D01*
X75353364Y-118197706D01*
X75353370Y-118197717D01*
X75408289Y-118279910D01*
X75429166Y-118346588D01*
X75410681Y-118413968D01*
X75408289Y-118417690D01*
X75353370Y-118499882D01*
X75353364Y-118499893D01*
X75277950Y-118681960D01*
X75277947Y-118681970D01*
X75239500Y-118875256D01*
X75239500Y-118875259D01*
X75239500Y-119072341D01*
X75239500Y-119072343D01*
X75239499Y-119072343D01*
X75277947Y-119265629D01*
X75277950Y-119265639D01*
X75353364Y-119447706D01*
X75353370Y-119447717D01*
X75408289Y-119529910D01*
X75429166Y-119596588D01*
X75410681Y-119663968D01*
X75408289Y-119667690D01*
X75353370Y-119749882D01*
X75353364Y-119749893D01*
X75277950Y-119931960D01*
X75277947Y-119931970D01*
X75239500Y-120125256D01*
X75239500Y-120322343D01*
X75240097Y-120328406D01*
X75238646Y-120328548D01*
X75233067Y-120390901D01*
X75190203Y-120446078D01*
X75124313Y-120469322D01*
X75117677Y-120469500D01*
X71734108Y-120469500D01*
X71606812Y-120503608D01*
X71492686Y-120569500D01*
X71492683Y-120569502D01*
X71399502Y-120662683D01*
X71399500Y-120662686D01*
X71333608Y-120776812D01*
X71308937Y-120868888D01*
X71299500Y-120904108D01*
X71299500Y-137439903D01*
X71299487Y-137505795D01*
X71299500Y-137505843D01*
X71299500Y-137505892D01*
X71300453Y-137509452D01*
X71300454Y-137509454D01*
X71316121Y-137567925D01*
X71316124Y-137567947D01*
X71316127Y-137567947D01*
X71333570Y-137633095D01*
X71333572Y-137633098D01*
X71333608Y-137633187D01*
X71366015Y-137689317D01*
X71366021Y-137689339D01*
X71366026Y-137689337D01*
X71380156Y-137713822D01*
X71399440Y-137747236D01*
X71399443Y-137747239D01*
X71399504Y-137747319D01*
X71446023Y-137793837D01*
X71446024Y-137793838D01*
X71492608Y-137840440D01*
X71492610Y-137840441D01*
X71492681Y-137840495D01*
X71492686Y-137840500D01*
X71550492Y-137873874D01*
X71568358Y-137884194D01*
X71606714Y-137906349D01*
X71606723Y-137906354D01*
X71606731Y-137906356D01*
X71606801Y-137906384D01*
X71606814Y-137906392D01*
X71671841Y-137923816D01*
X71671861Y-137923828D01*
X71671863Y-137923822D01*
X71688528Y-137928290D01*
X71734011Y-137940487D01*
X71734017Y-137940487D01*
X71734102Y-137940498D01*
X71734108Y-137940500D01*
X71734113Y-137940500D01*
X71800829Y-137940500D01*
X75128275Y-137941147D01*
X75195310Y-137960845D01*
X75241054Y-138013657D01*
X75250984Y-138082818D01*
X75249867Y-138089339D01*
X75239500Y-138141456D01*
X75239500Y-138141459D01*
X75239500Y-138338541D01*
X75239500Y-138338543D01*
X75239499Y-138338543D01*
X75277947Y-138531829D01*
X75277950Y-138531839D01*
X75353364Y-138713907D01*
X75353371Y-138713920D01*
X75438356Y-138841109D01*
X75459234Y-138907787D01*
X75440749Y-138975167D01*
X75438356Y-138978891D01*
X75353371Y-139106079D01*
X75353364Y-139106092D01*
X75277950Y-139288160D01*
X75277947Y-139288170D01*
X75239500Y-139481456D01*
X75239500Y-139481459D01*
X75239500Y-139678541D01*
X75239500Y-139678543D01*
X75239499Y-139678543D01*
X75277947Y-139871829D01*
X75277950Y-139871839D01*
X75353364Y-140053907D01*
X75353370Y-140053918D01*
X75421652Y-140156110D01*
X75442529Y-140222787D01*
X75424044Y-140290167D01*
X75421652Y-140293890D01*
X75353370Y-140396081D01*
X75353364Y-140396092D01*
X75277950Y-140578160D01*
X75277947Y-140578170D01*
X75239500Y-140771456D01*
X75239500Y-140771459D01*
X75239500Y-140968541D01*
X75239500Y-140968543D01*
X75239499Y-140968543D01*
X75277947Y-141161829D01*
X75277950Y-141161839D01*
X75353365Y-141343907D01*
X75353368Y-141343914D01*
X75373417Y-141373919D01*
X75414971Y-141436110D01*
X75435848Y-141502787D01*
X75417363Y-141570167D01*
X75414971Y-141573890D01*
X75353366Y-141666089D01*
X75277950Y-141848160D01*
X75277947Y-141848170D01*
X75239500Y-142041456D01*
X75239500Y-142041459D01*
X75239500Y-142238541D01*
X75239500Y-142238543D01*
X75239499Y-142238543D01*
X75277947Y-142431829D01*
X75277950Y-142431839D01*
X75353364Y-142613907D01*
X75353371Y-142613920D01*
X75438356Y-142741109D01*
X75459234Y-142807787D01*
X75440749Y-142875167D01*
X75438356Y-142878891D01*
X75353371Y-143006079D01*
X75353364Y-143006092D01*
X75277950Y-143188160D01*
X75277947Y-143188170D01*
X75239500Y-143381456D01*
X75239500Y-143578545D01*
X75263681Y-143700109D01*
X75257454Y-143769700D01*
X75214591Y-143824877D01*
X75148701Y-143848122D01*
X75142064Y-143848300D01*
X62939500Y-143848300D01*
X62872461Y-143828615D01*
X62826706Y-143775811D01*
X62815500Y-143724300D01*
X62815500Y-74833300D01*
X62835185Y-74766261D01*
X62887989Y-74720506D01*
X62939500Y-74709300D01*
X75130607Y-74709300D01*
X75197646Y-74728985D01*
G37*
%TD.AperFunction*%
M02*
