%TF.GenerationSoftware,KiCad,Pcbnew,9.0.3*%
%TF.CreationDate,2025-09-17T23:32:25+02:00*%
%TF.ProjectId,Wear Camera,57656172-2043-4616-9d65-72612e6b6963,rev?*%
%TF.SameCoordinates,Original*%
%TF.FileFunction,Legend,Bot*%
%TF.FilePolarity,Positive*%
%FSLAX46Y46*%
G04 Gerber Fmt 4.6, Leading zero omitted, Abs format (unit mm)*
G04 Created by KiCad (PCBNEW 9.0.3) date 2025-09-17 23:32:25*
%MOMM*%
%LPD*%
G01*
G04 APERTURE LIST*
%ADD10C,0.150000*%
%ADD11C,0.120000*%
%ADD12C,0.100000*%
%ADD13C,0.127000*%
%ADD14C,0.152400*%
G04 APERTURE END LIST*
D10*
X117751904Y-118730619D02*
X117180476Y-118730619D01*
X117466190Y-119730619D02*
X117466190Y-118730619D01*
X116847142Y-119730619D02*
X116847142Y-118730619D01*
X116847142Y-118730619D02*
X116466190Y-118730619D01*
X116466190Y-118730619D02*
X116370952Y-118778238D01*
X116370952Y-118778238D02*
X116323333Y-118825857D01*
X116323333Y-118825857D02*
X116275714Y-118921095D01*
X116275714Y-118921095D02*
X116275714Y-119063952D01*
X116275714Y-119063952D02*
X116323333Y-119159190D01*
X116323333Y-119159190D02*
X116370952Y-119206809D01*
X116370952Y-119206809D02*
X116466190Y-119254428D01*
X116466190Y-119254428D02*
X116847142Y-119254428D01*
X115894761Y-118825857D02*
X115847142Y-118778238D01*
X115847142Y-118778238D02*
X115751904Y-118730619D01*
X115751904Y-118730619D02*
X115513809Y-118730619D01*
X115513809Y-118730619D02*
X115418571Y-118778238D01*
X115418571Y-118778238D02*
X115370952Y-118825857D01*
X115370952Y-118825857D02*
X115323333Y-118921095D01*
X115323333Y-118921095D02*
X115323333Y-119016333D01*
X115323333Y-119016333D02*
X115370952Y-119159190D01*
X115370952Y-119159190D02*
X115942380Y-119730619D01*
X115942380Y-119730619D02*
X115323333Y-119730619D01*
D11*
%TO.C,R25*%
X79827064Y-108108800D02*
X79372936Y-108108800D01*
X79827064Y-109578800D02*
X79372936Y-109578800D01*
%TO.C,U1*%
X84840000Y-104933800D02*
X86100000Y-104933800D01*
X84840000Y-108693800D02*
X84840000Y-104933800D01*
X91660000Y-104933800D02*
X90400000Y-104933800D01*
X91660000Y-108693800D02*
X91660000Y-104933800D01*
X91890000Y-110213800D02*
X91560000Y-109973800D01*
X91890000Y-109733800D01*
X91890000Y-110213800D01*
G36*
X91890000Y-110213800D02*
G01*
X91560000Y-109973800D01*
X91890000Y-109733800D01*
X91890000Y-110213800D01*
G37*
%TO.C,R24*%
X79827064Y-105858800D02*
X79372936Y-105858800D01*
X79827064Y-107328800D02*
X79372936Y-107328800D01*
%TO.C,R4*%
X108970000Y-99547441D02*
X108970000Y-99240159D01*
X109730000Y-99547441D02*
X109730000Y-99240159D01*
%TO.C,R11*%
X80896359Y-124913800D02*
X81203641Y-124913800D01*
X80896359Y-125673800D02*
X81203641Y-125673800D01*
%TO.C,R5*%
X103786359Y-105063800D02*
X104093641Y-105063800D01*
X103786359Y-105823800D02*
X104093641Y-105823800D01*
%TO.C,C22*%
X83577836Y-109633800D02*
X83362164Y-109633800D01*
X83577836Y-110353800D02*
X83362164Y-110353800D01*
%TO.C,R12*%
X88896359Y-117038800D02*
X89203641Y-117038800D01*
X88896359Y-117798800D02*
X89203641Y-117798800D01*
%TO.C,TP2*%
X115790000Y-120023800D02*
X115790000Y-121423800D01*
X115790000Y-121423800D02*
X117190000Y-121423800D01*
X117190000Y-120023800D02*
X115790000Y-120023800D01*
X117190000Y-121423800D02*
X117190000Y-120023800D01*
%TO.C,R6*%
X101953641Y-105063800D02*
X101646359Y-105063800D01*
X101953641Y-105823800D02*
X101646359Y-105823800D01*
%TO.C,R15*%
X88896359Y-115863800D02*
X89203641Y-115863800D01*
X88896359Y-116623800D02*
X89203641Y-116623800D01*
%TO.C,U6*%
X91490000Y-115743800D02*
X91490000Y-114943800D01*
X91490000Y-115743800D02*
X91490000Y-116543800D01*
X94610000Y-115743800D02*
X94610000Y-114943800D01*
X94610000Y-115743800D02*
X94610000Y-116543800D01*
X91540000Y-114443800D02*
X91210000Y-114683800D01*
X91210000Y-114203800D01*
X91540000Y-114443800D01*
G36*
X91540000Y-114443800D02*
G01*
X91210000Y-114683800D01*
X91210000Y-114203800D01*
X91540000Y-114443800D01*
G37*
%TO.C,R13*%
X89020000Y-98497441D02*
X89020000Y-98190159D01*
X89780000Y-98497441D02*
X89780000Y-98190159D01*
%TO.C,R23*%
X93903641Y-112113800D02*
X93596359Y-112113800D01*
X93903641Y-112873800D02*
X93596359Y-112873800D01*
D12*
%TO.C,D2*%
X89450000Y-95153800D02*
G75*
G02*
X89350000Y-95153800I-50000J0D01*
G01*
X89350000Y-95153800D02*
G75*
G02*
X89450000Y-95153800I50000J0D01*
G01*
D11*
%TO.C,R29*%
X99536359Y-105063800D02*
X99843641Y-105063800D01*
X99536359Y-105823800D02*
X99843641Y-105823800D01*
D13*
%TO.C,BT1*%
X95275000Y-115218800D02*
X95275000Y-120033800D01*
X95275000Y-127288800D02*
X95275000Y-123853800D01*
X95275000Y-127288800D02*
X108485000Y-127288800D01*
X108485000Y-115218800D02*
X95275000Y-115218800D01*
X108485000Y-120033800D02*
X108485000Y-115218800D01*
X108485000Y-127288800D02*
X108485000Y-123853800D01*
D11*
%TO.C,JP1*%
X90600000Y-126593800D02*
X90600000Y-127193800D01*
X91300000Y-127893800D02*
X92700000Y-127893800D01*
X92700000Y-125893800D02*
X91300000Y-125893800D01*
X93400000Y-127193800D02*
X93400000Y-126593800D01*
X90600000Y-126593800D02*
G75*
G02*
X91300000Y-125893800I700000J0D01*
G01*
X91300000Y-127893800D02*
G75*
G02*
X90600000Y-127193800I0J700000D01*
G01*
X92700000Y-125893800D02*
G75*
G02*
X93400000Y-126593800I1J-699999D01*
G01*
X93400000Y-127193800D02*
G75*
G02*
X92700000Y-127893800I-699999J-1D01*
G01*
%TO.C,C15*%
X83040000Y-96171636D02*
X83040000Y-95955964D01*
X83760000Y-96171636D02*
X83760000Y-95955964D01*
%TO.C,JP2*%
X95200000Y-113243800D02*
X95200000Y-113843800D01*
X95900000Y-114543800D02*
X97300000Y-114543800D01*
X97300000Y-112543800D02*
X95900000Y-112543800D01*
X98000000Y-113843800D02*
X98000000Y-113243800D01*
X95200000Y-113243800D02*
G75*
G02*
X95900000Y-112543800I700000J0D01*
G01*
X95900000Y-114543800D02*
G75*
G02*
X95200000Y-113843800I0J700000D01*
G01*
X97300000Y-112543800D02*
G75*
G02*
X98000000Y-113243800I1J-699999D01*
G01*
X98000000Y-113843800D02*
G75*
G02*
X97300000Y-114543800I-699999J-1D01*
G01*
%TO.C,C11*%
X91740000Y-112321636D02*
X91740000Y-112105964D01*
X92460000Y-112321636D02*
X92460000Y-112105964D01*
%TO.C,R2*%
X97753641Y-105063800D02*
X97446359Y-105063800D01*
X97753641Y-105823800D02*
X97446359Y-105823800D01*
%TO.C,R28*%
X81563641Y-116863800D02*
X81256359Y-116863800D01*
X81563641Y-117623800D02*
X81256359Y-117623800D01*
D14*
%TO.C,J3*%
X94664800Y-89926801D02*
X108025200Y-89926801D01*
X94664800Y-90224060D02*
X94664800Y-89926801D01*
X94664800Y-100722360D02*
X94664800Y-93683540D01*
X100396560Y-104227001D02*
X95553340Y-104227001D01*
X104737760Y-104227001D02*
X102103440Y-104227001D01*
X107136660Y-104227001D02*
X106292240Y-104227001D01*
X108025200Y-89926801D02*
X108025200Y-90221660D01*
X108025200Y-92715940D02*
X108025200Y-100722360D01*
D11*
%TO.C,C23*%
X87940000Y-112205964D02*
X87940000Y-112421636D01*
X88660000Y-112205964D02*
X88660000Y-112421636D01*
%TO.C,JP5*%
X79800000Y-122943800D02*
X79800000Y-123543800D01*
X80450000Y-124243800D02*
X83250000Y-124243800D01*
X83050000Y-124443800D02*
X82750000Y-124743800D01*
X83050000Y-124443800D02*
X83350000Y-124743800D01*
X83250000Y-122243800D02*
X80450000Y-122243800D01*
X83350000Y-124743800D02*
X82750000Y-124743800D01*
X83900000Y-123543800D02*
X83900000Y-122943800D01*
X79800000Y-122943800D02*
G75*
G02*
X80500000Y-122243800I700000J0D01*
G01*
X80500000Y-124243800D02*
G75*
G02*
X79800000Y-123543800I0J700000D01*
G01*
X83200000Y-122243800D02*
G75*
G02*
X83900000Y-122943800I1J-699999D01*
G01*
X83900000Y-123543800D02*
G75*
G02*
X83200000Y-124243800I-699999J-1D01*
G01*
%TO.C,R3*%
X96346359Y-106163800D02*
X96653641Y-106163800D01*
X96346359Y-106923800D02*
X96653641Y-106923800D01*
%TD*%
M02*
